<?xml version="1.0" encoding="utf-8"?>
<!-- Generator: Adobe Illustrator 21.1.0, SVG Export Plug-In . SVG Version: 6.00 Build 0)  -->
<svg version="1.1" id="Layer_1" xmlns="http://www.w3.org/2000/svg" xmlns:xlink="http://www.w3.org/1999/xlink" x="0px" y="0px"
	 viewBox="0 0 48 49" style="enable-background:new 0 0 48 49;" xml:space="preserve">
<g>
	<g>
		<g>
			<path  d="M31,22.8H16.6v-7.2c0-1.9,0.8-3.7,2.1-5.1c1.4-1.4,3.2-2.1,5.1-2.1c0,0,0,0,0,0c1.9,0,3.7,0.8,5.1,2.1
				c1.4,1.4,2.1,3.2,2.1,5.1V22.8z M18.6,20.8H29v-5.2c0-1.4-0.5-2.7-1.5-3.7c-1-1-2.3-1.5-3.7-1.5c0,0,0,0,0,0
				c-1.4,0-2.7,0.5-3.7,1.5c-1,1-1.5,2.3-1.5,3.7V20.8z"/>
		</g>
	</g>
</g>
<g>
	<g>
		<g>
			<path  d="M35.2,35.2H12.4V20.8h22.8V35.2z M14.4,33.2h18.8V22.8H14.4V33.2z"/>
		</g>
	</g>
</g>
<g>
	<g>
		<g>
			<path  d="M23.8,48.6c-6.8,0-13.5-3-18.1-8.5l1.5-1.3c6,7.2,15.8,9.7,24.4,6.3c11.2-4.4,16.9-17.3,12.5-28.8
				c-2.1-5.6-6.3-10-11.7-12.4c-5.3-2.3-11.2-2.5-16.5-0.4C4.7,7.9-0.9,20.8,3.4,32.3L1.5,33C-3.2,20.5,3,6.4,15.2,1.6
				C21.1-0.7,27.5-0.5,33.3,2C39.2,4.6,43.7,9.5,46,15.6c4.7,12.5-1.4,26.6-13.7,31.4C29.6,48,26.7,48.6,23.8,48.6z"/>
		</g>
	</g>
</g>
<g>
	<g>
		<g>
			<polygon  points="7.4,48.7 5.4,48.7 5.4,38.4 15.6,38.4 15.6,40.4 7.4,40.4 			"/>
		</g>
	</g>
</g>
</svg>
