<?xml version="1.0" encoding="utf-8"?>
<!-- Generator: Adobe Illustrator 21.1.0, SVG Export Plug-In . SVG Version: 6.00 Build 0)  -->
<svg version="1.1" id="Layer_1" xmlns="http://www.w3.org/2000/svg" xmlns:xlink="http://www.w3.org/1999/xlink" x="0px" y="0px"
	 viewBox="0 0 66.9 61.8" style="enable-background:new 0 0 66.9 61.8;" xml:space="preserve">
<g id="icon-professional" transform="translate(0)">
	<g id="Group_847">
		<g id="Group_845">
			<g id="Group_843">
				<path id="Path_2024" d="M65.7,61.8H1.3c-0.7,0-1.3-0.6-1.3-1.3V11.3C0,10.6,0.6,10,1.3,10h64.3c0.7,0,1.3,0.6,1.3,1.3v49.1
					c0.1,0.7-0.4,1.3-1,1.4C65.8,61.8,65.8,61.8,65.7,61.8z M2.7,59.1h61.7V12.6H2.7L2.7,59.1z"/>
			</g>
			<g id="Group_844">
				<path id="Path_2025" d="M57.3,37.2H9.7c-5.4,0-9.7-4.3-9.7-9.7V11.3C0,10.6,0.6,10,1.3,10h64.3c0.7,0,1.3,0.6,1.3,1.3v16.2
					c0.1,5.3-4.1,9.6-9.4,9.7C57.4,37.2,57.4,37.2,57.3,37.2z M2.7,12.6v14.9c0,3.9,3.1,7,7,7h47.6c3.9,0,7-3.1,7-7V12.6H2.7z"/>
			</g>
		</g>
		<g id="Group_846">
			<path id="Path_2026" d="M44.1,12.6H22.9c-0.7,0-1.3-0.6-1.3-1.3V4.1c0-2.3,1.8-4.1,4.1-4.1h15.6c2.3,0,4.1,1.8,4.1,4.1v7.1
				C45.4,11.9,44.9,12.6,44.1,12.6C44.1,12.6,44.1,12.6,44.1,12.6z M24.3,9.9h18.5V4.1c0-0.8-0.7-1.5-1.5-1.5H25.7
				c-0.8,0-1.5,0.7-1.5,1.5L24.3,9.9L24.3,9.9z"/>
		</g>
	</g>
	<g id="Group_850">
		<g id="Group_848">
			<path id="Path_2027" d="M20.8,45h-6.3c-0.7,0-1.3-0.6-1.3-1.3v-7.8c0-0.7,0.6-1.3,1.3-1.3h6.3c0.7,0,1.3,0.6,1.3,1.3v7.8
				c0.1,0.7-0.4,1.2-1.1,1.3C20.9,45,20.9,45,20.8,45z M15.9,42.3h3.6v-5.1h-3.6V42.3z"/>
		</g>
		<g id="Group_849">
			<path id="Path_2028" d="M52.5,45h-6.3c-0.7,0-1.3-0.6-1.3-1.3v-7.8c0-0.7,0.6-1.3,1.3-1.3h6.3c0.7,0,1.3,0.6,1.3,1.3v7.8
				C53.8,44.4,53.2,45,52.5,45z M47.5,42.3h3.6v-5.1h-3.6V42.3z"/>
		</g>
	</g>
</g>
</svg>
