<svg xmlns="http://www.w3.org/2000/svg" viewBox="0 0 80.1 90.4"><path d="M72 8.3H31.7v15.2h40.1V8.3h.2zm-2.1 13.2H33.8v-11h36l.1 11zM41.303 54.636l20.01-20.011 1.485 1.485-20.01 20.01zM59.3 47.9c-2.9 0-5.2 2.3-5.2 5.2 0 2.9 2.3 5.2 5.2 5.2s5.2-2.3 5.2-5.2c.1-2.8-2.2-5.1-5-5.2h-.2zm0 8.2c-1.8 0-3.2-1.4-3.2-3.2s1.4-3.2 3.2-3.2 3.2 1.4 3.2 3.2c0 1.7-1.4 3.2-3.2 3.2.1 0 0 0 0 0zm-9.8-18.2c0-2.9-2.3-5.2-5.1-5.2h-.1c-2.9 0-5.3 2.3-5.3 5.2 0 2.9 2.4 5.3 5.3 5.3s5.2-2.4 5.2-5.3zm-8.3 0c0-1.8 1.4-3.2 3.2-3.2s3.2 1.4 3.2 3.2-1.4 3.2-3.2 3.2c-1.7 0-3.2-1.4-3.2-3.2 0 .1 0 0 0 0zm-23.7 8.9v-3c1-.2 2-.6 2.8-1.2 1.9-1.4 2.3-4.1.8-6-.2-.3-.5-.6-.8-.8-1-.9-2.3-1.4-3.7-1.4-.8 0-1.7-.2-2.3-.8-.6-.5-.9-1.2-1-1.9 0-.8.4-1.5 1-1.9 1.4-1.1 3.4-1.1 4.8 0 .6.5.9 1.2 1 1.9h2.1c0-1.3-.7-2.6-1.7-3.4-.8-.7-1.8-1.1-2.8-1.2v-3h-2.1v3c-1 .2-2 .6-2.8 1.2-1.9 1.4-2.3 4.1-.8 6 .2.3.5.6.8.8 1 .9 2.3 1.4 3.7 1.4.8 0 1.7.2 2.3.8.6.5.9 1.2 1 1.9 0 .8-.4 1.5-1 1.9-1.4 1.1-3.4 1.1-4.8 0-.6-.5-.9-1.2-1-1.9h-2c0 1.3.7 2.6 1.7 3.4.8.7 1.8 1.1 2.8 1.2v3h2z"/><path d="M24.3 49.7v19.2h55.2V0H24.3v21c-2.4-1.3-5.2-1.9-7.9-1.9C7.3 19.1 0 26.4 0 35.5s7.3 16.4 16.4 16.4c2.8-.2 5.5-.9 7.9-2.2zm2-47.6h50.9v64.7H26.3V48.3c7.2-5.4 8.6-15.6 3.3-22.8-.9-1.2-2-2.3-3.3-3.3V2.1zM2.2 35.3C2.2 27.4 8.7 21 16.6 21c7.9.1 14.3 6.5 14.2 14.4-.1 7.9-6.5 14.3-14.4 14.2-7.9-.1-14.2-6.4-14.2-14.3zm73.1 39.5h-4.6v-2.3h-2.1v2.3h-2.5v-2.3H64v2.3H16l-7.4 3.7c-.4.2-.7.6-.7 1.1 0 .5.3.9.7 1.1l7.4 3.7h48.1v3.9H42.6v2.1h28.3v-5.9h4.4c2.7 0 4.8-2.2 4.8-4.9 0-2.6-2.1-4.8-4.8-4.8zm-6.6 2v5.5h-2.5v-5.5h2.5zM11 79.6l5.4-2.8h1.2v5.5h-1.2L11 79.6zm8.7 2.8v-5.5h44.4v5.5H19.7zm49 5.9h-2.5v-3.9h2.5v3.9zm6.6-5.9h-4.6v-5.5h4.6c1.5 0 2.8 1.3 2.8 2.8 0 1.5-1.2 2.7-2.8 2.7.1 0 0 0 0 0z"/></svg>