<svg xmlns="http://www.w3.org/2000/svg" viewBox="0 0 215 215"><path d="M107.5 215c-7.3 0-14.5-.7-21.7-2.2-6.9-1.4-13.7-3.5-20.2-6.3-6.4-2.7-12.5-6-18.3-9.9-5.7-3.9-11-8.3-15.9-13.1-4.9-4.9-9.3-10.2-13.1-15.9-3.9-5.8-7.2-11.9-9.9-18.3-2.7-6.5-4.8-13.3-6.3-20.2C.6 122-.1 114.7-.1 107.4c0-7.3.7-14.5 2.2-21.7C3.5 78.8 5.6 72 8.4 65.5c2.7-6.4 6-12.5 9.9-18.3 3.9-5.7 8.3-11 13.1-15.9 4.9-4.9 10.2-9.3 15.9-13.1 5.8-3.9 11.9-7.2 18.3-9.9C72.1 5.6 78.9 3.5 85.8 2 92.9.5 100.2-.2 107.5-.2c7.3 0 14.5.7 21.7 2.2 6.9 1.4 13.7 3.5 20.2 6.3 6.4 2.7 12.5 6 18.3 9.9 5.7 3.9 11 8.3 15.9 13.1 4.9 4.9 9.3 10.2 13.1 15.9 3.9 5.8 7.2 11.9 9.9 18.3 2.7 6.5 4.8 13.3 6.3 20.2 1.5 7.1 2.2 14.4 2.2 21.7 0 7.3-.7 14.5-2.2 21.7-1.4 6.9-3.5 13.7-6.3 20.2-2.7 6.4-6 12.5-9.9 18.3-3.9 5.7-8.3 11-13.1 15.9-4.9 4.9-10.2 9.3-15.9 13.1-5.8 3.9-11.9 7.2-18.3 9.9-6.5 2.7-13.3 4.8-20.2 6.3-7.2 1.5-14.4 2.2-21.7 2.2zm0-211c-6.3 0-12.7.7-18.8 2.1-6 1.4-11.9 3.4-17.6 6-5.6 2.6-10.9 5.8-15.9 9.5-5 3.8-9.6 8-13.8 12.6-4.3 4.7-8.1 9.9-11.4 15.3-3.4 5.6-6.3 11.5-8.6 17.6-2.4 6.3-4.2 12.8-5.4 19.4-1.3 6.9-1.9 13.9-1.9 20.9 0 7 .6 14 1.9 20.9 1.2 6.6 3 13.1 5.4 19.4 2.3 6.1 5.2 12 8.6 17.6 3.3 5.4 7.1 10.6 11.4 15.3 4.2 4.6 8.8 8.9 13.8 12.6 5 3.7 10.3 6.9 15.9 9.5 5.6 2.6 11.5 4.7 17.6 6 6.2 1.4 12.5 2.1 18.8 2.1 6.3 0 12.7-.7 18.8-2.1 6-1.4 11.9-3.4 17.6-6 5.6-2.6 10.9-5.8 15.9-9.5 5-3.8 9.6-8 13.8-12.6 4.3-4.7 8.1-9.9 11.4-15.3 3.4-5.6 6.3-11.5 8.6-17.6 2.4-6.3 4.2-12.8 5.4-19.4 1.3-6.9 1.9-13.9 1.9-20.9 0-7-.6-14-1.9-20.9-1.2-6.6-3-13.1-5.4-19.4-2.3-6.1-5.2-12-8.6-17.6-3.3-5.4-7.1-10.6-11.4-15.3-4.2-4.6-8.8-8.9-13.8-12.6-5-3.7-10.3-6.9-15.9-9.5-5.6-2.6-11.5-4.7-17.6-6-6.1-1.4-12.5-2.1-18.8-2.1z"/><path d="M100.7 95.3H51.1c-3.2 0-5.9-2.7-5.9-5.9V64.1c0-3.2 2.7-5.9 5.9-5.9h49.6c3.2 0 5.9 2.7 5.9 5.9v25.3c-.1 3.3-2.6 5.8-5.9 5.9zm0-35.5H51.1c-2.4 0-4.3 1.9-4.3 4.3v25.3c0 2.4 1.9 4.3 4.3 4.3h49.6c2.4 0 4.3-1.9 4.3-4.3V64.1c0-2.4-1.9-4.3-4.3-4.3zm64.2 35.5h-49.6c-3.2 0-5.9-2.7-5.9-5.9V64.1c0-3.2 2.7-5.9 5.9-5.9h49.6c3.2 0 5.9 2.7 5.9 5.9v25.3c0 3.2-2.7 5.9-5.9 5.9zm0-35.5h-49.6c-2.4 0-4.3 1.9-4.3 4.3v25.3c0 2.4 1.9 4.3 4.3 4.3h49.6c2.4 0 4.3-1.9 4.3-4.3V64.1c0-2.4-1.9-4.3-4.3-4.3zm-64.2 77H51.1c-3.2 0-5.9-2.7-5.9-5.9v-25.3c0-3.2 2.7-5.9 5.9-5.9h49.6c3.2 0 5.9 2.7 5.9 5.9v25.3c-.1 3.3-2.6 5.8-5.9 5.9zm0-35.5H51.1c-2.4 0-4.3 1.9-4.3 4.3v25.3c0 2.4 1.9 4.3 4.3 4.3h49.6c2.4 0 4.3-1.9 4.3-4.3v-25.3c0-2.4-1.9-4.3-4.3-4.3zm64.2 35.5h-49.6c-3.2 0-5.9-2.7-5.9-5.9v-25.3c0-3.2 2.7-5.9 5.9-5.9h49.6c3.2 0 5.9 2.7 5.9 5.9v25.3c0 3.2-2.7 5.9-5.9 5.9zm0-35.5h-49.6c-2.4 0-4.3 1.9-4.3 4.3v25.3c0 2.4 1.9 4.3 4.3 4.3h49.6c2.4 0 4.3-1.9 4.3-4.3v-25.3c0-2.4-1.9-4.3-4.3-4.3z"/><path d="M54.4 87.9l-1.4-.8 9.9-16.2 5.7 7.8 10.2-13.2 10.3 17.3 5.8-9.1 1.4.8-7.2 11.3-10.5-17.5-10 13-5.5-7.6zm13.1 39.9h-5.2v-11.7h5.2v11.7zm-3.6-1.6h2v-8.5h-2v8.5zm10.1 1.6h-5.2v-16.5H74v16.5zm-3.6-1.6h2v-13.3h-2v13.3zm18 1.6h-5.2v-16.5h5.2v16.5zm-3.6-1.6h2v-13.3h-2v13.3zm-3.7 1.6h-5.2v-9.5h5.2v9.5zm-3.6-1.6h2v-6.3h-2v6.3zm52.3-37h-6.9v-1.6h5.6c.7-2 3.3-8 11.8-8 8.4 0 11.1 5.6 11.8 7.5h5.3v1.6h-6.5l-.1-.6c-.1-.3-1.6-6.9-10.4-6.9S130 88.5 130 88.6l-.2.6z"/><path d="M128.4 88.5l-1.4-.6 7.9-18.2h10.2l8.2 17.7-1.5.7-7.7-16.8h-8.2zm20 39l-9.3-17.9c-2.9 5.3-7.6 13.7-7.8 14.2l-.2.4-.5.1c-.5 0-1 0-4.4-5.8l-6.1 8.5-1.3-.9 7.5-10.6.6 1.1c1.2 2.1 2.7 4.4 3.5 5.5 1.8-3.3 7.7-14.1 8-14.6l.7-1.3 10.7 20.5-1.4.8zm14.3-6.9h-8.5v-5.8h8.5v5.8zm-6.9-1.6h5.3v-2.6h-5.3v2.6zm6.9 9h-8.5v-5.8h8.5v5.8zm-6.9-1.6h5.3v-2.6h-5.3v2.6zm-49.7-52.9h3.9v1.6h-3.9zm-4.6 20.9h1.6v6.1h-1.6zm11.8.2h1.6v5.7h-1.6zm15.4 72.1H86.8L97.7 153l4.1-13.2v-4.1h1.6v4.4l-4.3 13.7-8.9 11.3h35.3l-9.2-11.7-4.1-15.5v-2.8h1.6v2.7l3.9 14.8z"/></svg>