<svg xmlns="http://www.w3.org/2000/svg" viewBox="0 0 126.2 55.5"><path d="M24.5 52.7H17c.7-.1 1.4-.3 2.1-.5 1-.4 2-1 2.8-1.7.8-.7 1.4-1.6 1.9-2.5l.3-.9c.7-.1 1.3-.3 2-.5 1-.4 2-1 2.8-1.7.8-.7 1.4-1.6 1.9-2.5.4-.9.6-2 .6-3V14.2c0-1-.2-2-.6-3-.5-1-1.1-1.8-1.9-2.5-.8-.7-1.7-1.3-2.8-1.7-.7-.2-1.3-.4-2-.5l-.3-.9c-.5-1-1.1-1.8-1.9-2.5-.8-.7-1.8-1.3-2.8-1.7-1-.4-2.1-.6-3.2-.6s-2.2.2-3.2.6c-1 .4-2 1-2.8 1.7-1 .9-1.8 2.1-2.2 3.4-.7.1-1.4.3-2.2.5-1 .4-2 1-2.8 1.7C1.2 10.1.3 12.1.3 14.2v25.3c0 1 .2 2 .6 3 .5 1 1.1 1.8 1.9 2.5 1.4 1.2 3.1 2 5 2.2.1.3.2.6.3.8.5 1 1.1 1.8 1.9 2.5.5.4 1 .8 1.6 1.1.4.6.8 1.1 1.3 1.6 1.6 1.5 3.8 2.3 6 2.3h5.7l-.1-2.8zm-.3-46c.3.1.6.1.8.2.7.2 1.3.6 1.8 1.1.5.5.9 1 1.2 1.6.3.6.4 1.2.4 1.9V42c0 .7-.2 1.3-.4 1.9-.3.6-.7 1.2-1.2 1.6-.5.5-1.1.9-1.8 1.1-.3.1-.5.2-.8.2.2-.6.3-1.3.3-1.9V8.6c0-.6-.1-1.3-.3-1.9zm-17.5 40c-.7-.2-1.3-.6-1.8-1.1-.5-.5-.9-1-1.2-1.6-.2-.6-.4-1.2-.4-1.9V11.6c0-.7.1-1.3.4-1.9.3-.6.7-1.1 1.2-1.6.8-.7 1.8-1.2 2.8-1.4-.2.6-.3 1.3-.3 1.9v36.5c0 .6.1 1.3.3 1.9-.3-.1-.6-.2-1-.3zm14.8.2c-.2-.1-.4-.1-.6-.2-.7-.2-1.3-.6-1.8-1.1-.5-.5-.9-1-1.2-1.6-.1-.3-.2-.5-.3-.8.5-.1 1.1-.2 1.6-.4.8-.3 1.6-.7 2.2-1.3l.1 5.4zm0-8.7c0 .7-.2 1.3-.4 1.9-.3.6-.7 1.2-1.2 1.6-.5.5-1.1.9-1.8 1.1-.2.1-.3.1-.5.2-.1-.3-.1-.6-.1-.9V11.6c0-.3 0-.7.1-1 .2 0 .3.1.5.2.7.2 1.3.6 1.8 1.1.5.5.9 1 1.2 1.6.3.6.4 1.2.4 1.9v22.8zm0-26.1c-.7-.5-1.4-1-2.2-1.3-.5-.2-1.1-.3-1.6-.4.1-.2.2-.5.3-.7.3-.6.7-1.2 1.2-1.6.7-.6 1.5-1 2.4-1.3l-.1 5.3zM10.5 6c0-.7.1-1.3.4-1.9.3-.6.7-1.2 1.2-1.6C13.2 1.6 14.6 1 16 1c.7 0 1.4.1 2.1.4.7.2 1.3.6 1.8 1.1.5.5.9 1 1.2 1.6.3.6.4 1.2.4 1.9v.6c-.6.1-1.2.3-1.8.5-1 .4-2 1-2.8 1.7-.4.4-.8.8-1.1 1.2-.3-.4-.7-.8-1.1-1.2-.8-.7-1.8-1.3-2.8-1.7-.5-.2-1.1-.3-1.6-.4V6h.2zm0 .8c.1 0 .3.1.4.1.7.2 1.3.6 1.8 1.1.5.5.9 1 1.2 1.6.1.3.2.5.3.8-.5.1-1 .2-1.4.4-.8.3-1.6.7-2.2 1.3l-.1-5.3zm0 8.6c0-.7.1-1.3.4-1.9.3-.6.7-1.2 1.2-1.6.6-.5 1.3-.9 2.1-1.2.1.3.1.6.1.9v30.5c0 .3 0 .6-.1.9-.1 0-.2-.1-.3-.1-.7-.2-1.3-.6-1.8-1.1-.5-.5-.9-1-1.2-1.6-.3-.6-.4-1.2-.4-1.9V15.4zm0 26.1c1.1.8 2.4 1.4 3.7 1.7-.1.3-.2.5-.3.8-.3.6-.7 1.2-1.2 1.6-.5.5-1.1.9-1.8 1.1-.1.1-.3.1-.4.1v-5.3zm3.4 10.8c-.7-.2-1.3-.6-1.8-1.1-.5-.5-.9-1-1.2-1.6l-.3-.9c-.1-.3-.1-.7-.1-1V47c.5-.1 1.1-.2 1.6-.4 1-.4 2-1 2.8-1.7.4-.4.8-.8 1.1-1.2.3.4.7.8 1.1 1.2 1.2 1.1 2.8 1.9 4.5 2.1v.5c0 .7-.2 1.3-.4 1.9-.3.6-.7 1.2-1.2 1.6-.5.5-1.1.9-1.8 1.1-.7.2-1.4.4-2.1.4-.7.1-1.5.1-2.2-.2zm27.5-30.5h1.8v1.8h-1.8zm2.4 8.9h1.8v1.8h-1.8zm2.5 0h1.8v1.8h-1.8zm4.7-8.9h1.8v1.8H51zm-2.4 0h1.8v1.8h-1.8z"/><path d="M55.6 26.9c.1.6-.3 1.1-.9 1.2h-1.8c-.4.1-.8-.1-1.1-.4-.2-.3-.3-.7-.3-1.1v-1.9h-1.8v2c.2.6-.2 1.2-.8 1.4h-.6c-.4 0-.7-.1-1-.3-.2-.3-.3-.6-.3-1v-2h-5.5v4c.1.7-.1 1.3-.4 1.9-.4.5-1 .8-1.6.9l.6 1.7c1-.2 1.8-.7 2.4-1.5.6-.8.8-1.8.8-2.8v-2.4h2.1v.3c-.1.8.2 1.7.7 2.3.5.5 1.3.8 2 .8h.8c.7.1 1.4-.3 1.7-1 .4.7 1.1 1.1 1.9 1h2c1.4.2 2.6-.7 2.8-2.1v-3h-1.8v2h.1zm-.8 3.8h1.8v1.8h-1.8zm-2.4 0h1.8v1.8h-1.8zm7.1-2c.1.7-.1 1.3-.4 1.9-.4.5-1 .8-1.6.9l.6 1.7c1-.2 1.8-.7 2.4-1.5.6-.8.8-1.8.8-2.8v-4.1h-1.8v3.9zm9.9 2h1.8v1.8h-1.8zm2.5 0h1.8v1.8h-1.8z"/><path d="M89.2 27.2c0 .7-.3 1-.8 1-.6 0-.9-.3-.9-1v-1.9h-1.8v1.9c0 .7-.3 1-.8 1-.6 0-.9-.3-.9-1v-1.4h-1.7v.9c.1.6-.3 1.2-.9 1.3h-1.5c-.3 0-.6-.1-.9-.2-.3-.2-.4-.5-.5-.8l-1.8-4.5 3.8-1.4v-1.9l-5.6 2.1v1.5l1.2 2.8c.2.4.4.8.4 1.3 0 .7-.4 1-1.1 1h-1.3c-.4.1-.8-.1-1.1-.4-.2-.3-.3-.7-.3-1.1v-1.9h-1.8v2c.2.6-.2 1.2-.8 1.4h-1.6v-.8c.1-1.1-.2-2.2-1-3-.6-.4-1.3-.6-2-.6-.8 0-1.6.3-2.2.9-.5.6-.8 1.5-.8 2.3 0 .7.2 1.4.6 1.9.7.8 1.7 1.2 2.8 1.1h.6c-.2.5-.7.9-1.2 1.1-.8.3-1.6.4-2.4.5l.3 1.7c3-.2 4.7-1.3 5.2-3.3H70c.7.1 1.4-.3 1.7-1 .4.7 1.1 1.1 1.9 1h2.2c.8.1 1.5-.4 1.8-1.2.2.4.5.7.8.9.4.2.8.3 1.2.3h1.7c.7.1 1.3-.3 1.6-.9.3.7 1 1.1 1.8 1 .7 0 1.4-.3 1.8-1 .4.7 1.2 1.1 2 1 .7 0 1.3-.2 1.8-.6.5-.6.8-1.3.7-2.1v-2.5h-1.7l-.1 2.6zm-22.5.9h-.8c-.5 0-1-.1-1.3-.5-.2-.2-.3-.6-.3-.9 0-.4.1-.7.3-1 .2-.2.6-.3.9-.3.3 0 .6.1.8.3.3.5.5 1 .4 1.6v.8zm31.9-6.3h1.8v1.8h-1.8zm2.5 0h1.8v1.8h-1.8zm6 8.9h1.8v1.8h-1.8zm.5-.9c.8 0 1.5-.3 2.1-.8.6-.6.8-1.4.8-2.2v-2.1h-1.8v2c.1.6-.3 1.2-.9 1.3h-.6c-.4.1-.8-.1-1.1-.4-.2-.3-.3-.7-.3-1.1v-1.9H104v1.9c0 .4-.1.8-.3 1.1-.2.3-.6.3-1.1.3h-3.3c-.6.1-1.2-.1-1.6-.5-.3-.4-.5-.9-.5-1.4v-1.4h-1.7v1.5c0 2.4 1.3 3.6 3.9 3.6h3.1c.9.1 1.7-.3 2.2-1 .4.7 1.2 1.1 2 1h.9v.1zm1.9.9h1.8v1.8h-1.8zm15.6-11.3l-5.6 2.1V23l1.2 2.9c.2.4.3.9.3 1.3 0 .7-.4 1-1.1 1h-2.2v-.8c.1-1.1-.2-2.2-1-3-.6-.4-1.3-.6-2-.6-.8 0-1.6.3-2.2.9-.5.6-.8 1.5-.8 2.3 0 .7.2 1.4.6 1.9.7.8 1.7 1.2 2.8 1.1h.6c-.2.5-.7.9-1.2 1.1-.8.3-1.6.4-2.4.5l.3 1.7c3-.2 4.7-1.3 5.2-3.3h2.5c.8.1 1.5-.2 2.1-.7.5-.5.7-1.2.7-1.9 0-.8-.2-1.5-.5-2.2l-1-2.4 3.8-1.4v-2h-.1zm-9 8.7h-.8c-.5 0-1-.1-1.3-.5-.2-.2-.3-.6-.3-.9 0-.4.1-.7.3-1 .2-.2.6-.3.9-.3.3 0 .6.1.8.3.3.5.5 1 .4 1.6v.8zm-71.7 9.7c.9 0 1.7.3 2.3.9.4.3.6.8.7 1.3.1.7.1 1.4.1 2.1 0 .6 0 1.3-.1 1.9-.1.4-.2.8-.4 1.2l.7.7-.8.9-.8-.7c-.5.3-1.1.5-1.7.5-.9 0-1.7-.3-2.3-.9-.4-.3-.6-.8-.7-1.3-.1-.7-.1-1.5-.1-2.2 0-.7 0-1.5.1-2.2.1-.5.3-1 .7-1.3.6-.6 1.5-.9 2.3-.9zm0 1.5c-.4 0-.8.2-1.1.5-.2.2-.3.5-.3.7-.1.6-.1 1.1-.1 1.7 0 .5 0 1.1.1 1.6.1.2.2.5.3.7.3.3.7.5 1.1.5.2 0 .4 0 .6-.1l-.8-.8.9-.9.7.7c.1-.6.1-1.2.1-1.8 0-.6 0-1.1-.1-1.7-.1-.2-.2-.5-.3-.7-.3-.2-.7-.4-1.1-.4zm9.1 6.5c-.5.5-1.3.7-2 .7s-1.4-.2-2-.7c-.6-.5-.9-1.2-.8-1.9 0-.8.4-1.5 1.1-1.9-.6-.4-1-1.1-1-1.8s.3-1.3.8-1.8 1.2-.7 1.9-.7 1.4.2 1.9.7c.5.4.8 1.1.8 1.8s-.4 1.4-1 1.8c.7.4 1.1 1.1 1.1 1.9 0 .7-.3 1.4-.8 1.9zm-2.8-1.1c.4.5 1.2.6 1.7.1.5-.4.6-1.2.1-1.7-.4-.5-1.2-.6-1.7-.1-.3.2-.4.6-.4.9 0 .3.1.6.3.8zm0-3.6c.4.5 1.2.6 1.7.1.5-.4.6-1.2.1-1.7-.4-.5-1.2-.6-1.7-.1-.3.2-.4.6-.4.9 0 .3.1.6.3.8zm10.4-3.3c1-.1 2 .3 2.8 1l-1.1 1c-.5-.4-1.1-.7-1.8-.6-.4 0-.7.1-1 .3-.2.2-.3.5-.3.8 0 .2.1.5.3.6.2.2.5.3.8.3l1 .2c.6 0 1.2.3 1.6.7.5.5.7 1.1.7 1.8s-.3 1.4-.9 1.9c-.7.5-1.5.7-2.3.7-.6 0-1.2-.1-1.8-.3-.5-.2-1-.5-1.4-.9l1.1-1.1c.6.5 1.3.8 2.1.7.4 0 .8-.1 1.1-.3.3-.2.4-.5.4-.8 0-.3-.1-.5-.3-.7-.3-.1-.5-.2-.8-.3l-1-.2c-.6 0-1.2-.3-1.7-.7-.4-.5-.6-1.1-.6-1.7 0-.7.3-1.4.8-1.9.8-.3 1.5-.5 2.3-.5zm10.2.1v1.5h-4v2h3.4v1.5h-3.4V45h4v1.5h-5.6V38h5.6v-.1zm4.5-.1c.8 0 1.5.2 2.1.7.6.5 1 1.2 1.1 2h-1.7c-.1-.7-.7-1.2-1.4-1.2-.4 0-.8.1-1.1.4-.2.2-.3.5-.3.8-.2.5-.3 1.1-.2 1.6 0 .6 0 1.1.1 1.7.1.3.2.5.3.8.3.3.7.4 1.1.4.7 0 1.3-.5 1.4-1.2h1.7c-.1.8-.5 1.5-1.1 2-1.3 1-3.2.9-4.4-.2-.4-.3-.6-.8-.7-1.3-.1-.7-.1-1.5-.1-2.2 0-.7 0-1.5.1-2.2.1-.5.3-1 .7-1.3.7-.5 1.6-.8 2.4-.8zm10.7.1v5.6c0 .8-.3 1.6-.9 2.2-.6.6-1.4.8-2.2.8-.8 0-1.6-.3-2.2-.8-.6-.6-.9-1.4-.9-2.2v-5.6H82v5.6c0 .4.1.9.4 1.2.6.5 1.6.5 2.2 0 .3-.3.4-.7.4-1.1V38h1.5v-.1zm1.8 0h3.3c.8-.1 1.5.2 2 .8.5.5.8 1.2.8 1.9.1 1-.6 1.9-1.5 2.2l1.9 3.7h-1.9l-1.7-3.4H90v3.4h-1.7v-8.6zm3.3 1.5H90v2.2h1.6c.3 0 .6-.1.9-.3.4-.5.4-1.1 0-1.6-.2-.2-.5-.3-.9-.3zm6.3-1.5v8.5h-1.7v-8.5h1.7zm7.5 0v1.5h-2.2v7.1h-1.7v-7.1h-2.2v-1.5h6.1zm3 0v8.5h-1.7v-8.5h1.7zm7.6 0v1.5h-4v2h3.4v1.5H112V45h4v1.5h-5.6V38h5.6v-.1zm4.2-.1c1-.1 2 .3 2.8 1l-1.1 1c-.5-.4-1.1-.7-1.8-.6-.4 0-.7.1-1 .3-.2.2-.3.5-.3.8 0 .2.1.5.3.6.2.2.5.3.8.3l1 .2c.6 0 1.2.3 1.6.7.5.5.7 1.1.7 1.8s-.3 1.4-.9 1.9c-.7.5-1.5.7-2.3.7-.6 0-1.2-.1-1.8-.3-.5-.2-1-.5-1.4-.9l1.1-1.1c.6.5 1.3.8 2.1.7.4 0 .8-.1 1.1-.3.3-.2.4-.5.4-.8 0-.3-.1-.5-.3-.7-.3-.1-.5-.2-.8-.3l-1-.2c-.6 0-1.2-.3-1.7-.7-.4-.5-.6-1.1-.6-1.7 0-.7.3-1.4.8-1.9.8-.3 1.5-.5 2.3-.5z"/></svg>