<svg id="icon-windows" xmlns="http://www.w3.org/2000/svg" width="28.375" height="30.92" viewBox="0 0 28.375 30.92">
  <path id="Path_2391" data-name="Path 2391" d="M95.42,28.186a4.208,4.208,0,0,1,3.24.42,3.383,3.383,0,0,1,1.288,2.749c.014,1.184,0,2.355.014,3.538-.235.038-.457.064-.692.1V31.24a2.612,2.612,0,0,0-1.149-2.253,4.1,4.1,0,0,0-2.838-.165,7.015,7.015,0,0,0-2.769,1.044,2.741,2.741,0,0,0-.872,2.126v4.315c-.235.038-.457.089-.678.127,0-1.438-.014-2.877,0-4.315a3.442,3.442,0,0,1,1.094-2.686A7.779,7.779,0,0,1,95.42,28.186Z" transform="translate(-84.739 -28.052)" fill="none"/>
  <path id="Path_2392" data-name="Path 2392" d="M158.4,39.42a5.78,5.78,0,0,1,2.8-.064,1.789,1.789,0,0,1,1.121,1.273,13.215,13.215,0,0,1,.18,3.22c-.235.038-.457.064-.678.1-.069-1.184.222-2.457-.4-3.551-.623-.866-1.9-.586-2.824-.42C158.525,39.79,158.455,39.6,158.4,39.42Z" transform="translate(-142.846 -37.785)" fill="#fff"/>
  <path id="Path_2393" data-name="Path 2393" d="M127.215,46.515c.277-.9,1.315-1.26,2.188-1.515l.166.573a3.622,3.622,0,0,0-1.329.586,2.378,2.378,0,0,0-.568,1.642c-.014.815.014,1.629-.014,2.457l-.678.115A15.566,15.566,0,0,1,127.215,46.515Z" transform="translate(-115.773 -42.843)" fill="#fff"/>
  <path id="Path_2394" data-name="Path 2394" d="M68.754,76.2a2.264,2.264,0,0,1,1.163-.051c1.5.5,3,.967,4.514,1.464V99.236c-1.509.535-3.018,1.056-4.514,1.591a2.558,2.558,0,0,1-1.274-.089q-11.3-2.1-22.582-4.213c-.014-5.46,0-10.908,0-16.369Q57.4,78.189,68.754,76.2M56.861,83.236c-.028,1.553,0,3.118-.014,4.671h6.784V82.383c-2.257.267-4.514.6-6.77.853m-5.552.738v3.933H56.57v-4.62c-1.758.216-3.517.458-5.261.687M51.3,88.162v3.946c1.758.229,3.5.471,5.261.687V88.162H51.3m5.552,0c0,1.553-.014,3.118.014,4.671,2.257.255,4.514.586,6.77.853V88.162Z" transform="translate(-46.056 -69.967)" fill="none"/>
</svg>
