<svg id="surface38818" xmlns="http://www.w3.org/2000/svg" width="24.724" height="27.878" viewBox="0 0 24.724 27.878">
  <path id="icon-apple" data-name="Path 2386" d="M31.411,10.22a6.294,6.294,0,0,0-3.347,5.349,6.418,6.418,0,0,0,4.12,5.6,14.514,14.514,0,0,1-2.136,3.973c-1.228,1.717-2.588,3.449-4.658,3.449-1.969,0-2.674-1.144-4.945-1.144-2.438,0-3.128,1.144-5,1.144-2.067,0-3.531-1.824-4.827-3.526a16.427,16.427,0,0,1-3.16-9.076A8.953,8.953,0,0,1,8.74,10.977a7.719,7.719,0,0,1,6.29-3.526C17.014,7.39,18.782,8.7,19.992,8.7c1.161,0,3.329-1.253,5.785-1.253A6.964,6.964,0,0,1,31.411,10.22ZM19.825,7.1c-.353-1.623.621-3.246,1.53-4.282a6.672,6.672,0,0,1,4.574-2.1,5.772,5.772,0,0,1-1.682,4.376A5.336,5.336,0,0,1,19.825,7.1Zm0,0" transform="translate(-7.461 -0.711)" fill="none"/>
</svg>
