<svg xmlns="http://www.w3.org/2000/svg" viewBox="0 0 30 23"><path fill="#415364" d="M10.9 18c-.2 0-.3.2-.3.4s.2.3.3.3h14.4c.1 0 .2 0 .2-.1.1-.1.1-.3 0-.5-.1-.1-.1-.1-.2-.1H10.9c.1 0 0 0 0 0zm0-3.9c-.2 0-.3.2-.3.4s.2.3.3.3h14.4c.1 0 .2 0 .2-.1.1-.1.1-.3 0-.5-.1-.1-.1-.1-.2-.1H10.9c.1 0 0 0 0 0zm.4-9.2h13.8v5.2H11.3V4.9zm-10.1 0h5.2v14.9c0 1.4-1.1 2.3-2.4 2.4h-.2c-1.5 0-2.6-1-2.6-2.5V4.9zm9.7-.6c-.2 0-.3.2-.3.3v5.9c0 .2.1.3.3.3h14.4c.2 0 .3-.1.3-.3V4.6c0-.2-.1-.3-.3-.3H10.9c.1 0 0 0 0 0zM7.1.7h22.3v19.2c0 1.5-1 2.5-2.4 2.5H5.7c.8-.5 1.4-1.4 1.4-2.5V.7zM6.7 0c-.2 0-.3.2-.3.3v3.9H.8c-.2 0-.3.1-.3.3v15.2c0 1.8 1.5 3.1 3.3 3.1h23.1c1.8 0 3.1-1.3 3.1-3.1V.3c0-.1-.1-.3-.3-.3h-23z"/></svg>