<svg xmlns="http://www.w3.org/2000/svg" viewBox="0 0 25 29.8"><path d="M25.002 27.489l-1.4-1.4h-1.1l-1.4-1.8h.6v-.4l-1-1.1h-.8l-.4-.5-.7-.9h.2v-.3l-.7-.7h-.3l-3.7-4.8-.8-1h-.6l.4.6h-1.6l.4-.6h-.6l-.8 1-3.7 4.8h-.2l-.8.7v.3h.1l-.7.9-.4.5h-.8l-1 1.1v.4h.6l-1.3 1.8h-1.1l-1.4 1.4v.6h1c-.2.7.2 1.5.9 1.7.6.2 1.3-.1 1.6-.6l.6-1.1h16.7l.6 1.1c.4.6 1.2.9 1.9.5.5-.3.8-1 .6-1.5h1.1v-.7zm-18.6-3.2h12.3l1 1.8h-14.4l1.1-1.8zm2.8-5h6.5l.6 1h-7.7l.6-1zm4.6-3.3l.2.4h-3l.2-.4h2.6zm-2.3-.6h1.9l.1.1.1.2h-2.2l.1-.2v-.1zm-.8 1.4h3.5l.3.6h-4.2l.4-.6zm-.7 1.1h4.9l.4.6h-5.6l.3-.6zm-2 3.5h8.9l.5.9.3.5h-10.5l.3-.5.5-.9z"/><path d="M3.002 22.289v-10c0-.2.1-.4.1-.6v-.1c0-.2.1-.3.1-.5v-.2c.1-.2.1-.4.2-.5.1-.2.1-.4.2-.6 0 0 0-.1.1-.1.1-.2.1-.3.2-.5 0 0 0-.1.1-.1.1-.2.2-.4.3-.5.1-.2.2-.3.3-.5l.1-.1c.1-.2.2-.3.3-.5.1-.2.3-.3.4-.5l.4-.4.1-.1c.3-.3.6-.6.9-.8h.1c.2-.1.3-.2.5-.3.2-.1.4-.2.5-.3 1.4-.8 2.9-1.2 4.5-1.2 2.3 0 4.5.9 6.2 2.5l.4.4c.9.9 1.5 1.9 2 3v.1c.1.1.1.3.2.4v.1c0 .1.1.2.1.4 0 .1 0 .1.1.2 0 .1.1.2.1.3v.2c0 .1.1.2.1.3v.2c0 .1 0 .2.1.3v10.4h2.4v-10.8c0-6.6-5.3-11.9-11.9-11.9s-11.7 5.3-11.7 11.9v10.3h2.5zm18.1-12.8c.1.1.1.2.1.4 0-.2-.1-.3-.1-.4zm.2.5c0 .1.1.2.1.3 0-.1-.1-.2-.1-.3zm.2.5c0 .1.1.2.1.3-.1-.1-.1-.2-.1-.3zm.1.5c0 .1 0 .2.1.3 0-.1-.1-.2-.1-.3zm.1.5c0 .1 0 .2.1.3 0-.1 0-.2-.1-.3zm.1.6v.3c.1-.1 0-.2 0-.3zm.1.5zm0 .5v.5c.1-.1 0-.3 0-.5zm-.9-3.7c-.1-.1-.1-.3-.2-.4.1.1.2.2.2.4zm-2-3c.1.1.2.2.3.4 0-.2-.2-.3-.3-.4zm.4.4c.6.7 1.1 1.4 1.5 2.2-.5-.9-.9-1.6-1.5-2.2zm-.4-.4l-.4-.4c.2.1.3.2.4.4zm-16 7.2v-.5.5zm0-.8v-.4.4zm.1-.6c0-.2.1-.4.1-.6-.1.2-.1.4-.1.6zm.1-.8c0-.1.1-.3.1-.4 0 .1-.1.3-.1.4zm.2-.6c0-.1.1-.3.1-.4-.1.1-.1.2-.1.4zm.1-.6c.1-.2.1-.3.2-.5 0 .1-.1.3-.2.5zm.3-.7c.1-.1.1-.2.2-.4-.1.1-.1.2-.2.4zm.3-.6c.1-.2.2-.3.3-.5-.1.2-.2.3-.3.5zm.3-.6c.1-.1.2-.3.2-.4 0 .1-.1.3-.2.4zm.4-.6c.1-.1.2-.2.3-.4-.2.2-.2.3-.3.4zm.3-.4c.1-.2.2-.3.4-.4-.1.1-.3.2-.4.4zm.5-.6l.3-.3-.3.3zm1.4-1.3c.1-.1.3-.2.4-.3-.1.1-.3.2-.4.3zm.5-.3c.2-.1.4-.2.5-.3-.2 0-.4.2-.5.3zm-.6.4c-.3.2-.6.5-.9.8.3-.3.6-.6.9-.8z"/><path d="M21.502 21.889v-8.2c0-5.3-4.1-9.7-9.1-9.7s-9.1 4.4-9.1 9.7v8.2l6.4-6.4v-1.8c0-1.8 1.2-3.3 2.7-3.3s2.7 1.5 2.7 3.3v1.8l6.4 6.4z"/></svg>