<svg xmlns="http://www.w3.org/2000/svg" viewBox="0 0 32.5 33.5"><path d="M8.9 24.2L8.2 26l6.9-.6c.4 0 .7.2.7.6v.1l-.2 7.4H17l-.2-7.4c0-.4.3-.6.6-.7h.1l6.9.6-.7-1.8c-.3-.9 0-1.9.9-2.4l8-4.6-1.8-.9c-.5-.3-.8-.8-.7-1.4l.6-4.5-3.4 1c-.7.2-1.5-.2-1.7-.9v-.1L25.1 9l-3.2 3.7c-.2.3-.7.3-.9.1-.2-.2-.3-.4-.2-.6l1.4-7.9-2.2.5c-.6.2-1.3-.1-1.5-.7L16.2 0 14 4.1c-.3.6-.9.8-1.6.7l-2.1-.6 1.4 7.9c.1.4-.2.7-.5.8-.2 0-.5 0-.6-.2L7.4 9l-.3 1.5c-.2.7-.9 1.2-1.6 1h-.1l-3.4-1 .6 4.5c.1.6-.2 1.1-.7 1.4l-1.9.9 8 4.6c.9.4 1.2 1.4.9 2.3z"/></svg>