<svg xmlns="http://www.w3.org/2000/svg" viewBox="0 0 26.6 26.6"><path d="M25.2 1.5C24.2.5 23 0 21.6 0H5C3.7 0 2.4.5 1.5 1.5.5 2.4 0 3.7 0 5v16.6c0 1.3.5 2.6 1.5 3.5.9 1 2.2 1.5 3.5 1.5h16.6c2.8 0 5-2.2 5-5V5c.1-1.3-.5-2.6-1.4-3.5zm-17 20.3c0 .3-.3.6-.6.6H5c-.3 0-.6-.3-.6-.6v-11c0-.3.3-.6.6-.6h2.6c.3 0 .6.3.6.6v11zM6.3 8.5c-1.2 0-2.2-1-2.2-2.2 0-1.2 1-2.2 2.2-2.2s2.2 1 2.2 2.2c0 .6-.2 1.1-.6 1.5-.4.5-1 .7-1.6.7zm16.2 5.6v8.1c0 .1-.1.3-.3.3h-3.3c-.1 0-.3-.1-.3-.3v-6.8c0-1.2-.9-2.1-2.1-2.2-1.2 0-2.1.9-2.2 2.1v6.9c0 .1-.1.3-.3.3h-3.3c-.1 0-.3-.1-.3-.3V10.5c0-.1.1-.3.3-.3h3.2c.1 0 .3.1.3.3v1.4c.7-1.2 1.9-1.9 3.3-1.9h.7c2.4-.1 4.3 1.8 4.3 4.1z"/></svg>