<svg xmlns="http://www.w3.org/2000/svg" viewBox="0 0 66.9 61.8"><path d="M65.7 61.8H1.3c-.7 0-1.3-.6-1.3-1.3V11.3c0-.7.6-1.3 1.3-1.3h64.3c.7 0 1.3.6 1.3 1.3v49.1c.1.7-.4 1.3-1 1.4h-.2zm-63-2.7h61.7V12.6H2.7v46.5z"/><path d="M57.3 37.2H9.7c-5.4 0-9.7-4.3-9.7-9.7V11.3c0-.7.6-1.3 1.3-1.3h64.3c.7 0 1.3.6 1.3 1.3v16.2c.1 5.3-4.1 9.6-9.4 9.7h-.2zM2.7 12.6v14.9c0 3.9 3.1 7 7 7h47.6c3.9 0 7-3.1 7-7V12.6H2.7z"/><path d="M44.1 12.6H22.9c-.7 0-1.3-.6-1.3-1.3V4.1c0-2.3 1.8-4.1 4.1-4.1h15.6c2.3 0 4.1 1.8 4.1 4.1v7.1c0 .7-.5 1.4-1.3 1.4zM24.3 9.9h18.5V4.1c0-.8-.7-1.5-1.5-1.5H25.7c-.8 0-1.5.7-1.5 1.5l.1 5.8zM20.8 45h-6.3c-.7 0-1.3-.6-1.3-1.3v-7.8c0-.7.6-1.3 1.3-1.3h6.3c.7 0 1.3.6 1.3 1.3v7.8c.1.7-.4 1.2-1.1 1.3h-.2zm-4.9-2.7h3.6v-5.1h-3.6v5.1zM52.5 45h-6.3c-.7 0-1.3-.6-1.3-1.3v-7.8c0-.7.6-1.3 1.3-1.3h6.3c.7 0 1.3.6 1.3 1.3v7.8c0 .7-.6 1.3-1.3 1.3zm-5-2.7h3.6v-5.1h-3.6v5.1z"/></svg>