<svg xmlns="http://www.w3.org/2000/svg" viewBox="0 0 44.747 71.996"><path class="cls-1" d="M34.809 68.4H24.077a14.525 14.525 0 0 0 3.08-.684 12.5 12.5 0 0 0 3.966-2.224 10.278 10.278 0 0 0 2.66-3.294 11.277 11.277 0 0 0 .467-1.112 16.162 16.162 0 0 0 2.94-.642 12.5 12.5 0 0 0 3.966-2.224 9.988 9.988 0 0 0 2.66-3.337 8.6 8.6 0 0 0 .933-3.893V17.625a8.6 8.6 0 0 0-.933-3.893 10.429 10.429 0 0 0-2.66-3.337 12.5 12.5 0 0 0-3.966-2.224 13.5 13.5 0 0 0-2.89-.685 12.677 12.677 0 0 0-.467-1.2 10.43 10.43 0 0 0-2.66-3.337A12.5 12.5 0 0 0 27.2.727 15.446 15.446 0 0 0 22.49 0a13.787 13.787 0 0 0-4.666.77 13.033 13.033 0 0 0-3.966 2.224 10.08 10.08 0 0 0-3.126 4.449 14.757 14.757 0 0 0-3.173.684 12.5 12.5 0 0 0-3.966 2.224A9.48 9.48 0 0 0 0 17.582v33.367a8.6 8.6 0 0 0 .933 3.893 10.429 10.429 0 0 0 2.66 3.337 13.106 13.106 0 0 0 7.186 2.909 11.277 11.277 0 0 0 .467 1.112 10.278 10.278 0 0 0 2.66 3.294 12.961 12.961 0 0 0 2.24 1.454A10.184 10.184 0 0 0 18.011 69a13.6 13.6 0 0 0 8.632 3h8.166v-3.6zm-.467-60.66c.42.086.793.171 1.213.3a8.537 8.537 0 0 1 2.566 1.412 6.555 6.555 0 0 1 1.726 2.139 5.789 5.789 0 0 1 .607 2.524v40.214a5.789 5.789 0 0 1-.607 2.524 6.555 6.555 0 0 1-1.726 2.139 8.633 8.633 0 0 1-2.566 1.454 9.843 9.843 0 0 1-1.213.342 8.962 8.962 0 0 0 .373-2.524V10.181a8.838 8.838 0 0 0-.373-2.438zm-25.15 52.7a7.792 7.792 0 0 1-2.566-1.454A6.555 6.555 0 0 1 4.9 56.853a5.789 5.789 0 0 1-.607-2.524V14.117a5.206 5.206 0 0 1 .607-2.524 6.555 6.555 0 0 1 1.726-2.139 8.439 8.439 0 0 1 4.013-1.8 8.962 8.962 0 0 0-.373 2.524v48.086a7.826 7.826 0 0 0 .42 2.567 9.582 9.582 0 0 1-1.493-.385zm21.184.257a6.917 6.917 0 0 1-.887-.257 7.792 7.792 0 0 1-2.566-1.454 7.217 7.217 0 0 1-1.723-2.133 6.287 6.287 0 0 1-.373-.984 12.622 12.622 0 0 0 2.286-.6 13.133 13.133 0 0 0 3.22-1.668v7.1zm0-11.379a5.789 5.789 0 0 1-.607 2.524 6.555 6.555 0 0 1-1.726 2.139 7.7 7.7 0 0 1-2.567 1.419 3.731 3.731 0 0 1-.747.214 5.62 5.62 0 0 1-.14-1.241V14.16a6.005 6.005 0 0 1 .14-1.283 4.371 4.371 0 0 1 .7.214A7.792 7.792 0 0 1 28 14.545a6.555 6.555 0 0 1 1.726 2.139 5.789 5.789 0 0 1 .607 2.524v30.116zm0-34.479a14.027 14.027 0 0 0-3.22-1.668 19.7 19.7 0 0 0-2.286-.6 7.885 7.885 0 0 1 .373-.941A6.006 6.006 0 0 1 26.97 9.5a8.468 8.468 0 0 1 3.453-1.668v7.016zM14.6 6.759a5.206 5.206 0 0 1 .607-2.524A6.555 6.555 0 0 1 16.938 2.1a8.741 8.741 0 0 1 5.6-1.925A9 9 0 0 1 28.089 2.1a6.555 6.555 0 0 1 1.726 2.139 5.789 5.789 0 0 1 .607 2.524v.77a15.291 15.291 0 0 0-2.52.6 12.311 12.311 0 0 0-5.502 3.759 12.311 12.311 0 0 0-5.506-3.765 14.274 14.274 0 0 0-2.24-.556v-.812zm0 1.112c.187.043.42.128.607.171a8.537 8.537 0 0 1 2.566 1.412 6.555 6.555 0 0 1 1.727 2.139 3.623 3.623 0 0 1 .373.984 15.844 15.844 0 0 0-2.053.513 13.133 13.133 0 0 0-3.22 1.668V7.871zm0 11.294a5.206 5.206 0 0 1 .607-2.524 6.555 6.555 0 0 1 1.731-2.141 8.662 8.662 0 0 1 3.033-1.583 5.247 5.247 0 0 1 .14 1.2v40.212a4.888 4.888 0 0 1-.14 1.155c-.14-.043-.327-.086-.467-.128a8.537 8.537 0 0 1-2.566-1.412 6.555 6.555 0 0 1-1.727-2.144 5.789 5.789 0 0 1-.607-2.524V19.165zm0 34.479a12.917 12.917 0 0 0 5.273 2.182 4.018 4.018 0 0 1-.42 1.027 6.006 6.006 0 0 1-1.726 2.139 8.633 8.633 0 0 1-2.566 1.454 3.223 3.223 0 0 1-.607.171v-6.973zM19.5 67.8a7.792 7.792 0 0 1-2.566-1.454 6.555 6.555 0 0 1-1.726-2.139 5.755 5.755 0 0 1-.42-1.155 5.343 5.343 0 0 1-.14-1.241v-.9a16.835 16.835 0 0 0 2.24-.556 12.5 12.5 0 0 0 3.966-2.224 10.422 10.422 0 0 0 1.54-1.583 16.82 16.82 0 0 0 1.54 1.583 13.088 13.088 0 0 0 6.486 2.823v.727a5.789 5.789 0 0 1-.607 2.524 6.555 6.555 0 0 1-1.726 2.139 8.633 8.633 0 0 1-2.564 1.456 8.733 8.733 0 0 1-2.986.513A9.954 9.954 0 0 1 19.5 67.8z"/></svg>