<?xml version="1.0" encoding="utf-8"?>
<!-- Generator: Adobe Illustrator 21.1.0, SVG Export Plug-In . SVG Version: 6.00 Build 0)  -->
<svg version="1.1" id="Layer_1" xmlns="http://www.w3.org/2000/svg" xmlns:xlink="http://www.w3.org/1999/xlink" x="0px" y="0px"
	 viewBox="0 0 215 215" style="enable-background:new 0 0 215 215;" xml:space="preserve">
<g id="Icon-Basket" transform="translate(-1322 -1784)">
	<path id="Subtraction_3" d="M1429.5,1999c-7.3,0-14.5-0.7-21.7-2.2c-6.9-1.4-13.7-3.5-20.2-6.3c-6.4-2.7-12.5-6-18.3-9.9
		c-5.7-3.9-11-8.3-15.9-13.1c-4.9-4.9-9.3-10.2-13.1-15.9c-3.9-5.8-7.2-11.9-9.9-18.3c-2.7-6.5-4.8-13.3-6.3-20.2
		c-1.5-7.1-2.2-14.4-2.2-21.7c0-7.3,0.7-14.5,2.2-21.7c1.4-6.9,3.5-13.7,6.3-20.2c2.7-6.4,6-12.5,9.9-18.3c3.9-5.7,8.3-11,13.1-15.9
		c4.9-4.9,10.2-9.3,15.9-13.1c5.8-3.9,11.9-7.2,18.3-9.9c6.5-2.7,13.3-4.8,20.2-6.3c7.1-1.5,14.4-2.2,21.7-2.2
		c7.3,0,14.5,0.7,21.7,2.2c6.9,1.4,13.7,3.5,20.2,6.3c6.4,2.7,12.5,6,18.3,9.9c5.7,3.9,11,8.3,15.9,13.1c4.9,4.9,9.3,10.2,13.1,15.9
		c3.9,5.8,7.2,11.9,9.9,18.3c2.7,6.5,4.8,13.3,6.3,20.2c1.5,7.1,2.2,14.4,2.2,21.7c0,7.3-0.7,14.5-2.2,21.7
		c-1.4,6.9-3.5,13.7-6.3,20.2c-2.7,6.4-6,12.5-9.9,18.3c-3.9,5.7-8.3,11-13.1,15.9c-4.9,4.9-10.2,9.3-15.9,13.1
		c-5.8,3.9-11.9,7.2-18.3,9.9c-6.5,2.7-13.3,4.8-20.2,6.3C1444,1998.3,1436.8,1999,1429.5,1999z M1429.5,1788
		c-6.3,0-12.7,0.7-18.8,2.1c-6,1.4-11.9,3.4-17.6,6c-5.6,2.6-10.9,5.8-15.9,9.5c-5,3.8-9.6,8-13.8,12.6c-4.3,4.7-8.1,9.9-11.4,15.3
		c-3.4,5.6-6.3,11.5-8.6,17.6c-2.4,6.3-4.2,12.8-5.4,19.4c-1.3,6.9-1.9,13.9-1.9,20.9c0,7,0.6,14,1.9,20.9c1.2,6.6,3,13.1,5.4,19.4
		c2.3,6.1,5.2,12,8.6,17.6c3.3,5.4,7.1,10.6,11.4,15.3c4.2,4.6,8.8,8.9,13.8,12.6c5,3.7,10.3,6.9,15.9,9.5c5.6,2.6,11.5,4.7,17.6,6
		c6.2,1.4,12.5,2.1,18.8,2.1c6.3,0,12.7-0.7,18.8-2.1c6-1.4,11.9-3.4,17.6-6c5.6-2.6,10.9-5.8,15.9-9.5c5-3.8,9.6-8,13.8-12.6
		c4.3-4.7,8.1-9.9,11.4-15.3c3.4-5.6,6.3-11.5,8.6-17.6c2.4-6.3,4.2-12.8,5.4-19.4c1.3-6.9,1.9-13.9,1.9-20.9c0-7-0.6-14-1.9-20.9
		c-1.2-6.6-3-13.1-5.4-19.4c-2.3-6.1-5.2-12-8.6-17.6c-3.3-5.4-7.1-10.6-11.4-15.3c-4.2-4.6-8.8-8.9-13.8-12.6
		c-5-3.7-10.3-6.9-15.9-9.5c-5.6-2.6-11.5-4.7-17.6-6C1442.2,1788.7,1435.8,1788,1429.5,1788z"/>
	<g id="TRADE-icon" transform="translate(1373.5 1845.5)">
		<path d="M94.5,93.7l-33.1-5.2l-3.3-15.4v-4.5h44.6L94.5,93.7z M62.7,87.1L93.4,92l7.1-21.7H59.7v2.8L62.7,87.1z"/>
		<polygon points="99.9,93.2 98.4,92.8 107,62.4 116.7,58.1 117.4,59.6 108.4,63.6 		"/>
		<g>
			<path id="Path_2224_1_" d="M93.7,97.9c-0.5-0.2-20.3,0-20.3,0"/>
			<path d="M73.3,98.7l0-1.6c20-0.2,20.5,0,20.6,0.1l-0.6,1.5l0.3-0.7l-0.2,0.8C92.7,98.6,81,98.6,73.3,98.7z"/>
		</g>
		<path d="M67.7,104.5c-3.4,0-6.1-2.7-6.1-6.1s2.7-6.1,6.1-6.1s6.1,2.7,6.1,6.1S71.1,104.5,67.7,104.5z M67.7,93.9
			c-2.5,0-4.5,2-4.5,4.5c0,2.5,2,4.5,4.5,4.5c2.5,0,4.5-2,4.5-4.5C72.3,95.9,70.2,93.9,67.7,93.9z"/>
		<path d="M99.4,104.5c-3.4,0-6.1-2.7-6.1-6.1s2.7-6.1,6.1-6.1s6.1,2.7,6.1,6.1S102.7,104.5,99.4,104.5z M99.4,93.9
			c-2.5,0-4.5,2-4.5,4.5c0,2.5,2,4.5,4.5,4.5c2.5,0,4.5-2,4.5-4.5C103.9,95.9,101.8,93.9,99.4,93.9z"/>
		<rect x="73.3" y="76.3" width="1.6" height="9.6"/>
		<rect x="78.9" y="76.3" width="1.6" height="9.6"/>
		<rect x="84.6" y="76.3" width="1.6" height="9.6"/>
		<path d="M101.1,82.7h-3.7v-1.6h3.7c5.2,0,9.5-4.3,9.5-9.5V10.8c0-2.6-1-4.9-2.8-6.7c-1.8-1.8-4.2-2.8-6.7-2.8c0,0,0,0,0,0H10.8
			c-5.2,0-9.5,4.3-9.5,9.5v60.8c0,2.6,1,4.9,2.8,6.7c1.8,1.8,4.1,2.8,6.7,2.8c0,0,0,0,0,0H61v1.6H10.8c0,0,0,0,0,0
			c-2.9,0-5.7-1.1-7.8-3.2c-2.1-2.1-3.2-4.9-3.3-7.8V10.8c0-2.9,1.1-5.7,3.2-7.8s4.9-3.2,7.8-3.2h90.4c0,0,0,0,0,0
			c2.9,0,5.7,1.1,7.8,3.2c2.1,2.1,3.2,4.9,3.2,7.8v61C112.2,77.8,107.2,82.7,101.1,82.7z"/>
		<rect x="0.5" y="15.1" width="111" height="1.6"/>
		<path d="M39.7,28.1H21.9v-6.6h17.8V28.1z M23.5,26.5h14.6v-3.4H23.5V26.5z"/>
		<path d="M61.8,28.1H43.9v-6.6h17.8V28.1z M45.5,26.5h14.6v-3.4H45.5V26.5z"/>
		<path d="M83.9,28.1H66.1v-6.6h17.8V28.1z M67.7,26.5h14.6v-3.4H67.7V26.5z"/>
		<path d="M106.1,28.1H88.3v-6.6h17.8V28.1z M89.9,26.5h14.6v-3.4H89.9V26.5z"/>
		<path d="M39.7,38.7H21.9V32h17.8V38.7z M23.5,37.1h14.6v-3.4H23.5V37.1z"/>
		<path d="M61.8,38.7H43.9V32h17.8V38.7z M45.5,37.1h14.6v-3.4H45.5V37.1z"/>
		<path d="M83.9,38.7H66.1V32h17.8V38.7z M67.7,37.1h14.6v-3.4H67.7V37.1z"/>
		<path d="M106.1,38.7H88.3V32h17.8V38.7z M89.9,37.1h14.6v-3.4H89.9V37.1z"/>
		<path d="M39.7,49.2H21.9v-6.6h17.8V49.2z M23.5,47.6h14.6v-3.4H23.5V47.6z"/>
		<path d="M61.8,49.2H43.9v-6.6h17.8V49.2z M45.5,47.6h14.6v-3.4H45.5V47.6z"/>
		<path d="M83.9,49.2H66.1v-6.6h17.8V49.2z M67.7,47.6h14.6v-3.4H67.7V47.6z"/>
		<path d="M106.1,49.2H88.3v-6.6h17.8V49.2z M89.9,47.6h14.6v-3.4H89.9V47.6z"/>
		<path d="M39.7,59.8H21.9v-6.6h17.8V59.8z M23.5,58.2h14.6v-3.4H23.5V58.2z"/>
		<path d="M61.8,59.8H43.9v-6.6h17.8V59.8z M45.5,58.2h14.6v-3.4H45.5V58.2z"/>
		<path d="M83.9,59.8H66.1v-6.6h17.8V59.8z M67.7,58.2h14.6v-3.4H67.7V58.2z"/>
		<path d="M106.1,59.8H88.3v-6.6h17.8V59.8z M89.9,58.2h14.6v-3.4H89.9V58.2z"/>
		<polygon points="10.1,28.9 5.6,25.9 6.4,24.6 9.8,26.7 14.6,21.2 15.8,22.3 		"/>
		<polygon points="10.1,39.6 5.6,36.6 6.4,35.3 9.8,37.5 14.5,31.9 15.8,32.9 		"/>
		<polygon points="10.1,60.9 5.6,58 6.4,56.6 9.8,58.8 14.6,53.3 15.8,54.3 		"/>
		<path d="M13.5,50.1H7v-6.9h6.5V50.1z M8.6,48.5h3.3v-3.7H8.6V48.5z"/>
	</g>
</g>
</svg>
