<?xml version="1.0" encoding="utf-8"?>
<!-- Generator: Adobe Illustrator 21.1.0, SVG Export Plug-In . SVG Version: 6.00 Build 0)  -->
<svg version="1.1" id="icon-25m" xmlns="http://www.w3.org/2000/svg" xmlns:xlink="http://www.w3.org/1999/xlink" x="0px" y="0px"
	 viewBox="0 0 83.9 48.9" style="enable-background:new 0 0 83.9 48.9;" xml:space="preserve">
<path d="M22.8,48.3H0v-6.6c0-7.2,3.8-11.3,7.5-15.3c3.5-3.8,6.8-7.4,6.8-13.6c0-4-1.3-4.3-2.8-4.3c-1.6,0-2.7,0.6-2.7,3.5v6H0v-5.4
	C0,4.6,4.3,0,11.7,0s11.7,4.6,11.7,12.5c0,8.7-5,14.3-9.1,18.8c-2.8,3.1-5.2,5.7-5.2,8.5h13.7V48.3z M2,46.3h18.8v-4.5H7.4L7.2,41
	c-0.1-0.4-0.2-0.9-0.1-1.3c0-3.5,2.7-6.5,5.7-9.8c4-4.4,8.6-9.5,8.6-17.4C21.4,7.7,19.7,2,11.7,2S2,7.8,2,12.6V16h4.8v-4
	c0-4.5,2.6-5.5,4.7-5.5c4.3,0,4.8,3.6,4.8,6.3c0,7-3.7,11-7.4,14.9C5.4,31.6,2,35.3,2,41.7V46.3z"/>
<path d="M37.4,48.9c-7.4,0-11.7-4.6-11.7-12.5v-4.8h7.7v0.9h1v4.2c0,2.8,1,3.4,2.7,3.4c1.4,0,2.7-0.4,2.7-3.4v-10
	c0-2.9-1.1-3.5-2.7-3.5s-2.7,0.6-2.7,3.5v2.4h-8.9l1.4-28.5h21v8.5H35.3l-0.3,7.2c1.5-1.1,3.3-1.7,5.2-1.6c0,0,0,0,0,0
	c3.3,0,8.9,1.5,8.9,11.5v10.2C49.1,44.3,44.8,48.9,37.4,48.9z M27.7,33.6v2.8c0,4.8,1.7,10.5,9.7,10.5s9.7-5.7,9.7-10.5V26.2
	c0-6.3-2.4-9.5-7-9.5c-2.3-0.2-4.3,0.9-5.4,2.8L32.8,19l0.5-11.9h12.6V2.6h-17l-1.2,24.5h4.7v-0.4c0-4.5,2.6-5.5,4.7-5.5
	s4.7,1,4.7,5.5v10c0,4.5-2.6,5.4-4.7,5.4c-3.1,0-4.7-1.8-4.7-5.4v-3.1H27.7z"/>
<path d="M83.9,48.3h-8.8V27.7L72,48.3h-8.5L60,27.2v21.1h-8.3V0.5h11.9l4.4,27l4.1-27h11.9V48.3z M77.1,46.3h4.8V2.5h-8.1L69,34.1
	l-2,0L61.8,2.5h-8.1v43.8H58V14.9l2-0.2l5.2,31.6h5.1l4.9-32l2,0.2V46.3z"/>
</svg>
