<?xml version="1.0" encoding="utf-8"?>
<!-- Generator: Adobe Illustrator 21.1.0, SVG Export Plug-In . SVG Version: 6.00 Build 0)  -->
<svg version="1.1" id="Layer_1" xmlns="http://www.w3.org/2000/svg" xmlns:xlink="http://www.w3.org/1999/xlink" x="0px" y="0px"
	 viewBox="0 0 215 215" style="enable-background:new 0 0 215 215;" xml:space="preserve">
<path id="Subtraction_1" d="M107.5,215c-7.3,0-14.5-0.7-21.7-2.2c-6.9-1.4-13.7-3.5-20.2-6.3c-6.4-2.7-12.5-6-18.3-9.9
	c-5.7-3.9-11-8.3-15.9-13.1c-4.9-4.9-9.3-10.2-13.1-15.9c-3.9-5.8-7.2-11.9-9.9-18.3c-2.7-6.5-4.8-13.3-6.3-20.2
	C0.7,122,0,114.8,0,107.5c0-7.3,0.7-14.5,2.2-21.7c1.4-6.9,3.5-13.7,6.3-20.2c2.7-6.4,6-12.5,9.9-18.3c3.9-5.7,8.3-11,13.1-15.9
	c4.9-4.9,10.2-9.3,15.9-13.1c5.8-3.9,11.9-7.2,18.3-9.9c6.5-2.7,13.3-4.8,20.2-6.3C93,0.7,100.2,0,107.5,0c7.3,0,14.5,0.7,21.7,2.2
	c6.9,1.4,13.7,3.5,20.2,6.3c6.4,2.7,12.5,6,18.3,9.9c5.7,3.9,11,8.3,15.9,13.1c4.9,4.9,9.3,10.2,13.1,15.9
	c3.9,5.8,7.2,11.9,9.9,18.3c2.7,6.5,4.8,13.3,6.3,20.2c1.5,7.1,2.2,14.4,2.2,21.7c0,7.3-0.7,14.5-2.2,21.7
	c-1.4,6.9-3.5,13.7-6.3,20.2c-2.7,6.4-6,12.5-9.9,18.3c-3.9,5.7-8.3,11-13.1,15.9c-4.9,4.9-10.2,9.3-15.9,13.1
	c-5.8,3.9-11.9,7.2-18.3,9.9c-6.5,2.7-13.3,4.8-20.2,6.3C122,214.3,114.8,215,107.5,215z M107.5,4c-6.3,0-12.7,0.7-18.8,2.1
	c-6,1.4-11.9,3.4-17.6,6c-5.6,2.6-10.9,5.8-15.9,9.5c-5,3.8-9.6,8-13.8,12.6c-4.3,4.7-8.1,9.9-11.4,15.3c-3.4,5.6-6.3,11.5-8.6,17.6
	c-2.4,6.3-4.2,12.8-5.4,19.4c-1.3,6.9-1.9,13.9-1.9,20.9c0,7,0.6,14,1.9,20.9c1.2,6.6,3,13.1,5.4,19.4c2.3,6.1,5.2,12,8.6,17.6
	c3.3,5.4,7.1,10.6,11.4,15.3c4.2,4.6,8.8,8.9,13.8,12.6c5,3.7,10.3,6.9,15.9,9.5c5.6,2.6,11.5,4.7,17.6,6c6.2,1.4,12.5,2.1,18.8,2.1
	c6.3,0,12.7-0.7,18.8-2.1c6-1.4,11.9-3.4,17.6-6c5.6-2.6,10.9-5.8,15.9-9.5c5-3.8,9.6-8,13.8-12.6c4.3-4.7,8.1-9.9,11.4-15.3
	c3.4-5.6,6.3-11.5,8.6-17.6c2.4-6.3,4.2-12.8,5.4-19.4c1.3-6.9,1.9-13.9,1.9-20.9c0-7-0.6-14-1.9-20.9c-1.2-6.6-3-13.1-5.4-19.4
	c-2.3-6.1-5.2-12-8.6-17.6c-3.3-5.4-7.1-10.6-11.4-15.3c-4.2-4.6-8.8-8.9-13.8-12.6c-5-3.7-10.3-6.9-15.9-9.5
	c-5.6-2.6-11.5-4.7-17.6-6C120.2,4.7,113.8,4,107.5,4z"/>
</svg>
