<?xml version="1.0" encoding="utf-8"?>
<!-- Generator: Adobe Illustrator 21.1.0, SVG Export Plug-In . SVG Version: 6.00 Build 0)  -->
<svg version="1.1" id="Layer_1" xmlns="http://www.w3.org/2000/svg" xmlns:xlink="http://www.w3.org/1999/xlink" x="0px" y="0px"
	 viewBox="0 0 18 18" style="enable-background:new 0 0 18 18;" xml:space="preserve">
<path fill="#ababab" id="dyyfa" d="M17,7.1C17.1,7.1,17.1,7.2,17,7.1L17,7.1z M6.4,5L6.4,5h0.2H6.4L6.4,5z M6.7,5.2v0.1H6.4L6.3,5.3V5.1L6.7,5.2z
	 M5.6,5h0.3L5.5,5.5L5.3,5.4l0-0.2L5.6,5z M6.2,5.3v0.1L6.1,5.6H5.8l0-0.2H6l0,0L6.2,5.3z M6.2,4.9V4.7l0.2,0.1L6.2,4.9z M6.3,5v0.1
	L6.2,5.2L6,5.2V5H6.3z M6.1,4.7v0.2H5.6l-0.2,0l0-0.1l0.2-0.1L6.1,4.7L6.1,4.7L6.1,4.7z M4.9,4.1L5.1,4l0.2,0l0,0.3L5,4.3L4.9,4.1z
	 M16.9,6.7h-0.6l-0.4-0.3l-0.4,0v0.3h-0.1l-0.1-0.1l-0.7-0.2V6l-0.9,0.1l-0.3,0.1h-0.6l-0.5,0.2v0.5l-0.9,0.6l0.1,0.3h0.2l0,0.3
	l-0.1,0v0.7l0.8,0.9h0.4v0h0.6l0.2-0.2h0.4l0.2,0.2l0.5,0l0,0.7l0.6,1l-0.3,0.6v0.3l0.2,0.2v0.6l0.3,0.4v0.6h0.3
	c-1.5,1.8-3.8,3.1-6.4,3.1c-4.5,0-8.2-3.7-8.2-8.3c0-1.1,0.2-2.1,0.6-3.1v0.4l0.3,0.2v0.6L2,7.6l0.3,0l0-0.2L2,7l0-0.5h0.2L2.3,7
	l0.5,0.6L2.6,7.9l0.3,0.5l0.7,0.2V8.4l0.3,0l0,0.2l0.2,0l0.4,0.1L5,9.3l0.6,0l0,0.5l-0.5,0.3v0.5l0,0.3l0.6,0.8l0,0.3l0.2,0
	c0,0,0.5,0.4,0.5,0.4v1.4l0.2,0l-0.1,0.6l0.3,0.4l0,0.6l0.4,0.7l0.5,0.4h0.5l0-0.1l-0.4-0.3v-0.1l0-0.2v-0.2H7.7l-0.1-0.1l0.2-0.2
	l0-0.1l-0.2,0V15l0.3,0l0.5-0.2l0.2-0.3l0.5-0.6L9,13.3L9.1,13h0.5l0.3-0.2l0.1-1l0.4-0.5l0-0.3l-0.2-0.2l-0.2-0.4H9.2l-0.6-0.2
	l0-0.4L8.4,9.5H7.9L7.6,9.1L7.3,8.9v0.1l-0.5,0L6.6,8.9L6.1,8.8L5.7,9.3L5.1,9.1l0-0.7L4.6,8.3l0.2-0.4l0-0.2L4.1,8.1l-0.4,0
	L3.5,7.7l0.1-0.3L3.8,7l0.5-0.3h1V7l0.4,0.2l0-0.5l0.2-0.3l0.5-0.3l0-0.2l0.5-0.5L7.5,5H7.4l0.4-0.3l0.1,0l0,0.1l0.1-0.1H8l-0.1,0
	V4.4l0.1,0h0.2l0.1,0l0.1,0.1h0.1l0.2,0l0-0.1h0v0.1L8.7,4.6v0.1l0.5,0.1h0.1V4.7L8.8,4.5V4.4l0.3-0.1V4.1L8.8,3.9V3.4L8.4,3.6H8.3
	V3.2L7.7,3.1L7.5,3.3v0.6L7,4L6.8,4.3l-0.2,0V3.9l-0.4,0L6.1,3.7L6,3.4L6.7,3l0.4-0.1l0,0.2h0.2V3l0.2,0v0l-0.1,0V2.7h0.3l0.1-0.2
	l0,0l0.6,0l0.2,0.2L8.1,2.9l0.8,0.2l0.1-0.3h0.4l0.1-0.2l-0.2,0V2.3L8.4,2L7.9,2L7.5,2.2v0.4l-0.3,0V2.3L7.5,2L7,2L6.8,2l0,0.2
	l0.1,0l0,0.2H6.5l0,0.1H6c0,0,0-0.3,0-0.3h0.4L6.7,2L6.5,2L6.2,2.2H5.9L5.7,1.9H5.2L4.7,2.2h0.5l0,0.1L5.1,2.5h0.5l0.1,0.2H5.1
	l0-0.1L4.7,2.4L4.6,2.3H4.2c1.4-1,3.1-1.6,4.9-1.6c2.1,0,4,0.8,5.5,2.1L14.3,3L14,3.1l-0.1,0.2l0,0.2l0.2,0l0.1,0.3l0.3-0.1l0,0.4
	h-0.1l-0.3,0l-0.3,0l-0.3,0.4l-0.4,0l0,0.4l0.2,0l0,0.2l-0.4-0.1l-0.4,0.1l-0.1,0.2l0,0.5L12.7,6h0.6l0.1-0.2l0.4-0.5l0.3,0l0.3-0.2
	l0,0.2l0.6,0.4L15,5.8h-0.3L14.8,6L15,6l0.2-0.1V5.7l0.1,0l-0.1-0.1l-0.4-0.2L14.7,5h0.4l0.1,0.1l0.3,0.3v0.3L15.8,6L16,5.6l0.2-0.1
	l0,0.4L16.5,6h0.4C16.8,6.2,16.8,6.4,16.9,6.7L16.9,6.7z M1.4,5.9L1.4,5.9l0-0.2v0.1C1.4,5.8,1.4,5.8,1.4,5.9L1.4,5.9z M1.4,5.5
	l0.3-0.4C1.8,4.9,1.9,4.7,2,4.5v0.1L1.7,5.1C1.6,5.3,1.5,5.5,1.4,5.7V5.5z M4.4,3.1l0.2,0v0.2l-0.4,0l0-0.1L4.4,3.1z M4.2,2.7h0.2v0
	h0.3v0.1L4.5,2.9H4.2V2.7z M15,3.7V3.3c0.1,0.1,0.3,0.3,0.4,0.5L15.3,4h-0.6l0-0.1L15,3.7z M16.3,5.3L16.3,5.3
	c0.1,0.1,0.2,0.2,0.2,0.4h-0.2V5.3z M18,8.9c0-0.3,0-0.5,0-0.8c-0.1-0.8-0.3-1.7-0.6-2.5c0,0,0-0.1,0-0.2c-0.4-1-1-1.8-1.7-2.6
	l-0.1-0.1l-0.4-0.4C13.4,0.8,11.2,0,9,0C6.7,0,4.6,0.9,2.9,2.4c-0.4,0.3-0.7,0.7-1,1.1C0.7,5.1,0,7,0,9c0,5,4,9,9,9
	c3.5,0,6.5-2,8-4.9c0.3-0.6,0.6-1.3,0.7-2c0-0.2,0.1-0.4,0.1-0.6C17.9,10,18,9.5,18,8.9C18,9,18,8.9,18,8.9z"/>
</svg>
