<?xml version="1.0" encoding="utf-8"?>
<!-- Generator: Adobe Illustrator 21.1.0, SVG Export Plug-In . SVG Version: 6.00 Build 0)  -->
<svg version="1.1" id="Layer_1" xmlns="http://www.w3.org/2000/svg" xmlns:xlink="http://www.w3.org/1999/xlink" x="0px" y="0px"
	 viewBox="0 0 30 23" style="enable-background:new 0 0 30 23;" xml:space="preserve">
<path id="u022a" fill="#3953a4" d="M10.9,18c-0.2,0-0.3,0.2-0.3,0.4c0,0.2,0.2,0.3,0.3,0.3h14.4c0.1,0,0.2,0,0.2-0.1c0.1-0.1,0.1-0.3,0-0.5
	c0,0,0,0,0,0c-0.1-0.1-0.1-0.1-0.2-0.1L10.9,18C11,18,10.9,18,10.9,18L10.9,18z M10.9,14.1c-0.2,0-0.3,0.2-0.3,0.4
	c0,0.2,0.2,0.3,0.3,0.3h14.4c0.1,0,0.2,0,0.2-0.1c0.1-0.1,0.1-0.3,0-0.5c0,0,0,0,0,0c-0.1-0.1-0.1-0.1-0.2-0.1L10.9,14.1
	C11,14.1,10.9,14.1,10.9,14.1L10.9,14.1z M11.3,4.9h13.8v5.2H11.3V4.9z M1.2,4.9h5.2v14.9c0,1.4-1.1,2.3-2.4,2.4c0,0,0,0-0.1,0H3.8
	c-1.5,0-2.6-1-2.6-2.5L1.2,4.9z M10.9,4.3c-0.2,0-0.3,0.2-0.3,0.3v5.9c0,0.2,0.1,0.3,0.3,0.3h14.4c0.2,0,0.3-0.1,0.3-0.3V4.6
	c0-0.2-0.1-0.3-0.3-0.3H10.9C11,4.3,10.9,4.3,10.9,4.3L10.9,4.3z M7.1,0.7h22.3v19.2c0,1.5-1,2.5-2.4,2.5H5.7
	c0.8-0.5,1.4-1.4,1.4-2.5V0.7z M6.7,0C6.5,0,6.4,0.2,6.4,0.3v3.9H0.8c-0.2,0-0.3,0.1-0.3,0.3v15.2c0,1.8,1.5,3.1,3.3,3.1h23.1
	c1.8,0,3.1-1.3,3.1-3.1V0.3C30,0.2,29.9,0,29.7,0L6.7,0C6.7,0,6.7,0,6.7,0L6.7,0z"/>
</svg>
