<svg xmlns="http://www.w3.org/2000/svg" viewBox="0 0 691 1209"><path d="M300.2 1137.3c-15.2-5.1-27.9-12.7-40.6-22.8-10.2-10.2-20.3-22.8-25.4-35.5-2.5-7.6-5.1-15.2-5.1-20.3-2.5-7.6-2.5-12.7-2.5-20.3v-15.2c12.7-2.5 22.8-5.1 35.5-10.2 22.8-7.6 43.1-20.3 60.9-38.1 7.6-7.6 17.8-17.8 22.8-25.4 7.6 10.2 15.2 17.8 22.8 25.4 25.4 25.4 60.9 40.6 99 48.2v12.7c0 15.2-2.5 27.9-10.2 43.1-5.1 12.7-15.2 25.4-25.4 35.5-10.1 10.2-25.4 17.8-40.6 22.8-15.2 5.1-30.5 7.6-45.7 7.6-15.1.1-30.3-2.4-45.5-7.5zm7.6-200.5c-2.5 5.1-2.5 12.7-5.1 17.8-5.1 12.7-15.2 25.4-25.4 35.5-10.2 10.2-25.4 17.8-40.6 22.8-5.1 2.5-7.6 2.5-10.2 5.1V898.8c22.9 17.7 50.8 30.4 81.3 38zm-81.2-614.1c0-15.2 2.5-27.9 10.2-43.1 5.1-12.7 15.2-25.4 25.4-35.5 12.7-12.7 27.9-20.3 45.7-25.4 2.5 7.6 2.5 12.7 2.5 20.3v675c0 7.6 0 12.7-2.5 20.3-2.5 0-5.1-2.5-7.6-2.5-15.2-5.1-27.9-12.7-40.6-22.8-10.2-10.2-20.3-22.8-25.4-35.5-5.1-12.7-10.1-27.9-10.1-43.1V322.7h2.4zm0-190.4c2.5 0 5.1 2.5 10.2 2.5 15.2 5.1 27.9 12.7 40.6 22.8 10.2 10.2 20.3 22.8 25.4 35.5 0 7.6 2.5 12.7 2.5 20.3l-30.5 7.6c-17.8 7.6-35.5 15.2-50.8 27.9V132.3h2.6zm0-17.7c0-15.2 2.5-27.9 10.2-43.1 5.1-12.7 15.2-25.4 25.4-35.5C285 15.7 315.5 3 348.5 3c15.2 0 33 2.5 45.7 7.6 12.7 7.6 27.9 15.2 38.1 25.4 10.2 10.2 20.3 22.8 25.4 35.5 5.1 12.7 10.2 27.9 10.2 43.1v12.7c-12.7 2.5-25.4 5.1-38.1 10.2-22.8 7.6-43.1 20.3-60.9 38.1-7.6 7.6-17.8 17.8-22.8 25.4-7.6-10.2-15.2-17.8-22.8-25.4-17.8-15.2-38.1-27.9-60.9-38.1-12.7-5.1-25.4-7.6-35.5-10.2l-.3-12.7zm238.5 134.5V247c.8.7 1.7 1.4 2.5 2.1h-2.5zm-48.2-27.9c-10.2-5.1-22.8-7.6-35.5-10.2 2.5-5.1 2.5-10.2 5.1-15.2 5.1-12.7 15.2-25.4 25.4-35.5 15.2-12.7 33-22.8 53.3-27.9V247c-14.5-11.5-29.1-18.7-48.3-25.8zm50.8 606.5c0 15.2-2.5 30.5-10.2 43.1-5.1 12.7-15.2 25.4-25.4 35.5-10.2 10.2-25.4 17.8-40.6 22.8-2.5 2.5-7.6 2.5-10.2 2.5-2.5-7.6-2.5-12.7-2.5-20.3V238.9c0-7.6 0-15.2 2.5-22.8 2.5 0 7.6 2.5 10.2 2.5 15.2 7.6 30.5 15.2 40.6 25.4 10.2 10.2 20.3 22.8 25.4 35.5 5.1 12.7 10.2 27.9 10.2 43.1v505.1zm0 190.3c-5.1 0-10.2-2.5-12.7-5.1-15.2-5.1-27.9-12.7-40.6-22.8-10.2-10.2-20.3-22.8-25.4-35.5-2.5-5.1-5.1-10.2-5.1-17.8 12.7-2.5 22.8-5.1 35.5-10.2 17.8-7.6 35.5-15.2 50.8-27.9V1018h-2.5zm-324.9-5c-15.2-5.1-27.9-12.7-40.6-22.8C92 980 81.9 967.4 76.8 954.7c-5.1-12.7-10.2-27.9-10.2-43.1V238.9c0-15.2 2.5-27.9 10.2-43.1 5.1-12.7 15.2-25.4 25.4-35.5 17.8-15.2 38.1-25.4 60.9-30.5-2.5 12.7-5.1 27.9-5.1 40.6v807c0 15.2 2.5 30.5 5.1 43.1-5.1-2.4-12.7-5-20.3-7.5zm385.8-883.2c7.6 2.5 12.7 2.5 17.8 5.1 15.2 5.1 27.9 12.7 38.1 22.8 10.2 10.2 20.3 22.8 25.4 35.5 5.1 12.7 10.2 27.9 10.2 43.1v675.1c0 15.2-2.5 27.9-10.2 43.1-5.1 12.7-15.2 25.4-25.4 35.5-10.2 10.2-25.4 17.8-38.1 22.8-5.1 2.5-12.7 5.1-17.8 5.1 5.1-12.7 5.1-27.9 5.1-43.1V170.4c0-12.7-2.6-27.9-5.1-40.6zm5.1 1017.7h2.5-2.5zm-162.5 0c15.2-2.5 33-5.1 48.2-10.2 22.8-7.6 43.1-20.3 60.9-38.1 17.8-15.2 30.5-35.5 40.6-55.8 2.5-5.1 5.1-12.7 7.6-17.8 15.2-2.5 30.5-5.1 45.7-10.2 22.8-7.6 43.1-20.3 60.9-38.1 17.8-15.2 30.5-35.5 40.6-55.8 10.2-20.3 15.2-43.1 15.2-66V297.3c0-22.8-5.1-45.7-15.2-66-10.2-20.3-22.8-40.6-40.6-55.8s-38.1-27.9-60.9-38.1c-15.2-5.1-30.5-10.2-45.7-12.7-2.5-7.6-5.1-12.7-7.6-20.3-10.2-20.3-22.8-40.6-40.6-55.8-17.8-15.2-38.1-27.9-60.9-38.1C396.6 5.4 371.2.3 345.8.3 320.4.3 295 5.4 274.7 13c-22.8 10.2-43.1 22.8-60.9 38.1-22.8 20.3-38.1 45.7-48.2 73.6-17.8 2.5-33 7.6-48.2 12.7-22.8 7.6-43.1 20.3-60.9 38.1C21 205.9.7 249.1.7 294.8v558.3c0 22.8 5.1 45.7 15.2 66 10.2 20.3 22.8 40.6 40.6 55.8 27.9 25.4 68.5 43.1 109.1 48.2 2.5 5.1 5.1 12.7 7.6 17.8 10.2 20.3 22.8 40.6 40.6 55.8 10.2 10.2 22.8 17.8 35.5 25.4 7.6 12.7 17.8 25.4 27.9 35.5 33 30.5 81.2 50.8 132 50.8h124.4v-60.9H371.2z" fill="#fff"/></svg>