<?xml version="1.0" encoding="utf-8"?>
<!-- Generator: Adobe Illustrator 21.1.0, SVG Export Plug-In . SVG Version: 6.00 Build 0)  -->
<svg version="1.1" id="Layer_1" xmlns="http://www.w3.org/2000/svg" xmlns:xlink="http://www.w3.org/1999/xlink" x="0px" y="0px"
	 viewBox="0 0 691 1209" style="enable-background:new 0 0 691 1209;" xml:space="preserve">
<style type="text/css">
	.st0{fill:#FFFFFF;}
</style>
<path id="bywta" class="st0" d="M300.2,1137.3c-15.2-5.1-27.9-12.7-40.6-22.8c-10.2-10.2-20.3-22.8-25.4-35.5
	c-2.5-7.6-5.1-15.2-5.1-20.3c-2.5-7.6-2.5-12.7-2.5-20.3v-15.2c12.7-2.5,22.8-5.1,35.5-10.2c22.8-7.6,43.1-20.3,60.9-38.1
	c7.6-7.6,17.8-17.8,22.8-25.4c7.6,10.2,15.2,17.8,22.8,25.4c25.4,25.4,60.9,40.6,99,48.2v12.7c0,15.2-2.5,27.9-10.2,43.1
	c-5.1,12.7-15.2,25.4-25.4,35.5c-10.1,10.2-25.4,17.8-40.6,22.8c-15.2,5.1-30.5,7.6-45.7,7.6
	C330.6,1144.9,315.4,1142.4,300.2,1137.3L300.2,1137.3z M307.8,936.8c-2.5,5.1-2.5,12.7-5.1,17.8c-5.1,12.7-15.2,25.4-25.4,35.5
	c-10.2,10.2-25.4,17.8-40.6,22.8c-5.1,2.5-7.6,2.5-10.2,5.1V898.8C249.4,916.5,277.3,929.2,307.8,936.8z M226.6,322.7
	c0-15.2,2.5-27.9,10.2-43.1c5.1-12.7,15.2-25.4,25.4-35.5c12.7-12.7,27.9-20.3,45.7-25.4c2.5,7.6,2.5,12.7,2.5,20.3V914
	c0,7.6,0,12.7-2.5,20.3c-2.5,0-5.1-2.5-7.6-2.5c-15.2-5.1-27.9-12.7-40.6-22.8c-10.2-10.2-20.3-22.8-25.4-35.5
	c-5.1-12.7-10.1-27.9-10.1-43.1V322.7H226.6z M226.6,132.3c2.5,0,5.1,2.5,10.2,2.5c15.2,5.1,27.9,12.7,40.6,22.8
	c10.2,10.2,20.3,22.8,25.4,35.5c0,7.6,2.5,12.7,2.5,20.3l-30.5,7.6c-17.8,7.6-35.5,15.2-50.8,27.9V132.3H226.6z M226.6,114.6
	c0-15.2,2.5-27.9,10.2-43.1c5.1-12.7,15.2-25.4,25.4-35.5c22.8-20.3,53.3-33,86.3-33c15.2,0,33,2.5,45.7,7.6
	c12.7,7.6,27.9,15.2,38.1,25.4c10.2,10.2,20.3,22.8,25.4,35.5c5.1,12.7,10.2,27.9,10.2,43.1v12.7c-12.7,2.5-25.4,5.1-38.1,10.2
	c-22.8,7.6-43.1,20.3-60.9,38.1c-7.6,7.6-17.8,17.8-22.8,25.4c-7.6-10.2-15.2-17.8-22.8-25.4c-17.8-15.2-38.1-27.9-60.9-38.1
	c-12.7-5.1-25.4-7.6-35.5-10.2L226.6,114.6z M465.1,249.1V247c0.8,0.7,1.7,1.4,2.5,2.1H465.1z M416.9,221.2
	c-10.2-5.1-22.8-7.6-35.5-10.2c2.5-5.1,2.5-10.2,5.1-15.2c5.1-12.7,15.2-25.4,25.4-35.5c15.2-12.7,33-22.8,53.3-27.9V247
	C450.7,235.5,436.1,228.3,416.9,221.2z M467.7,827.7c0,15.2-2.5,30.5-10.2,43.1c-5.1,12.7-15.2,25.4-25.4,35.5
	c-10.2,10.2-25.4,17.8-40.6,22.8c-2.5,2.5-7.6,2.5-10.2,2.5c-2.5-7.6-2.5-12.7-2.5-20.3V238.9c0-7.6,0-15.2,2.5-22.8
	c2.5,0,7.6,2.5,10.2,2.5c15.2,7.6,30.5,15.2,40.6,25.4c10.2,10.2,20.3,22.8,25.4,35.5c5.1,12.7,10.2,27.9,10.2,43.1V827.7z
	 M467.7,1018c-5.1,0-10.2-2.5-12.7-5.1c-15.2-5.1-27.9-12.7-40.6-22.8c-10.2-10.2-20.3-22.8-25.4-35.5c-2.5-5.1-5.1-10.2-5.1-17.8
	c12.7-2.5,22.8-5.1,35.5-10.2c17.8-7.6,35.5-15.2,50.8-27.9V1018H467.7z M142.8,1013c-15.2-5.1-27.9-12.7-40.6-22.8
	c-10.2-10.2-20.3-22.8-25.4-35.5c-5.1-12.7-10.2-27.9-10.2-43.1V238.9c0-15.2,2.5-27.9,10.2-43.1c5.1-12.7,15.2-25.4,25.4-35.5
	c17.8-15.2,38.1-25.4,60.9-30.5c-2.5,12.7-5.1,27.9-5.1,40.6v807c0,15.2,2.5,30.5,5.1,43.1C158,1018.1,150.4,1015.5,142.8,1013
	L142.8,1013z M528.6,129.8c7.6,2.5,12.7,2.5,17.8,5.1c15.2,5.1,27.9,12.7,38.1,22.8c10.2,10.2,20.3,22.8,25.4,35.5
	c5.1,12.7,10.2,27.9,10.2,43.1v675.1c0,15.2-2.5,27.9-10.2,43.1c-5.1,12.7-15.2,25.4-25.4,35.5c-10.2,10.2-25.4,17.8-38.1,22.8
	c-5.1,2.5-12.7,5.1-17.8,5.1c5.1-12.7,5.1-27.9,5.1-43.1V170.4C533.7,157.7,531.1,142.5,528.6,129.8L528.6,129.8z M533.7,1147.5h2.5
	H533.7z M371.2,1147.5c15.2-2.5,33-5.1,48.2-10.2c22.8-7.6,43.1-20.3,60.9-38.1c17.8-15.2,30.5-35.5,40.6-55.8
	c2.5-5.1,5.1-12.7,7.6-17.8c15.2-2.5,30.5-5.1,45.7-10.2c22.8-7.6,43.1-20.3,60.9-38.1c17.8-15.2,30.5-35.5,40.6-55.8
	c10.2-20.3,15.2-43.1,15.2-66V297.3c0-22.8-5.1-45.7-15.2-66c-10.2-20.3-22.8-40.6-40.6-55.8s-38.1-27.9-60.9-38.1
	c-15.2-5.1-30.5-10.2-45.7-12.7c-2.5-7.6-5.1-12.7-7.6-20.3c-10.2-20.3-22.8-40.6-40.6-55.8c-17.8-15.2-38.1-27.9-60.9-38.1
	c-22.8-5.1-48.2-10.2-73.6-10.2c-25.4,0-50.8,5.1-71.1,12.7c-22.8,10.2-43.1,22.8-60.9,38.1c-22.8,20.3-38.1,45.7-48.2,73.6
	c-17.8,2.5-33,7.6-48.2,12.7c-22.8,7.6-43.1,20.3-60.9,38.1C21,205.9,0.7,249.1,0.7,294.8v558.3c0,22.8,5.1,45.7,15.2,66
	c10.2,20.3,22.8,40.6,40.6,55.8c27.9,25.4,68.5,43.1,109.1,48.2c2.5,5.1,5.1,12.7,7.6,17.8c10.2,20.3,22.8,40.6,40.6,55.8
	c10.2,10.2,22.8,17.8,35.5,25.4c7.6,12.7,17.8,25.4,27.9,35.5c33,30.5,81.2,50.8,132,50.8h124.4v-60.9L371.2,1147.5z"/>
</svg>
