<svg xmlns="http://www.w3.org/2000/svg" viewBox="0 0 19.7 19.7"><path fill="#3953a4" d="M9.9.5C4.7.5.5 4.7.5 9.9s4.2 9.4 9.4 9.4 9.4-4.2 9.4-9.4C19.2 4.7 15 .5 9.9.5zM3.8 16.3c.1-2 1.7-3.8 4.1-4.5.6.3 1.3.5 1.9.5.7 0 1.3-.2 1.9-.5 2.4.6 4.1 2.4 4.1 4.5-3.3 3.2-8.6 3.2-12 0zm6.1-4.4c-2 0-3.6-1.6-3.6-3.6s1.6-3.6 3.6-3.6 3.6 1.6 3.6 3.6c-.1 2-1.7 3.6-3.6 3.6zm6.5 4c-.4-2.1-2-3.8-4-4.4 1.8-1.4 2.1-3.9.7-5.7s-3.9-2-5.7-.7-2.1 3.9-.7 5.7c.2.3.5.5.7.7-2.1.6-3.7 2.3-4 4.4C0 12.3.2 6.7 3.8 3.3s9.2-3.1 12.6.5c3.1 3.4 3.1 8.7 0 12.1z"/><path fill="#415364" d="M9.9 19.7C4.4 19.7 0 15.3 0 9.9S4.4 0 9.9 0c2.6 0 5.1 1 7 2.9 1.9 1.9 2.9 4.3 2.9 7-.1 5.4-4.5 9.8-9.9 9.8zm-5.6-3.6c3.2 2.8 7.9 2.8 11.1 0-.2-1.7-1.5-3.1-3.6-3.7-.6.3-1.3.5-2 .5s-1.4-.2-2-.5c-1.9.6-3.3 2.1-3.5 3.7zM9.9 1.5c-2 0-4.1.7-5.7 2.2C1 6.6.7 11.5 3.2 14.8c.6-1.6 1.8-2.9 3.3-3.5-.1-.1-.1-.2-.2-.2-.7-1-1.1-2.2-.9-3.4.2-1.2.8-2.3 1.7-3 2-1.5 4.8-1.2 6.4.8.7 1 1.1 2.2.9 3.4-.1.9-.5 1.7-1.1 2.4 1.5.7 2.8 1.9 3.3 3.5 2.4-3.2 2.2-7.7-.6-10.7-1.6-1.7-3.9-2.6-6.1-2.6zm0 3.8c-.9 0-1.6.3-2.2.9-.6.5-.9 1.3-.9 2.1s.3 1.6.9 2.2c.6.6 1.3.9 2.2.9 1.7 0 3.1-1.4 3.1-3.1-.1-1.7-1.5-3-3.1-3z"/></svg>