<svg xmlns="http://www.w3.org/2000/svg" viewBox="0 0 18 18"><path fill="#ababab" d="M17 7.1c.1 0 .1.1 0 0zM6.4 5h.2-.2zm.3.2v.1h-.4v-.2l.4.1zM5.6 5h.3l-.4.5-.2-.1v-.2l.3-.2zm.6.3v.1l-.1.2h-.3v-.2H6l.2-.1zm0-.4v-.2l.2.1-.2.1zm.1.1v.1l-.1.1H6V5h.3zm-.2-.3v.2h-.7v-.1l.2-.1h.5zm-1.2-.6l.2-.1h.2v.3H5l-.1-.2zm12 2.6h-.6l-.4-.3h-.4v.3h-.1l-.1-.1-.7-.2V6l-.9.1-.3.1h-.6l-.5.2v.5l-.9.6.1.3h.2v.3h-.1v.7l.8.9h1l.2-.2h.4l.2.2h.5v.7l.6 1-.3.6v.3l.2.2v.6l.3.4v.6h.3c-1.5 1.8-3.8 3.1-6.4 3.1-4.5 0-8.2-3.7-8.2-8.3 0-1.1.2-2.1.6-3.1v.4l.3.2V7l-.1.6h.3v-.2L2 7v-.5h.2l.1.5.5.6-.2.3.3.5.7.2v-.2h.3v.2h.2l.4.1.5.6h.6v.5l-.5.3v.8l.6.8v.3h.2l.5.4v1.4h.2l-.1.6.3.4v.6l.4.7.5.4h.5v-.1l-.4-.3v-.5h-.1l-.1-.1.2-.2v-.1h-.2V15h.3l.5-.2.2-.3.5-.6-.1-.6.1-.3h.5l.3-.2.1-1 .4-.5V11l-.2-.2-.2-.4h-.8l-.6-.2v-.4l-.2-.3h-.5l-.3-.4-.3-.2V9h-.5l-.2-.1-.5-.1-.4.5-.6-.2v-.7l-.5-.1.2-.4v-.2l-.7.4h-.4l-.2-.4.1-.3.2-.4.5-.3h1V7l.4.2v-.5l.2-.3.5-.3v-.2l.5-.5.6-.4h-.1l.4-.3h.1v.1l.1-.1h-.1v-.3h.4l.1.1h.3v-.1.3l.5.1h.1v-.1l-.5-.2v-.1l.3-.1v-.2l-.3-.2v-.5l-.4.2h-.1v-.4l-.6-.1-.2.2v.6L7 4l-.2.3h-.2v-.4h-.4l-.1-.2-.1-.3.7-.4.4-.1v.2h.2V3h.2-.1v-.3h.3l.1-.2h.6l.2.2-.5.2.8.2.1-.3h.4l.1-.2h-.2v-.3L8.4 2h-.5l-.4.2v.4h-.3v-.3l.3-.3h-.7v.2h.1v.2h-.4v.1H6v-.3h.4l.3-.2h-.2l-.3.2h-.3l-.2-.3h-.5l-.5.3h.5v.1l-.1.2h.5l.1.2h-.6v-.1l-.4-.2-.1-.1h-.4C5.6 1.3 7.3.7 9.1.7c2.1 0 4 .8 5.5 2.1l-.3.2-.3.1-.1.2v.2h.2l.1.3.3-.1v.4h-.7l-.3.4h-.4v.4h.2v.2l-.4-.1-.4.1-.1.2v.5l.3.2h.6l.1-.2.4-.5h.3l.3-.2v.2l.6.4v.1h-.3l.1.2h.2l.2-.1v-.2h.1l-.1-.1-.4-.2-.1-.4h.4l.1.1.3.3v.3l.3.3.2-.4.2-.1v.4l.3.1h.4c-.1.2-.1.4 0 .7zM1.4 5.9v-.2.2zm0-.4l.3-.4.3-.6v.1l-.3.5-.3.6v-.2zm3-2.4h.2v.2h-.4v-.1l.2-.1zm-.2-.4h.5v.1l-.2.1h-.3v-.2zm10.8 1v-.4c.1.1.3.3.4.5l-.1.2h-.6v-.1l.3-.2zm1.3 1.6c.1.1.2.2.2.4h-.2v-.4zM18 8.9v-.8c-.1-.8-.3-1.7-.6-2.5v-.2c-.4-1-1-1.8-1.7-2.6l-.1-.1-.4-.4C13.4.8 11.2 0 9 0 6.7 0 4.6.9 2.9 2.4c-.4.3-.7.7-1 1.1C.7 5.1 0 7 0 9c0 5 4 9 9 9 3.5 0 6.5-2 8-4.9.3-.6.6-1.3.7-2 0-.2.1-.4.1-.6.1-.5.2-1 .2-1.6 0 .1 0 0 0 0z"/></svg>