<svg xmlns="http://www.w3.org/2000/svg" viewBox="0 0 50 50"><path d="M4.5 48v-1.6h41.4V48H4.5zm2.7-4.3h7.7v1.1H7.2v-1.1zM8.8 23h4.4v19.1H8.8V23zm6-2.7v1.1H7.2v-1.1h7.6zM5 18.6V17h40.3v1.6H5zM25.2 2.7l19.6 12.7H5.6L25.2 2.7zm18 18.7h-7.7v-1.1h7.7v1.1zm-1.7 20.7h-4.4V23h4.4v19.1zm-6 1.6h7.7v1.1h-7.7v-1.1zM29 42.1V23h1.6v-2.8h3.3V23h1.6v19.1h-1.6v2.8h-3.3v-2.8H29zm-7.7 1.6H29v1.1h-7.7v-1.1zm0-22.3v-1.1H29v1.1h-7.7zM23 42.1V23h4.4v19.1H23zm-8.2 0V23h1.6v-2.8h3.3V23h1.6v19.1h-1.6v2.8h-3.3v-2.8h-1.6zm30 2.7V42h-1.6V23h1.6v-2.8H47V17h3.3L25.2.7.1 17h3.3v3.3h2.2V23h1.6v19.1H5.5v2.8H2.8v3.3H.6v1.6h49.1v-1.6h-2.2v-3.3h-2.7z"/></svg>