<?xml version="1.0" encoding="utf-8"?>
<svg fill="white" id="LOGO" xmlns="http://www.w3.org/2000/svg" viewBox="0 0 173 93">
  <path id="XMLID_1_" d="M41.325,88.358H28.584a16.064,16.064,0,0,0,3.656-.884A14.567,14.567,0,0,0,36.949,84.6a13.135,13.135,0,0,0,3.158-4.255,15.3,15.3,0,0,0,.554-1.437,17.865,17.865,0,0,0,3.49-.829,14.566,14.566,0,0,0,4.709-2.873,12.781,12.781,0,0,0,3.158-4.31,11.911,11.911,0,0,0,1.108-5.029v-43.1a11.911,11.911,0,0,0-1.108-5.029,13.348,13.348,0,0,0-3.158-4.31,14.567,14.567,0,0,0-4.709-2.873,14.953,14.953,0,0,0-3.435-.884c-.166-.5-.332-1.05-.554-1.547A13.348,13.348,0,0,0,37,3.813,14.567,14.567,0,0,0,32.3.939,16.98,16.98,0,0,0,26.7,0,15.136,15.136,0,0,0,16.452,3.868a13.078,13.078,0,0,0-3.711,5.747,16.309,16.309,0,0,0-3.767.884,14.567,14.567,0,0,0-4.709,2.873A12.656,12.656,0,0,0,0,22.711v43.1a11.911,11.911,0,0,0,1.108,5.029,13.348,13.348,0,0,0,3.158,4.31A14.908,14.908,0,0,0,12.8,78.909a15.3,15.3,0,0,0,.554,1.437A13.135,13.135,0,0,0,16.508,84.6a15.319,15.319,0,0,0,2.659,1.879,12.83,12.83,0,0,0,2.216,2.652A15.349,15.349,0,0,0,31.631,93h9.694V88.358ZM40.771,10h0a13.9,13.9,0,0,1,1.44.387,9.927,9.927,0,0,1,3.047,1.824,8.376,8.376,0,0,1,2.05,2.763,8.018,8.018,0,0,1,.72,3.26V70.178a8.018,8.018,0,0,1-.72,3.26,8.376,8.376,0,0,1-2.05,2.763,10.067,10.067,0,0,1-3.047,1.879,10.961,10.961,0,0,1-1.44.442,12.522,12.522,0,0,0,.443-3.26V13.152A12.346,12.346,0,0,0,40.771,10ZM10.913,78.08h0A9.087,9.087,0,0,1,7.866,76.2a8.376,8.376,0,0,1-2.05-2.763,8.018,8.018,0,0,1-.72-3.26V18.235a7.208,7.208,0,0,1,.72-3.26,8.376,8.376,0,0,1,2.05-2.763A9.659,9.659,0,0,1,12.63,9.891a12.523,12.523,0,0,0-.443,3.26V75.262a10.92,10.92,0,0,0,.5,3.316,10.638,10.638,0,0,1-1.773-.5Zm25.15.332h0a7.71,7.71,0,0,1-1.053-.332A9.087,9.087,0,0,1,31.963,76.2a9.222,9.222,0,0,1-2.05-2.763,8.576,8.576,0,0,1-.443-1.271,14.023,14.023,0,0,0,2.714-.774,15.184,15.184,0,0,0,3.822-2.155v9.173Zm0-14.7h0a8.018,8.018,0,0,1-.72,3.26,8.376,8.376,0,0,1-2.05,2.763,8.952,8.952,0,0,1-3.047,1.824,4.159,4.159,0,0,1-.886.276,7.871,7.871,0,0,1-.166-1.6V18.291a8.413,8.413,0,0,1,.166-1.658,4.883,4.883,0,0,1,.831.276,9.087,9.087,0,0,1,3.047,1.879,8.376,8.376,0,0,1,2.05,2.763,8.018,8.018,0,0,1,.72,3.26v38.9Zm0-44.538h0A16.215,16.215,0,0,0,32.24,17.02a21.883,21.883,0,0,0-2.714-.774,10.732,10.732,0,0,1,.443-1.216,7.676,7.676,0,0,1,2.05-2.763,9.743,9.743,0,0,1,4.1-2.155v9.062ZM17.339,8.731h0a7.208,7.208,0,0,1,.72-3.26,8.376,8.376,0,0,1,2.05-2.763A9.863,9.863,0,0,1,26.756.221,9.408,9.408,0,0,1,30.3.884a9.927,9.927,0,0,1,3.047,1.824A8.376,8.376,0,0,1,35.4,5.471a8.018,8.018,0,0,1,.72,3.26v.995a16.937,16.937,0,0,0-2.991.774,14.567,14.567,0,0,0-4.709,2.873,15.59,15.59,0,0,0-1.828,1.989,15.59,15.59,0,0,0-1.828-1.989A14.567,14.567,0,0,0,20.053,10.5a15.829,15.829,0,0,0-2.659-.718V8.731Zm0,1.437h0c.222.055.5.166.72.221a9.927,9.927,0,0,1,3.047,1.824,8.376,8.376,0,0,1,2.05,2.763,4.94,4.94,0,0,1,.443,1.271,17.573,17.573,0,0,0-2.437.663,15.184,15.184,0,0,0-3.822,2.155v-8.9Zm0,14.588h0a7.208,7.208,0,0,1,.72-3.26,8.376,8.376,0,0,1,2.05-2.763,10.027,10.027,0,0,1,3.6-2.045,7.348,7.348,0,0,1,.166,1.547V70.178a6.843,6.843,0,0,1-.166,1.492c-.166-.055-.388-.111-.554-.166a9.927,9.927,0,0,1-3.047-1.824,8.376,8.376,0,0,1-2.05-2.763,8.018,8.018,0,0,1-.72-3.26v-38.9Zm0,44.538h0a14.692,14.692,0,0,0,6.26,2.818,5.456,5.456,0,0,1-.5,1.326A7.676,7.676,0,0,1,21.05,76.2,10.067,10.067,0,0,1,18,78.08a3.589,3.589,0,0,1-.72.221V69.294Zm5.817,18.291h0a9.087,9.087,0,0,1-3.047-1.879,8.376,8.376,0,0,1-2.05-2.763,7.867,7.867,0,0,1-.5-1.492,7.484,7.484,0,0,1-.166-1.6h0v-1.16a18.669,18.669,0,0,0,2.659-.718A14.567,14.567,0,0,0,24.762,75.1a13.019,13.019,0,0,0,1.828-2.045A21.016,21.016,0,0,0,28.418,75.1a14.953,14.953,0,0,0,7.7,3.647v.939a8.018,8.018,0,0,1-.72,3.26,8.376,8.376,0,0,1-2.05,2.763A10.067,10.067,0,0,1,30.3,87.585a9.617,9.617,0,0,1-3.545.663A10.958,10.958,0,0,1,23.155,87.585Z" transform="translate(0)"/>
  <g id="Group_4" data-name="Group 4" transform="translate(66.585 21.496)">
    <g id="Group_1" data-name="Group 1" transform="translate(2.382)">
      <path id="Path_1" data-name="Path 1" class="cls-2" d="M137.684,44.481l6.426-2.321V38.9l-9.528,3.537v2.487l2.05,4.863a6.075,6.075,0,0,1,.554,2.155c0,1.16-.609,1.768-1.883,1.768h-2.05a2.02,2.02,0,0,1-2.271-2.266V47.962H127.99v6.8a5.222,5.222,0,0,1-.776,3.2A5.2,5.2,0,0,1,124.5,59.4l1,2.818a8.179,8.179,0,0,0,3.933-2.21,6.864,6.864,0,0,0,1.551-4.089,2.8,2.8,0,0,0,1.883.663h2.714a4.062,4.062,0,0,0,4.6-4.421,9.185,9.185,0,0,0-.886-3.7Z" transform="translate(-124.5 -38.9)"/>
      <path id="Path_2" data-name="Path 2" class="cls-2" d="M162.607,52.1a5.188,5.188,0,0,0-3.822,1.437A5.31,5.31,0,0,0,157.4,57.46a4.946,4.946,0,0,0,1.274,3.647A4.516,4.516,0,0,0,162,62.378a4.235,4.235,0,0,0,2.105-.5,3.887,3.887,0,0,1-1.883,2.376,13.569,13.569,0,0,1-4.155,1.16l.443,2.873c3.158-.276,5.484-1.16,6.924-2.708,1.44-1.492,2.16-3.813,2.16-6.852Q167.51,52.1,162.607,52.1Zm1.385,7.128a2.048,2.048,0,0,1-1.5.608,2,2,0,0,1-1.551-.608,2.756,2.756,0,0,1-.554-1.713,2.368,2.368,0,0,1,.554-1.713,1.9,1.9,0,0,1,1.5-.663,1.823,1.823,0,0,1,1.5.663,2.605,2.605,0,0,1,.554,1.768A2.007,2.007,0,0,1,163.992,59.228Z" transform="translate(-139.175 -44.806)"/>
      <rect id="Rectangle_2" data-name="Rectangle 2" class="cls-2" width="3.047" height="2.984" transform="translate(39.054 19.23)"/>
      <path id="Path_3" data-name="Path 3" class="cls-2" d="M187.3,58.737a2.6,2.6,0,0,1-.5,1.768,2.448,2.448,0,0,1-1.717.553h-.332a2.02,2.02,0,0,1-2.271-2.266V55.311H179.49v6.8a5.222,5.222,0,0,1-.776,3.2A5.2,5.2,0,0,1,176,66.749l1,2.818a8.179,8.179,0,0,0,3.933-2.21,6.864,6.864,0,0,0,1.551-4.089,2.8,2.8,0,0,0,1.883.663h1a4.535,4.535,0,0,0,4.93-5.084V55.2H187.3v3.537Z" transform="translate(-147.471 -46.193)"/>
      <rect id="Rectangle_3" data-name="Rectangle 3" class="cls-2" width="3.047" height="2.984" transform="translate(56.226 4.034)"/>
      <rect id="Rectangle_4" data-name="Rectangle 4" class="cls-2" width="3.047" height="2.984" transform="translate(60.381 4.034)"/>
      <rect id="Rectangle_5" data-name="Rectangle 5" class="cls-2" width="3.047" height="2.984" transform="translate(74.784 19.23)"/>
      <rect id="Rectangle_6" data-name="Rectangle 6" class="cls-2" width="3.047" height="2.984" transform="translate(70.629 19.23)"/>
      <path id="Path_4" data-name="Path 4" class="cls-2" d="M237.018,64.031a4.535,4.535,0,0,0,4.93-5.084V55.3h-2.991v3.426a2.6,2.6,0,0,1-.5,1.768,2.448,2.448,0,0,1-1.717.553h-.388a2.473,2.473,0,0,1-1.883-.608,2.761,2.761,0,0,1-.5-1.824V55.3H230.98v3.316a2.1,2.1,0,0,1-2.437,2.431h-5.706a3.546,3.546,0,0,1-2.77-.884,3.409,3.409,0,0,1-.831-2.431V55.3H216.3v2.6c0,4.089,2.216,6.078,6.592,6.078h5.373c1.828,0,3.1-.553,3.767-1.713a3.4,3.4,0,0,0,3.324,1.713h1.662Z" transform="translate(-165.447 -46.238)"/>
      <path id="Path_5" data-name="Path 5" class="cls-2" d="M289.4,38.9l-9.528,3.537v2.487l2.05,4.863a6.074,6.074,0,0,1,.554,2.155c0,1.16-.609,1.768-1.883,1.768h-3.712V52.273c0-2.431-.554-4.144-1.606-5.029a4.894,4.894,0,0,0-3.324-1.05,4.808,4.808,0,0,0-3.767,1.492,5.74,5.74,0,0,0-1.385,3.923,5.478,5.478,0,0,0,.942,3.316c.886,1.216,2.493,1.824,4.709,1.824h1a3.544,3.544,0,0,1-2.05,1.824,14.773,14.773,0,0,1-4.155.884l.443,2.873c5.1-.387,8.032-2.266,8.863-5.636h4.21a4.062,4.062,0,0,0,4.6-4.421,9.184,9.184,0,0,0-.886-3.7l-1.5-4.089L289.4,42.16ZM273.946,53.709h-1.385a2.957,2.957,0,0,1-2.271-.774,2.62,2.62,0,0,1,.055-3.15,2.048,2.048,0,0,1,1.5-.608,1.8,1.8,0,0,1,1.329.5c.5.442.72,1.381.72,2.763v1.271Z" transform="translate(-187.972 -38.9)"/>
    </g>
    <g id="Group_3" data-name="Group 3" transform="translate(0 34.758)">
      <g id="Group_2" data-name="Group 2">
        <path id="Path_6" data-name="Path 6" class="cls-2" d="M125.518,101.8a5.141,5.141,0,0,1,3.878,1.547,4.308,4.308,0,0,1,1.274,2.21,20.442,20.442,0,0,1,.222,3.647,22.255,22.255,0,0,1-.166,3.15,5.061,5.061,0,0,1-.72,1.989l1.274,1.271-1.5,1.492-1.274-1.271a5.669,5.669,0,0,1-2.936.774,5.352,5.352,0,0,1-3.933-1.547,3.859,3.859,0,0,1-1.219-2.21,20.052,20.052,0,0,1-.222-3.647,19.668,19.668,0,0,1,.222-3.647,4.419,4.419,0,0,1,1.219-2.21A5.226,5.226,0,0,1,125.518,101.8Zm0,2.542a2.342,2.342,0,0,0-1.828.774,2.693,2.693,0,0,0-.554,1.271,23.978,23.978,0,0,0,0,5.636,2.966,2.966,0,0,0,.554,1.271,2.318,2.318,0,0,0,1.828.774,2.177,2.177,0,0,0,1-.221l-1.329-1.326,1.5-1.492,1.163,1.16a16.443,16.443,0,0,0,.222-3.039,15.483,15.483,0,0,0-.166-2.818,2.966,2.966,0,0,0-.554-1.271A2.305,2.305,0,0,0,125.518,104.342Z" transform="translate(-120.2 -101.8)"/>
        <path id="Path_7" data-name="Path 7" class="cls-2" d="M151.377,115.449a4.873,4.873,0,0,1-3.324,1.16,4.776,4.776,0,0,1-3.324-1.16,4.006,4.006,0,0,1-1.329-3.2,3.678,3.678,0,0,1,1.828-3.26,3.529,3.529,0,0,1-1.662-3.039,3.834,3.834,0,0,1,1.274-2.984,4.876,4.876,0,0,1,6.315,0,3.734,3.734,0,0,1,1.274,2.984,3.529,3.529,0,0,1-1.662,3.039,4.232,4.232,0,0,1,.609,6.465Zm-4.764-1.824a2,2,0,1,0-.609-1.437A2.014,2.014,0,0,0,146.613,113.625Zm.111-6.3a1.881,1.881,0,0,0,2.548,0,2.013,2.013,0,0,0,0-2.652,1.881,1.881,0,0,0-2.548,0,2.013,2.013,0,0,0,0,2.652Z" transform="translate(-130.548 -101.8)"/>
        <path id="Path_8" data-name="Path 8" class="cls-2" d="M173.5,102h5.817a4.723,4.723,0,0,1,3.324,1.105,3.9,3.9,0,0,1,1.219,2.984,3.131,3.131,0,0,1-.554,1.879,4.786,4.786,0,0,1-1.219,1.16,3.345,3.345,0,0,1,2.05,3.26,3.877,3.877,0,0,1-1.219,3.094,4.768,4.768,0,0,1-3.268,1.105h-6.094V102Zm5.65,2.542h-2.825v3.371h2.825a2.076,2.076,0,0,0,1.385-.442,1.623,1.623,0,0,0,.5-1.216,1.541,1.541,0,0,0-.5-1.216A2.028,2.028,0,0,0,179.15,104.542Zm.166,5.913h-2.991v3.592h2.991a1.982,1.982,0,0,0,1.44-.5,1.869,1.869,0,0,0,0-2.542A1.882,1.882,0,0,0,179.317,110.455Z" transform="translate(-143.974 -101.889)"/>
        <path id="Path_9" data-name="Path 9" class="cls-2" d="M197.8,102h5.706a4.692,4.692,0,0,1,3.435,1.271,4.375,4.375,0,0,1,1.274,3.15,3.87,3.87,0,0,1-.776,2.431,4.188,4.188,0,0,1-1.883,1.381l3.268,6.3H205.5l-2.825-5.8h-2.05v5.8H197.8Zm5.54,2.542h-2.714v3.813h2.714a2.008,2.008,0,0,0,1.5-.553,2,2,0,0,0,0-2.763A2.221,2.221,0,0,0,203.34,104.542Z" transform="translate(-154.813 -101.889)"/>
        <path id="Path_10" data-name="Path 10" class="cls-2" d="M226.073,101.8a5.352,5.352,0,0,1,3.933,1.547,3.859,3.859,0,0,1,1.219,2.21,20.747,20.747,0,0,1,.222,3.7,20.75,20.75,0,0,1-.222,3.7,4.2,4.2,0,0,1-1.219,2.21,5.58,5.58,0,0,1-3.933,1.547,5.351,5.351,0,0,1-3.933-1.547,3.859,3.859,0,0,1-1.219-2.21,20.051,20.051,0,0,1-.222-3.647,19.667,19.667,0,0,1,.222-3.647,4.418,4.418,0,0,1,1.219-2.21A5.124,5.124,0,0,1,226.073,101.8Zm0,2.542a2.342,2.342,0,0,0-1.828.774,2.245,2.245,0,0,0-.554,1.271,23.981,23.981,0,0,0,0,5.636,2.966,2.966,0,0,0,.554,1.271,2.175,2.175,0,0,0,1.828.774,2.342,2.342,0,0,0,1.828-.774,2.245,2.245,0,0,0,.554-1.271,23.977,23.977,0,0,0,0-5.636,2.966,2.966,0,0,0-.554-1.271A2.175,2.175,0,0,0,226.073,104.342Z" transform="translate(-165.028 -101.8)"/>
        <path id="Path_11" data-name="Path 11" class="cls-2" d="M256.911,102l-4.819,5.8,5.207,8.786h-3.324l-3.767-6.631-1.883,2.266v4.365H245.5V102h2.825v6.355L253.477,102Z" transform="translate(-176.089 -101.889)"/>
        <path id="Path_12" data-name="Path 12" class="cls-2" d="M279.583,102v2.542h-6.758v3.426h5.761v2.542h-5.761v3.537h6.758v2.542H270V102Z" transform="translate(-187.018 -101.889)"/>
        <path id="Path_13" data-name="Path 13" class="cls-2" d="M292.4,102h5.706a4.692,4.692,0,0,1,3.435,1.271,4.375,4.375,0,0,1,1.274,3.15,3.87,3.87,0,0,1-.776,2.431,4.187,4.187,0,0,1-1.883,1.381l3.268,6.3H300.1l-2.825-5.8h-2.05v5.8H292.4V102Zm5.54,2.542h-2.714v3.813h2.714a2.008,2.008,0,0,0,1.5-.553,2,2,0,0,0,0-2.763A2.221,2.221,0,0,0,297.94,104.542Z" transform="translate(-197.009 -101.889)"/>
      </g>
    </g>
  </g>
</svg>
