<?xml version="1.0" encoding="utf-8"?>
<!-- Generator: Adobe Illustrator 23.0.2, SVG Export Plug-In . SVG Version: 6.00 Build 0)  -->
<svg fill="white" version="1.1" id="Layer_1" xmlns="http://www.w3.org/2000/svg" xmlns:xlink="http://www.w3.org/1999/xlink" x="0px" y="0px"
	 viewBox="0 0 479.04 178.75" style="enable-background:new 0 0 479.04 178.75;" xml:space="preserve">
<path id="XMLID_19_" d="M80.6,167.41H56.85c2.35-0.31,4.67-0.8,6.94-1.46c3.31-1.11,6.32-2.99,8.77-5.48
		c2.46-2.27,4.45-5,5.85-8.04c0.37-0.73,0.73-1.83,1.1-2.56c2.23-0.31,4.43-0.8,6.58-1.46c3.31-1.11,6.32-2.99,8.77-5.48
		c2.46-2.27,4.45-5,5.85-8.04c1.45-2.95,2.21-6.21,2.19-9.5V45.01c0.01-3.29-0.74-6.54-2.19-9.5c-1.4-3.04-3.38-5.77-5.85-8.04
		c-2.64-2.24-5.59-4.09-8.77-5.48c-2.14-0.78-4.34-1.39-6.58-1.83c-0.37-1.1-0.73-1.83-1.1-2.92c-1.4-3.04-3.38-5.77-5.85-8.04
		c-2.64-2.24-5.59-4.09-8.77-5.48c-3.47-0.87-7.02-1.36-10.6-1.46c-3.49,0.01-6.95,0.63-10.23,1.83c-3.17,1.39-6.13,3.24-8.77,5.48
		c-3.17,2.89-5.55,6.54-6.94,10.6c-2.37,0.39-4.69,1-6.94,1.83c-3.31,1.11-6.32,2.99-8.77,5.48C6.47,31.74,3.53,38.01,3.5,44.64
		v80.38c-0.01,3.29,0.74,6.54,2.19,9.5c1.4,3.04,3.38,5.77,5.85,8.04c4.43,3.82,9.9,6.24,15.71,6.94c0.37,0.73,0.73,1.83,1.1,2.56
		c1.4,3.04,3.38,5.77,5.85,8.04c1.55,1.42,3.27,2.65,5.12,3.65c1.13,1.86,2.48,3.58,4.02,5.12c5.22,4.69,11.98,7.29,19,7.31h17.9
		v-8.77H80.6z M79.5,20.89L79.5,20.89c0.87,0.19,1.72,0.44,2.56,0.73c2.06,0.65,3.94,1.78,5.48,3.29c1.54,1.45,2.78,3.19,3.65,5.12
		c0.87,1.96,1.37,4.07,1.46,6.21v97.19c0.04,2.16-0.46,4.3-1.46,6.21c-0.88,1.92-2.12,3.66-3.65,5.12c-1.6,1.44-3.46,2.55-5.48,3.29
		c-0.8,0.41-1.66,0.66-2.56,0.73c0.62-2.01,0.87-4.11,0.73-6.21V26.74C80.17,24.77,79.93,22.81,79.5,20.89z M23.96,148.04
		L23.96,148.04c-2.13-0.73-4.11-1.85-5.84-3.29c-1.54-1.45-2.78-3.19-3.65-5.12c-0.87-1.96-1.37-4.07-1.46-6.21V36.6
		c-0.04-2.16,0.46-4.3,1.46-6.21c0.88-1.92,2.12-3.66,3.65-5.12c2.51-2.17,5.53-3.68,8.77-4.39c-0.42,1.92-0.67,3.88-0.73,5.85
		v116.2c0.04,2.09,0.29,4.17,0.73,6.21C25.94,148.72,24.96,148.35,23.96,148.04L23.96,148.04z M70.73,148.77L70.73,148.77
		c-0.68-0.01-1.33-0.27-1.83-0.73c-2.13-0.73-4.11-1.85-5.85-3.29c-1.54-1.45-2.78-3.19-3.65-5.12c-0.46-0.78-0.71-1.66-0.73-2.56
		c1.75-0.32,3.46-0.81,5.12-1.46c2.62-0.97,5.08-2.33,7.31-4.02v17.17L70.73,148.77z M70.73,121.37L70.73,121.37
		c0.08,2.16-0.42,4.31-1.46,6.21c-0.88,1.92-2.12,3.66-3.65,5.12c-1.68,1.52-3.68,2.64-5.85,3.29c-0.43,0.29-0.95,0.42-1.46,0.37
		c-0.3-0.94-0.43-1.93-0.37-2.92V36.6c-0.06-1.11,0.07-2.22,0.37-3.29c0.37,0,1.1,0.37,1.46,0.37c2.12,0.91,4.09,2.15,5.85,3.65
		c1.54,1.45,2.78,3.19,3.65,5.12c0.87,1.96,1.37,4.07,1.46,6.21V121.37L70.73,121.37z M70.73,38.06L70.73,38.06
		c-2.18-1.76-4.65-3.13-7.31-4.02c-1.64-0.7-3.36-1.19-5.12-1.46c0.37-0.73,0.37-1.46,0.73-2.19c0.88-1.92,2.12-3.66,3.65-5.12
		c2.22-1.9,4.84-3.28,7.67-4.02v16.81L70.73,38.06z M36.02,18.7L36.02,18.7c-0.04-2.16,0.46-4.3,1.46-6.21
		c0.88-1.92,2.12-3.66,3.65-5.12c3.42-3.05,7.84-4.74,12.42-4.75c2.24-0.02,4.46,0.35,6.58,1.09c1.96,1,3.8,2.23,5.48,3.65
		c1.54,1.45,2.78,3.19,3.65,5.12c0.87,1.96,1.37,4.07,1.46,6.21v1.83c-1.87,0.32-3.7,0.8-5.48,1.46c-3.31,1.11-6.32,2.99-8.77,5.48
		c-1.2,1.12-2.3,2.35-3.29,3.65c-1-1.3-2.1-2.52-3.29-3.65c-2.64-2.24-5.59-4.09-8.77-5.48c-1.67-0.61-3.38-1.1-5.12-1.46V18.7z
		 M36.02,21.26L36.02,21.26c0.37,0,0.73,0.37,1.46,0.37c2.13,0.73,4.11,1.85,5.85,3.29c1.53,1.45,2.77,3.19,3.65,5.11
		c0,1.1,0.37,1.83,0.37,2.92l-4.39,1.1c-2.62,0.97-5.08,2.33-7.31,4.02V21.26H36.02z M36.02,48.66L36.02,48.66
		c-0.04-2.16,0.46-4.3,1.46-6.21c0.88-1.92,2.12-3.66,3.65-5.12c1.84-1.77,4.1-3.03,6.58-3.65c0.3,0.94,0.43,1.93,0.37,2.92v97.19
		c0.06,0.99-0.07,1.98-0.37,2.92c-0.37,0-0.73-0.37-1.1-0.37c-2.13-0.73-4.11-1.85-5.85-3.29c-1.54-1.45-2.78-3.19-3.65-5.12
		c-0.87-1.96-1.37-4.07-1.46-6.21V48.66H36.02z M36.02,131.6L36.02,131.6c3.48,2.62,7.46,4.48,11.69,5.48
		c-0.37,0.73-0.37,1.83-0.73,2.56c-0.88,1.92-2.12,3.66-3.65,5.12c-1.68,1.52-3.68,2.64-5.85,3.29c-0.73,0.37-1.1,0.37-1.46,0.73
		L36.02,131.6L36.02,131.6z M46.61,165.95L46.61,165.95c-2.13-0.73-4.11-1.85-5.85-3.29c-1.54-1.45-2.78-3.19-3.65-5.12
		c-0.37-0.94-0.62-1.92-0.73-2.92c-0.3-0.94-0.43-1.93-0.37-2.92l0,0v-2.19c1.75-0.32,3.46-0.81,5.12-1.46
		c3.31-1.11,6.32-2.99,8.77-5.48c1.2-1.13,2.29-2.35,3.29-3.65c1,1.3,2.1,2.52,3.29,3.65c3.97,3.66,8.92,6.07,14.25,6.94v1.83
		c0.04,2.16-0.46,4.3-1.46,6.21c-0.88,1.92-2.12,3.66-3.65,5.12c-1.68,1.52-3.68,2.64-5.85,3.29c-4.26,1.46-8.89,1.46-13.15,0
		L46.61,165.95z"/>
    <g id="Group_5_11_" transform="translate(81.164 12.639)">
      <rect id="Rectangle_14_11_" x="109.42" y="57.58" class="st0" width="6.94" height="6.94"/>
      <rect id="Rectangle_15_11_" x="99.92" y="57.58" class="st0" width="6.94" height="6.94"/>
      <path id="Path_2005_11_" class="st0" d="M123.67,40.41c0,2.92-0.37,4.75-1.1,5.48c-1.01,1.13-2.52,1.67-4.02,1.46h-0.73
			c-2.19,0-3.65-0.37-4.39-1.46c-0.79-1.19-1.18-2.6-1.1-4.02v-7.67h-6.94v7.67c0.08,1.54-0.3,3.06-1.1,4.39
			c-1.16,0.84-2.59,1.23-4.02,1.1H95.9v-3.29c0-5.48-1.1-9.5-3.65-11.69c-2.19-1.71-4.9-2.61-7.67-2.56
			c-3.25-0.15-6.42,1.03-8.77,3.29c-2.32,2.46-3.51,5.76-3.29,9.13c-0.17,2.73,0.61,5.44,2.19,7.67c2.19,2.92,5.85,4.02,10.96,4.02
			h2.19c-1.11,1.9-2.77,3.43-4.75,4.39c-3.01,1.28-6.23,2.02-9.5,2.19l1.1,6.58c11.69-0.73,18.63-5.12,20.46-12.79h6.58
			c2.9,0.13,5.61-1.44,6.94-4.02c1.49,2.6,4.31,4.15,7.3,4.02h4.39c4.02,0,6.94-1.46,8.4-4.39c1.35-2.85,1.98-5.99,1.83-9.13V15.19
			h-6.94V40.41z M89.32,47.35h-3.29c-1.89,0.15-3.75-0.51-5.12-1.83c-0.79-0.9-1.19-2.09-1.1-3.29c-0.14-1.49,0.4-2.97,1.46-4.02
			c1-0.91,2.3-1.43,3.65-1.46c1.09-0.1,2.17,0.3,2.92,1.1c1.41,1.89,2.06,4.23,1.83,6.58v2.92L89.32,47.35z"/>
      <rect id="Rectangle_16_11_" x="173.72" y="19.21" class="st0" width="6.94" height="6.94"/>
      <rect id="Rectangle_17_11_" x="193.09" y="22.5" class="st0" width="6.94" height="6.94"/>
      <rect id="Rectangle_18_11_" x="202.59" y="22.5" class="st0" width="6.94" height="6.94"/>
      <path id="Path_2006_11_" d="M204.42,34.19h-6.94v8.04c0.14,1.43-0.25,2.86-1.1,4.02c-1.16,0.84-2.59,1.23-4.02,1.1
			h-6.94c1.86-1.96,2.79-4.62,2.56-7.31c0.04-2.73-1.01-5.36-2.92-7.31c-4.92-3.9-11.88-3.9-16.81,0c-1.91,1.95-2.97,4.58-2.92,7.31
			c-0.24,2.58,0.7,5.13,2.56,6.94h-9.86v-3.29c0-5.48-1.1-9.5-3.65-11.69c-2.19-1.71-4.9-2.61-7.67-2.56
			c-3.25-0.15-6.42,1.03-8.77,3.29c-2.32,2.46-3.51,5.77-3.29,9.13c-0.17,2.73,0.61,5.44,2.19,7.67c2.19,2.92,5.85,4.02,10.96,4.02
			h2.19c-1.11,1.9-2.77,3.43-4.75,4.39c-3.01,1.28-6.23,2.02-9.5,2.19l1.1,6.58c11.69-0.73,18.63-5.12,20.46-12.79h10.6
			c2.57,0.17,5.09-0.76,6.94-2.56c1.99,1.8,4.63,2.73,7.31,2.56h9.86c3.08,0.17,6.1-0.88,8.4-2.92c2.1-2.42,3.16-5.57,2.92-8.77
			v-8.04H204.42z M151.8,47.35h-3.3c-1.89,0.15-3.75-0.51-5.12-1.83c-0.79-0.9-1.19-2.09-1.1-3.29c-0.14-1.49,0.4-2.97,1.46-4.02
			c1-0.91,2.3-1.43,3.65-1.46c1.09-0.1,2.17,0.3,2.92,1.1c1.41,1.89,2.07,4.24,1.83,6.58v2.92L151.8,47.35z M181.03,45.89
			c-0.9,1.06-2.27,1.6-3.65,1.46c-1.37,0.07-2.71-0.46-3.65-1.46c-0.92-1.14-1.43-2.55-1.46-4.02c-0.14-1.38,0.4-2.75,1.46-3.65
			c1.04-0.85,2.31-1.36,3.65-1.46c1.37-0.07,2.71,0.46,3.65,1.46c0.85,1.04,1.36,2.31,1.46,3.65
			C182.29,43.3,181.8,44.67,181.03,45.89L181.03,45.89z"/>
      <path id="Path_2007_11_" d="M209.9,49.91c0.21,2.57-0.43,5.14-1.83,7.31c-1.66,1.74-3.84,2.9-6.21,3.29l2.19,6.58
			c3.75-0.78,7.11-2.85,9.5-5.85c2.19-2.56,2.93-6.21,2.93-10.96V34.19h-6.94v15.71H209.9z"/>
      <rect id="Rectangle_19_11_" x="253.01" y="57.58" class="st0" width="6.94" height="6.94"/>
      <path id="Path_2008_11_" d="M254.84,41.87c0.14,1.43-0.25,2.86-1.1,4.02c-1.16,0.84-2.59,1.23-4.02,1.1h-4.75v-3.29
			c0-5.48-1.1-9.5-3.65-11.69c-2.19-1.71-4.9-2.61-7.67-2.56c-3.25-0.15-6.42,1.03-8.77,3.29c-2.32,2.46-3.51,5.77-3.29,9.13
			c-0.17,2.73,0.61,5.44,2.19,7.67c2.19,2.92,5.85,4.02,10.96,4.02h2.19c-1.11,1.9-2.77,3.43-4.75,4.39
			c-3.01,1.28-6.23,2.02-9.5,2.19l1.1,6.58c11.69-0.73,18.63-5.12,20.46-12.79h5.48c3.08,0.17,6.1-0.88,8.4-2.92
			c2.1-2.42,3.16-5.57,2.92-8.77v-8.4h-6.21V41.87z M238.03,47.35h-3.29c-1.89,0.15-3.75-0.51-5.12-1.83
			c-0.79-0.9-1.19-2.09-1.1-3.29c-0.14-1.49,0.4-2.97,1.46-4.02c1-0.91,2.3-1.43,3.65-1.46c1.09-0.1,2.17,0.3,2.92,1.1
			c1.41,1.89,2.06,4.24,1.83,6.58v2.92L238.03,47.35z"/>
      <rect id="Rectangle_20_11_" x="301.97" y="22.5" class="st0" width="6.94" height="6.94"/>
      <rect id="Rectangle_21_11_" x="292.47" y="22.5" class="st0" width="6.94" height="6.94"/>
      <rect id="Rectangle_22_11_" x="335.22" y="57.58" class="st0" width="6.94" height="6.94"/>
      <path id="Path_2009_11_" d="M327.55,53.92c3.08,0.17,6.1-0.88,8.4-2.92c2.1-2.42,3.16-5.57,2.92-8.77v-8.4h-6.94v8.04
			c0.14,1.43-0.25,2.86-1.1,4.02c-1.16,0.84-2.59,1.23-4.02,1.1h-1.1c-2.19,0-3.65-0.37-4.39-1.46c-0.79-1.19-1.18-2.6-1.1-4.02
			v-7.67h-6.94v7.67c0.14,1.43-0.25,2.86-1.1,4.02c-0.73,1.1-2.19,1.46-4.39,1.46h-12.79c-2.3,0.26-4.59-0.55-6.21-2.19
			c-1.2-1.58-1.84-3.5-1.83-5.48v-5.48h-6.58v5.85c0,9.5,5.12,13.88,14.99,13.88h12.42c4.39,0,7.31-1.46,8.77-4.02
			c1.58,2.69,4.56,4.25,7.67,4.02h3.29L327.55,53.92z"/>
      <rect id="Rectangle_23_11_" x="325.36" y="57.58" class="st0" width="6.94" height="6.94"/>
      <path id="Path_2010_11_" d="M396.24,13l-21.92,8.04v5.84l4.75,11.33c0.73,1.63,1.22,3.35,1.46,5.12
			c0,2.56-1.46,4.02-4.39,4.02h-8.77v-3.28c0-5.48-1.1-9.5-3.65-11.69c-2.19-1.71-4.9-2.61-7.67-2.56
			c-3.25-0.15-6.42,1.03-8.77,3.29c-2.32,2.46-3.51,5.77-3.28,9.14c-0.17,2.73,0.61,5.44,2.19,7.67c2.19,2.92,5.85,4.02,10.96,4.02
			h2.19c-1.11,1.9-2.77,3.43-4.75,4.39c-3.01,1.28-6.23,2.02-9.5,2.19l1.1,6.58c11.69-0.73,18.63-5.12,20.46-12.79h9.5
			c2.97,0.18,5.88-0.88,8.04-2.92c1.8-1.99,2.73-4.63,2.56-7.31c-0.08-2.93-0.83-5.81-2.19-8.4l-4.02-9.5l14.99-5.48V13H396.24z
			 M360.8,47.35h-3.29c-1.89,0.15-3.75-0.51-5.12-1.83c-0.79-0.9-1.19-2.09-1.1-3.29c-0.14-1.49,0.4-2.97,1.46-4.02
			c1-0.91,2.3-1.43,3.65-1.46c1.09-0.1,2.17,0.3,2.92,1.1c1.41,1.89,2.06,4.23,1.83,6.58v2.92L360.8,47.35z"/>
    </g>
    <g id="Group_6_11_" transform="translate(85.508 55.887)">
      <path id="Path_2011_11_" d="M88.63,49.77c3.33-0.2,6.57,1.15,8.77,3.65c1.45,1.39,2.46,3.16,2.92,5.12
			c0.51,2.77,0.75,5.59,0.73,8.4c0.1,2.44-0.02,4.89-0.37,7.31c-0.15,1.61-0.79,3.14-1.83,4.39l2.92,2.92l-3.29,3.65l-2.92-2.92
			c-2.1,1.25-4.5,1.88-6.94,1.83c-3.42,0.13-6.74-1.2-9.13-3.65c-1.45-1.39-2.46-3.16-2.92-5.12c-0.35-2.79-0.47-5.6-0.37-8.4
			c-0.1-2.81,0.02-5.62,0.37-8.4c0.46-1.95,1.48-3.73,2.92-5.12C81.98,51.12,85.23,49.81,88.63,49.77z M88.63,55.62
			c-1.65-0.01-3.23,0.65-4.39,1.83c-0.73,0.79-1.12,1.84-1.1,2.92c-0.38,2.17-0.51,4.38-0.37,6.58c-0.12,2.2,0,4.41,0.37,6.58
			c0.3,1,0.67,1.97,1.1,2.92c1.15,1.18,2.74,1.84,4.39,1.83c0.75,0.06,1.5-0.07,2.19-0.37l-2.92-2.92l3.3-3.65l2.56,2.56
			c0.36-2.3,0.49-4.62,0.37-6.94c0.14-2.2,0.01-4.41-0.37-6.58c-0.26-1.07-0.76-2.07-1.46-2.92C91.56,56.15,90.11,55.42,88.63,55.62
			z"/>
      <path id="Path_2012_11_" d="M124.44,81.2c-2.16,1.76-4.89,2.66-7.67,2.56c-2.79,0.17-5.54-0.75-7.67-2.56
			c-2.06-1.85-3.14-4.55-2.92-7.31c-0.05-3.07,1.46-5.96,4.02-7.67c-2.36-1.51-3.75-4.15-3.65-6.94c-0.04-2.62,1.02-5.14,2.92-6.94
			c1.99-1.8,4.63-2.73,7.31-2.56c2.67-0.11,5.29,0.81,7.31,2.56c1.9,1.8,2.96,4.32,2.92,6.94c0.1,2.8-1.29,5.44-3.65,6.94
			c2.77,1.55,4.45,4.5,4.39,7.67C127.55,76.64,126.38,79.24,124.44,81.2z M113.48,77.18c0.85,0.91,2.04,1.44,3.29,1.46
			c1.26,0.06,2.48-0.48,3.28-1.46c0.91-0.85,1.44-2.04,1.46-3.29c0.14-1.28-0.42-2.54-1.46-3.29c-0.85-0.91-2.04-1.44-3.29-1.46
			c-1.27-0.07-2.49,0.48-3.29,1.46c-0.91,0.85-1.44,2.04-1.46,3.29C111.94,75.16,112.49,76.38,113.48,77.18z M113.48,62.56
			c1.61,1.85,4.42,2.04,6.27,0.42c1.85-1.61,2.04-4.42,0.42-6.27s-4.42-2.04-6.27-0.42c-0.97,0.84-1.52,2.06-1.52,3.34
			C112.35,60.72,112.74,61.77,113.48,62.56L113.48,62.56z"/>
      <path id="Path_2013_11_" d="M144.17,50.14h13.15c2.96-0.11,5.84,0.94,8.04,2.92c3.9,4.09,3.9,10.52,0,14.62
			c-2.2,1.98-5.08,3.03-8.04,2.92h-6.58v12.42h-6.58V50.14z M156.96,55.98h-6.21v9.14h6.21c1.3,0.03,2.58-0.35,3.65-1.1
			c0.91-0.85,1.44-2.04,1.46-3.29c0.14-1.28-0.42-2.54-1.46-3.29C159.67,56.45,158.33,55.91,156.96,55.98z"/>
      <path id="Path_2014_11_" d="M184.72,49.77c3.42-0.13,6.74,1.2,9.13,3.65c1.45,1.39,2.46,3.16,2.92,5.12
			c0.35,2.79,0.47,5.6,0.37,8.4c0.1,2.81-0.02,5.62-0.37,8.4c-0.46,1.95-1.48,3.73-2.92,5.12c-2.49,2.31-5.74,3.61-9.13,3.65
			c-3.42,0.13-6.74-1.2-9.13-3.65c-1.45-1.39-2.46-3.16-2.92-5.12c-0.35-2.79-0.47-5.6-0.37-8.4c-0.1-2.81,0.02-5.62,0.37-8.4
			c0.46-1.95,1.48-3.73,2.92-5.12C178.11,51.18,181.35,49.88,184.72,49.77z M184.72,55.62c-1.56-0.09-3.06,0.59-4.02,1.83
			c-0.7,0.85-1.2,1.85-1.46,2.92c-0.38,2.17-0.51,4.38-0.37,6.58c-0.11,2.2,0.02,4.4,0.37,6.58c0.26,1.07,0.76,2.07,1.46,2.92
			c1.05,1.11,2.49,1.76,4.02,1.83c1.54,0.01,3.01-0.65,4.02-1.83c0.7-0.85,1.2-1.85,1.46-2.92c0.38-2.17,0.51-4.38,0.37-6.58
			c0.14-2.2,0.01-4.41-0.37-6.58c-0.26-1.07-0.76-2.07-1.46-2.92C187.79,56.21,186.28,55.53,184.72,55.62z"/>
      <path id="Path_2015_11_" d="M203.72,50.14h13.15c2.95-0.04,5.81,1,8.04,2.92c1.91,1.95,2.97,4.58,2.92,7.31
			c0.01,1.98-0.63,3.9-1.83,5.48c-1.13,1.48-2.65,2.62-4.39,3.29l7.31,14.62h-7.67l-6.58-13.52h-4.39v13.52h-6.58V50.14z
			 M216.51,55.98h-6.21v8.77h6.21c1.2,0.09,2.38-0.3,3.29-1.1c0.91-0.85,1.44-2.04,1.46-3.29c0.07-1.27-0.48-2.49-1.46-3.29
			C218.9,56.29,217.71,55.89,216.51,55.98z"/>
      <path id="Path_2016_11_" d="M255.24,50.14v5.85h-8.77v27.77h-6.58V55.98h-8.77v-5.85H255.24z"/>
      <path id="Path_2017_11_" d="M282.65,50.14v5.85H267.3v8.4h13.15v5.85H267.3v13.52h-6.58V50.14H282.65z"/>
      <path id="Path_2018_11_" d="M298.36,49.77c3.42-0.13,6.74,1.2,9.13,3.65c1.45,1.39,2.46,3.16,2.92,5.12
			c0.35,2.79,0.47,5.6,0.37,8.4c0.1,2.81-0.02,5.62-0.37,8.4c-0.46,1.95-1.48,3.73-2.92,5.12c-2.49,2.31-5.74,3.61-9.13,3.65
			c-3.42,0.13-6.74-1.2-9.13-3.65c-1.45-1.39-2.46-3.16-2.92-5.12c-0.35-2.79-0.47-5.6-0.37-8.4c-0.1-2.81,0.02-5.62,0.37-8.4
			c0.46-1.95,1.48-3.73,2.92-5.12C291.75,51.18,294.98,49.88,298.36,49.77z M298.36,55.62c-1.56-0.09-3.06,0.59-4.02,1.83
			c-0.7,0.85-1.2,1.85-1.46,2.92c-0.38,2.17-0.51,4.38-0.37,6.58c-0.11,2.2,0.02,4.4,0.37,6.58c0.26,1.07,0.76,2.07,1.46,2.92
			c1.05,1.11,2.49,1.76,4.02,1.83c1.56,0.09,3.06-0.59,4.02-1.83c0.7-0.85,1.2-1.85,1.46-2.92c0.38-2.17,0.51-4.38,0.37-6.58
			c0.14-2.2,0.01-4.41-0.37-6.58c-0.26-1.07-0.76-2.07-1.46-2.92C301.42,56.21,299.92,55.53,298.36,55.62z"/>
      <path id="Path_2019_11_" d="M323.94,50.14v27.77h15.35v5.85h-21.56V50.14H323.94z"/>
      <path id="Path_2020_11_" d="M350.98,50.14v33.62h-6.58V50.14H350.98z"/>
      <path id="Path_2021_11_" d="M370.34,49.77c3.42-0.13,6.74,1.2,9.13,3.65c1.45,1.39,2.46,3.16,2.92,5.12
			c0.35,2.79,0.47,5.6,0.37,8.4c0.1,2.81-0.02,5.62-0.37,8.4c-0.46,1.95-1.48,3.73-2.92,5.12c-2.49,2.31-5.74,3.61-9.13,3.65
			c-3.42,0.13-6.74-1.2-9.13-3.65c-1.45-1.39-2.46-3.16-2.92-5.12c-0.35-2.79-0.47-5.6-0.37-8.4c-0.1-2.81,0.02-5.62,0.37-8.4
			c0.46-1.95,1.48-3.73,2.92-5.12C363.69,51.12,366.95,49.81,370.34,49.77z M370.34,55.62c-1.56-0.09-3.06,0.59-4.02,1.83
			c-0.7,0.85-1.2,1.85-1.46,2.92c-0.38,2.17-0.51,4.38-0.37,6.58c-0.11,2.2,0.02,4.4,0.37,6.58c0.26,1.07,0.76,2.07,1.46,2.92
			c1.05,1.11,2.49,1.76,4.02,1.83c1.56,0.09,3.06-0.59,4.02-1.83c0.7-0.85,1.2-1.85,1.46-2.92c0.38-2.17,0.51-4.38,0.37-6.58
			c0.14-2.2,0.01-4.41-0.37-6.58c-0.26-1.07-0.76-2.07-1.46-2.92C373.31,56.34,371.87,55.68,370.34,55.62z"/>
    </g>
</svg>
