<?xml version="1.0" encoding="utf-8"?>
<!-- Generator: Adobe Illustrator 21.1.0, SVG Export Plug-In . SVG Version: 6.00 Build 0)  -->
<svg version="1.1" id="Layer_1" xmlns="http://www.w3.org/2000/svg" xmlns:xlink="http://www.w3.org/1999/xlink" x="0px" y="0px"
	 viewBox="0 0 16 19.6" style="enable-background:new 0 0 16 19.6;" xml:space="preserve">
<g>
	<path fill="#ababab" id="Path_2280" d="M0.8,7.2C-0.8,10,0.2,14.4,2,17c0.9,1.3,1.8,2.5,3.1,2.5h0.1c0.5,0,1-0.2,1.4-0.4c0.5-0.3,1.1-0.4,1.7-0.4
		c0.6,0,1.1,0.1,1.6,0.4c0.5,0.2,1,0.4,1.6,0.4c1.4,0,2.3-1.3,3.1-2.4c0.6-0.8,1-1.8,1.3-2.8l0,0c0-0.1,0-0.2-0.1-0.2l0,0
		c-1.5-0.6-2.5-2.1-2.5-3.7c0-1.4,0.8-2.8,2-3.5l0,0c0.1,0,0.1-0.1,0.1-0.2c0,0,0,0,0,0c-0.8-1.2-2.2-1.9-3.6-2c-0.1,0-0.2,0-0.3,0
		c-0.8,0-1.6,0.2-2.3,0.6C8.9,5.4,8.5,5.5,8.1,5.5C7.7,5.5,7.3,5.4,7,5.2C6.4,4.9,5.7,4.7,5,4.7h0C3.2,4.7,1.7,5.7,0.8,7.2z"/>
	<path fill="#ababab" id="Path_2281" d="M11.8,0c-1.1,0.1-2.2,0.7-2.9,1.5c-0.8,0.8-1.1,2-1.1,3.1c0,0.1,0.1,0.1,0.1,0.1c0.1,0,0.1,0,0.2,0
		c1.1-0.1,2.1-0.6,2.8-1.4c0.8-0.9,1.1-2,1-3.2C12,0,11.9,0,11.8,0z"/>
</g>
</svg>
