<svg xmlns="http://www.w3.org/2000/svg" xmlns:xlink="http://www.w3.org/1999/xlink" width="31.5" height="62" viewBox="0 0 31.5 62"><svg viewBox="0 0 31.5 22.1" width="31.5" height="22.1" id="icon-arrow-r-red" y="0"><path fill="#FF4C55" d="M21.2.3c-.4-.4-1.1-.4-1.6 0-.4.4-.4 1.1 0 1.6l8 8H1.1c-.6.1-1.1.5-1.1 1.2s.5 1.1 1.1 1.1h26.6l-8 8c-.4.4-.4 1.2 0 1.6.4.4 1.2.4 1.6 0l10-10c.4-.4.4-1.1 0-1.6L21.2.3z"></path></svg><svg viewBox="0 0 31.5 22.1" width="31.5" height="22.1" id="icon-arrow-r-white" y="23"><path fill="#fff" d="M21.2.3c-.4-.4-1.1-.4-1.6 0-.4.4-.4 1.1 0 1.6l8 8H1.1c-.6.1-1.1.5-1.1 1.2s.5 1.1 1.1 1.1h26.6l-8 8c-.4.4-.4 1.2 0 1.6.4.4 1.2.4 1.6 0l10-10c.4-.4.4-1.1 0-1.6L21.2.3z"></path></svg><svg viewBox="0 0 15.136 15.136" width="15.136" height="15.136" id="icon-search" y="46"><defs><style>.cls-1{fill:#707070}</style></defs><path id="Icon_Search" class="cls-1" d="M10.149 1.779a5.918 5.918 0 1 0-.8 9.021 1.2 1.2 0 0 0 .351.652l3.358 3.358a1.24 1.24 0 0 0 1.754-1.754L11.452 9.7a1.2 1.2 0 0 0-.652-.351 5.933 5.933 0 0 0-.651-7.57zM9.1 9.1a4.478 4.478 0 0 1-6.265 0 4.478 4.478 0 0 1 0-6.265 4.478 4.478 0 0 1 6.265 0 4.478 4.478 0 0 1 0 6.265z" transform="translate(-.05 -.05)"></path></svg></svg>