<svg xmlns="http://www.w3.org/2000/svg" viewBox="0 0 52 52"><path d="M3.4 20.1l-.6-1.8c0-.1-.1-.3-.2-.4-.1-.3-.4-1-.3-1.2.1-.4.3-.8.5-.9.6-.4 1.2-.3 1.6 0 .1.1.2.3.3.4.3.4.4.8.6 1.4l.9 2.4c.1.4.6 1.8 1.5 3.4v.1c.2.5.7 1.5 1.8 2.6l6 5.9.3.3c.6.4 1.4.2 1.8-.2.6-.5.7-1.4.3-2.1v-.1l-.1-.1-2.9-2.9-1.6-1.5c-.3-.3-.8-.8-.8-1.4 0-.1 0-.6.4-.9.4-.3 1-.3 1.4-.1.2.1.3.2.4.3 1.2 1.2 2.5 2.3 3.7 3.3s2.4 2 3.6 3.2c.2.2.3.4.4.6l.1.1c1.9 2.6 1.7 8-.6 15.1-2.5-2-4.7-3.8-6.8-5.6.1-.7 0-1.3-.2-2-.3-1.1-.9-2-1.7-2.8l-5.8-5.7c-.5-.5-.9-1.1-1.2-1.7l-1.4-3.4-1.4-4.3zm3.1 10.2l5.8 5.7c.6.6 1.1 1.3 1.3 2.2.2.8.2 1.5.1 1.8v.4l.3.2c2.6 2.1 5.2 4.2 7.8 6.4l.7.6.3-.9c1.9-5.6 3.6-13.1.8-17.1l-.1-.1c-.1-.2-.3-.5-.6-.7-1.2-1.2-2.5-2.3-3.7-3.3-1.2-1-2.4-2-3.6-3.2-.1-.1-.4-.4-.8-.6-.7-.3-1.8-.4-2.7.3-.6.5-.9 1.2-.9 1.9 0 1.2.8 2 1.2 2.4l1.5 1.5 2.9 2.9c.1.2 0 .4 0 .4-.1 0-.2.1-.3.1l-6.2-6.1c-.7-.6-1.2-1.4-1.5-2.2 0-.1-.1-.1-.1-.2-.8-1.5-1.2-2.8-1.3-3.2-.3-.8-.5-1.7-.9-2.5L6 15.6c-.1-.4-.3-.7-.6-1-.9-.8-2.2-.8-3.2-.1 0 .1-.1.1-.2.1-.4.3-.7.9-.9 1.5-.2.6.1 1.4.4 2l.1.4.6 1.8 1.4 4.2L5 28.1c.3.8.8 1.6 1.5 2.2z"/><path d="M3.4 20.1l-.6-1.8c0-.1-.1-.3-.2-.4-.1-.3-.4-1-.3-1.2.1-.4.3-.8.5-.9.6-.4 1.2-.3 1.6 0 .1.1.2.3.3.4.3.4.4.8.6 1.4l.9 2.4c.1.4.6 1.8 1.5 3.4v.1c.2.5.7 1.5 1.8 2.6l6 5.9.3.3c.6.4 1.4.2 1.8-.2.6-.5.7-1.4.3-2.1v-.1l-.1-.1-2.9-2.9-1.6-1.5c-.3-.3-.8-.8-.8-1.4 0-.1 0-.6.4-.9.4-.3 1-.3 1.4-.1.2.1.3.2.4.3 1.2 1.2 2.5 2.3 3.7 3.3s2.4 2 3.6 3.2c.2.2.3.4.4.6l.1.1c1.9 2.6 1.7 8-.6 15.1-2.5-2-4.7-3.8-6.8-5.6.1-.7 0-1.3-.2-2-.3-1.1-.9-2-1.7-2.8l-5.8-5.7c-.5-.5-.9-1.1-1.2-1.7l-1.4-3.4-1.4-4.3zm3.1 10.2l5.8 5.7c.6.6 1.1 1.3 1.3 2.2.2.8.2 1.5.1 1.8v.4l.3.2c2.6 2.1 5.2 4.2 7.8 6.4l.7.6.3-.9c1.9-5.6 3.6-13.1.8-17.1l-.1-.1c-.1-.2-.3-.5-.6-.7-1.2-1.2-2.5-2.3-3.7-3.3-1.2-1-2.4-2-3.6-3.2-.1-.1-.4-.4-.8-.6-.7-.3-1.8-.4-2.7.3-.6.5-.9 1.2-.9 1.9 0 1.2.8 2 1.2 2.4l1.5 1.5 2.9 2.9c.1.2 0 .4 0 .4-.1 0-.2.1-.3.1l-6.2-6.1c-.7-.6-1.2-1.4-1.5-2.2 0-.1-.1-.1-.1-.2-.8-1.5-1.2-2.8-1.3-3.2-.3-.8-.5-1.7-.9-2.5L6 15.6c-.1-.4-.3-.7-.6-1-.9-.8-2.2-.8-3.2-.1 0 .1-.1.1-.2.1-.4.3-.7.9-.9 1.5-.2.6.1 1.4.4 2l.1.4.6 1.8 1.4 4.2L5 28.1c.3.8.8 1.6 1.5 2.2zm13.3 18l-.7.7-5.9-5.9.2-.2 6.4 5.4zm-8.3-5.2l7.7 7.7 2.6-2.6-8.4-7-1.9 1.9z"/><path d="M19.8 48.3l-.7.7-5.9-5.9.2-.2 6.4 5.4zm-8.3-5.2l7.7 7.7 2.6-2.6-8.4-7-1.9 1.9zm38.1-25.2c0 .2-.1.3-.2.4l-.6 1.8c-.5 1.4-.9 2.8-1.4 4.2L46 27.7c-.3.6-.6 1.2-1.2 1.7l-5.7 5.7c-.9.8-1.4 1.7-1.7 2.8-.2.6-.2 1.3-.2 2-2.2 1.7-4.4 3.5-6.8 5.6-2.3-7.1-2.6-12.4-.6-15.1 0 0 0-.1.1-.1.1-.2.2-.3.4-.5 1.2-1.2 2.4-2.2 3.6-3.2 1.2-1 2.4-2 3.7-3.3 0 0 .2-.2.4-.3.4-.2 1-.2 1.4.1.4.3.4.8.4.9 0 .6-.5 1.1-.8 1.4l-1.5 1.5c-1 1-2 1.9-2.9 2.9l-.1.1v.1c-.4.8-.3 1.6.3 2.1.5.4 1.2.6 1.8.2l.3-.3 6-5.9c1.1-1.1 1.6-2.1 1.8-2.6 0 0 0-.1.1-.1.9-1.5 1.3-3 1.5-3.4l.9-2.4c.2-.5.3-.9.5-1.5 0-.2.2-.3.3-.4.4-.4 1.1-.4 1.6 0 .2.2.4.5.5.9-.1.3-.4 1-.5 1.3zm.7-3.2s-.1-.1-.2-.1c-1-.7-2.3-.6-3.2.1-.3.3-.5.6-.6 1l-.5 1.4c-.3.8-.6 1.6-.9 2.5-.1.4-.6 1.7-1.3 3.2 0 0 0 .1-.1.2-.2.4-.6 1.3-1.5 2.2l-6.1 6-.1.1c-.1 0-.2 0-.3-.1-.1-.1-.1-.3 0-.4l2.9-2.9 1.5-1.5c.4-.4 1.2-1.2 1.2-2.3 0-.3-.1-1.2-.9-1.9-.9-.7-2-.6-2.7-.3-.5.2-.7.5-.8.6-1.2 1.2-2.4 2.2-3.6 3.2-1.2 1-2.4 2-3.7 3.3-.3.3-.4.6-.6.7 0 0 0 .1-.1.1-2.9 4-1.2 11.5.8 17.1l.3.9.7-.6c2.9-2.4 5.3-4.4 7.8-6.4l.3-.2v-.4c-.1-.6 0-1.2.1-1.8.2-.9.6-1.6 1.3-2.2l5.7-5.7c.6-.6 1.1-1.3 1.5-2.1l1.4-3.4c.5-1.4.9-2.8 1.4-4.2l.6-1.8.1-.4c.3-.6.6-1.4.4-2-.1-1-.4-1.5-.8-1.9z"/><path d="M49.6 17.9c0 .2-.1.3-.2.4l-.6 1.8c-.5 1.4-.9 2.8-1.4 4.2L46 27.7c-.3.6-.6 1.2-1.2 1.7l-5.7 5.7c-.9.8-1.4 1.7-1.7 2.8-.2.6-.2 1.3-.2 2-2.2 1.7-4.4 3.5-6.8 5.6-2.3-7.1-2.6-12.4-.6-15.1 0 0 0-.1.1-.1.1-.2.2-.3.4-.5 1.2-1.2 2.4-2.2 3.6-3.2 1.2-1 2.4-2 3.7-3.3 0 0 .2-.2.4-.3.4-.2 1-.2 1.4.1.4.3.4.8.4.9 0 .6-.5 1.1-.8 1.4l-1.5 1.5c-1 1-2 1.9-2.9 2.9l-.1.1v.1c-.4.8-.3 1.6.3 2.1.5.4 1.2.6 1.8.2l.3-.3 6-5.9c1.1-1.1 1.6-2.1 1.8-2.6 0 0 0-.1.1-.1.9-1.5 1.3-3 1.5-3.4l.9-2.4c.2-.5.3-.9.5-1.5 0-.2.2-.3.3-.4.4-.4 1.1-.4 1.6 0 .2.2.4.5.5.9-.1.3-.4 1-.5 1.3zm.7-3.2s-.1-.1-.2-.1c-1-.7-2.3-.6-3.2.1-.3.3-.5.6-.6 1l-.5 1.4c-.3.8-.6 1.6-.9 2.5-.1.4-.6 1.7-1.3 3.2 0 0 0 .1-.1.2-.2.4-.6 1.3-1.5 2.2l-6.1 6-.1.1c-.1 0-.2 0-.3-.1-.1-.1-.1-.3 0-.4l2.9-2.9 1.5-1.5c.4-.4 1.2-1.2 1.2-2.3 0-.3-.1-1.2-.9-1.9-.9-.7-2-.6-2.7-.3-.5.2-.7.5-.8.6-1.2 1.2-2.4 2.2-3.6 3.2-1.2 1-2.4 2-3.7 3.3-.3.3-.4.6-.6.7 0 0 0 .1-.1.1-2.9 4-1.2 11.5.8 17.1l.3.9.7-.6c2.9-2.4 5.3-4.4 7.8-6.4l.3-.2v-.4c-.1-.6 0-1.2.1-1.8.2-.9.6-1.6 1.3-2.2l5.7-5.7c.6-.6 1.1-1.3 1.5-2.1l1.4-3.4c.5-1.4.9-2.8 1.4-4.2l.6-1.8.1-.4c.3-.6.6-1.4.4-2-.1-1-.4-1.5-.8-1.9zM33.1 48.9l-.7-.7 6.4-5.3.2.2-5.9 5.8zm5.8-7.7l-8.4 7 2.6 2.6 7.7-7.7-1.9-1.9z"/><path d="M33.1 48.9l-.7-.7 6.4-5.3.2.2-5.9 5.8zm5.8-7.7l-8.4 7 2.6 2.6 7.7-7.7-1.9-1.9zM21.8 4.9c1.6-.6 3-1.6 4.2-2.9l.1-.1.1.1c.9 1 2.5 2.3 4.8 3.1 1.8.6 3.7.8 5.6.5h.2c-.1.5-.1.9-.2 1.2-.4 2.9-1.3 10.5-3.9 13.5-1.8 2.2-4.1 3.9-6.6 5.1H26c-1.8-.7-5.2-2.4-7.7-5.9-1-1.4-2.4-4.9-2.9-13.4v-.5h.2c1.4.2 3.7.3 6.2-.7zM14 4v.8s.1 1.1.1 1.3c.5 7.1 1.5 11.8 3.1 14.1 2.7 3.8 6.4 5.6 8.3 6.3l.6.2.6-.3c2.7-1.3 5.1-3.1 7-5.4 2.8-3.3 3.8-10.9 4.1-14.1 0-.5.3-2 .3-2l.1-.9-1.9.3c-1.2.2-3 .3-5-.4-1.7-.5-3.1-1.5-4.3-2.8L26 0l-1 1.2c-1 1.1-2.3 2-3.7 2.6-2.3.8-4.3.7-5.6.5L14 4z"/><path d="M21.8 4.9c1.6-.6 3-1.6 4.2-2.9l.1-.1.1.1c.9 1 2.5 2.3 4.8 3.1 1.8.6 3.7.8 5.6.5h.2c-.1.5-.1.9-.2 1.2-.4 2.9-1.3 10.5-3.9 13.5-1.8 2.2-4.1 3.9-6.6 5.1H26c-1.8-.7-5.2-2.4-7.7-5.9-1-1.4-2.4-4.9-2.9-13.4v-.5h.2c1.4.2 3.7.3 6.2-.7zM14 4v.8s.1 1.1.1 1.3c.5 7.1 1.5 11.8 3.1 14.1 2.7 3.8 6.4 5.6 8.3 6.3l.6.2.6-.3c2.7-1.3 5.1-3.1 7-5.4 2.8-3.3 3.8-10.9 4.1-14.1 0-.5.3-2 .3-2l.1-.9-1.9.3c-1.2.2-3 .3-5-.4-1.7-.5-3.1-1.5-4.3-2.8L26 0l-1 1.2c-1 1.1-2.3 2-3.7 2.6-2.3.8-4.3.7-5.6.5L14 4z"/></svg>