<svg xmlns="http://www.w3.org/2000/svg" viewBox="0 0 215 215"><path d="M107.5 215c-7.3 0-14.5-.7-21.7-2.2-6.9-1.4-13.7-3.5-20.2-6.3-6.4-2.7-12.5-6-18.3-9.9-5.7-3.9-11-8.3-15.9-13.1-4.9-4.9-9.3-10.2-13.1-15.9-3.9-5.8-7.2-11.9-9.9-18.3-2.7-6.5-4.8-13.3-6.3-20.2C.7 122 0 114.8 0 107.5c0-7.3.7-14.5 2.2-21.7 1.4-6.9 3.5-13.7 6.3-20.2 2.7-6.4 6-12.5 9.9-18.3 3.9-5.7 8.3-11 13.1-15.9 4.9-4.9 10.2-9.3 15.9-13.1 5.8-3.9 11.9-7.2 18.3-9.9C72.2 5.7 79 3.6 85.9 2.1 93 .7 100.2 0 107.5 0c7.3 0 14.5.7 21.7 2.2 6.9 1.4 13.7 3.5 20.2 6.3 6.4 2.7 12.5 6 18.3 9.9 5.7 3.9 11 8.3 15.9 13.1 4.9 4.9 9.3 10.2 13.1 15.9 3.9 5.8 7.2 11.9 9.9 18.3 2.7 6.5 4.8 13.3 6.3 20.2 1.5 7.1 2.2 14.4 2.2 21.7 0 7.3-.7 14.5-2.2 21.7-1.4 6.9-3.5 13.7-6.3 20.2-2.7 6.4-6 12.5-9.9 18.3-3.9 5.7-8.3 11-13.1 15.9-4.9 4.9-10.2 9.3-15.9 13.1-5.8 3.9-11.9 7.2-18.3 9.9-6.5 2.7-13.3 4.8-20.2 6.3-7.2 1.3-14.4 2-21.7 2zm0-211c-6.3 0-12.7.7-18.8 2.1-6 1.4-11.9 3.4-17.6 6-5.6 2.6-10.9 5.8-15.9 9.5-5 3.8-9.6 8-13.8 12.6-4.3 4.7-8.1 9.9-11.4 15.3-3.4 5.6-6.3 11.5-8.6 17.6-2.4 6.3-4.2 12.8-5.4 19.4-1.3 6.9-1.9 13.9-1.9 20.9 0 7 .6 14 1.9 20.9 1.2 6.6 3 13.1 5.4 19.4 2.3 6.1 5.2 12 8.6 17.6 3.3 5.4 7.1 10.6 11.4 15.3 4.2 4.6 8.8 8.9 13.8 12.6 5 3.7 10.3 6.9 15.9 9.5 5.6 2.6 11.5 4.7 17.6 6 6.2 1.4 12.5 2.1 18.8 2.1 6.3 0 12.7-.7 18.8-2.1 6-1.4 11.9-3.4 17.6-6 5.6-2.6 10.9-5.8 15.9-9.5 5-3.8 9.6-8 13.8-12.6 4.3-4.7 8.1-9.9 11.4-15.3 3.4-5.6 6.3-11.5 8.6-17.6 2.4-6.3 4.2-12.8 5.4-19.4 1.3-6.9 1.9-13.9 1.9-20.9 0-7-.6-14-1.9-20.9-1.2-6.6-3-13.1-5.4-19.4-2.3-6.1-5.2-12-8.6-17.6-3.3-5.4-7.1-10.6-11.4-15.3-4.2-4.6-8.8-8.9-13.8-12.6-5-3.7-10.3-6.9-15.9-9.5-5.6-2.6-11.5-4.7-17.6-6-6.1-1.4-12.5-2.1-18.8-2.1z"/></svg>