<svg xmlns="http://www.w3.org/2000/svg" viewBox="0 0 215 215"><path d="M107.5 4c-6.3 0-12.7.7-18.8 2.1-6 1.4-11.9 3.4-17.6 6-5.6 2.6-10.9 5.8-15.9 9.5-5 3.8-9.6 8-13.8 12.6-4.3 4.7-8.1 9.9-11.4 15.3-3.4 5.6-6.3 11.5-8.6 17.6-2.4 6.3-4.2 12.8-5.4 19.4-1.3 6.9-1.9 13.9-1.9 20.9 0 7 .6 14 1.9 20.9 1.2 6.6 3 13.1 5.4 19.4 2.3 6.1 5.2 12 8.6 17.6 3.3 5.4 7.1 10.6 11.4 15.3 4.2 4.6 8.8 8.9 13.8 12.6 5 3.7 10.3 6.9 15.9 9.5 5.6 2.6 11.5 4.7 17.5 6 6.2 1.4 12.5 2.1 18.8 2.1 6.3 0 12.7-.7 18.8-2.1 6-1.4 11.9-3.4 17.6-6 5.6-2.6 10.9-5.8 15.9-9.5 5-3.8 9.6-8 13.8-12.6 4.3-4.7 8.1-9.9 11.4-15.3 3.4-5.6 6.3-11.5 8.6-17.6 2.4-6.3 4.2-12.8 5.4-19.4 1.3-6.8 1.9-13.8 1.9-20.9 0-7-.6-14-1.9-20.9-1.2-6.6-3-13.1-5.4-19.4-2.3-6.1-5.2-12-8.6-17.6-3.3-5.4-7.1-10.6-11.4-15.3-4.2-4.6-8.8-8.9-13.8-12.6-5-3.7-10.3-6.9-15.9-9.5-5.6-2.6-11.5-4.7-17.5-6-6.1-1.4-12.5-2.1-18.8-2.1zm0 211c-7.3 0-14.6-.7-21.7-2.2-6.9-1.4-13.7-3.5-20.2-6.3-6.4-2.7-12.5-6-18.3-9.9-5.7-3.9-11-8.3-15.9-13.1-4.9-4.9-9.3-10.2-13.1-15.9-3.9-5.8-7.2-11.9-9.9-18.3-2.7-6.5-4.8-13.3-6.3-20.2C.7 122 0 114.8 0 107.5c0-7.3.7-14.6 2.2-21.7 1.4-6.9 3.5-13.7 6.3-20.2 2.7-6.4 6-12.5 9.9-18.3 3.9-5.7 8.3-11 13.1-15.9 4.9-4.9 10.2-9.3 15.9-13.1 5.8-3.9 11.9-7.2 18.3-9.9C72.2 5.7 79 3.6 85.9 2.1 93 .7 100.2 0 107.5 0c7.3 0 14.6.7 21.7 2.2 6.9 1.4 13.7 3.5 20.2 6.3 6.4 2.7 12.5 6 18.3 9.9 5.7 3.9 11 8.3 15.9 13.1 4.9 4.9 9.3 10.2 13.1 15.9 3.9 5.8 7.2 11.9 9.9 18.3 2.7 6.5 4.8 13.3 6.3 20.2 1.5 7.1 2.2 14.4 2.2 21.7 0 7.3-.7 14.6-2.2 21.7-1.4 6.9-3.5 13.7-6.3 20.2-2.7 6.4-6 12.5-9.9 18.3-3.9 5.7-8.3 11-13.1 15.9-4.9 4.9-10.2 9.3-15.9 13.1-5.8 3.9-11.9 7.2-18.3 9.9-6.5 2.7-13.3 4.8-20.2 6.3-7.2 1.3-14.4 2-21.7 2z"/><path d="M68.7 118.4c2-.5 3.5-2.2 3.5-4.4v-.4l11.9-2.5c.6.9 1.6 1.5 2.6 1.8V147h-18v-28.6zm-3.5-4.4c0-1.4 1.1-2.5 2.5-2.5s2.5 1.1 2.5 2.5-1.1 2.5-2.5 2.5-2.5-1.1-2.5-2.5zm22.5-8c1.4 0 2.5 1.1 2.5 2.5s-1.1 2.5-2.5 2.5-2.5-1.1-2.5-2.5 1.1-2.5 2.5-2.5zm16.7-8.2c.6.6 1.4 1.1 2.2 1.3v48h-18V113c2-.5 3.5-2.2 3.5-4.4 0-.4-.1-.7-.1-1.1l12.4-9.7zm3.3-5.6c1.4 0 2.5 1.1 2.5 2.5s-1.1 2.5-2.5 2.5-2.5-1.1-2.5-2.5 1.1-2.5 2.5-2.5zm19 15.2V147h-18V99c1.5-.3 2.7-1.4 3.2-2.9l11.4 6c0 .3-.1.5-.1.8 0 2.2 1.5 4 3.5 4.5zm1-6.9c1.4 0 2.5 1.1 2.5 2.5s-1.1 2.5-2.5 2.5-2.5-1.1-2.5-2.5 1.1-2.5 2.5-2.5zm20-24.5c1.4 0 2.5 1.1 2.5 2.5S149 81 147.7 81c-1.4 0-2.5-1.1-2.5-2.5s1.1-2.5 2.5-2.5zm-19 31.4c2-.5 3.5-2.2 3.5-4.4 0-1-.3-1.9-.8-2.6L144.9 82c.5.4 1.1.7 1.8.9V147h-18v-39.6zm27.6 39.6h-7.7V82.9c2-.5 3.5-2.2 3.5-4.4 0-2.5-2-4.5-4.5-4.5s-4.5 2-4.5 4.5c0 .7.2 1.3.4 1.9l-13.8 18.7c-.7-.4-1.4-.6-2.2-.6-1.5 0-2.8.7-3.6 1.9L112.1 94c-.3-2.2-2.2-3.9-4.4-3.9-2.5 0-4.5 2-4.5 4.5 0 .5.1.9.2 1.4l-12.3 9.6c-.8-1-2-1.6-3.4-1.6-2.5 0-4.5 2-4.5 4.5 0 .3 0 .5.1.7l-11.7 2.4c-.8-1.3-2.2-2.2-3.8-2.2-2.5 0-4.5 2-4.5 4.5 0 2.1 1.5 3.9 3.5 4.4V147H59c-.5 0-1 .4-1 1s.5 1 1 1h97.3c.6 0 1-.4 1-1s-.4-1-1-1z"/></svg>