<svg id="Layer_1" xmlns="http://www.w3.org/2000/svg" viewBox="0 0 26.6 26.6"><style>.st0{display:none}</style><g id="Group_87" transform="translate(.001 .001)"><path id="Path_371" class="st0" d="M12.7 10.5c.3 0 .5-.2.5-.7V7.6c0-.5-.1-.7-.5-.7s-.5.2-.5.7v2.2c0 .4.2.7.5.7z"/><path id="Path_375" class="st0" d="M15.5 15.2c-.4 0-.8.2-1 .6v-2.3h-.9v7h.9V20c.2.3.6.5 1 .6.4 0 .7-.2.8-.6.1-.3.1-.7.1-1v-2.1c0-.4 0-.7-.1-1-.1-.4-.4-.7-.8-.7zm-.1 3.8c0 .5-.1.7-.4.7-.2 0-.4-.1-.5-.2v-3.2c.1-.1.3-.2.5-.2.3 0 .4.2.4.7V19z"/><path id="Path_376" class="st0" d="M6.7 14.5h1.1v6h1v-6H10v-1H6.7v1z"/><path id="Path_377" class="st0" d="M11.9 19.2c-.2.3-.4.4-.6.4-.1 0-.2-.1-.2-.2v-4.2h-.9v4.1c0 .3 0 .5.1.8.1.3.3.4.6.4.4 0 .8-.3 1.1-.6v.6h.9v-5.2H12l-.1 3.9z"/><path id="Path_379" class="st0" d="M18.5 15.2c-.4 0-.9.2-1.1.5-.2.4-.3.8-.3 1.2v1.8c0 .4.1.9.3 1.2.3.4.7.6 1.1.5.5 0 .9-.2 1.1-.6.1-.2.2-.4.2-.6v-.7h-1v.6c0 .2-.2.4-.4.4-.3 0-.5-.2-.5-.7V18h1.9v-1c0-.4-.1-.9-.3-1.2-.1-.4-.5-.6-1-.6zm.5 2.1h-.9v-.5c0-.5.2-.7.5-.7s.5.2.5.7l-.1.5z"/><path d="M25.2 1.5C24.2.5 23 0 21.6 0H5C3.7 0 2.4.5 1.5 1.5.5 2.4 0 3.7 0 5v16.6c0 1.3.5 2.6 1.5 3.5.9 1 2.2 1.5 3.5 1.5h16.6c2.8 0 5-2.2 5-5V5c.1-1.3-.5-2.6-1.4-3.5zM14.9 6h.9v4.3c0 .1.1.2.2.2.2 0 .4-.1.6-.4V6h.9v5.2h-1v-.6c-.3.4-.6.6-1.1.6-.3 0-.5-.1-.6-.4-.1-.3-.1-.5-.1-.8l.2-4zm-3.6 1.7c0-.4.1-.9.3-1.2.5-.6 1.4-.7 2-.2.1.1.2.1.2.2.2.4.3.8.3 1.2v1.8c0 .4-.1.9-.3 1.2-.5.6-1.4.7-2 .2-.1-.1-.2-.1-.2-.2-.2-.4-.3-.8-.3-1.2V7.7zM8.7 4.2L9.5 7l.7-2.8h1.1L10 8.4v2.8H8.9V8.4c-.1-.7-.3-1.5-.6-2.2-.2-.7-.5-1.3-.7-2h1.1zm12.1 16.7c-.2.8-.9 1.4-1.7 1.5-1.9.2-3.9.3-5.8.2-1.9 0-3.9 0-5.8-.2-.8-.1-1.5-.7-1.7-1.5-.2-1.2-.3-2.4-.3-3.7 0-1.2 0-2.5.3-3.7.2-.7.9-1.4 1.7-1.5 1.9-.2 3.9-.3 5.8-.2 1.9 0 3.9 0 5.8.2.8.1 1.5.7 1.7 1.5.2 1.2.3 2.4.3 3.7 0 1.3 0 2.5-.3 3.7z"/></g><path id="Path_371_1_" d="M12.7 10.5c.3 0 .5-.2.5-.7V7.6c0-.5-.1-.7-.5-.7s-.5.2-.5.7v2.2c0 .4.2.7.5.7z"/><path id="Path_375_1_" d="M15.5 15.2c-.4 0-.8.2-1 .6v-2.3h-.9v7h.9V20c.2.3.6.5 1 .6.4 0 .7-.2.8-.6.1-.3.1-.7.1-1v-2.1c0-.4 0-.7-.1-1-.1-.4-.4-.7-.8-.7zm0 3.8c0 .5-.1.7-.4.7-.2 0-.4-.1-.5-.2v-3.2c.1-.1.3-.2.5-.2.3 0 .4.2.4.7V19z"/><path id="Path_376_1_" d="M6.7 14.5h1.1v6h1v-6H10v-1H6.7v1z"/><path id="Path_377_1_" d="M11.9 19.2c-.2.3-.4.4-.6.4-.1 0-.2-.1-.2-.2v-4.2h-.9v4.1c0 .3 0 .5.1.8.1.3.3.4.6.4.4 0 .8-.3 1.1-.6v.6h.9v-5.2H12l-.1 3.9z"/><path id="Path_379_1_" d="M18.5 15.2c-.4 0-.9.2-1.1.5-.2.4-.3.8-.3 1.2v1.8c0 .4.1.9.3 1.2.3.4.7.6 1.1.5.5 0 .9-.2 1.1-.6.1-.2.2-.4.2-.6v-.7h-1v.6c0 .2-.2.4-.4.4-.3 0-.5-.2-.5-.7V18h1.9v-1c0-.4-.1-.9-.3-1.2-.1-.4-.5-.6-1-.6zm.5 2.1h-.9v-.5c0-.5.2-.7.5-.7s.5.2.5.7l-.1.5z"/></svg>