<svg xmlns="http://www.w3.org/2000/svg" viewBox="0 0 16.1 16.1"><path d="M13.9 13.6c3.1-3.2 3-8.3-.2-11.4-.8-.8-1.8-1.4-2.9-1.8C9.9.2 9 0 8.1 0H8c-.8 0-1.7.2-2.5.4h-.1C1.2 2-1 6.6.5 10.8s6.1 6.4 10.3 4.9c1.2-.5 2.2-1.1 3.1-2.1zM.5 8.3h3.3c0 1.3.3 2.5.8 3.7-.8.3-1.5.7-2.2 1.1-1.1-1.3-1.8-3-1.9-4.8zm2-5.3c.7.5 1.4.8 2.2 1.1-.5 1.2-.8 2.4-.9 3.7H.5c.1-1.8.8-3.5 2-4.8zm11.1 0c1.2 1.3 1.9 3 2 4.8h-3.3c0-1.3-.3-2.5-.8-3.7.7-.3 1.4-.6 2.1-1.1zm-5.8 8.4c-.9 0-1.8.2-2.6.4-.5-1.1-.8-2.3-.8-3.5h3.4v3.1zm0 .5v3.4c-1-.8-1.8-1.8-2.4-3 .8-.2 1.6-.3 2.4-.4zm.5 0c.8 0 1.6.2 2.4.4-.6 1.1-1.4 2.1-2.4 3v-3.4zm0-.5V8.3h3.4c0 1.2-.3 2.4-.8 3.5-.8-.2-1.7-.3-2.6-.4zm0-3.6V4.7c.9 0 1.8-.2 2.6-.4.5 1.1.8 2.3.8 3.5H8.3zm0-3.6V.8c1 .8 1.8 1.8 2.4 3-.8.2-1.6.4-2.4.4zm-.5 0C7 4.1 6.2 4 5.4 3.8 6 2.7 6.8 1.7 7.8.8v3.4zm0 .5v3.1H4.4c0-1.2.3-2.4.8-3.5.8.2 1.7.4 2.6.4zm-2.9 7.8c.6 1.2 1.4 2.2 2.4 3.1-1.7-.2-3.2-.9-4.4-2 .6-.5 1.3-.8 2-1.1zm6.3 0c.7.3 1.4.6 2 1a6.89 6.89 0 0 1-4.4 2c1-.8 1.8-1.8 2.4-3zm.2-.5c.5-1.2.8-2.4.8-3.7h3.3c0 1.8-.7 3.5-2 4.8-.6-.4-1.3-.8-2.1-1.1zm1.8-9.4c-.6.4-1.3.8-2 1-.6-1.2-1.4-2.2-2.4-3.1.6.1 1.2.2 1.8.4 1 .4 1.9 1 2.6 1.7zM5.5 1C6.1.8 6.7.7 7.3.6c-1 .9-1.8 1.9-2.4 3.1-.7-.3-1.4-.6-2-1 .7-.8 1.6-1.4 2.6-1.7z"/></svg>