<svg xmlns="http://www.w3.org/2000/svg" viewBox="0 0 48 49"><path d="M31 22.8H16.6v-7.2c0-1.9.8-3.7 2.1-5.1 1.4-1.4 3.2-2.1 5.1-2.1 1.9 0 3.7.8 5.1 2.1 1.4 1.4 2.1 3.2 2.1 5.1v7.2zm-12.4-2H29v-5.2c0-1.4-.5-2.7-1.5-3.7s-2.3-1.5-3.7-1.5c-1.4 0-2.7.5-3.7 1.5s-1.5 2.3-1.5 3.7v5.2z"/><path d="M35.2 35.2H12.4V20.8h22.8v14.4zm-20.8-2h18.8V22.8H14.4v10.4z"/><path d="M23.8 48.6c-6.8 0-13.5-3-18.1-8.5l1.5-1.3c6 7.2 15.8 9.7 24.4 6.3 11.2-4.4 16.9-17.3 12.5-28.8-2.1-5.6-6.3-10-11.7-12.4-5.3-2.3-11.2-2.5-16.5-.4C4.7 7.9-.9 20.8 3.4 32.3l-1.9.7C-3.2 20.5 3 6.4 15.2 1.6 21.1-.7 27.5-.5 33.3 2 39.2 4.6 43.7 9.5 46 15.6c4.7 12.5-1.4 26.6-13.7 31.4-2.7 1-5.6 1.6-8.5 1.6z"/><path d="M7.4 48.7h-2V38.4h10.2v2H7.4z"/></svg>