<svg xmlns="http://www.w3.org/2000/svg" viewBox="0 0 83.9 48.9"><path d="M22.8 48.3H0v-6.6c0-7.2 3.8-11.3 7.5-15.3 3.5-3.8 6.8-7.4 6.8-13.6 0-4-1.3-4.3-2.8-4.3-1.6 0-2.7.6-2.7 3.5v6H0v-5.4C0 4.6 4.3 0 11.7 0s11.7 4.6 11.7 12.5c0 8.7-5 14.3-9.1 18.8-2.8 3.1-5.2 5.7-5.2 8.5h13.7v8.5zM2 46.3h18.8v-4.5H7.4l-.2-.8c-.1-.4-.2-.9-.1-1.3 0-3.5 2.7-6.5 5.7-9.8 4-4.4 8.6-9.5 8.6-17.4C21.4 7.7 19.7 2 11.7 2S2 7.8 2 12.6V16h4.8v-4c0-4.5 2.6-5.5 4.7-5.5 4.3 0 4.8 3.6 4.8 6.3 0 7-3.7 11-7.4 14.9-3.5 3.9-6.9 7.6-6.9 14v4.6zm35.4 2.6c-7.4 0-11.7-4.6-11.7-12.5v-4.8h7.7v.9h1v4.2c0 2.8 1 3.4 2.7 3.4 1.4 0 2.7-.4 2.7-3.4v-10c0-2.9-1.1-3.5-2.7-3.5s-2.7.6-2.7 3.5v2.4h-8.9L26.9.6h21v8.5H35.3l-.3 7.2c1.5-1.1 3.3-1.7 5.2-1.6 3.3 0 8.9 1.5 8.9 11.5v10.2c0 7.9-4.3 12.5-11.7 12.5zm-9.7-15.3v2.8c0 4.8 1.7 10.5 9.7 10.5s9.7-5.7 9.7-10.5V26.2c0-6.3-2.4-9.5-7-9.5-2.3-.2-4.3.9-5.4 2.8l-1.9-.5.5-11.9h12.6V2.6h-17l-1.2 24.5h4.7v-.4c0-4.5 2.6-5.5 4.7-5.5s4.7 1 4.7 5.5v10c0 4.5-2.6 5.4-4.7 5.4-3.1 0-4.7-1.8-4.7-5.4v-3.1h-4.7zm56.2 14.7h-8.8V27.7L72 48.3h-8.5L60 27.2v21.1h-8.3V.5h11.9l4.4 27 4.1-27H84v47.8zm-6.8-2h4.8V2.5h-8.1L69 34.1h-2L61.8 2.5h-8.1v43.8H58V14.9l2-.2 5.2 31.6h5.1l4.9-32 2 .2v31.8z"/></svg>