<svg xmlns="http://www.w3.org/2000/svg" viewBox="0 0 28 28.2"><path d="M19.2 28.2c-.2 0-.4-.2-.4-.4v-1.5h-2v1.5c0 .2-.2.4-.4.4s-.4-.2-.4-.4v-1.5h-.7c-.2 0-.4-.2-.4-.4s.2-.4.4-.4h.7v-2.2h-.7c-.2 0-.4-.2-.4-.4s.2-.4.4-.4h.7v-2.2h-.7c-.2 0-.4-.2-.4-.4s.2-.4.4-.4h.7v-2.2h-.7c-.2 0-.4-.2-.4-.4s.2-.4.4-.4h.7v-2h-.8c-.2 0-.4-.2-.4-.4s.2-.4.4-.4h.8v-2l-.8-.1c-.2 0-.4-.2-.4-.4s.2-.4.4-.4l.7.1c.1-.7.3-1.4.5-2l-.7-.2c-.2-.1-.3-.3-.3-.5.1-.2.3-.3.5-.3l.9.1c.3-.7.7-1.4 1.2-2.1l-.5-.4c-.2-.1-.2-.4-.1-.6.1-.2.4-.2.6-.1l.6.4c.5-.6 1.1-1.2 1.7-1.7l-.5-.5c-.1-.2-.1-.4.1-.6.2-.1.4-.1.6.1l.4.5c.7-.5 1.5-.9 2.3-1.3l-.2-.5c0-.2.1-.5.3-.5.2-.1.5.1.5.3l.2.5c.7-.2 1.5-.4 2.2-.5l-.1-.6c0-.2.1-.4.3-.5.2 0 .4.1.5.3l.1.8h.5c.2 0 .4.2.4.4s-.2.4-.4.4h-.4l.3 2.4h.2c.2 0 .4.2.4.4s-.2.4-.4.4h-.1l.1.6c0 .2-.2.4-.4.4s-.4-.1-.4-.3l-.1-.7-1.5.3.1.7c.1.2-.1.5-.3.5-.2.1-.5-.1-.5-.3l-.2-.6c-.3.2-.7.4-1 .7l.3.5c.1.2.1.4-.1.6s-.4.1-.6-.1l-.3-.5c-.3.2-.6.5-.9.8l.5.4c.2.1.2.4.1.6-.1.2-.4.2-.6.1l-.6-.4c-.3.4-.5.7-.7 1.1l.6.2c.2.1.3.3.2.5-.1.2-.3.3-.5.2L20 10c-.2.4-.3.8-.4 1.3l.8.1c.2 0 .4.3.3.5 0 .2-.2.4-.4.3l-.8-.1v1.6h.8c.2 0 .4.2.4.4s-.2.4-.4.4h-.8v1.9h.9c.2 0 .4.2.4.4s-.2.4-.4.4h-.9v2.2h.9c.2 0 .4.2.4.4s-.2.4-.4.4h-.9v2.2h.9c.2 0 .4.2.4.4s-.2.4-.4.4h-.9v2.2h.9c.2 0 .4.2.4.4s-.2.4-.4.4h-.9v1.5c.1.4-.1.5-.3.5zm-2.5-2.7h2v-2.2h-2v2.2zm0-3h2v-2.2h-2v2.2zm0-3h2v-2.2h-2v2.2zm0-3h2v-1.9l-2-.1v2zm0-2.8l2 .1v-1.7l-2-.3v1.9zm.1-2.8l2.1.3c.1-.5.2-1 .4-1.4l-2-.7c-.2.6-.4 1.2-.5 1.8zm.8-2.6l2.1.7c.2-.5.5-.9.8-1.3l-1.8-1.3c-.4.6-.8 1.2-1.1 1.9zm1.6-2.6L21 7.1c.3-.4.7-.7 1.1-1l-1.4-1.9c-.5.5-1.1 1-1.5 1.5zm2.2-2l1.4 1.9c.4-.3.9-.5 1.4-.7l-.7-2.3c-.8.3-1.5.7-2.1 1.1zm2.8-1.4l.7 2.3c.5-.2 1.1-.3 1.7-.4l-.3-2.4c-.7.1-1.4.3-2.1.5zM11.7 28.1c-.2 0-.4-.2-.4-.4v-1.3h-2v1.3c0 .2-.2.4-.4.4s-.4-.2-.4-.4v-1.3h-1c-.2 0-.4-.2-.4-.4s.2-.4.4-.4h.9v-2.2h-.9c-.2 0-.4-.2-.4-.4s.2-.4.4-.4h.9v-2.2h-.9c-.2 0-.4-.2-.4-.4s.2-.4.4-.4h.9V19c0-.3 0-.6-.1-.9l-.7.1c-.2 0-.4-.2-.4-.4s.1-.4.3-.4l.7-.1c-.1-.4-.2-.8-.4-1.2l-.7.3c-.2.1-.5 0-.5-.2-.1-.2 0-.4.2-.5l.6-.3c-.2-.4-.4-.7-.7-1.1l-.6.4c-.2.1-.4.1-.6-.1-.1-.2-.1-.4.1-.6l.5-.4c-.1-.3-.4-.6-.7-.8l-.3.5c-.1.2-.4.2-.6.1-.2-.1-.2-.4-.1-.6l.3-.5c-.4-.2-.7-.4-1.1-.6l-.2.6c-.1.2-.3.3-.5.3-.2-.1-.3-.3-.3-.5l.2-.6c-.5-.2-1-.3-1.5-.3l-.1.7c0 .2-.2.4-.4.4s-.4-.2-.4-.4l.1-.9H.4c-.2 0-.4-.2-.4-.4s.2-.4.4-.4h.2l.3-2.4H.5c-.3 0-.5-.2-.5-.4S.2 7 .4 7h.5l.1-.6c0-.2.3-.4.5-.3.2 0 .4.2.3.4v.6c.7.1 1.5.2 2.2.5l.2-.6c.1-.2.3-.3.5-.3.2.1.3.3.3.5l-.2.6c.8.3 1.6.8 2.3 1.3l.4-.6c.1-.2.4-.2.6-.1.2.2.2.4.1.6l-.4.6c.6.5 1.2 1.1 1.7 1.7l.6-.4c.2-.1.4-.1.6.1s.1.4-.1.6l-.6.4c.4.6.8 1.2 1.1 1.9l.7-.3c.2-.1.5 0 .6.2.1.2 0 .5-.2.6l-.7.3c.3.7.4 1.4.6 2.1l.8-.1c.2 0 .4.2.4.4s-.1.4-.3.4l-1 .1c0 .4.1.7.1 1.1v.9h.7c.2 0 .4.2.4.4s-.2.4-.4.4h-.7v2.2h.7c.2 0 .4.2.4.4s-.2.4-.4.4h-.7v2.2h.7c.2 0 .4.2.4.4s-.2.4-.4.4h-.7v1.3c0 .2-.2.4-.4.4zm-2.5-2.5h2v-2.2h-2v2.2zm0-3h2v-2.2h-2v2.2zm0-3h2v-1.9l-2 .3c0 .3.1.7.1 1-.1 0-.1.6-.1.6zm-.6-3.8c.2.5.3.9.4 1.4l2.1-.3c-.1-.7-.3-1.3-.5-1.9l-2 .8zm-1.1-2c.3.4.5.8.8 1.2l2-.8c-.3-.6-.6-1.2-1-1.7l-1.8 1.3zm-1.6-1.7c.4.3.7.6 1.1 1l1.8-1.3c-.5-.6-1-1.1-1.5-1.5l-1.4 1.8zm-2-1.2c.5.2.9.4 1.4.7l1.4-1.9c-.7-.4-1.4-.8-2.2-1.1l-.6 2.3zm-2.5-.6c.6.1 1.1.2 1.7.4l.7-2.3c-.7-.3-1.4-.4-2.1-.5l-.3 2.4z"/></svg>