<svg xmlns="http://www.w3.org/2000/svg" viewBox="0 0 37.9 29.3"><path d="M16.6 5.424l-5-1.7c-.2-.1-.4-.1-.6 0l-5 1.7c-.4.2-.7.5-.7 1v6.3h2.9l1.1 1h3.9l1.1-1h2.9v-6.3c.2-.4-.1-.8-.6-1zm-5.3-.7c.5 0 .9.2.9.5s-.4.5-.9.5-.9-.2-.9-.5.4-.5.9-.5zm-4.1 5c-.4 0-.8-.4-.8-.8v-1.3c0-.4.3-.7.7-.8l3-.3c.4-.1.8.3.9.7v1.7c0 .4-.4.8-.8.8h-3zm4.1 3.5c-.8 0-1.4-.6-1.4-1.4 0-.8.6-1.4 1.4-1.4s1.4.6 1.4 1.4c0 .4-.1.7-.4 1-.3.3-.6.4-1 .4zm1.2-3.5c-.4 0-.8-.4-.8-.8v-1.6c0-.4.3-.8.8-.8h.1l3 .3c.4 0 .7.4.7.8v1.3c0 .4-.4.8-.8.8h-3zm2.1 3.5l-.5.5h3.3v-.5h-2.8zm-6.6 0H5.3v.5h3.3l-.6-.5zm7.7 9.5H6.9c-.3 0-.7-.1-1-.2l.8 2.4h2.6v-1.3h4.1v1.3h2.5l.8-2.4c-.3.2-.7.2-1 .2zm-8.1 2h-.5v-1.6h.5v1.6zm1 0h-.5v-1.6h.5v1.6zm5.9 0H14v-1.6h.5v1.6zm1.1 0h-.5v-1.6h.5v1.6z"/><path d="M4.3 17.424v2.2c0 1.5 1.2 2.6 2.6 2.6h8.8c1.5 0 2.6-1.2 2.6-2.6v-2.2h-14zm3.6 2.5c0 .1-.1.3-.3.3H5.3c-.1 0-.1-.1-.1-.2v-.9c0-.1.1-.3.3-.3h2.3c.1 0 .3.1.3.3l-.2.8zm9.6 0c0 .1-.1.3-.3.3H15c-.1 0-.3-.1-.3-.3v-.9c0-.1.1-.3.3-.3h2.3c.1 0 .3.1.3.3v.9zm-.2-10.2h-12c-.6.1-1 .7-1 1.3v1.7h3.9l1.1 1 2 1.7 2-1.7 1.1-1h3.9v-1.7c0-.6-.4-1.2-1-1.3zm-6 .8c.8 0 1.4.6 1.4 1.4 0 .8-.6 1.4-1.4 1.4s-1.4-.7-1.4-1.5c0-.4.1-.7.4-1 .3-.2.7-.3 1-.3zm3.3 2.7l-.5.5-2.8 2.4-2.8-2.4-.5-.5H4.3v3.7h14v-3.7h-3.7z"/><path d="M12.4 11.924c0 .6-.5 1.1-1.1 1.1-.6 0-1.1-.5-1.1-1.1 0-.6.5-1.1 1.1-1.1.6 0 1.1.5 1.1 1.1zm7.5 15.4h-17l1.4-1.4h14.3l1.3 1.4zm-3.742-4.664h.2-.2z"/><path d="M22.558 27.76l-5.4-5.4c-.1.1-.2.1-.3.1l5.4 5.4c.1.1.1.2 0 .3 0 .1-.1.1-.2.1l-5.4-5.5-.4 1.3 5 5c.4.3.9.2 1.3-.1.3-.4.3-.9 0-1.2zM6.4 22.714zm-.3.2l-5.3 5.3c-.1.1-.2.1-.3 0s-.1-.2 0-.3l5.4-5.4c-.1 0-.2 0-.3-.1l-5.3 5.3c-.3.4-.3 1 .1 1.3.3.3.9.3 1.2 0l4.9-4.9-.4-1.2zM24.058 21.8h13.8v7.5h-13.8z"/><path d="M20.158 20.1h17.7v2.2h-17.7zm12.7-17.6h2v17.6h-2z"/><path d="M37.858 0c-8.3 0-11.3-.2-14 3h14V0zm-12.9 3h.3v2.4h-.3zm6.1 0h.3v2.4h-.3zm-6.8 2.4v2.3h7.8V5.4h-7.8zm7.3 1.4h-6.9V6h6.9v.8zm-5.6 8.7l-.3-1.3h-.1v-.1c0-.2-.1-.3-.2-.4 0-.1.1-.1.1-.2.1 0 .1 0 .2-.2 0-.1 0-.2-.1-.2.2-.8-.4-.9-.6-.9s-.8.1-.6.9c0 0-.1.1-.1.2 0 .2.1.2.2.2 0 .2.1.3.2.4v.2l-.5.1-.9 1c-.1.1-.1.3 0 .5l.7 1c0 .1.1.1.1.1v3.3h.7v-2.9h.2v2.9h.7v-4.4c.2 0 .3-.1.3-.2zm-.5-2.3zm-1.2-.1zm-.2 3l-.4-.6.4-.5v1.1z"/></svg>