<svg xmlns="http://www.w3.org/2000/svg" viewBox="0 0 48 55"><path d="M19.8 5.2c2.1 0 3.9 1.7 3.9 3.9S22 13 19.8 13c-2.1 0-3.8-1.7-3.9-3.8.1-2.2 1.8-4 3.9-4zm0-1.2c-2.8 0-5.1 2.3-5.1 5.1 0 1.2.4 2.3 1.1 3.1l-2.3 6.1 3.1-1.3 1.5 2.9 1.7-4.7 1.8 4.7L23 17l3.1 1.4-2.5-6.1c.7-.9 1.2-2.1 1.1-3.3.2-2.7-2.1-5-4.9-5zm18.7 37.1h1v1.4c.7.2 1.3 1 1.3 1.7h-1c0-.5-.4-.8-.8-.8s-.8.4-.8.8c0 .5.4.8.8.8.7 0 1.4.5 1.7 1.1.3.7.1 1.4-.4 2-.2.2-.5.4-.8.5V50h-1v-1.4c-.1 0-.1-.1-.2-.1-.7-.3-1.1-1-1.1-1.7h1c0 .4.2.7.5.8.3.1.6.1.8-.2.2-.2.3-.6.2-.9-.1-.3-.4-.5-.7-.5-1 0-1.8-.8-1.8-1.9 0-.8.5-1.6 1.3-1.7v-1.3zM39 37c-4.8 0-8.6 3.9-8.6 8.6 0 4.8 3.9 8.6 8.6 8.6 4.8 0 8.6-3.9 8.6-8.6 0-4.7-3.8-8.6-8.6-8.6z"/><path d="M0 .2v47.2h29.1v-1.2H1.2V1.4h37.2v34.3h1.2V.2H0z"/><path d="M7.8 22.8V24h24v-1.2h-24zm4.5 14.4v1.2h15.1v-1.2H12.3zm-4.5-9.6v1.2h24v-1.2h-24zm0 4.8v1.2h24v-1.2h-24z"/></svg>