<svg xmlns="http://www.w3.org/2000/svg" viewBox="0 0 215 215"><path d="M107.5 215c-7.3 0-14.5-.7-21.7-2.2-6.9-1.4-13.7-3.5-20.2-6.3-6.4-2.7-12.5-6-18.3-9.9-5.7-3.9-11-8.3-15.9-13.1-4.9-4.9-9.3-10.2-13.1-15.9-3.9-5.8-7.2-11.9-9.9-18.3-2.7-6.5-4.8-13.3-6.3-20.2C.6 122-.1 114.7-.1 107.4c0-7.3.7-14.5 2.2-21.7C3.5 78.8 5.6 72 8.4 65.5c2.7-6.4 6-12.5 9.9-18.3 3.9-5.7 8.3-11 13.1-15.9 4.9-4.9 10.2-9.3 15.9-13.1 5.8-3.9 11.9-7.2 18.3-9.9C72.1 5.6 78.9 3.5 85.8 2 92.9.5 100.2-.2 107.5-.2c7.3 0 14.5.7 21.7 2.2 6.9 1.4 13.7 3.5 20.2 6.3 6.4 2.7 12.5 6 18.3 9.9 5.7 3.9 11 8.3 15.9 13.1 4.9 4.9 9.3 10.2 13.1 15.9 3.9 5.8 7.2 11.9 9.9 18.3 2.7 6.5 4.8 13.3 6.3 20.2 1.5 7.1 2.2 14.4 2.2 21.7 0 7.3-.7 14.5-2.2 21.7-1.4 6.9-3.5 13.7-6.3 20.2-2.7 6.4-6 12.5-9.9 18.3-3.9 5.7-8.3 11-13.1 15.9-4.9 4.9-10.2 9.3-15.9 13.1-5.8 3.9-11.9 7.2-18.3 9.9-6.5 2.7-13.3 4.8-20.2 6.3-7.2 1.5-14.4 2.2-21.7 2.2zm0-211c-6.3 0-12.7.7-18.8 2.1-6 1.4-11.9 3.4-17.6 6-5.6 2.6-10.9 5.8-15.9 9.5-5 3.8-9.6 8-13.8 12.6-4.3 4.7-8.1 9.9-11.4 15.3-3.4 5.6-6.3 11.5-8.6 17.6-2.4 6.3-4.2 12.8-5.4 19.4-1.3 6.9-1.9 13.9-1.9 20.9 0 7 .6 14 1.9 20.9 1.2 6.6 3 13.1 5.4 19.4 2.3 6.1 5.2 12 8.6 17.6 3.3 5.4 7.1 10.6 11.4 15.3 4.2 4.6 8.8 8.9 13.8 12.6 5 3.7 10.3 6.9 15.9 9.5 5.6 2.6 11.5 4.7 17.6 6 6.2 1.4 12.5 2.1 18.8 2.1 6.3 0 12.7-.7 18.8-2.1 6-1.4 11.9-3.4 17.6-6 5.6-2.6 10.9-5.8 15.9-9.5 5-3.8 9.6-8 13.8-12.6 4.3-4.7 8.1-9.9 11.4-15.3 3.4-5.6 6.3-11.5 8.6-17.6 2.4-6.3 4.2-12.8 5.4-19.4 1.3-6.9 1.9-13.9 1.9-20.9 0-7-.6-14-1.9-20.9-1.2-6.6-3-13.1-5.4-19.4-2.3-6.1-5.2-12-8.6-17.6-3.3-5.4-7.1-10.6-11.4-15.3-4.2-4.6-8.8-8.9-13.8-12.6-5-3.7-10.3-6.9-15.9-9.5-5.6-2.6-11.5-4.7-17.6-6-6.1-1.4-12.5-2.1-18.8-2.1z"/><path d="M146 155.2l-33.1-5.2-3.3-15.4v-4.5h44.6l-8.2 25.1zm-31.8-6.6l30.7 4.9 7.1-21.7h-40.8v2.8l3 14zm37.2 6.1l-1.5-.4 8.6-30.4 9.7-4.3.7 1.5-9 4zm-6.2 4.7c-.5-.2-20.3 0-20.3 0"/><path d="M124.8 160.2v-1.6c20-.2 20.5 0 20.6.1l-.6 1.5.3-.7-.2.8c-.7-.2-12.4-.2-20.1-.1z"/><path d="M119.2 166c-3.4 0-6.1-2.7-6.1-6.1s2.7-6.1 6.1-6.1 6.1 2.7 6.1 6.1-2.7 6.1-6.1 6.1zm0-10.6c-2.5 0-4.5 2-4.5 4.5s2 4.5 4.5 4.5 4.5-2 4.5-4.5c.1-2.5-2-4.5-4.5-4.5zm31.7 10.6c-3.4 0-6.1-2.7-6.1-6.1s2.7-6.1 6.1-6.1 6.1 2.7 6.1 6.1-2.8 6.1-6.1 6.1zm0-10.6c-2.5 0-4.5 2-4.5 4.5s2 4.5 4.5 4.5 4.5-2 4.5-4.5-2.1-4.5-4.5-4.5zm-26.1-17.6h1.6v9.6h-1.6zm5.6 0h1.6v9.6h-1.6zm5.7 0h1.6v9.6h-1.6z"/><path d="M152.6 144.2h-3.7v-1.6h3.7c5.2 0 9.5-4.3 9.5-9.5V72.3c0-2.6-1-4.9-2.8-6.7-1.8-1.8-4.2-2.8-6.7-2.8H62.3c-5.2 0-9.5 4.3-9.5 9.5v60.8c0 2.6 1 4.9 2.8 6.7 1.8 1.8 4.1 2.8 6.7 2.8h50.2v1.6H62.3c-2.9 0-5.7-1.1-7.8-3.2-2.1-2.1-3.2-4.9-3.3-7.8V72.3c0-2.9 1.1-5.7 3.2-7.8s4.9-3.2 7.8-3.2h90.4c2.9 0 5.7 1.1 7.8 3.2 2.1 2.1 3.2 4.9 3.2 7.8v61c.1 6-4.9 10.9-11 10.9z"/><path d="M52 76.6h111v1.6H52zm39.2 13H73.4V83h17.8v6.6zM75 88h14.6v-3.4H75V88zm38.3 1.6H95.4V83h17.8v6.6zM97 88h14.6v-3.4H97V88zm38.4 1.6h-17.8V83h17.8v6.6zM119.2 88h14.6v-3.4h-14.6V88zm38.4 1.6h-17.8V83h17.8v6.6zM141.4 88H156v-3.4h-14.6V88zm-50.2 12.2H73.4v-6.7h17.8v6.7zM75 98.6h14.6v-3.4H75v3.4zm38.3 1.6H95.4v-6.7h17.8v6.7zM97 98.6h14.6v-3.4H97v3.4zm38.4 1.6h-17.8v-6.7h17.8v6.7zm-16.2-1.6h14.6v-3.4h-14.6v3.4zm38.4 1.6h-17.8v-6.7h17.8v6.7zm-16.2-1.6H156v-3.4h-14.6v3.4zm-50.2 12.1H73.4v-6.6h17.8v6.6zM75 109.1h14.6v-3.4H75v3.4zm38.3 1.6H95.4v-6.6h17.8v6.6zM97 109.1h14.6v-3.4H97v3.4zm38.4 1.6h-17.8v-6.6h17.8v6.6zm-16.2-1.6h14.6v-3.4h-14.6v3.4zm38.4 1.6h-17.8v-6.6h17.8v6.6zm-16.2-1.6H156v-3.4h-14.6v3.4zm-50.2 12.2H73.4v-6.6h17.8v6.6zM75 119.7h14.6v-3.4H75v3.4zm38.3 1.6H95.4v-6.6h17.8v6.6zM97 119.7h14.6v-3.4H97v3.4zm38.4 1.6h-17.8v-6.6h17.8v6.6zm-16.2-1.6h14.6v-3.4h-14.6v3.4zm38.4 1.6h-17.8v-6.6h17.8v6.6zm-16.2-1.6H156v-3.4h-14.6v3.4zM61.6 90.4l-4.5-3 .8-1.3 3.4 2.1 4.8-5.5 1.2 1.1zm0 10.7l-4.5-3 .8-1.3 3.4 2.2 4.7-5.6 1.3 1zm0 21.3l-4.5-2.9.8-1.4 3.4 2.2 4.8-5.5 1.2 1zm3.4-10.8h-6.5v-6.9H65v6.9zm-4.9-1.6h3.3v-3.7h-3.3v3.7z"/></svg>