<svg id="Layer_1" xmlns="http://www.w3.org/2000/svg" viewBox="0 0 38.3 22.4"><style>.st0{fill:#00953b}</style><g id="LOGO-HSQ-color"><g id="Layer_1_1_"><path id="Path_1" class="st0" d="M1.7 11.8H.2v-.3h3.4v.3H2.1v2.4h-.4v-2.4z"/><path id="Path_2" class="st0" d="M3.8 11.5h2.9v.3H4.2v.9h2.4v.3H4.2v1h2.5v.3H3.8v-2.8z"/><path id="Path_3" class="st0" d="M7 12.5c0-.7.3-1 1.1-1h1.5c.7 0 .9.3.9.7v.2h-.4v-.1c0-.5-.3-.5-.7-.5H8.1c-.4 0-.7.1-.7.6v1c0 .5.3.6.7.6h1.4c.5 0 .7-.1.7-.5v-.2h.4v.2c0 .5-.2.8-1 .8H8.1c-.8 0-1.1-.3-1.1-1v-.8z"/><path id="Path_4" class="st0" d="M11 11.5h.4v1.2h2.7v-1.2h.4v2.7h-.4v-1.3h-2.7v1.3H11v-2.7z"/><path id="Path_5" class="st0" d="M15.1 11.5h.6l2.7 2.4v-2.4h.4v2.7h-.6l-2.7-2.4v2.4h-.4v-2.7z"/><path id="Path_6" class="st0" d="M22.7 12.3c0-.5-.3-.6-.7-.6h-1.6c-.4 0-.7.1-.7.6v1c0 .5.3.6.7.6H22c.4 0 .7-.1.7-.6v-1zm-3.4.2c0-.7.3-1 1.1-1H22c.8 0 1.1.3 1.1 1v.8c0 .7-.3 1-1.1 1h-1.7c-.8 0-1.1-.3-1.1-1v-.8z"/><path id="Path_7" class="st0" d="M23.6 11.5h.4v2.4h2.3v.3h-2.7v-2.7z"/><path id="Path_8" class="st0" d="M29.8 12.3c0-.5-.3-.6-.7-.6h-1.6c-.4 0-.7.1-.7.6v1c0 .5.3.6.7.6h1.6c.4 0 .7-.1.7-.6v-1zm-3.4.2c0-.7.3-1 1.1-1h1.7c.8 0 1.1.3 1.1 1v.8c0 .7-.3 1-1.1 1h-1.7c-.8 0-1.1-.3-1.1-1v-.8z"/><path id="Path_9" class="st0" d="M34.3 13.2c0 .7-.3 1-1 1h-1.6c-.8 0-1.1-.3-1.1-1v-.8c0-.7.3-1 1.1-1h1.5c.5 0 1.1.1 1.1.8v.1h-.4c0-.5-.2-.6-1.2-.6h-1c-.4 0-.7.1-.7.6v1c0 .5.3.6.7.6h1.6c.4 0 .6-.1.6-.5v-.3h-1.5v-.3h1.9v.4z"/><path id="Path_10" class="st0" d="M37.8 11.5l-1.4 1.3-1.4-1.3h-.5l1.7 1.6v1.2h.4v-1.2l1.7-1.6h-.5z"/><path id="Path_11" class="st0" d="M9.8 7.5h-2V5.3H3.7v2.2h-2V1.8h2v2h4.1v-2h2v5.7zm.6-7.5H1.1C.5 0 0 .4 0 1v6.8c0 .6.5 1 1.1 1h9.3c.6 0 1.1-.4 1.1-1V1c0-.6-.5-1-1.1-1"/><path id="Path_12" class="st0" d="M20.3 7.6h-2.4c-1.8 0-2.5-.3-2.5-1.5v-.5h2c0 .6.3.7.8.7h2.4c.4 0 .8 0 .8-.5s-.2-.5-2.7-.5c-2.9 0-3.3-.3-3.3-1.7 0-1 .1-1.8 2.6-1.8h2.7c2.3 0 2.5.7 2.5 1.7v.2h-2c0-.4-.1-.6-1-.6H18c-.4 0-.7.1-.7.4 0 .5.2.5 2.3.5 3 0 3.7.2 3.7 1.8.2 1.5-.4 1.8-3 1.8M23.8 0h-9.3c-.6 0-1.1.4-1.1 1v6.8c0 .6.5 1 1.1 1h9.3c.6 0 1.1-.4 1.1-1V1c0-.6-.5-1-1.1-1"/><path id="Path_13" class="st0" d="M33.7 3.2h-2.3c-1 0-1.2.4-1.2 1.1v.6c0 .8.2 1.1 1.1 1.1h2.8l-1.8-1 .8-1.2 1.8 1v-.5c.1-.7-.1-1.1-1.2-1.1"/><path id="Path_14" class="st0" d="M36.9 7.6l-.7-.4c-.6.3-1.3.4-2 .4H31c-1.8 0-2.8-.4-2.8-2.1V3.8c0-1.7 1-2.1 2.8-2.1h3.1c1.8 0 2.8.4 2.8 2.1V6l.8.4-.8 1.2zm.3-7.6h-9.3c-.6 0-1.1.4-1.1 1v6.8c0 .6.5 1 1.1 1h9.3c.6 0 1.1-.4 1.1-1V1c0-.6-.5-1-1.1-1"/><path id="Rectangle_1" class="st0" d="M.2 9.8h38.2v.6H.2z"/><path id="Rectangle_2" class="st0" d="M.2 15.1h38.2v.6H.2z"/><path id="Rectangle_3" class="st0" d="M.2 16.1h38.2v1.1H.2z"/><path id="Path_15" class="st0" d="M2.9 20.7h.8l-.4-1.3-.4 1.3zm.2-1.7h.5l.8 2.7H4l-.2-.7h-1l-.2.7h-.4l.9-2.7z"/><path id="Path_16" class="st0" d="M6 20.3h.4c.2 0 .6 0 .6-.5 0-.3-.2-.4-.5-.4H6v.9zM5.6 19h1c.5 0 .8.2.8.7 0 .3-.2.6-.5.7.2 0 .4.2.4.4v.5c0 .3.1.4.2.4H7c-.1-.1-.1-.3-.1-.4v-.4c0-.4-.3-.4-.4-.4H6v1.2h-.4V19z"/><path id="Path_17" class="st0" d="M8.8 20.6c-.1.1-.4.1-.6.2-.1.1-.2.2-.2.4s.1.3.3.3c.2 0 .4-.2.5-.4v-.5zm-1.1-.3c0-.5.2-.7.8-.7.7 0 .7.4.7.6v1.1c0 .1 0 .2.1.2h.1v.2h-.2c-.1 0-.3 0-.3-.3-.1.2-.3.3-.5.3-.3 0-.6-.2-.6-.5v-.1c0-.3.2-.5.4-.6l.5-.1c.3-.1.3-.1.3-.3 0-.2-.1-.3-.4-.3-.2 0-.4.1-.4.3v.1l-.5.1z"/><path id="Path_18" class="st0" d="M9.6 19.7h.4v2h-.4v-2zm0-.7h.4v.4h-.4V19z"/><path id="Rectangle_4" class="st0" d="M10.5 19h.4v2.7h-.4z"/><path id="Path_19" class="st0" d="M11.1 19h.4l.5 2.2.4-2.2h.4l.4 2.2.5-2.2h.3l-.6 2.7H13l-.4-2.2-.4 2.2h-.4l-.7-2.7z"/><path id="Path_20" class="st0" d="M15.4 20.7c0-.4-.1-.8-.4-.8-.4 0-.4.4-.4.8s.1.8.4.8.4-.4.4-.8m-.5-1c.6 0 .8.5.8 1.1s-.2 1.1-.8 1.1-.8-.5-.8-1.1.2-1.1.8-1.1"/><path id="Path_21" class="st0" d="M16.1 19.7h.4v.3c.1-.2.3-.3.5-.4h.2v.4H17c-.3 0-.5.2-.5.5v1.3h-.4v-2.1z"/><path id="Path_22" class="st0" d="M19 21.7h-.4l-.6-1-.3.3v.7h-.4V19h.4v1.6l.8-.9h.4l-.7.8.8 1.2z"/><path id="Path_23" class="st0" d="M20.1 20.3c0-.3-.1-.4-.3-.4-.1 0-.4 0-.4.3 0 .2.3.3.6.4s.6.2.6.6c0 .4-.3.6-.7.6-.8 0-.8-.5-.8-.7h.4c0 .2.1.5.4.5.2 0 .4-.1.4-.3 0-.3-.3-.3-.6-.4s-.6-.2-.6-.6c0-.4.3-.6.7-.6.7 0 .7.4.7.6h-.4z"/><path id="Path_24" class="st0" d="M23.7 20.8c0 .5-.3 1-.9 1-.8 0-1-.7-1-1.4s.1-1.4 1-1.4c.4-.1.8.2.9.6v.2h-.4c0-.3-.1-.6-.5-.6-.5 0-.6.5-.6 1.1s.1 1.1.6 1.1c.4 0 .5-.4.5-.7l.4.1z"/><path id="Path_25" class="st0" d="M25.2 20.7c0-.4-.1-.8-.4-.8-.4 0-.4.4-.4.8s.1.8.4.8.4-.4.4-.8m-.5-1c.6 0 .8.5.8 1.1s-.2 1.1-.8 1.1-.8-.5-.8-1.1.2-1.1.8-1.1"/><path id="Path_26" class="st0" d="M25.9 19.7h.3v.2c.1-.2.3-.3.5-.3s.4.1.5.3c.1-.2.3-.3.5-.3.6 0 .6.4.6.6v1.4H28v-1.4c0-.2 0-.4-.3-.4-.2 0-.4.2-.4.4v1.4H27v-1.4c0-.2 0-.4-.3-.4-.2 0-.4.2-.4.4v1.4h-.4v-1.9z"/><path id="Path_27" class="st0" d="M29.7 21.5c.3 0 .4-.3.4-.8 0-.4-.1-.8-.4-.8-.4 0-.5.3-.5.8 0 .4.1.8.5.8m-.8-1.8h.3v.3c.1-.2.3-.3.5-.3.5 0 .7.4.7 1 0 .5-.2 1.1-.7 1.1-.2 0-.4-.1-.5-.3v.9h-.4l.1-2.7z"/><path id="Path_28" class="st0" d="M31.9 20.6c-.1.1-.4.1-.6.2-.1.1-.2.2-.2.3 0 .2.1.3.3.3.2 0 .4-.2.5-.4v-.4zm-1.1-.3c0-.5.2-.7.8-.7.7 0 .7.4.7.6v1.1c0 .1 0 .2.1.2h.1v.2h-.2c-.1 0-.3 0-.3-.3-.1.2-.3.3-.5.3-.3 0-.6-.2-.6-.4v-.1c0-.3.2-.5.4-.6l.5-.1c.3-.1.3-.1.3-.3 0-.2-.1-.3-.4-.3-.2 0-.4.1-.4.3v.1h-.5z"/><path id="Path_29" class="st0" d="M32.7 19.7h.3v.2c.1-.2.3-.3.5-.3.6 0 .6.4.6.6v1.4h-.4v-1.4c0-.2 0-.4-.3-.4-.2 0-.4.2-.4.4v1.4h-.4l.1-1.9z"/><path id="Path_30" class="st0" d="M34.5 19.7h.4l.4 1.6.4-1.6h.4l-.6 2.1c-.1.3-.2.5-.6.5h-.3v-.2h.2c.1 0 .2-.1.3-.2l.1-.2-.7-2z"/></g></g></svg>