<?xml version="1.0" encoding="utf-8"?>
<!-- Generator: Adobe Illustrator 21.1.0, SVG Export Plug-In . SVG Version: 6.00 Build 0)  -->
<svg version="1.1" id="Layer_1" xmlns="http://www.w3.org/2000/svg" xmlns:xlink="http://www.w3.org/1999/xlink" x="0px" y="0px"
	 viewBox="0 0 77.4 87.8" style="enable-background:new 0 0 77.4 87.8;" xml:space="preserve">
<g id="icon-member" transform="translate(0 -952.4)">
	<g id="Group_826" transform="translate(21.916 958.564)">
		<path id="Path_2007" d="M10.3,0C5.7,0,2.1,3.7,2.1,8.2c0,1.8,0.6,3.6,1.8,5.1L0,23.3l5-2.1l2.4,4.7l2.7-7.6l2.9,7.6l2.3-4.8
			l5.1,2.3l-4-9.9c1.2-1.5,1.9-3.4,1.9-5.3C18.4,3.8,15,0.1,10.6,0C10.5,0,10.4,0,10.3,0L10.3,0z M10.3,2c3.4,0,6.2,2.8,6.3,6.3
			c0,3.5-2.7,6.3-6.2,6.3S4.1,11.8,4,8.4c0-0.1,0-0.1,0-0.2C4.1,4.8,6.8,2,10.3,2z"/>
	</g>
	<g id="Group_827" transform="translate(49.409 1012.18)">
		<path id="Path_2008" d="M14,0C6.3,0,0,6.3,0,14c0,0,0,0,0,0l0,0c0,7.7,6.3,14,14,14c7.7,0,14-6.3,14-14l0,0C27.9,6.3,21.7,0,14,0z
			 M13.1,6.7h1.7v2.3c1.2,0.4,2,1.6,2.1,2.8h-1.7c-0.1-0.7-0.7-1.2-1.4-1.2c-0.7,0.1-1.2,0.7-1.2,1.4c0,0.7,0.6,1.2,1.3,1.2l0,0
			c1.2,0,2.3,0.8,2.7,1.9c0.5,1.1,0.2,2.4-0.6,3.2c-0.4,0.4-0.8,0.6-1.3,0.8v2.3h-1.7V19c-0.1,0-0.2-0.1-0.3-0.1
			c-1.1-0.5-1.8-1.6-1.8-2.7h1.7c0,0.5,0.3,1.1,0.8,1.3c0.5,0.2,1,0.1,1.4-0.3c0.4-0.4,0.5-1,0.3-1.5c-0.2-0.5-0.7-0.8-1.2-0.8l0,0
			c-1.6,0-3-1.4-2.9-3c0,0,0,0,0,0c0-1.3,0.8-2.5,2.1-2.8L13.1,6.7L13.1,6.7z"/>
	</g>
	<g id="Group_828" transform="translate(0 952.4)">
		<path id="Path_2009" d="M0,0v76.7h47.4v-2H2V2h60.5v55.8h2V0H0z"/>
	</g>
	<g id="Group_829" transform="translate(12.719 989.09)">
		<path id="Path_2010" d="M0,0v2h39V0H0z"/>
	</g>
	<g id="Group_830" transform="translate(19.959 1012.473)">
		<path id="Path_2011" d="M0,0v2h24.5V0H0z"/>
	</g>
	<g id="Group_831" transform="translate(12.719 996.819)">
		<path id="Path_2012" d="M0,0v2h39V0H0z"/>
	</g>
	<g id="Group_832" transform="translate(12.719 1004.646)">
		<path id="Path_2013" d="M0,0v2h39V0H0z"/>
	</g>
</g>
</svg>
