<?xml version="1.0" encoding="utf-8"?>
<!-- Generator: Adobe Illustrator 21.1.0, SVG Export Plug-In . SVG Version: 6.00 Build 0)  -->
<svg version="1.1" id="icon-multiple" xmlns="http://www.w3.org/2000/svg" xmlns:xlink="http://www.w3.org/1999/xlink" x="0px"
	 y="0px" viewBox="0 0 80.1 90.4" style="enable-background:new 0 0 80.1 90.4;" xml:space="preserve">
<g id="Group_834">
	<path id="Path_2015" d="M72,8.3H31.7v15.2h40.1V8.3H72z M69.9,21.5H33.8v-11h36L69.9,21.5L69.9,21.5z"/>
</g>
<g id="Group_835">
	
		<rect id="Rectangle_16" x="37.9" y="44.3" transform="matrix(0.7071 -0.7071 0.7071 0.7071 -16.821 50.1103)" width="28.3" height="2.1"/>
</g>
<g id="Group_836">
	<path id="Path_2016" d="M59.3,47.9c-2.9,0-5.2,2.3-5.2,5.2c0,2.9,2.3,5.2,5.2,5.2s5.2-2.3,5.2-5.2c0.1-2.8-2.2-5.1-5-5.2
		C59.4,47.9,59.4,47.9,59.3,47.9z M59.3,56.1c-1.8,0-3.2-1.4-3.2-3.2s1.4-3.2,3.2-3.2s3.2,1.4,3.2,3.2
		C62.5,54.6,61.1,56.1,59.3,56.1C59.4,56.1,59.3,56.1,59.3,56.1z"/>
</g>
<g id="Group_837">
	<path id="Path_2017" d="M49.5,37.9c0-2.9-2.3-5.2-5.1-5.2c0,0,0,0-0.1,0c-2.9,0-5.3,2.3-5.3,5.2c0,0,0,0,0,0c0,2.9,2.4,5.3,5.3,5.3
		S49.5,40.8,49.5,37.9z M41.2,37.9c0-1.8,1.4-3.2,3.2-3.2s3.2,1.4,3.2,3.2s-1.4,3.2-3.2,3.2C42.7,41.1,41.2,39.7,41.2,37.9
		C41.2,38,41.2,37.9,41.2,37.9z"/>
</g>
<g id="Group_838">
	<path id="Path_2018" d="M17.5,46.8v-3c1-0.2,2-0.6,2.8-1.2c1.9-1.4,2.3-4.1,0.8-6c-0.2-0.3-0.5-0.6-0.8-0.8c-1-0.9-2.3-1.4-3.7-1.4
		c-0.8,0-1.7-0.2-2.3-0.8c-0.6-0.5-0.9-1.2-1-1.9c0-0.8,0.4-1.5,1-1.9c1.4-1.1,3.4-1.1,4.8,0c0.6,0.5,0.9,1.2,1,1.9h2.1
		c0-1.3-0.7-2.6-1.7-3.4c-0.8-0.7-1.8-1.1-2.8-1.2v-3h-2.1v3c-1,0.2-2,0.6-2.8,1.2c-1.9,1.4-2.3,4.1-0.8,6c0.2,0.3,0.5,0.6,0.8,0.8
		c1,0.9,2.3,1.4,3.7,1.4c0.8,0,1.7,0.2,2.3,0.8c0.6,0.5,0.9,1.2,1,1.9c0,0.8-0.4,1.5-1,1.9c-1.4,1.1-3.4,1.1-4.8,0
		c-0.6-0.5-0.9-1.2-1-1.9h-2c0,1.3,0.7,2.6,1.7,3.4c0.8,0.7,1.8,1.1,2.8,1.2v3L17.5,46.8z"/>
</g>
<g id="Group_839">
	<path id="Path_2019" d="M24.3,49.7v19.2h55.2V0H24.3v21c-2.4-1.3-5.2-1.9-7.9-1.9C7.3,19.1,0,26.4,0,35.5s7.3,16.4,16.4,16.4
		C19.2,51.7,21.9,51,24.3,49.7z M26.3,2.1h50.9v64.7H26.3V48.3c7.2-5.4,8.6-15.6,3.3-22.8c-0.9-1.2-2-2.3-3.3-3.3V2.1z M2.2,35.3
		C2.2,27.4,8.7,21,16.6,21c7.9,0.1,14.3,6.5,14.2,14.4c-0.1,7.9-6.5,14.3-14.4,14.2C8.5,49.5,2.2,43.2,2.2,35.3z"/>
</g>
<g id="Group_840">
	<path id="Path_2020" d="M75.3,74.8h-4.6v-2.3h-2.1v2.3h-2.5v-2.3H64v2.3H16l-7.4,3.7c-0.4,0.2-0.7,0.6-0.7,1.1
		c0,0.5,0.3,0.9,0.7,1.1l7.4,3.7h48.1v3.9H42.6v2.1h28.3v-5.9h4.4c2.7,0,4.8-2.2,4.8-4.9C80.1,77,78,74.8,75.3,74.8z M68.7,76.8v5.5
		h-2.5v-5.5H68.7z M11,79.6l5.4-2.8h1.2v5.5h-1.2L11,79.6z M19.7,82.4v-5.5h44.4v5.5H19.7z M68.7,88.3h-2.5v-3.9h2.5V88.3z
		 M75.3,82.4h-4.6v-5.5h4.6c1.5,0,2.8,1.3,2.8,2.8v0C78.1,81.2,76.9,82.4,75.3,82.4C75.4,82.4,75.3,82.4,75.3,82.4z"/>
</g>
</svg>
