<svg xmlns="http://www.w3.org/2000/svg" xmlns:xlink="http://www.w3.org/1999/xlink" width="16" height="19.594" viewBox="0 0 16 19.594">
  <defs>
    <clipPath id="clip-path">
      <rect id="Rectangle_65" data-name="Rectangle 65" width="16" height="19.594" fill="#757575"/>
    </clipPath>
  </defs>
  <g id="Group_880" data-name="Group 880" transform="translate(0 -0.199)">
    <g id="Group_878" data-name="Group 878" transform="translate(0 0.2)">
      <g id="Group_876" data-name="Group 876" transform="translate(0 0)" clip-path="url(#clip-path)">
        <path id="Path_2280" data-name="Path 2280" d="M.848,60.445C-.8,63.311.248,67.657,2.073,70.3c.912,1.313,1.833,2.5,3.1,2.5h.072a3.873,3.873,0,0,0,1.441-.384,3.9,3.9,0,0,1,1.7-.4,3.728,3.728,0,0,1,1.625.392,3.466,3.466,0,0,0,1.553.376c1.425-.024,2.3-1.3,3.066-2.433a10.71,10.71,0,0,0,1.345-2.753l.008-.016a.164.164,0,0,0-.088-.2l-.008-.008a4.092,4.092,0,0,1-2.473-3.738A4.2,4.2,0,0,1,15.4,60.117l.016-.008a.159.159,0,0,0,.048-.224,4.589,4.589,0,0,0-3.634-1.969c-.1-.008-.208-.016-.32-.016a6.333,6.333,0,0,0-2.281.568A3.671,3.671,0,0,1,8.14,58.8a3.6,3.6,0,0,1-1.129-.328,5.419,5.419,0,0,0-1.993-.5H4.97A4.849,4.849,0,0,0,.848,60.445Zm0,0" transform="translate(-0.024 -53.282)" fill="#757575"/>
      </g>
      <g id="Group_877" data-name="Group 877" transform="translate(0 0)" clip-path="url(#clip-path)">
        <path id="Path_2281" data-name="Path 2281" d="M101.1,0a4.47,4.47,0,0,0-2.945,1.513A4.159,4.159,0,0,0,97.1,4.61a.154.154,0,0,0,.144.136,1.809,1.809,0,0,0,.208.008,3.771,3.771,0,0,0,2.777-1.425A4.376,4.376,0,0,0,101.261.144.157.157,0,0,0,101.1,0Zm0,0" transform="translate(-89.303 -0.016)" fill="#757575"/>
      </g>
    </g>
  </g>
</svg>
