<svg id="Group_886" data-name="Group 886" xmlns="http://www.w3.org/2000/svg" xmlns:xlink="http://www.w3.org/1999/xlink" width="18" height="18.047" viewBox="0 0 18 18.047">
  <defs>
    <clipPath id="clip-path">
      <rect id="Rectangle_67" data-name="Rectangle 67" width="18" height="18.046" fill="#757575"/>
    </clipPath>
  </defs>
  <path id="Path_2283" data-name="Path 2283" d="M28.3,8.7V9h-.4l-.1.6h.5l.7-.1.4-.4L29.1,9l-.2-.2-.3-.5-.1-.7-.6.1-.2.3v.3l.3.2Zm0,0" transform="translate(-15.563 -4.304)" fill="#757575"/>
  <path id="Path_2284" data-name="Path 2284" d="M27.8,8.9V8.5l-.3-.1-.5.1-.3.5v.4h.4Zm0,0" transform="translate(-14.763 -4.632)" fill="#757575"/>
  <path id="Path_2285" data-name="Path 2285" d="M18,10.5l-.1.3h-.5v.3h.1v.1h.3L18,11l.1-.2h.3l.1-.2h-.2Zm0,0" transform="translate(-9.621 -5.744)" fill="#757575"/>
  <g id="Group_885" data-name="Group 885">
    <g id="Group_883" data-name="Group 883" clip-path="url(#clip-path)">
      <path id="Path_2286" data-name="Path 2286" d="M16.6,10.893v.139h.185v-.139l-.093-.093Zm0,0" transform="translate(-8.919 -5.803)" fill="#757575"/>
    </g>
    <g id="Group_884" data-name="Group 884" clip-path="url(#clip-path)">
      <path id="Path_2287" data-name="Path 2287" d="M18,8.884a4.489,4.489,0,0,0-.046-.787,8.659,8.659,0,0,0-.6-2.452c-.046-.046-.046-.093-.046-.185A8.886,8.886,0,0,0,15.64,2.869L15.5,2.73l-.416-.416A9.164,9.164,0,0,0,8.977,0,8.9,8.9,0,0,0,2.915,2.406,5.81,5.81,0,0,0,1.9,3.517,8.788,8.788,0,0,0,0,8.977a8.98,8.98,0,0,0,16.982,4.072,9.281,9.281,0,0,0,.74-1.99,2.323,2.323,0,0,0,.093-.555,8.654,8.654,0,0,0,.139-1.573c.046.046.046,0,.046-.046ZM16.288,5.321l.046-.046c.046.139.139.278.185.416h-.231Zm-1.3-1.573V3.332c.139.139.278.324.416.463l-.139.231h-.555l-.046-.139ZM4.165,2.73H4.35V2.684h.278v.093l-.093.139h-.37Zm.278.416L4.627,3.1v.185l-.416.046-.046-.093ZM16.889,6.71h-.648l-.416-.278-.416.046v.278H15.27l-.139-.093-.74-.185V6.015l-.925.093-.278.139h-.555l-.463.231v.463l-.925.648.093.278h.185l-.046.278-.139.046v.694l.787.879h.37V9.717h.6l.185-.185h.37l.185.185.509.046-.046.694.6,1.018-.324.6v.278l.231.231v.648l.324.416v.555h.278A8.226,8.226,0,0,1,.787,8.977a8.43,8.43,0,0,1,.648-3.239V5.46l.278-.37c.093-.185.231-.37.324-.555v.139l-.324.416c-.139.278-.231.463-.324.694v.463l.324.185V7.08l.324.555.278.046L2.36,7.5l-.324-.509L1.99,6.524h.185l.093.509.463.648-.139.185.278.463.74.185V8.422l.278.046-.046.185.231.046.37.093.509.555.648.046.046.509-.463.278v.463l-.046.278.648.787.046.278.231.046a4.847,4.847,0,0,1,.509.37v1.434l.185.046-.139.648.278.37-.046.648.37.694.509.416h.509l.046-.139-.37-.324v-.139l.046-.185v-.185H7.728l-.139-.139.185-.185.046-.139-.231-.046v-.139l.324-.046.509-.231.185-.324.509-.648-.139-.509L9.116,13h.463l.324-.231.093-.972.37-.463.046-.278-.231-.185-.231-.37h-.74l-.555-.231-.046-.416-.185-.324H7.913l-.324-.463-.278-.139v.139L6.8,9.116l-.185-.231-.509-.093-.416.463-.6-.139-.046-.74-.463-.093.185-.37L4.72,7.681,4.072,8.1l-.416-.046-.139-.324L3.609,7.4l.231-.416L4.35,6.71h.972v.278l.37.185-.046-.509.231-.278.509-.324.046-.231.509-.509L7.5,5.044H7.4l.37-.324.139.046.046.093L8.1,4.72H8.005l-.139-.046V4.442L7.959,4.4h.185l.093.046.093.139h.139L8.7,4.535,8.746,4.4h.046v.139l-.139.093v.139l.463.139h.093V4.72l-.37-.185V4.442l.324-.093V4.072l-.324-.185V3.378l-.416.231H8.283v-.37l-.6-.139-.231.185v.555l-.416.139-.185.37L6.663,4.4V3.933l-.416-.046L6.062,3.7l-.093-.324.74-.416.37-.093.046.231h.185V2.961l.231-.046V2.869L7.45,2.823V2.684h.278L7.866,2.5h0l.046-.046.555-.046.231.185-.648.324.787.185.093-.278H9.3l.139-.231-.231-.046V2.314L8.422,1.99l-.555.046-.324.139v.37L7.219,2.5V2.314l.324-.278L6.987,1.99l-.139.046L6.8,2.221l.139.046-.046.185h-.37l-.046.139H5.969s0-.278-.046-.278h.416l.324-.278L6.478,1.99l-.231.231h-.37l-.185-.37H5.229l-.509.37h.463l.046.139-.139.093H5.6l.093.185H5.136L5.09,2.5l-.37-.093-.139-.093H4.165A8.345,8.345,0,0,1,9.023.74a8.254,8.254,0,0,1,5.46,2.082l-.139.139-.37.139-.139.185.046.185.185.046.139.278.278-.093.046.416h-.093l-.278-.046-.278.046-.278.416-.416.046-.046.37L13.326,5l-.046.231-.416-.093-.37.093L12.4,5.46l.046.463.231.093h.648l.093-.185.416-.509.278.046.278-.231.046.185.648.416-.093.093h-.278l.093.139.185.046.231-.093V5.692l.093-.046-.093-.093-.416-.231L14.715,5h.37l.093.093.324.278v.324l.324.324.139-.463.231-.139.046.37.231.231h.416a1.18,1.18,0,0,0,0,.694ZM4.9,4.072l.231-.093.185.046L5.275,4.3l-.231.046Zm1.157.648V4.9H5.553l-.185-.046.046-.139.231-.093h.324V4.72h.093Zm.231.231V5.09l-.139.093-.139.046V4.951Zm-.139-.093V4.674l.185.139Zm.046.416v.139l-.093.139H5.83l.046-.185h.139l.046-.046Zm-.648-.324H5.83l-.37.509-.139-.093.046-.185Zm1.111.278v.139H6.386l-.093-.093V5.136h0ZM6.432,5,6.524,4.9,6.663,5l-.139.093Zm10.6,2.129h0c.046,0,.046.046.046.093Zm0,0" transform="translate(0)" fill="#757575"/>
    </g>
  </g>
  <path id="Path_2288" data-name="Path 2288" d="M3,11.9v.6c.2-.5.4-.9.6-1.3Zm0,0" transform="translate(0.39 -6.225)" fill="#757575"/>
</svg>
