<svg xmlns="http://www.w3.org/2000/svg" width="29.498" height="22.945" viewBox="0 0 29.498 22.945">
  <path id="np_news_1081490_000000" d="M11.165,15a.328.328,0,0,0-.266.328v3.933H5.327A.328.328,0,0,0,5,19.585v15.24a3.16,3.16,0,0,0,3.278,3.114H31.424A3.005,3.005,0,0,0,34.5,34.825v-19.5A.328.328,0,0,0,34.169,15H11.227a.247.247,0,0,0-.061,0Zm.389.656H33.842V34.825a2.29,2.29,0,0,1-2.417,2.458H10.192a2.95,2.95,0,0,0,1.362-2.458Zm3.871,3.605a.328.328,0,0,0-.266.328v5.9a.328.328,0,0,0,.328.328H29.908a.328.328,0,0,0,.328-.328v-5.9a.328.328,0,0,0-.328-.328H15.487A.247.247,0,0,0,15.426,19.257Zm-9.771.656H10.9V34.825a2.481,2.481,0,0,1-2.417,2.448.342.342,0,0,0-.061.01H8.277a2.471,2.471,0,0,1-2.622-2.458Zm10.16,0H29.581v5.244H15.815Zm-.389,9.177a.329.329,0,1,0,.061.656H29.909a.328.328,0,1,0,0-.656H15.488a.247.247,0,0,0-.061,0Zm0,3.933a.329.329,0,0,0,.061.656H29.909a.328.328,0,1,0,0-.656H15.488a.247.247,0,0,0-.061,0Z" transform="translate(-5 -14.994)" fill="#2199a1"/>
</svg>
