<?xml version="1.0" encoding="utf-8"?>
<!-- Generator: Adobe Illustrator 21.1.0, SVG Export Plug-In . SVG Version: 6.00 Build 0)  -->
<svg version="1.1" id="Layer_1" xmlns="http://www.w3.org/2000/svg" xmlns:xlink="http://www.w3.org/1999/xlink" x="0px" y="0px"
	 viewBox="0 0 38.3 22.4" style="enable-background:new 0 0 38.3 22.4;" xml:space="preserve">
<style type="text/css">
	.st0{fill:#00953B;}
</style>
<g id="LOGO-HSQ-color" transform="translate(0 0)">
	<g id="Layer_1_1_" transform="translate(0 0)">
		<path id="Path_1" class="st0" d="M1.7,11.8H0.2v-0.3h3.4v0.3H2.1v2.4H1.7L1.7,11.8z"/>
		<path id="Path_2" class="st0" d="M3.8,11.5h2.9v0.3H4.2v0.9h2.4v0.3H4.2v1h2.5v0.3H3.8V11.5z"/>
		<path id="Path_3" class="st0" d="M7,12.5c0-0.7,0.3-1,1.1-1h1.5c0.7,0,0.9,0.3,0.9,0.7v0.2h-0.4v-0.1c0-0.5-0.3-0.5-0.7-0.5H8.1
			c-0.4,0-0.7,0.1-0.7,0.6v1c0,0.5,0.3,0.6,0.7,0.6h1.4c0.5,0,0.7-0.1,0.7-0.5v-0.2h0.4v0.2c0,0.5-0.2,0.8-1,0.8H8.1
			c-0.8,0-1.1-0.3-1.1-1V12.5z"/>
		<path id="Path_4" class="st0" d="M11,11.5h0.4v1.2h2.7v-1.2h0.4v2.7h-0.4v-1.3h-2.7v1.3H11V11.5z"/>
		<path id="Path_5" class="st0" d="M15.1,11.5h0.6l2.7,2.4v-2.4h0.4v2.7h-0.6l-2.7-2.4v2.4h-0.4V11.5z"/>
		<path id="Path_6" class="st0" d="M22.7,12.3c0-0.5-0.3-0.6-0.7-0.6h-1.6c-0.4,0-0.7,0.1-0.7,0.6v1c0,0.5,0.3,0.6,0.7,0.6H22
			c0.4,0,0.7-0.1,0.7-0.6L22.7,12.3z M19.3,12.5c0-0.7,0.3-1,1.1-1H22c0.8,0,1.1,0.3,1.1,1v0.8c0,0.7-0.3,1-1.1,1h-1.7
			c-0.8,0-1.1-0.3-1.1-1V12.5z"/>
		<path id="Path_7" class="st0" d="M23.6,11.5H24v2.4h2.3v0.3h-2.7V11.5z"/>
		<path id="Path_8" class="st0" d="M29.8,12.3c0-0.5-0.3-0.6-0.7-0.6h-1.6c-0.4,0-0.7,0.1-0.7,0.6v1c0,0.5,0.3,0.6,0.7,0.6h1.6
			c0.4,0,0.7-0.1,0.7-0.6V12.3z M26.4,12.5c0-0.7,0.3-1,1.1-1h1.7c0.8,0,1.1,0.3,1.1,1v0.8c0,0.7-0.3,1-1.1,1h-1.7
			c-0.8,0-1.1-0.3-1.1-1V12.5z"/>
		<path id="Path_9" class="st0" d="M34.3,13.2c0,0.7-0.3,1-1,1h-1.6c-0.8,0-1.1-0.3-1.1-1v-0.8c0-0.7,0.3-1,1.1-1h1.5
			c0.5,0,1.1,0.1,1.1,0.8v0.1h-0.4c0-0.5-0.2-0.6-1.2-0.6h-1c-0.4,0-0.7,0.1-0.7,0.6v1c0,0.5,0.3,0.6,0.7,0.6h1.6
			c0.4,0,0.6-0.1,0.6-0.5v-0.3h-1.5v-0.3h1.9L34.3,13.2z"/>
		<path id="Path_10" class="st0" d="M37.8,11.5l-1.4,1.3l-1.4-1.3h-0.5l1.7,1.6v1.2h0.4v-1.2l1.7-1.6H37.8z"/>
		<path id="Path_11" class="st0" d="M9.8,7.5h-2V5.3H3.7v2.2h-2V1.8h2v2h4.1v-2h2V7.5z M10.4,0H1.1C0.5,0,0,0.4,0,1v6.8
			c0,0.6,0.5,1,1.1,1h9.3c0.6,0,1.1-0.4,1.1-1V1C11.5,0.4,11,0,10.4,0"/>
		<path id="Path_12" class="st0" d="M20.3,7.6h-2.4c-1.8,0-2.5-0.3-2.5-1.5V5.6h2c0,0.6,0.3,0.7,0.8,0.7h2.4c0.4,0,0.8,0,0.8-0.5
			c0-0.5-0.2-0.5-2.7-0.5c-2.9,0-3.3-0.3-3.3-1.7c0-1,0.1-1.8,2.6-1.8h2.7c2.3,0,2.5,0.7,2.5,1.7v0.2h-2c0-0.4-0.1-0.6-1-0.6h-2.2
			c-0.4,0-0.7,0.1-0.7,0.4c0,0.5,0.2,0.5,2.3,0.5c3,0,3.7,0.2,3.7,1.8C23.5,7.3,22.9,7.6,20.3,7.6 M23.8,0h-9.3
			c-0.6,0-1.1,0.4-1.1,1v6.8c0,0.6,0.5,1,1.1,1h9.3c0.6,0,1.1-0.4,1.1-1V1C24.9,0.4,24.4,0,23.8,0"/>
		<path id="Path_13" class="st0" d="M33.7,3.2h-2.3c-1,0-1.2,0.4-1.2,1.1v0.6c0,0.8,0.2,1.1,1.1,1.1h2.5c0.1,0,0.2,0,0.3,0v0l-1.8-1
			l0.8-1.2l1.8,1V4.3C35,3.6,34.8,3.2,33.7,3.2"/>
		<path id="Path_14" class="st0" d="M36.9,7.6l-0.7-0.4c-0.6,0.3-1.3,0.4-2,0.4H31c-1.8,0-2.8-0.4-2.8-2.1V3.8c0-1.7,1-2.1,2.8-2.1
			h3.1c1.8,0,2.8,0.4,2.8,2.1v1.7c0,0.2,0,0.3,0,0.5l0.8,0.4L36.9,7.6z M37.2,0h-9.3c-0.6,0-1.1,0.4-1.1,1v6.8c0,0.6,0.5,1,1.1,1
			h9.3c0.6,0,1.1-0.4,1.1-1V1C38.3,0.4,37.8,0,37.2,0"/>
		<rect id="Rectangle_1" x="0.2" y="9.8" class="st0" width="38.2" height="0.6"/>
		<rect id="Rectangle_2" x="0.2" y="15.1" class="st0" width="38.2" height="0.6"/>
		<rect id="Rectangle_3" x="0.2" y="16.1" class="st0" width="38.2" height="1.1"/>
		<path id="Path_15" class="st0" d="M2.9,20.7h0.8l-0.4-1.3h0L2.9,20.7z M3.1,19h0.5l0.8,2.7H4L3.8,21h-1l-0.2,0.7H2.2L3.1,19z"/>
		<path id="Path_16" class="st0" d="M6,20.3h0.4c0.2,0,0.6,0,0.6-0.5c0-0.3-0.2-0.4-0.5-0.4H6L6,20.3z M5.6,19h1
			c0.5,0,0.8,0.2,0.8,0.7c0,0.3-0.2,0.6-0.5,0.7v0c0.2,0,0.4,0.2,0.4,0.4l0,0.5c0,0.3,0.1,0.4,0.2,0.4H7c-0.1-0.1-0.1-0.3-0.1-0.4
			l0-0.4c0-0.4-0.3-0.4-0.4-0.4H6v1.2H5.6L5.6,19z"/>
		<path id="Path_17" class="st0" d="M8.8,20.6c-0.1,0.1-0.4,0.1-0.6,0.2C8.1,20.9,8,21,8,21.2c0,0.2,0.1,0.3,0.3,0.3
			c0.2,0,0.4-0.2,0.5-0.4L8.8,20.6z M7.7,20.3c0-0.5,0.2-0.7,0.8-0.7c0.7,0,0.7,0.4,0.7,0.6v1.1c0,0.1,0,0.2,0.1,0.2
			c0,0,0.1,0,0.1,0v0.2c-0.1,0-0.1,0-0.2,0c-0.1,0-0.3,0-0.3-0.3h0c-0.1,0.2-0.3,0.3-0.5,0.3c-0.3,0-0.6-0.2-0.6-0.5
			c0,0,0-0.1,0-0.1c0-0.3,0.2-0.5,0.4-0.6l0.5-0.1c0.3-0.1,0.3-0.1,0.3-0.3c0-0.2-0.1-0.3-0.4-0.3c-0.2,0-0.4,0.1-0.4,0.3
			c0,0,0,0.1,0,0.1v0L7.7,20.3z"/>
		<path id="Path_18" class="st0" d="M9.6,19.7H10v2H9.6V19.7z M9.6,19H10v0.4H9.6V19z"/>
		<rect id="Rectangle_4" x="10.5" y="19" class="st0" width="0.4" height="2.7"/>
		<path id="Path_19" class="st0" d="M11.1,19h0.4l0.5,2.2h0l0.4-2.2h0.4l0.4,2.2h0l0.5-2.2H14l-0.6,2.7H13l-0.4-2.2h0l-0.4,2.2h-0.4
			L11.1,19z"/>
		<path id="Path_20" class="st0" d="M15.4,20.7c0-0.4-0.1-0.8-0.4-0.8c-0.4,0-0.4,0.4-0.4,0.8s0.1,0.8,0.4,0.8S15.4,21.1,15.4,20.7
			 M14.9,19.7c0.6,0,0.8,0.5,0.8,1.1s-0.2,1.1-0.8,1.1s-0.8-0.5-0.8-1.1S14.3,19.7,14.9,19.7"/>
		<path id="Path_21" class="st0" d="M16.1,19.7h0.4V20h0c0.1-0.2,0.3-0.3,0.5-0.4c0.1,0,0.1,0,0.2,0V20c-0.1,0-0.1,0-0.2,0
			c-0.3,0-0.5,0.2-0.5,0.5v1.3h-0.4L16.1,19.7z"/>
		<path id="Path_22" class="st0" d="M19,21.7h-0.4l-0.6-1L17.7,21v0.7h-0.4V19h0.4v1.6h0l0.8-0.9h0.4l-0.7,0.8L19,21.7z"/>
		<path id="Path_23" class="st0" d="M20.1,20.3c0-0.3-0.1-0.4-0.3-0.4c-0.1,0-0.4,0-0.4,0.3c0,0.2,0.3,0.3,0.6,0.4s0.6,0.2,0.6,0.6
			c0,0.4-0.3,0.6-0.7,0.6c-0.8,0-0.8-0.5-0.8-0.7h0.4c0,0.2,0.1,0.5,0.4,0.5c0.2,0,0.4-0.1,0.4-0.3c0,0,0,0,0,0
			c0-0.3-0.3-0.3-0.6-0.4s-0.6-0.2-0.6-0.6c0-0.4,0.3-0.6,0.7-0.6c0.7,0,0.7,0.4,0.7,0.6L20.1,20.3z"/>
		<path id="Path_24" class="st0" d="M23.7,20.8c0,0.5-0.3,1-0.9,1c-0.8,0-1-0.7-1-1.4s0.1-1.4,1-1.4c0.4-0.1,0.8,0.2,0.9,0.6
			c0,0.1,0,0.1,0,0.2h-0.4c0-0.3-0.1-0.6-0.5-0.6c-0.5,0-0.6,0.5-0.6,1.1s0.1,1.1,0.6,1.1c0.4,0,0.5-0.4,0.5-0.7L23.7,20.8z"/>
		<path id="Path_25" class="st0" d="M25.2,20.7c0-0.4-0.1-0.8-0.4-0.8c-0.4,0-0.4,0.4-0.4,0.8s0.1,0.8,0.4,0.8S25.2,21.1,25.2,20.7
			 M24.7,19.7c0.6,0,0.8,0.5,0.8,1.1s-0.2,1.1-0.8,1.1s-0.8-0.5-0.8-1.1S24.1,19.7,24.7,19.7"/>
		<path id="Path_26" class="st0" d="M25.9,19.7h0.3v0.2h0c0.1-0.2,0.3-0.3,0.5-0.3c0.2,0,0.4,0.1,0.5,0.3c0.1-0.2,0.3-0.3,0.5-0.3
			c0.6,0,0.6,0.4,0.6,0.6v1.4h-0.3v-1.4c0-0.2,0-0.4-0.3-0.4c-0.2,0-0.4,0.2-0.4,0.4c0,0,0,0,0,0v1.4H27v-1.4c0-0.2,0-0.4-0.3-0.4
			c-0.2,0-0.4,0.2-0.4,0.4c0,0,0,0,0,0v1.4h-0.4L25.9,19.7z"/>
		<path id="Path_27" class="st0" d="M29.7,21.5c0.3,0,0.4-0.3,0.4-0.8c0-0.4-0.1-0.8-0.4-0.8c-0.4,0-0.5,0.3-0.5,0.8
			C29.2,21.1,29.3,21.5,29.7,21.5 M28.9,19.7h0.3V20h0c0.1-0.2,0.3-0.3,0.5-0.3c0.5,0,0.7,0.4,0.7,1c0,0.5-0.2,1.1-0.7,1.1
			c-0.2,0-0.4-0.1-0.5-0.3h0v0.9h-0.4L28.9,19.7z"/>
		<path id="Path_28" class="st0" d="M31.9,20.6c-0.1,0.1-0.4,0.1-0.6,0.2c-0.1,0.1-0.2,0.2-0.2,0.3c0,0.2,0.1,0.3,0.3,0.3
			c0.2,0,0.4-0.2,0.5-0.4L31.9,20.6z M30.8,20.3c0-0.5,0.2-0.7,0.8-0.7c0.7,0,0.7,0.4,0.7,0.6v1.1c0,0.1,0,0.2,0.1,0.2
			c0,0,0.1,0,0.1,0v0.2c-0.1,0-0.1,0-0.2,0c-0.1,0-0.3,0-0.3-0.3h0c-0.1,0.2-0.3,0.3-0.5,0.3c-0.3,0-0.6-0.2-0.6-0.4
			c0,0,0-0.1,0-0.1c0-0.3,0.2-0.5,0.4-0.6l0.5-0.1c0.3-0.1,0.3-0.1,0.3-0.3c0-0.2-0.1-0.3-0.4-0.3c-0.2,0-0.4,0.1-0.4,0.3
			c0,0,0,0.1,0,0.1v0L30.8,20.3z"/>
		<path id="Path_29" class="st0" d="M32.7,19.7H33v0.2h0c0.1-0.2,0.3-0.3,0.5-0.3c0.6,0,0.6,0.4,0.6,0.6v1.4h-0.4v-1.4
			c0-0.2,0-0.4-0.3-0.4c-0.2,0-0.4,0.2-0.4,0.4c0,0,0,0,0,0v1.4h-0.4L32.7,19.7z"/>
		<path id="Path_30" class="st0" d="M34.5,19.7h0.4l0.4,1.6h0l0.4-1.6h0.4l-0.6,2.1c-0.1,0.3-0.2,0.5-0.6,0.5c-0.1,0-0.2,0-0.3,0
			v-0.2c0.1,0,0.1,0,0.2,0c0.1,0,0.2-0.1,0.3-0.2l0.1-0.2L34.5,19.7z"/>
	</g>
</g>
</svg>
