<?xml version="1.0" encoding="utf-8"?>
<!-- Generator: Adobe Illustrator 21.1.0, SVG Export Plug-In . SVG Version: 6.00 Build 0)  -->
<svg version="1.1" id="LOGO-HSQ-PMS-355" xmlns="http://www.w3.org/2000/svg" xmlns:xlink="http://www.w3.org/1999/xlink" x="0px"
	 y="0px" viewBox="0 0 56.7 31.1" style="enable-background:new 0 0 56.7 31.1;" xml:space="preserve">
<style type="text/css">
	.st0{fill:#FFFFFF;}
</style>
<g id="Layer_1" transform="translate(0 0)">
	<path id="Path_1" class="st0" d="M2.4,16.4H0.2v-0.4h5v0.4H3v3.4H2.4V16.4z"/>
	<path id="Path_2" class="st0" d="M5.6,15.9h4.3v0.4H6.2v1.2h3.6V18H6.2v1.3H10v0.4H5.6V15.9z"/>
	<path id="Path_3" class="st0" d="M10.4,17.3c0-1,0.4-1.4,1.6-1.4h2.3c1.1,0,1.4,0.4,1.4,0.9v0.3h-0.5V17c0-0.6-0.5-0.7-1-0.7h-2.1
		c-0.6,0-1,0.2-1,0.8v1.4c0,0.7,0.5,0.8,1,0.8h2.1c0.8,0,1-0.2,1-0.7v-0.2h0.6v0.3c0,0.7-0.3,1.1-1.5,1.1H12c-1.2,0-1.6-0.5-1.6-1.4
		V17.3z"/>
	<path id="Path_4" class="st0" d="M16.4,15.9H17v1.6h3.9v-1.6h0.6v3.8h-0.6V18H17v1.8h-0.6V15.9z"/>
	<path id="Path_5" class="st0" d="M22.3,15.9h0.9l4,3.4v-3.4h0.6v3.8h-0.9l-4-3.4v3.4h-0.6V15.9z"/>
	<path id="Path_6" class="st0" d="M33.5,17.1c0-0.7-0.5-0.8-1-0.8h-2.4c-0.6,0-1,0.2-1,0.8v1.4c0,0.7,0.5,0.8,1,0.8h2.4
		c0.6,0,1-0.2,1-0.8V17.1z M28.5,17.3c0-1,0.4-1.4,1.6-1.4h2.5c1.2,0,1.6,0.5,1.6,1.4v1c0,1-0.4,1.4-1.6,1.4h-2.5
		c-1.2,0-1.6-0.5-1.6-1.4V17.3z"/>
	<path id="Path_7" class="st0" d="M34.9,15.9h0.6v3.4h3.4v0.4h-4V15.9z"/>
	<path id="Path_8" class="st0" d="M44.1,17.1c0-0.7-0.5-0.8-1-0.8h-2.4c-0.6,0-1,0.2-1,0.8v1.4c0,0.7,0.5,0.8,1,0.8h2.4
		c0.6,0,1-0.2,1-0.8V17.1z M39.1,17.3c0-1,0.4-1.4,1.6-1.4h2.5c1.2,0,1.6,0.5,1.6,1.4v1c0,1-0.4,1.4-1.6,1.4h-2.5
		c-1.2,0-1.6-0.5-1.6-1.4V17.3z"/>
	<path id="Path_9" class="st0" d="M50.8,18.4c0,1-0.4,1.4-1.5,1.4h-2.4c-1.2,0-1.6-0.5-1.6-1.4v-1c0-1,0.4-1.4,1.6-1.4h2.2
		c0.8,0,1.6,0.2,1.6,1v0.1h-0.6c0-0.7-0.2-0.8-1.7-0.8H47c-0.6,0-1,0.2-1,0.8v1.4c0,0.7,0.5,0.8,1,0.8h2.3c0.6,0,1-0.2,1-0.7v-0.4
		H48v-0.4h2.8L50.8,18.4z"/>
	<path id="Path_10" class="st0" d="M55.9,15.9l-2,1.8l-2-1.8h-0.8l2.5,2.2v1.6h0.6v-1.6l2.5-2.2H55.9z"/>
	<path id="Path_11" class="st0" d="M14.4,10.4h-2.9v-3H5.4v3H2.6V2.5h2.9v2.8h6.1V2.5h2.9V10.4z M15.4,0H1.6C0.8-0.1,0.1,0.5,0,1.4
		v9.5c0.1,0.8,0.8,1.4,1.6,1.4h13.8c0.8,0.1,1.5-0.5,1.6-1.4V1.4C16.9,0.5,16.2-0.1,15.4,0"/>
	<path id="Path_12" class="st0" d="M30.1,10.5h-3.5c-2.6,0-3.7-0.4-3.7-2.1V7.8h2.9c0,0.8,0.4,0.9,1.2,0.9h3.5
		c0.6,0,1.2-0.1,1.2-0.7c0-0.7-0.3-0.7-4.1-0.7c-4.4,0-4.8-0.4-4.8-2.4c0-1.4,0.2-2.5,3.8-2.5h4c3.3,0,3.6,1,3.6,2.3V5h-2.9
		c0-0.6-0.1-0.8-1.4-0.8h-3.2c-0.7,0-1.1,0.2-1.1,0.6c0,0.7,0.4,0.7,3.5,0.7c4.5,0,5.5,0.2,5.5,2.5C34.8,10.2,33.9,10.5,30.1,10.5
		 M35.2,0H21.5c-0.8-0.1-1.5,0.5-1.6,1.4v9.5c0.1,0.8,0.8,1.4,1.6,1.4h13.8c0.8,0.1,1.5-0.5,1.6-1.4V1.4C36.8,0.5,36.1-0.1,35.2,0"
		/>
	<path id="Path_13" class="st0" d="M50,4.4h-3.4C45,4.4,44.8,5,44.8,6v0.9c0,1.2,0.3,1.6,1.7,1.6h3.7c0.2,0,0.3,0,0.4,0v0L47.8,7
		L49,5.4l2.7,1.4V6C51.8,5,51.5,4.4,50,4.4"/>
	<path id="Path_14" class="st0" d="M54.6,10.5L53.5,10c-0.9,0.4-2,0.6-3,0.5h-4.6c-2.6,0-4.2-0.5-4.2-2.9V5.3c0-2.3,1.6-2.9,4.2-2.9
		h4.6c2.6,0,4.2,0.5,4.2,2.9v2.4c0,0.2,0,0.5-0.1,0.7l1.1,0.6L54.6,10.5z M55.1,0H41.3c-0.8-0.1-1.5,0.5-1.6,1.4v9.5
		c0.1,0.8,0.8,1.4,1.6,1.4h13.8c0.8,0.1,1.5-0.5,1.6-1.4V1.4C56.7,0.5,55.9-0.1,55.1,0"/>
	<rect id="Rectangle_1" x="0.2" y="13.6" class="st0" width="56.5" height="0.8"/>
	<rect id="Rectangle_2" x="0.2" y="21" class="st0" width="56.5" height="0.8"/>
	<rect id="Rectangle_3" x="0.2" y="22.4" class="st0" width="56.5" height="1.5"/>
	<path id="Path_15" class="st0" d="M4.3,28.8h1.2L4.9,27h0L4.3,28.8z M4.6,26.5h0.7l1.2,3.7H5.9l-0.3-1H4.2l-0.3,1H3.3L4.6,26.5z"/>
	<path id="Path_16" class="st0" d="M8.8,28.1h0.5c0.3,0,0.9,0,0.9-0.7c0-0.4-0.3-0.6-0.8-0.6H8.8L8.8,28.1z M8.3,26.5h1.4
		c0.7,0,1.1,0.3,1.1,0.9c0,0.4-0.2,0.8-0.7,0.9v0c0.3,0,0.6,0.3,0.6,0.6l0,0.6c0,0.4,0.1,0.5,0.2,0.6h-0.7c-0.1-0.2-0.2-0.3-0.1-0.5
		l0-0.6c0-0.5-0.4-0.5-0.7-0.5H8.8v1.7H8.3L8.3,26.5z"/>
	<path id="Path_17" class="st0" d="M13,28.7c-0.2,0.2-0.7,0.2-0.9,0.3c-0.2,0.1-0.3,0.3-0.3,0.4c0,0.2,0.1,0.4,0.3,0.5
		c0,0,0.1,0,0.1,0c0.3,0,0.6-0.2,0.7-0.5V28.7z M11.4,28.2c0-0.6,0.3-0.9,1.1-0.9c1,0,1,0.5,1,0.8v1.6c0,0.1,0,0.2,0.2,0.2
		c0,0,0.1,0,0.1,0v0.3c-0.1,0-0.2,0-0.3,0c-0.2,0-0.4,0-0.5-0.4h0c-0.2,0.3-0.5,0.4-0.8,0.4c-0.6,0-0.9-0.3-0.9-0.8
		c0-0.4,0.2-0.7,0.6-0.8l0.7-0.2c0.4-0.1,0.4-0.2,0.4-0.4c0-0.3-0.2-0.4-0.5-0.4c-0.2,0-0.3,0-0.4,0.1c-0.1,0.1-0.2,0.3-0.1,0.4v0
		L11.4,28.2z"/>
	<path id="Path_18" class="st0" d="M14.2,27.4h0.5v2.8h-0.5V27.4z M14.2,26.5h0.5V27h-0.5V26.5z"/>
	<rect id="Rectangle_4" x="15.5" y="26.5" class="st0" width="0.5" height="3.7"/>
	<path id="Path_19" class="st0" d="M16.4,26.5H17l0.7,3h0l0.6-3h0.7l0.6,3h0l0.7-3h0.5l-0.9,3.7h-0.7l-0.6-3h0l-0.6,3h-0.7
		L16.4,26.5z"/>
	<path id="Path_20" class="st0" d="M22.8,28.8c0-0.6-0.1-1.1-0.7-1.1c-0.5,0-0.6,0.5-0.6,1.1s0.1,1.1,0.6,1.1S22.8,29.4,22.8,28.8
		 M22.1,27.3c1,0,1.2,0.7,1.2,1.5s-0.2,1.5-1.2,1.5s-1.2-0.7-1.2-1.5S21.2,27.3,22.1,27.3"/>
	<path id="Path_21" class="st0" d="M23.8,27.4h0.5v0.4h0c0.1-0.3,0.4-0.5,0.7-0.5c0.1,0,0.2,0,0.2,0v0.4c-0.1,0-0.2,0-0.3,0
		c-0.4,0-0.7,0.3-0.7,0.7v1.8h-0.5V27.4z"/>
	<path id="Path_22" class="st0" d="M28.1,30.2h-0.6l-0.9-1.4l-0.4,0.4v0.9h-0.5v-3.7h0.5v2.2h0l1.2-1.3H28l-1,1.1L28.1,30.2z"/>
	<path id="Path_23" class="st0" d="M29.8,28.2c0-0.4-0.1-0.5-0.5-0.5c-0.2,0-0.5,0-0.5,0.4c0,0.3,0.4,0.4,0.8,0.5s0.8,0.2,0.8,0.8
		c0,0.6-0.5,0.9-1.1,0.9c-1.1,0-1.1-0.7-1.1-1h0.5c0,0.3,0.1,0.6,0.6,0.6c0.2,0,0.6-0.1,0.6-0.5s-0.4-0.5-0.8-0.6s-0.8-0.2-0.8-0.8
		c0-0.5,0.5-0.8,1.1-0.8c1,0,1,0.6,1,0.9L29.8,28.2z"/>
	<path id="Path_24" class="st0" d="M35.1,28.9c0,0.7-0.5,1.3-1.2,1.3c-0.1,0-0.1,0-0.2,0c-1.3,0-1.4-1-1.4-1.9s0.2-1.9,1.4-1.9
		c0.9,0,1.3,0.4,1.3,1.2h-0.6c0-0.4-0.2-0.8-0.7-0.8c-0.8,0-0.9,0.7-0.9,1.6s0.1,1.6,0.9,1.6c0.7,0,0.8-0.5,0.8-1H35.1z"/>
	<path id="Path_25" class="st0" d="M37.3,28.8c0-0.6-0.1-1.1-0.7-1.1c-0.5,0-0.6,0.5-0.6,1.1s0.1,1.1,0.6,1.1S37.3,29.4,37.3,28.8
		 M36.6,27.3c1,0,1.2,0.7,1.2,1.5s-0.2,1.5-1.2,1.5s-1.2-0.7-1.2-1.5S35.7,27.3,36.6,27.3"/>
	<path id="Path_26" class="st0" d="M38.4,27.4h0.5v0.3h0c0.2-0.3,0.5-0.4,0.8-0.4c0.3-0.1,0.6,0.1,0.7,0.4c0.2-0.3,0.5-0.4,0.8-0.4
		c0.9,0,0.9,0.6,0.9,0.9v2h-0.5v-1.9c0-0.2,0-0.6-0.4-0.6c-0.2,0-0.3,0-0.4,0.2c-0.1,0.1-0.2,0.3-0.2,0.4v1.9H40v-1.9
		c0-0.2,0-0.6-0.4-0.6c-0.2,0-0.3,0-0.4,0.2c-0.1,0.1-0.2,0.3-0.2,0.4v1.9h-0.5L38.4,27.4z"/>
	<path id="Path_27" class="st0" d="M44,29.9c0.5,0,0.6-0.4,0.6-1.1c0-0.6-0.1-1-0.6-1c-0.6,0-0.7,0.5-0.7,1.1
		C43.3,29.3,43.4,29.9,44,29.9 M42.8,27.4h0.5v0.3h0c0.1-0.3,0.4-0.4,0.7-0.4c0.8,0,1.1,0.6,1.1,1.4c0,0.6-0.2,1.5-1.1,1.5
		c-0.3,0-0.6-0.1-0.7-0.4h0v1.2h-0.5L42.8,27.4z"/>
	<path id="Path_28" class="st0" d="M47.2,28.7c-0.2,0.2-0.7,0.2-0.9,0.3c-0.2,0.1-0.3,0.3-0.3,0.4c0,0.2,0.1,0.4,0.3,0.5
		c0,0,0.1,0,0.1,0c0.3,0,0.6-0.2,0.7-0.5L47.2,28.7z M45.6,28.2c0-0.6,0.3-0.9,1.1-0.9c1,0,1,0.5,1,0.8v1.6c0,0.1,0,0.2,0.2,0.2
		c0,0,0.1,0,0.1,0v0.3c-0.1,0-0.2,0-0.3,0c-0.2,0-0.4,0-0.5-0.4h0c-0.2,0.3-0.5,0.4-0.8,0.4c-0.6,0-0.9-0.3-0.9-0.8
		c0-0.4,0.3-0.7,0.6-0.8l0.7-0.2c0.4-0.1,0.4-0.2,0.4-0.4c0-0.3-0.2-0.4-0.5-0.4c-0.2,0-0.3,0-0.4,0.1c-0.1,0.1-0.2,0.3-0.1,0.4v0
		L45.6,28.2z"/>
	<path id="Path_29" class="st0" d="M48.4,27.4h0.5v0.3h0c0.2-0.3,0.5-0.4,0.8-0.4c0.9,0,0.9,0.6,0.9,0.9v2h-0.5v-1.9
		c0-0.2,0-0.6-0.5-0.6c-0.2,0-0.3,0-0.5,0.1c-0.1,0.1-0.2,0.3-0.2,0.4v1.9h-0.5L48.4,27.4z"/>
	<path id="Path_30" class="st0" d="M51.1,27.4h0.6l0.7,2.2h0l0.6-2.2h0.6l-1,3c-0.1,0.4-0.3,0.7-0.9,0.7c-0.2,0-0.3,0-0.4,0v-0.3
		c0.1,0,0.2,0,0.3,0c0.2,0,0.3-0.1,0.4-0.3l0.1-0.2L51.1,27.4z"/>
</g>
</svg>
