<?xml version="1.0" encoding="utf-8"?>
<!-- Generator: Adobe Illustrator 21.1.0, SVG Export Plug-In . SVG Version: 6.00 Build 0)  -->
<svg version="1.1" id="Layer_1" xmlns="http://www.w3.org/2000/svg" xmlns:xlink="http://www.w3.org/1999/xlink" x="0px" y="0px"
	 viewBox="0 0 15.1 15.1" style="enable-background:new 0 0 15.1 15.1;" xml:space="preserve">
<path fill="#3953a4" d="M10.1,1.7C7.8-0.6,4-0.6,1.7,1.7s-2.3,6.1,0,8.4c2,2,5.2,2.3,7.6,0.7c0,0.2,0.2,0.5,0.4,0.7l3.4,3.4
	c0.5,0.5,1.3,0.5,1.8,0s0.5-1.3,0-1.8l-3.4-3.4c-0.2-0.2-0.4-0.3-0.7-0.4C12.4,6.9,12.1,3.8,10.1,1.7z M9.1,9.1
	c-1.7,1.7-4.5,1.7-6.3,0c-1.7-1.7-1.7-4.5,0-6.3c1.7-1.7,4.5-1.7,6.3,0C10.8,4.5,10.8,7.3,9.1,9.1z"/>
</svg>
