<svg xmlns="http://www.w3.org/2000/svg" xmlns:xlink="http://www.w3.org/1999/xlink" viewBox="0 0 185 81"><defs><path id="mgyfa" d="M671.103 279.265a8.256 8.256 0 0 1-2.644-1.614 7.533 7.533 0 0 1-1.767-2.406 6.497 6.497 0 0 1-.596-2.705h-.015c0-.041-.006-.083-.006-.127v-.843a13.307 13.307 0 0 0 2.325-.648 12.925 12.925 0 0 0 4.089-2.498 11.688 11.688 0 0 0 1.58-1.762c.468.635.995 1.223 1.59 1.762 1.783 1.618 4.099 2.76 6.682 3.18v.81c0 .999-.226 1.957-.623 2.831a7.688 7.688 0 0 1-1.763 2.406 8.33 8.33 0 0 1-2.645 1.614c-.96.363-2.01.562-3.099.562-1.099 0-2.147-.199-3.108-.562zm-5.028-15.916a13.038 13.038 0 0 0 5.442 2.472c-.11.402-.23.798-.414 1.172a7.283 7.283 0 0 1-1.762 2.408 8.325 8.325 0 0 1-3.266 1.825zm0-38.773c0-1.003.214-1.953.617-2.83a7.483 7.483 0 0 1 1.767-2.408 8.47 8.47 0 0 1 3.124-1.776c.091.446.146.903.146 1.367v45.238c0 .446-.055.884-.133 1.312-.164-.053-.328-.1-.493-.164a8.308 8.308 0 0 1-2.644-1.612 7.482 7.482 0 0 1-1.767-2.411 6.681 6.681 0 0 1-.617-2.827zm0-12.7c.207.058.416.122.625.203.989.372 1.896.93 2.641 1.613.751.687 1.356 1.5 1.762 2.406.172.36.299.74.396 1.126a13.32 13.32 0 0 0-2.095.591 12.802 12.802 0 0 0-3.33 1.876zm0-1.253c0-.996.214-1.954.617-2.823a7.483 7.483 0 0 1 1.767-2.41c1.47-1.341 3.512-2.182 5.752-2.182 1.088 0 2.14.205 3.099.57a8.265 8.265 0 0 1 2.645 1.611 7.586 7.586 0 0 1 1.763 2.411c.405.869.623 1.827.623 2.823v.867a13.44 13.44 0 0 0-2.595.688 12.717 12.717 0 0 0-4.087 2.498 11.73 11.73 0 0 0-1.588 1.753 11.811 11.811 0 0 0-1.582-1.753 12.81 12.81 0 0 0-4.089-2.498 13.217 13.217 0 0 0-2.325-.648v-.907zm16.266 9.068zm-3.332-1.876a14.27 14.27 0 0 0-2.354-.651c.103-.36.223-.723.378-1.066a7.472 7.472 0 0 1 1.768-2.406c.974-.886 2.192-1.538 3.54-1.896v7.895a12.994 12.994 0 0 0-3.332-1.876zm3.332 40.65a6.785 6.785 0 0 1-.623 2.827 7.634 7.634 0 0 1-1.763 2.41 8.284 8.284 0 0 1-2.645 1.613 8.665 8.665 0 0 1-.749.248 7.063 7.063 0 0 1-.143-1.396v-45.238c0-.495.051-.977.155-1.45a8.376 8.376 0 0 1 3.381 1.858 7.587 7.587 0 0 1 1.764 2.409c.405.877.623 1.827.623 2.83zm0 12.83zm-.898-.278a8.184 8.184 0 0 1-2.642-1.616 7.394 7.394 0 0 1-1.768-2.408 6.294 6.294 0 0 1-.395-1.118 13.364 13.364 0 0 0 2.371-.652 12.989 12.989 0 0 0 3.332-1.874v7.946a8.218 8.218 0 0 1-.898-.278zm-20.95 0a8.3 8.3 0 0 1-2.642-1.616 7.502 7.502 0 0 1-1.773-2.408 6.774 6.774 0 0 1-.613-2.826v-45.238c0-1.003.215-1.954.613-2.83a7.581 7.581 0 0 1 1.773-2.407c1.114-1.018 2.562-1.744 4.159-2.036-.252.905-.4 1.85-.4 2.828v54.074c0 .997.156 1.961.42 2.886a9.009 9.009 0 0 1-1.538-.427zm25.921-59.294zm1.238.356c.994.372 1.884.93 2.637 1.613.76.687 1.36 1.5 1.772 2.406.4.877.626 1.828.626 2.831v45.238c0 .998-.226 1.957-.626 2.826a7.27 7.27 0 0 1-1.772 2.408 8.233 8.233 0 0 1-2.637 1.616 9.789 9.789 0 0 1-1.25.364c.257-.91.396-1.851.396-2.823v-54.074c0-.956-.135-1.876-.384-2.76.428.088.835.207 1.238.355zm-.767 67.853h-11.048a13.305 13.305 0 0 0 3.172-.761 12.87 12.87 0 0 0 4.095-2.5 11.851 11.851 0 0 0 2.749-3.73c.178-.416.33-.84.467-1.274a13.48 13.48 0 0 0 3.028-.745 12.898 12.898 0 0 0 4.093-2.498 11.494 11.494 0 0 0 2.745-3.734c.618-1.347.96-2.83.96-4.38v-37.522c0-1.552-.342-3.03-.96-4.382a11.375 11.375 0 0 0-2.745-3.73 12.783 12.783 0 0 0-4.093-2.498 13.413 13.413 0 0 0-3.004-.749c-.15-.449-.302-.899-.491-1.325a11.723 11.723 0 0 0-2.749-3.73 12.832 12.832 0 0 0-4.095-2.5 13.473 13.473 0 0 0-4.798-.873c-1.71 0-3.327.308-4.807.873a12.684 12.684 0 0 0-4.09 2.5c-1.514 1.374-2.63 3.097-3.225 5.023a13.12 13.12 0 0 0-3.296.78 12.86 12.86 0 0 0-4.1 2.5c-2.275 2.08-3.693 4.953-3.693 8.111v37.523c0 1.549.34 3.032.952 4.38a11.772 11.772 0 0 0 2.742 3.733c1.956 1.775 4.54 2.97 7.407 3.28.134.42.289.836.468 1.237a11.53 11.53 0 0 0 2.744 3.73 12.623 12.623 0 0 0 2.299 1.646 11.97 11.97 0 0 0 1.947 2.31c2.289 2.083 5.438 3.373 8.895 3.373h8.43v-4.068z"/><path id="mgyfb" d="M711.944 236.645v-2.614h2.635v2.614z"/><path id="mgyfc" d="M715.514 249.906v-2.615h2.635v2.615z"/><path id="mgyfd" d="M719.124 249.906v-2.615h2.636v2.615z"/><path id="mgyfe" d="M726.18 236.667v-2.616h2.635v2.616z"/><path id="mgyff" d="M722.57 236.667v-2.616h2.634v2.616z"/><path id="mgyfg" d="M732.902 241.668c0 1.175-.595 1.763-1.783 1.763h-2.117c-.803 0-1.341-.177-1.618-.528-.278-.354-.416-.876-.416-1.569v-2.882h-2.593v2.904c0 .748-.157 1.28-.468 1.599-.311.317-.834.476-1.566.476h-.25c-.704 0-1.221-.155-1.546-.467-.325-.31-.487-.826-.487-1.545v-2.967h-8.114v5.934c0 1.315-.221 2.248-.664 2.801-.443.553-1.232.976-2.367 1.267l.852 2.47c1.632-.471 2.835-1.198 3.611-2.18.775-.982 1.162-2.386 1.162-4.213v-3.485H717.568v.393c0 1.521.37 2.667 1.11 3.435.74.768 1.733 1.15 2.978 1.15h1.12c1.176 0 2.034-.49 2.574-1.473.539.983 1.473 1.473 2.8 1.473h3.175c1.314 0 2.339-.359 3.072-1.078.732-.72 1.099-1.737 1.099-3.051v-3.443h-2.594z"/><path id="mgyfh" d="M731.823 249.906v-2.615h2.636v2.615z"/><path id="mgyfi" d="M728.212 249.906v-2.615h2.636v2.615z"/><path id="mgyfj" d="M738.735 244.386c0 1.315-.222 2.249-.666 2.801-.442.553-1.232.976-2.366 1.267l.85 2.47c1.634-.471 2.837-1.198 3.613-2.18.774-.982 1.162-2.386 1.162-4.213v-6.08h-2.594z"/><path id="mgyfk" d="M753.447 249.906v-2.615h2.636v2.615z"/><path id="mgyfl" d="M757.058 249.906v-2.615h2.635v2.615z"/><path id="mgyfm" d="M749.421 243.43h-1.204c-.927 0-1.583-.226-1.972-.684-.276-.318-.414-.754-.414-1.307 0-.623.162-1.107.487-1.453.326-.344.764-.519 1.318-.519.484 0 .872.139 1.163.416.413.373.622 1.182.622 2.427zm33.327-1.348c0 .997-.408 1.495-1.225 1.495-.843 0-1.265-.498-1.265-1.495v-2.863h-2.594v2.884c0 .982-.408 1.474-1.224 1.474-.844 0-1.267-.492-1.267-1.474v-2.055h-2.594v1.35c0 .706-.148 1.22-.445 1.545-.299.325-.786.488-1.464.488H769.031c-.594 0-1.045-.092-1.35-.28-.303-.187-.574-.572-.808-1.151l-2.74-6.62 5.603-2.035v-2.822l-8.258 3.072v2.179l1.722 4.15c.373.913.56 1.57.56 1.97 0 1.026-.54 1.537-1.62 1.537h-1.865c-.803 0-1.342-.177-1.619-.528-.278-.354-.415-.876-.415-1.569v-2.882h-2.594v2.904c0 .748-.157 1.28-.467 1.599-.312.317-.834.476-1.566.476h-1.599v-1.245c0-2.131-.47-3.597-1.412-4.4-.719-.608-1.687-.912-2.905-.912-1.397 0-2.49.428-3.278 1.287-.789.858-1.183 1.999-1.183 3.423 0 1.19.277 2.145.83 2.864.789 1.052 2.158 1.576 4.108 1.576h.851c-.346.707-.934 1.239-1.763 1.6-.831.36-2.028.621-3.59.788l.394 2.511c4.426-.318 7-1.951 7.72-4.899h2.261c1.176 0 2.035-.49 2.575-1.473.538.983 1.473 1.473 2.801 1.473h3.112c1.383 0 2.295-.594 2.739-1.784.346.652.74 1.11 1.182 1.381.444.27 1.039.403 1.785.403H770.983c1.147 0 1.957-.442 2.427-1.327.455.968 1.327 1.452 2.614 1.452 1.26 0 2.131-.476 2.615-1.431.54.955 1.515 1.43 2.927 1.43 1.065 0 1.953-.316 2.666-.952.712-.637 1.067-1.66 1.067-3.072v-3.672h-2.551z"/><path id="mgyfn" d="M796.734 236.667v-2.616h2.636v2.616z"/><path id="mgyfo" d="M800.346 236.667v-2.616h2.634v2.616z"/><path id="mgyfp" d="M809.268 249.906v-2.615h2.636v2.615z"/><path id="mgyfq" d="M810.057 246.024c1.37 0 2.428-.376 3.175-1.13.746-.754 1.122-1.844 1.122-3.269v-3.173h-2.594v2.987c0 .704-.154 1.215-.458 1.525-.304.312-.802.467-1.493.467h-.354c-.788 0-1.327-.177-1.618-.528-.291-.354-.436-.884-.436-1.588v-2.863h-2.594v2.882c0 .707-.156 1.232-.467 1.579-.312.346-.855.518-1.63.518h-4.959c-1.134 0-1.936-.255-2.406-.767-.47-.513-.707-1.218-.707-2.117v-2.095h-2.532v2.26c0 3.543 1.903 5.312 5.708 5.312h4.668c1.606 0 2.698-.497 3.279-1.493.54.996 1.508 1.493 2.906 1.493H809.995z"/><path id="mgyfr" d="M812.88 249.906v-2.615h2.634v2.615z"/><path id="mgyfs" d="M822.591 243.43h-1.202c-.928 0-1.585-.226-1.972-.684-.278-.318-.416-.754-.416-1.307 0-.623.163-1.107.488-1.453.325-.344.765-.519 1.318-.519.484 0 .872.139 1.162.416.416.373.622 1.182.622 2.427zm13.427-12.907l-8.259 3.072v2.179l1.785 4.254c.331.803.498 1.425.498 1.867 0 1.025-.54 1.536-1.62 1.536h-3.236v-1.245c0-2.131-.471-3.597-1.412-4.4-.72-.608-1.688-.912-2.905-.912-1.397 0-2.49.428-3.28 1.287-.788.858-1.181 1.999-1.181 3.423 0 1.19.277 2.145.83 2.864.788 1.052 2.157 1.576 4.108 1.576h.852c-.346.707-.934 1.239-1.764 1.6-.83.36-2.028.621-3.59.788l.393 2.511c4.428-.318 7-1.951 7.72-4.899h3.673c1.37 0 2.383-.351 3.04-1.057s.986-1.633.986-2.781c0-.941-.256-2.02-.767-3.237l-1.474-3.57 5.603-2.034z"/><path id="mgyft" d="M716.31 260.03c-.652 0-1.186.226-1.601.676-.237.273-.396.64-.48 1.103-.083.462-.125 1.28-.125 2.455 0 1.174.042 1.988.125 2.445.084.457.243.822.48 1.094.427.463.962.694 1.6.694.298 0 .582-.06.855-.179l-1.139-1.138 1.298-1.315 1.015 1.03c.119-.485.178-1.363.178-2.63 0-1.186-.042-2.01-.124-2.465-.084-.456-.249-.82-.499-1.094-.391-.45-.918-.676-1.583-.676zm0-2.206c1.364 0 2.49.446 3.38 1.335.58.582.942 1.221 1.085 1.92.143.7.214 1.762.214 3.185 0 1.197-.045 2.116-.133 2.756a4.037 4.037 0 0 1-.65 1.726l1.085 1.085-1.298 1.298-1.122-1.103c-.722.45-1.577.676-2.561.676-1.352 0-2.484-.444-3.398-1.335-.58-.58-.939-1.216-1.075-1.91-.137-.695-.205-1.758-.205-3.193s.068-2.5.205-3.194c.136-.693.496-1.33 1.075-1.911.914-.89 2.046-1.335 3.398-1.335z"/><path id="mgyfu" d="M725.292 261.506c0-.462.152-.845.455-1.147a1.533 1.533 0 0 1 1.128-.454c.451 0 .825.153 1.12.454.298.302.445.685.445 1.147 0 .463-.147.846-.444 1.148-.296.303-.67.453-1.12.453-.45 0-.827-.15-1.129-.453-.303-.302-.455-.685-.455-1.148zm-.16 5.373c0-.487.17-.901.508-1.245.339-.345.75-.516 1.235-.516.487 0 .9.17 1.237.516.338.344.507.758.507 1.245 0 .485-.169.898-.507 1.235-.338.34-.75.507-1.237.507-.485 0-.896-.168-1.235-.507a1.68 1.68 0 0 1-.507-1.235zm4.652 2.818c.766-.67 1.148-1.597 1.148-2.783 0-1.21-.535-2.158-1.601-2.846.948-.641 1.423-1.518 1.423-2.632 0-1.079-.376-1.952-1.13-2.615-.753-.665-1.67-.997-2.749-.997-1.091 0-2.013.332-2.765.997-.753.663-1.13 1.536-1.13 2.615 0 1.091.475 1.968 1.424 2.632-1.056.7-1.584 1.648-1.584 2.846 0 1.186.383 2.114 1.148 2.783.763.671 1.734 1.005 2.907 1.005 1.175 0 2.144-.334 2.909-1.005z"/><path id="mgyfv" d="M741.07 257.824c1.707 0 3.07.492 4.09 1.477l-1.563 1.546c-.582-.58-1.448-.87-2.598-.87-.63 0-1.111.151-1.45.454a1.474 1.474 0 0 0-.506 1.146c0 .368.124.67.373.908.271.249.659.41 1.156.48l1.511.23c1.079.155 1.887.487 2.42.998.652.616.978 1.505.978 2.667 0 1.198-.438 2.138-1.316 2.819-.879.684-2.005 1.023-3.38 1.023-1.008 0-1.879-.127-2.614-.382-.736-.255-1.406-.684-2.01-1.289l1.6-1.602c.713.713 1.725 1.068 3.042 1.068.735 0 1.295-.137 1.682-.41.385-.273.577-.663.577-1.173 0-.439-.13-.788-.39-1.049-.226-.203-.606-.345-1.14-.427l-1.511-.232c-1.08-.166-1.898-.516-2.455-1.049-.605-.594-.908-1.423-.908-2.49 0-1.15.398-2.079 1.193-2.784.794-.706 1.868-1.059 3.22-1.059z"/><path id="mgyfw" d="M756.153 257.931v2.206h-5.869v2.97h5.016v2.206h-5.016v3.078h5.87v2.204h-8.342v-12.664z"/><path id="mgyfx" d="M762.824 257.824c1.222 0 2.246.344 3.077 1.032.83.688 1.352 1.678 1.565 2.97h-2.507c-.286-1.197-.997-1.796-2.135-1.796-.676 0-1.204.22-1.584.658-.237.273-.399.643-.489 1.112-.088.469-.133 1.29-.133 2.464s.045 1.995.133 2.463c.09.469.252.838.49 1.112.379.44.907.658 1.583.658 1.138 0 1.85-.598 2.135-1.797h2.507c-.213 1.293-.735 2.282-1.565 2.97-.83.688-1.855 1.032-3.077 1.032-1.352 0-2.484-.444-3.398-1.335-.58-.58-.938-1.216-1.075-1.91-.137-.695-.205-1.759-.205-3.193 0-1.435.068-2.5.205-3.194.137-.693.496-1.33 1.075-1.911.914-.89 2.046-1.335 3.398-1.335z"/><path id="mgyfy" d="M778.725 257.931v8.325c0 1.316-.448 2.387-1.342 3.21-.896.824-2.008 1.236-3.335 1.236-1.328 0-2.435-.412-3.317-1.236-.884-.823-1.326-1.894-1.326-3.21v-8.325h2.473v8.236c0 .722.196 1.293.587 1.707.39.415.919.623 1.583.623.676 0 1.212-.21 1.61-.632.397-.42.595-.986.595-1.698v-8.236z"/><path id="mgyfz" d="M786.303 260.137h-2.348v3.327h2.348c.532 0 .963-.156 1.29-.464.325-.309.49-.71.49-1.208 0-.499-.165-.9-.49-1.202-.327-.303-.758-.453-1.29-.453zm-4.82-2.206h4.962c1.257 0 2.255.37 2.998 1.111.739.742 1.111 1.664 1.111 2.767 0 .842-.22 1.548-.659 2.116-.438.569-.99.973-1.653 1.21l2.828 5.46h-2.863l-2.474-5.051h-1.778v5.051h-2.473z"/><path id="mgyfA" d="M795.588 257.931v12.664h-2.473v-12.664z"/><path id="mgyfB" d="M806.705 257.931v2.206h-3.31v10.458h-2.472v-10.458h-3.308v-2.206z"/><path id="mgyfC" d="M811.188 257.931v12.664h-2.473v-12.664z"/><path id="mgyfD" d="M822.5 257.931v2.206h-5.87v2.97h5.016v2.206h-5.016v3.078h5.87v2.204h-8.342v-12.664z"/><path id="mgyfE" d="M828.69 257.824c1.708 0 3.072.492 4.09 1.477l-1.565 1.546c-.58-.58-1.445-.87-2.596-.87-.628 0-1.112.151-1.449.454a1.472 1.472 0 0 0-.508 1.146c0 .368.124.67.374.908.272.249.658.41 1.156.48l1.512.23c1.079.155 1.886.487 2.42.998.651.616.978 1.505.978 2.667 0 1.198-.44 2.138-1.318 2.819-.877.684-2.003 1.023-3.378 1.023-1.009 0-1.88-.127-2.615-.382-.736-.255-1.404-.684-2.01-1.289l1.601-1.602c.71.713 1.725 1.068 3.042 1.068.735 0 1.295-.137 1.68-.41.386-.273.578-.663.578-1.173 0-.439-.13-.788-.391-1.049-.225-.203-.605-.345-1.138-.427l-1.512-.232c-1.079-.166-1.899-.516-2.456-1.049-.603-.594-.906-1.423-.906-2.49 0-1.15.397-2.079 1.192-2.784.795-.706 1.867-1.059 3.219-1.059z"/></defs><g><g transform="translate(-651 -203)"><g><g><use fill="#fff" xlink:href="#mgyfa"/></g><g><g><use fill="#fff" xlink:href="#mgyfb"/></g><g><use fill="#fff" xlink:href="#mgyfc"/></g><g><use fill="#fff" xlink:href="#mgyfd"/></g><g><use fill="#fff" xlink:href="#mgyfe"/></g><g><use fill="#fff" xlink:href="#mgyff"/></g><g><use fill="#fff" xlink:href="#mgyfg"/></g><g><use fill="#fff" xlink:href="#mgyfh"/></g><g><use fill="#fff" xlink:href="#mgyfi"/></g><g><use fill="#fff" xlink:href="#mgyfj"/></g><g><use fill="#fff" xlink:href="#mgyfk"/></g><g><use fill="#fff" xlink:href="#mgyfl"/></g><g><use fill="#fff" xlink:href="#mgyfm"/></g><g><use fill="#fff" xlink:href="#mgyfn"/></g><g><use fill="#fff" xlink:href="#mgyfo"/></g><g><use fill="#fff" xlink:href="#mgyfp"/></g><g><use fill="#fff" xlink:href="#mgyfq"/></g><g><use fill="#fff" xlink:href="#mgyfr"/></g><g><use fill="#fff" xlink:href="#mgyfs"/></g></g><g><g><use fill="#fff" xlink:href="#mgyft"/></g><g><use fill="#fff" xlink:href="#mgyfu"/></g><g><use fill="#fff" xlink:href="#mgyfv"/></g><g><use fill="#fff" xlink:href="#mgyfw"/></g><g><use fill="#fff" xlink:href="#mgyfx"/></g><g><use fill="#fff" xlink:href="#mgyfy"/></g><g><use fill="#fff" xlink:href="#mgyfz"/></g><g><use fill="#fff" xlink:href="#mgyfA"/></g><g><use fill="#fff" xlink:href="#mgyfB"/></g><g><use fill="#fff" xlink:href="#mgyfC"/></g><g><use fill="#fff" xlink:href="#mgyfD"/></g><g><use fill="#fff" xlink:href="#mgyfE"/></g></g></g></g></g></svg>