<svg xmlns="http://www.w3.org/2000/svg" width="24.724" height="27.878"><path data-name="Path 2386" d="M23.95 9.509a6.294 6.294 0 00-3.347 5.349 6.418 6.418 0 004.12 5.6 14.514 14.514 0 01-2.136 3.973c-1.228 1.717-2.588 3.449-4.658 3.449-1.969 0-2.674-1.144-4.945-1.144-2.438 0-3.128 1.144-5 1.144-2.067 0-3.531-1.824-4.827-3.526a16.427 16.427 0 01-3.16-9.076 8.953 8.953 0 011.282-5.012 7.719 7.719 0 016.29-3.526c1.984-.061 3.752 1.249 4.962 1.249 1.161 0 3.329-1.253 5.785-1.253a6.964 6.964 0 015.634 2.773zm-11.586-3.12c-.353-1.623.621-3.246 1.53-4.282a6.672 6.672 0 014.574-2.1 5.772 5.772 0 01-1.682 4.376 5.336 5.336 0 01-4.422 2.006zm0 0"/></svg>