<svg xmlns="http://www.w3.org/2000/svg" viewBox="0 0 59.3 53.1"><path d="M58.75 30.768c-.2-.5-.7-.8-1.3-.7-.5.2-.8.7-.7 1.2 1.8 6.2-1.7 12.7-7.9 14.5-6.2 1.8-12.7-1.7-14.5-7.9-1.8-6.2 1.8-12.6 8-14.4 4.9-1.4 10.1.5 12.9 4.7.3.5 1 .6 1.4.2.4-.3.6-.9.3-1.4-1.1-1.6-2.5-3-4.1-4-2-14.5-15.3-24.7-29.9-22.7s-24.7 15.3-22.7 29.8 15.3 24.7 29.9 22.7c3.2-.4 6.3-1.5 9.2-3 .5-.3.7-.9.4-1.4-.3-.5-.9-.7-1.4-.4-1.4.8-2.8 1.4-4.3 1.8 1.3-1.3 2.5-2.7 3.4-4.3 6.1 4.5 14.6 3.3 19.2-2.8 2.5-3.3 3.3-7.8 2.1-11.9zm-8.2-8.9c-7.1-2.7-15 .7-17.7 7.8-.9 2.4-1.2 5-.7 7.5-1.5-.3-3-.5-4.6-.6v-9h3.8c.6 0 1-.4 1.1-1s-.4-1-1-1.1h-3.9v-9c3.6-.1 7.2-1 10.5-2.6.6 1.7 1 3.5 1.3 5.4.1.6.6 1 1.1.9.6-.1 1-.6.9-1.1v-.2c-.3-2-.9-4-1.5-6 1.6-.9 3.1-2 4.4-3.2 3.3 3.4 5.4 7.6 6.3 12.2zm-23-19.7c3.9.5 7.4 4.1 9.8 9.8-3.1 1.5-6.4 2.3-9.8 2.5v-12.3zm-2 0v12.3c-3.4-.1-6.7-1-9.8-2.5 2.3-5.7 5.9-9.3 9.8-9.8zm0 14.3v9h-9.9c-.6 0-1 .4-1.1 1 0 .6.4 1 1 1.1h10v9c-3.6.1-7.2 1-10.5 2.6-1.3-4.1-2-8.4-2-12.6 0-4.3.6-8.6 2-12.6 3.2 1.5 6.8 2.4 10.5 2.5zm0 22.2v12.3c-3.9-.5-7.4-4.1-9.8-9.8 3-1.6 6.4-2.4 9.8-2.5zm17.3-30.4c-1.1 1-2.4 1.9-3.7 2.7-1.2-2.9-2.9-5.6-5.2-7.8 3.3 1.1 6.3 2.8 8.9 5.1zm-28.9 2.7c-1.3-.8-2.5-1.7-3.7-2.7 2.6-2.3 5.6-4 8.9-5.1-2.3 2.2-4.1 4.9-5.2 7.8zm-11.9 16.6h6.2c.6 0 1-.4 1.1-1s-.4-1-1-1.1h-6.3c.2-5.9 2.6-11.5 6.7-15.8 1.4 1.2 2.8 2.3 4.4 3.2-1.5 4.4-2.2 9-2.2 13.6s.7 9.2 2.2 13.6c-1.6.9-3.1 2-4.4 3.2-4.1-4.2-6.5-9.8-6.7-15.7zm8.2 17.2c1.1-1 2.4-1.9 3.7-2.7 1.2 2.9 2.9 5.6 5.2 7.8-3.3-1-6.4-2.8-8.9-5.1zm17.3 6.2v-12.3c1.8.1 3.5.3 5.2.8.7 1.8 1.7 3.4 3.1 4.8-2.3 3.8-5.2 6.2-8.3 6.7z"/><path d="M42.45 30.468h7.4c.6 0 1-.5 1-1.1 0-.5-.5-1-1-1h-3.2v-1.9c0-.6-.4-1-1-1.1-.6 0-1 .4-1.1 1v2.1h-2.1c-1.2 0-2.1.9-2.1 2.1v3c0 1.2.9 2.1 2.1 2.1h6.3s.1 0 .1.1v3s0 .1-.1.1h-7.4c-.6 0-1 .5-1 1.1 0 .5.5 1 1 1h3.2v1.9c0 .6.4 1 1 1.1.6 0 1-.4 1.1-1v-2h2.1c1.2 0 2.1-.9 2.1-2.1v-3c0-1.2-.9-2.1-2.1-2.1h-6.3s-.1 0-.1-.1l.1-3.2c-.1 0-.1 0 0 0z"/></svg>