<svg version="1.1" id="LOGO-PNR-railworks-logo" xmlns="http://www.w3.org/2000/svg" x="0" y="0" viewBox="0 0 127.6 29.7" xml:space="preserve"><style>.st0{fill:#fff}</style><g id="Layer_1"><path id="Path_77" class="st0" d="M37.3 6.8H42c1.8 0 3.2-.9 3.2-2.8S43.8 1.4 42 1.4h-4.6v5.4zM36.1.3h6.3c2.6 0 4.2 1.4 4.2 3.8S45 7.9 42.4 7.9h-5v5.7h-1.2V.3z"/><path id="Path_78" class="st0" d="M48 .3h1.5l8.3 11.3V.3h1.3v13.4h-1.5l-8-11.4-.2 11.3H48V.3z"/><path id="Path_79" class="st0" d="M63 6.6h5c1.6 0 3.2-1 3.2-2.6S70.1 1.3 68 1.3h-5v5.3zM61.7.3h6.6c2.3 0 4.2 1.1 4.2 3.5.1 1.7-1.1 3.2-2.8 3.4 1.9.2 2.4 1.4 2.6 3 0 .9 0 2.8.6 3.4h-1.4c-.4-.6-.5-1.3-.5-2-.3-1.9-.3-4-3-3.9h-5v6h-1.3V.3z"/><path id="Path_80" class="st0" d="M39.3 23.6h2c.6 0 1.4-.1 1.4-1 0-.7-.4-1-1.6-1h-1.7v2zm-3.4-4.5h6.6c1.8 0 3.6.9 3.6 3 .1 1.2-.6 2.2-1.7 2.6 1.1.3 1.5 1.3 1.7 2.6-.1.8.1 1.5.4 2.2h-3.4c-.2-.5-.4-1-.4-1.5 0-1-.2-2.1-1.4-2.1h-2v3.6h-3.4V19.1z"/><path id="Path_81" class="st0" d="M53.1 25.8l-1-3.2-1 3.2h2zm-2.6-6.7h3.4l3.9 10.3h-3.5l-.4-1.4h-3.4l-.6 1.4h-3.4l4-10.3z"/><path id="Rectangle_5" class="st0" d="M58.1 19.1h3.3v10.3h-3.3z"/><path id="Path_82" class="st0" d="M62.4 19.1h3.4v7.7h4.8v2.6h-8.2V19.1z"/><path id="Path_83" class="st0" d="M70 19.1h1l2.6 9.1 2.8-9.1h1.2l2.8 9.1 2.5-9.1h1L81 29.5h-1.3L77 20.2l-2.8 9.3H73l-3-10.4z"/><path id="Path_84" class="st0" d="M88.7 28.9c3 0 4.2-2.3 4.2-4.6s-1.2-4.6-4.2-4.6c-2.9 0-3.9 2.3-3.9 4.6s1 4.6 3.9 4.6m0-10c2.8-.1 5.2 2 5.3 4.8v.6c.2 2.8-1.9 5.2-4.7 5.4h-.6c-3.3 0-5-2.6-5-5.4s1.7-5.4 5-5.4"/><path id="Path_85" class="st0" d="M95.7 24h4c1.2.1 2.2-.8 2.4-2v-.1c0-1.2-.9-2.1-2.1-2.1h-4.3V24zm-1.1-4.9h5c1.9 0 3.4.8 3.4 2.7.1 1.3-.8 2.5-2.2 2.7 1.5.2 2 1.1 2 2.3 0 .7 0 2.1.6 2.6h-1.2c-.2-.5-.2-1-.2-1.6-.3-1.4-.3-3.1-2.4-3h-4v4.6h-1V19.1z"/><path id="Path_86" class="st0" d="M104.3 19.1h1v5.6l6.6-5.6h1.4l-5 4.2 5.2 6.1h-1.4l-4.6-5.4-2.2 1.9v3.5h-1V19.1z"/><path id="Path_87" class="st0" d="M114.1 26.1c0 2.1 1.7 2.8 3.8 2.8 1 0 3-.6 3-2.1 0-1.2-1.2-1.6-2.4-1.9l-2.5-.5c-1.3-.3-2.6-.9-2.6-2.5 0-1 .6-2.9 3.8-2.9 2.4 0 4.2 1.1 4.2 3.3h-1.1c-.2-1.6-1.5-2.4-3.2-2.4-1.4 0-2.8.6-2.8 2.1 0 1 .9 1.4 1.7 1.6l3 .4c1.5.4 3 1 3 2.7 0 .7-.4 2.9-4.4 2.9-2.6 0-4.4-1.1-4.4-3.6l.9.1z"/><path id="Path_88" class="st0" d="M124.3 21.1h.6c.4 0 .8 0 .8-.5 0-.4-.4-.5-.6-.5h-.8v1zm-.5-1.3h1.3c.8 0 1 .3 1 .9 0 .2-.1.4-.2.5-.2.1-.4.2-.6.2l1 1.3h-.6l-.8-1.3h-.6v1.3h-.5v-2.9zm1.1 3.7c1.2.1 2.2-.9 2.2-2.1s-.9-2.2-2.1-2.2h-.2c-1.1-.1-2.1.8-2.2 1.9v.2c-.1 1.1.8 2.1 2 2.2.2-.1.3-.1.3 0m0-4.7c1.4.1 2.4 1.3 2.3 2.7-.1 1.4-1.3 2.4-2.7 2.3-1.3-.1-2.4-1.2-2.4-2.5.2-1.4 1.4-2.6 2.8-2.5"/><path id="Path_89" class="st0" d="M17.1 22.3c3.9-4.8 9.7-7.7 15.9-7.9V7c-5.6-.1-11.1 1.3-15.8 4.2l-.1 11.1z"/><path id="Path_90" class="st0" d="M32.9 0H17.1v7.5C22 5 27.4 3.8 32.9 3.8V0z"/><path id="Path_91" class="st0" d="M32.9 17.7c-6.6 0-14 4.9-15.8 12h15.8v-12z"/><path id="Path_92" class="st0" d="M11.4 11.5c.7-.7 1.5-1.3 2.3-1.9V0H5.9v18.4c1.4-2.6 3.3-4.9 5.5-6.9z"/><path id="Rectangle_6" class="st0" d="M0 0h2.5v29.6H0z"/><path id="Path_93" class="st0" d="M5.9 29.6h7.7V13.8c-4.4 4.1-7.1 9.8-7.7 15.8z"/></g></svg>