<svg xmlns="http://www.w3.org/2000/svg" viewBox="0 0 44.747 71.996"><path class="cls-1" d="M34.809 68.4H24.077a14.525 14.525 0 003.08-.684 12.5 12.5 0 003.966-2.224 10.278 10.278 0 002.66-3.294 11.277 11.277 0 00.467-1.112 16.162 16.162 0 002.94-.642 12.5 12.5 0 003.966-2.224 9.988 9.988 0 002.66-3.337 8.6 8.6 0 00.933-3.893V17.625a8.6 8.6 0 00-.933-3.893 10.429 10.429 0 00-2.66-3.337 12.5 12.5 0 00-3.966-2.224 13.5 13.5 0 00-2.89-.685 12.677 12.677 0 00-.467-1.2 10.43 10.43 0 00-2.66-3.337A12.5 12.5 0 0027.2.727 15.446 15.446 0 0022.49 0a13.787 13.787 0 00-4.666.77 13.033 13.033 0 00-3.966 2.224 10.08 10.08 0 00-3.126 4.449 14.757 14.757 0 00-3.173.684 12.5 12.5 0 00-3.966 2.224A9.48 9.48 0 000 17.582v33.367a8.6 8.6 0 00.933 3.893 10.429 10.429 0 002.66 3.337 13.106 13.106 0 007.186 2.909 11.277 11.277 0 00.467 1.112 10.278 10.278 0 002.66 3.294 12.961 12.961 0 002.24 1.454A10.184 10.184 0 0018.011 69a13.6 13.6 0 008.632 3h8.166v-3.6zm-.467-60.66c.42.086.793.171 1.213.3a8.537 8.537 0 012.566 1.412 6.555 6.555 0 011.726 2.139 5.789 5.789 0 01.607 2.524v40.214a5.789 5.789 0 01-.607 2.524 6.555 6.555 0 01-1.726 2.139 8.633 8.633 0 01-2.566 1.454 9.843 9.843 0 01-1.213.342 8.962 8.962 0 00.373-2.524V10.181a8.838 8.838 0 00-.373-2.438zm-25.15 52.7a7.792 7.792 0 01-2.566-1.454A6.555 6.555 0 014.9 56.853a5.789 5.789 0 01-.607-2.524V14.117a5.206 5.206 0 01.607-2.524 6.555 6.555 0 011.726-2.139 8.439 8.439 0 014.013-1.8 8.962 8.962 0 00-.373 2.524v48.086a7.826 7.826 0 00.42 2.567 9.582 9.582 0 01-1.493-.385zm21.184.257a6.917 6.917 0 01-.887-.257 7.792 7.792 0 01-2.566-1.454 7.217 7.217 0 01-1.723-2.133 6.287 6.287 0 01-.373-.984 12.622 12.622 0 002.286-.6 13.133 13.133 0 003.22-1.668v7.1zm0-11.379a5.789 5.789 0 01-.607 2.524 6.555 6.555 0 01-1.726 2.139 7.7 7.7 0 01-2.567 1.419 3.731 3.731 0 01-.747.214 5.62 5.62 0 01-.14-1.241V14.16a6.005 6.005 0 01.14-1.283 4.371 4.371 0 01.7.214A7.792 7.792 0 0128 14.545a6.555 6.555 0 011.726 2.139 5.789 5.789 0 01.607 2.524v30.116zm0-34.479a14.027 14.027 0 00-3.22-1.668 19.7 19.7 0 00-2.286-.6 7.885 7.885 0 01.373-.941A6.006 6.006 0 0126.97 9.5a8.468 8.468 0 013.453-1.668v7.016zM14.6 6.759a5.206 5.206 0 01.607-2.524A6.555 6.555 0 0116.938 2.1a8.741 8.741 0 015.6-1.925A9 9 0 0128.089 2.1a6.555 6.555 0 011.726 2.139 5.789 5.789 0 01.607 2.524v.77a15.291 15.291 0 00-2.52.6 12.311 12.311 0 00-5.502 3.759 12.311 12.311 0 00-5.506-3.765 14.274 14.274 0 00-2.24-.556v-.812zm0 1.112c.187.043.42.128.607.171a8.537 8.537 0 012.566 1.412 6.555 6.555 0 011.727 2.139 3.623 3.623 0 01.373.984 15.844 15.844 0 00-2.053.513 13.133 13.133 0 00-3.22 1.668V7.871zm0 11.294a5.206 5.206 0 01.607-2.524 6.555 6.555 0 011.731-2.141 8.662 8.662 0 013.033-1.583 5.247 5.247 0 01.14 1.2v40.212a4.888 4.888 0 01-.14 1.155c-.14-.043-.327-.086-.467-.128a8.537 8.537 0 01-2.566-1.412 6.555 6.555 0 01-1.727-2.144 5.789 5.789 0 01-.607-2.524V19.165zm0 34.479a12.917 12.917 0 005.273 2.182 4.018 4.018 0 01-.42 1.027 6.006 6.006 0 01-1.726 2.139 8.633 8.633 0 01-2.566 1.454 3.223 3.223 0 01-.607.171v-6.973zM19.5 67.8a7.792 7.792 0 01-2.566-1.454 6.555 6.555 0 01-1.726-2.139 5.755 5.755 0 01-.42-1.155 5.343 5.343 0 01-.14-1.241v-.9a16.835 16.835 0 002.24-.556 12.5 12.5 0 003.966-2.224 10.422 10.422 0 001.54-1.583 16.82 16.82 0 001.54 1.583 13.088 13.088 0 006.486 2.823v.727a5.789 5.789 0 01-.607 2.524 6.555 6.555 0 01-1.726 2.139 8.633 8.633 0 01-2.564 1.456 8.733 8.733 0 01-2.986.513A9.954 9.954 0 0119.5 67.8z"/></svg>