<?xml version="1.0" encoding="utf-8"?>
<!-- Generator: Adobe Illustrator 21.1.0, SVG Export Plug-In . SVG Version: 6.00 Build 0)  -->
<svg version="1.1" id="Layer_1" xmlns="http://www.w3.org/2000/svg" xmlns:xlink="http://www.w3.org/1999/xlink" x="0px" y="0px"
	 viewBox="0 0 50 50" style="enable-background:new 0 0 50 50;" xml:space="preserve">
<path id="zccea" d="M4.5,48v-1.6h41.4V48H4.5z M7.2,43.7h7.7v1.1H7.2L7.2,43.7z M8.8,23h4.4v19.1H8.8V23z M14.8,20.3v1.1H7.2v-1.1
	H14.8z M5,18.6V17h40.3v1.6L5,18.6z M25.2,2.7l19.6,12.7H5.6L25.2,2.7z M43.2,21.4h-7.7v-1.1h7.7V21.4z M41.5,42.1h-4.4V23h4.4
	L41.5,42.1z M35.5,43.7h7.7v1.1h-7.7V43.7z M29,42.1V23h1.6v-2.8h3.3V23h1.6v19.1h-1.6v2.8h-3.3v-2.8L29,42.1z M21.3,43.7H29v1.1
	h-7.7V43.7z M21.3,21.4v-1.1H29v1.1H21.3z M23,42.1V23h4.4v19.1H23z M14.8,42.1V23h1.6v-2.8h3.3V23h1.6v19.1h-1.6v2.8h-3.3v-2.8
	L14.8,42.1z M44.8,44.8V42h-1.6V23h1.6v-2.8H47V17h3.3L25.2,0.7L0.1,17h3.3v3.3h2.2V23h1.6v19.1H5.5v2.8H2.8v3.3H0.6v1.6h49.1v-1.6
	h-2.2v-3.3H44.8z"/>
</svg>
