<?xml version="1.0" encoding="utf-8"?>
<!-- Generator: Adobe Illustrator 21.1.0, SVG Export Plug-In . SVG Version: 6.00 Build 0)  -->
<svg version="1.1" id="Layer_1" xmlns="http://www.w3.org/2000/svg" xmlns:xlink="http://www.w3.org/1999/xlink" x="0px" y="0px"
	 viewBox="0 0 19.7 19.7" style="enable-background:new 0 0 19.7 19.7;" xml:space="preserve">
<g>
	<path id="ICON-LOGIN_1_" d="M9.9,0.5c-5.2,0-9.4,4.2-9.4,9.4s4.2,9.4,9.4,9.4s9.4-4.2,9.4-9.4l0,0C19.2,4.7,15,0.5,9.9,0.5
		C9.9,0.5,9.9,0.5,9.9,0.5z M3.8,16.3c0.1-2,1.7-3.8,4.1-4.5c0.6,0.3,1.3,0.5,1.9,0.5c0.7,0,1.3-0.2,1.9-0.5
		c2.4,0.6,4.1,2.4,4.1,4.5C12.5,19.5,7.2,19.5,3.8,16.3z M9.9,11.9c-2,0-3.6-1.6-3.6-3.6c0-2,1.6-3.6,3.6-3.6c2,0,3.6,1.6,3.6,3.6
		C13.4,10.3,11.8,11.9,9.9,11.9z M16.4,15.9c-0.4-2.1-2-3.8-4-4.4c1.8-1.4,2.1-3.9,0.7-5.7S9.2,3.8,7.4,5.1S5.3,9,6.7,10.8
		c0.2,0.3,0.5,0.5,0.7,0.7c-2.1,0.6-3.7,2.3-4,4.4C0,12.3,0.2,6.7,3.8,3.3S13,0.2,16.4,3.8C19.5,7.2,19.5,12.5,16.4,15.9z"/>
	<path d="M9.9,19.7C4.4,19.7,0,15.3,0,9.9S4.4,0,9.9,0h0c2.6,0,5.1,1,7,2.9c1.9,1.9,2.9,4.3,2.9,7C19.7,15.3,15.3,19.7,9.9,19.7z
		 M4.3,16.1c3.2,2.8,7.9,2.8,11.1,0c-0.2-1.7-1.5-3.1-3.6-3.7c-0.6,0.3-1.3,0.5-2,0.5c-0.7,0-1.4-0.2-2-0.5
		C5.9,13,4.5,14.5,4.3,16.1z M9.9,1.5c-2,0-4.1,0.7-5.7,2.2c-3.2,2.9-3.5,7.8-1,11.1c0.6-1.6,1.8-2.9,3.3-3.5
		c-0.1-0.1-0.1-0.2-0.2-0.2c-0.7-1-1.1-2.2-0.9-3.4c0.2-1.2,0.8-2.3,1.7-3c2-1.5,4.8-1.2,6.4,0.8c0.7,1,1.1,2.2,0.9,3.4
		c-0.1,0.9-0.5,1.7-1.1,2.4c1.5,0.7,2.8,1.9,3.3,3.5C19,11.6,18.8,7.1,16,4.1C14.4,2.4,12.1,1.5,9.9,1.5z M9.9,5.3
		C9,5.3,8.3,5.6,7.7,6.2C7.1,6.7,6.8,7.5,6.8,8.3c0,0.8,0.3,1.6,0.9,2.2c0.6,0.6,1.3,0.9,2.2,0.9c1.7,0,3.1-1.4,3.1-3.1
		C12.9,6.6,11.5,5.3,9.9,5.3C9.9,5.3,9.9,5.3,9.9,5.3z"/>
</g>
</svg>
