<?xml version="1.0" encoding="utf-8"?>
<!-- Generator: Adobe Illustrator 21.1.0, SVG Export Plug-In . SVG Version: 6.00 Build 0)  -->
<svg version="1.1" id="Layer_1" xmlns="http://www.w3.org/2000/svg" xmlns:xlink="http://www.w3.org/1999/xlink" x="0px" y="0px"
	 viewBox="0 0 25 29.8" style="enable-background:new 0 0 25 29.8;" xml:space="preserve">
<g id="Artwork_7" transform="translate(-12.498 -14.911)">
	<path id="Path_614" d="M37.5,42.4L36.1,41H35l-1.4-1.8h0.6v-0.4l-1-1.1h-0.8L32,37.2l-0.7-0.9h0.2V36l-0.7-0.7h-0.3l-3.7-4.8
		l-0.8-1h-0.6l0.4,0.6h-1.6l0.4-0.6h-0.6l-0.8,1l-3.7,4.8h-0.2L18.5,36v0.3h0.1l-0.7,0.9l-0.4,0.5h-0.8l-1,1.1v0.4h0.6L15,41h-1.1
		l-1.4,1.4V43h1c-0.2,0.7,0.2,1.5,0.9,1.7c0.6,0.2,1.3-0.1,1.6-0.6l0.6-1.1h16.7l0.6,1.1c0.4,0.6,1.2,0.9,1.9,0.5
		c0.5-0.3,0.8-1,0.6-1.5h1.1V42.4z M18.9,39.2h12.3l1,1.8H17.8L18.9,39.2z M21.7,34.2h6.5l0.6,1h-7.7L21.7,34.2z M26.3,30.9
		L26.3,30.9l0.2,0.4h-3l0.2-0.4H26.3z M24,30.3h1.9l0.1,0.1l0.1,0.2h-2.2l0.1-0.2L24,30.3z M23.2,31.7h3.5l0.3,0.6h-4.2L23.2,31.7z
		 M22.5,32.8h4.9l0.4,0.6h-5.6L22.5,32.8z M20.5,36.3L20.5,36.3l8.9,0v0l0,0l0.5,0.9l0.3,0.5H19.7l0.3-0.5L20.5,36.3L20.5,36.3
		L20.5,36.3z"/>
	<path id="Path_615" d="M15.5,37.2v-8.6c0-0.2,0-0.4,0-0.6c0-0.1,0-0.1,0-0.2c0-0.2,0-0.3,0-0.5c0-0.1,0-0.1,0-0.1
		c0-0.2,0.1-0.4,0.1-0.6c0,0,0-0.1,0-0.1c0-0.2,0.1-0.3,0.1-0.5l0-0.2c0.1-0.2,0.1-0.4,0.2-0.5c0,0,0,0,0,0c0.1-0.2,0.1-0.4,0.2-0.6
		c0,0,0-0.1,0.1-0.1c0.1-0.2,0.1-0.3,0.2-0.5c0,0,0-0.1,0.1-0.1c0.1-0.2,0.2-0.4,0.3-0.5l0,0c0.1-0.2,0.2-0.3,0.3-0.5l0.1-0.1
		c0.1-0.2,0.2-0.3,0.3-0.5c0,0,0,0,0,0c0.1-0.2,0.3-0.3,0.4-0.5l0,0c0.1-0.1,0.3-0.3,0.4-0.4c0,0,0,0,0.1-0.1
		c0.3-0.3,0.6-0.6,0.9-0.8l0.1,0c0.2-0.1,0.3-0.2,0.5-0.3l0,0c0.2-0.1,0.4-0.2,0.5-0.3c1.4-0.8,2.9-1.2,4.5-1.2
		c2.3,0,4.5,0.9,6.2,2.5c0.1,0.1,0.2,0.2,0.4,0.4l0,0c0.9,0.9,1.5,1.9,2,3l0,0.1c0.1,0.1,0.1,0.3,0.2,0.4c0,0,0,0.1,0,0.1
		c0,0.1,0.1,0.2,0.1,0.4c0,0.1,0,0.1,0.1,0.2c0,0.1,0.1,0.2,0.1,0.3c0,0.1,0,0.1,0,0.2c0,0.1,0.1,0.2,0.1,0.3c0,0.1,0,0.1,0,0.2
		c0,0.1,0,0.2,0.1,0.3c0,0.1,0,0.1,0,0.2c0,0.1,0,0.2,0,0.3c0,0.1,0,0.1,0,0.2c0,0.1,0,0.2,0,0.4c0,0.1,0,0.1,0,0.2
		c0,0.2,0,0.4,0,0.5v8.6h2.4V26.8c0-6.6-5.3-11.9-11.9-11.9S13,20.2,13,26.8v10.3H15.5z M33.6,24.4c0.1,0.1,0.1,0.2,0.1,0.4
		C33.7,24.6,33.6,24.5,33.6,24.4L33.6,24.4z M33.8,24.9c0,0.1,0.1,0.2,0.1,0.3C33.9,25.1,33.8,25,33.8,24.9L33.8,24.9z M34,25.4
		c0,0.1,0.1,0.2,0.1,0.3C34,25.6,34,25.5,34,25.4L34,25.4z M34.1,25.9c0,0.1,0,0.2,0.1,0.3C34.2,26.1,34.1,26,34.1,25.9L34.1,25.9z
		 M34.2,26.4c0,0.1,0,0.2,0.1,0.3C34.3,26.6,34.3,26.5,34.2,26.4L34.2,26.4z M34.3,27c0,0.1,0,0.2,0,0.3
		C34.4,27.2,34.3,27.1,34.3,27L34.3,27z M34.4,27.5c0,0.1,0,0.2,0,0.3C34.4,27.7,34.4,27.6,34.4,27.5L34.4,27.5z M34.4,28
		c0,0.2,0,0.4,0,0.5C34.5,28.4,34.4,28.2,34.4,28L34.4,28z M33.5,24.3c-0.1-0.1-0.1-0.3-0.2-0.4C33.4,24,33.5,24.1,33.5,24.3
		L33.5,24.3z M31.5,21.3c0.1,0.1,0.2,0.2,0.3,0.4C31.8,21.5,31.6,21.4,31.5,21.3z M31.9,21.7c0.6,0.7,1.1,1.4,1.5,2.2
		C32.9,23,32.5,22.3,31.9,21.7L31.9,21.7z M31.5,21.3c-0.1-0.1-0.2-0.2-0.4-0.4C31.3,21,31.4,21.1,31.5,21.3L31.5,21.3z M15.5,28.5
		c0-0.2,0-0.3,0-0.5C15.5,28.1,15.5,28.3,15.5,28.5z M15.5,27.7c0-0.1,0-0.3,0-0.4C15.5,27.4,15.5,27.6,15.5,27.7L15.5,27.7z
		 M15.6,27.1c0-0.2,0.1-0.4,0.1-0.6C15.6,26.7,15.6,26.9,15.6,27.1L15.6,27.1z M15.7,26.3c0-0.1,0.1-0.3,0.1-0.4
		C15.8,26,15.7,26.2,15.7,26.3L15.7,26.3z M15.9,25.7c0-0.1,0.1-0.3,0.1-0.4C15.9,25.4,15.9,25.5,15.9,25.7z M16,25.1
		c0.1-0.2,0.1-0.3,0.2-0.5C16.2,24.7,16.1,24.9,16,25.1L16,25.1z M16.3,24.4c0.1-0.1,0.1-0.2,0.2-0.4C16.4,24.1,16.4,24.2,16.3,24.4
		L16.3,24.4z M16.6,23.8c0.1-0.2,0.2-0.3,0.3-0.5C16.8,23.5,16.7,23.6,16.6,23.8L16.6,23.8z M16.9,23.2c0.1-0.1,0.2-0.3,0.2-0.4
		C17.1,22.9,17,23.1,16.9,23.2L16.9,23.2z M17.3,22.6c0.1-0.1,0.2-0.2,0.3-0.4C17.4,22.4,17.4,22.5,17.3,22.6L17.3,22.6z M17.6,22.2
		c0.1-0.2,0.2-0.3,0.4-0.4C17.9,21.9,17.7,22,17.6,22.2L17.6,22.2z M18.1,21.6c0.1-0.1,0.2-0.2,0.3-0.3
		C18.3,21.4,18.2,21.5,18.1,21.6L18.1,21.6z M19.5,20.3c0.1-0.1,0.3-0.2,0.4-0.3C19.8,20.1,19.6,20.2,19.5,20.3L19.5,20.3z M20,20
		c0.2-0.1,0.4-0.2,0.5-0.3C20.3,19.7,20.1,19.9,20,20L20,20z M19.4,20.4c-0.3,0.2-0.6,0.5-0.9,0.8C18.8,20.9,19.1,20.6,19.4,20.4
		L19.4,20.4z"/>
	<path id="Path_616" d="M34,36.8v-8.2c0-5.3-4.1-9.7-9.1-9.7s-9.1,4.4-9.1,9.7v8.2l6.4-6.4v-1.8c0-1.8,1.2-3.3,2.7-3.3
		s2.7,1.5,2.7,3.3v1.8L34,36.8z"/>
</g>
</svg>
