<?xml version="1.0" encoding="utf-8"?>
<!-- Generator: Adobe Illustrator 21.1.0, SVG Export Plug-In . SVG Version: 6.00 Build 0)  -->
<svg version="1.1" id="Logo-securities" xmlns="http://www.w3.org/2000/svg" xmlns:xlink="http://www.w3.org/1999/xlink" x="0px"
	 y="0px" viewBox="0 0 126.2 55.5" style="enable-background:new 0 0 126.2 55.5;" xml:space="preserve">
<path id="XMLID_1_" d="M24.5,52.7H17c0.7-0.1,1.4-0.3,2.1-0.5c1-0.4,2-1,2.8-1.7c0.8-0.7,1.4-1.6,1.9-2.5l0.3-0.9
	c0.7-0.1,1.3-0.3,2-0.5c1-0.4,2-1,2.8-1.7c0.8-0.7,1.4-1.6,1.9-2.5c0.4-0.9,0.6-2,0.6-3V14.2c0-1-0.2-2-0.6-3
	c-0.5-1-1.1-1.8-1.9-2.5C28.1,8,27.2,7.4,26.1,7c-0.7-0.2-1.3-0.4-2-0.5l-0.3-0.9c-0.5-1-1.1-1.8-1.9-2.5c-0.8-0.7-1.8-1.3-2.8-1.7
	c-1-0.4-2.1-0.6-3.2-0.6c-1.1,0-2.2,0.2-3.2,0.6c-1,0.4-2,1-2.8,1.7c-1,0.9-1.8,2.1-2.2,3.4C7,6.6,6.3,6.8,5.5,7c-1,0.4-2,1-2.8,1.7
	c-1.5,1.4-2.4,3.4-2.4,5.5v25.3c0,1,0.2,2,0.6,3c0.5,1,1.1,1.8,1.9,2.5c1.4,1.2,3.1,2,5,2.2C7.9,47.5,8,47.8,8.1,48
	c0.5,1,1.1,1.8,1.9,2.5c0.5,0.4,1,0.8,1.6,1.1c0.4,0.6,0.8,1.1,1.3,1.6c1.6,1.5,3.8,2.3,6,2.3h5.7L24.5,52.7L24.5,52.7z M24.2,6.7
	L24.2,6.7c0.3,0.1,0.6,0.1,0.8,0.2c0.7,0.2,1.3,0.6,1.8,1.1c0.5,0.5,0.9,1,1.2,1.6c0.3,0.6,0.4,1.2,0.4,1.9V42
	c0,0.7-0.2,1.3-0.4,1.9c-0.3,0.6-0.7,1.2-1.2,1.6c-0.5,0.5-1.1,0.9-1.8,1.1c-0.3,0.1-0.5,0.2-0.8,0.2c0.2-0.6,0.3-1.3,0.3-1.9V8.6
	C24.5,8,24.4,7.3,24.2,6.7z M6.7,46.7L6.7,46.7c-0.7-0.2-1.3-0.6-1.8-1.1c-0.5-0.5-0.9-1-1.2-1.6c-0.2-0.6-0.4-1.2-0.4-1.9V11.6
	c0-0.7,0.1-1.3,0.4-1.9C4,9.1,4.4,8.6,4.9,8.1c0.8-0.7,1.8-1.2,2.8-1.4C7.5,7.3,7.4,8,7.4,8.6v36.5c0,0.6,0.1,1.3,0.3,1.9
	C7.4,46.9,7.1,46.8,6.7,46.7z M21.5,46.9L21.5,46.9c-0.2-0.1-0.4-0.1-0.6-0.2c-0.7-0.2-1.3-0.6-1.8-1.1c-0.5-0.5-0.9-1-1.2-1.6
	c-0.1-0.3-0.2-0.5-0.3-0.8c0.5-0.1,1.1-0.2,1.6-0.4c0.8-0.3,1.6-0.7,2.2-1.3L21.5,46.9L21.5,46.9z M21.5,38.2L21.5,38.2
	c0,0.7-0.2,1.3-0.4,1.9c-0.3,0.6-0.7,1.2-1.2,1.6c-0.5,0.5-1.1,0.9-1.8,1.1c-0.2,0.1-0.3,0.1-0.5,0.2c-0.1-0.3-0.1-0.6-0.1-0.9V11.6
	c0-0.3,0-0.7,0.1-1c0.2,0,0.3,0.1,0.5,0.2c0.7,0.2,1.3,0.6,1.8,1.1c0.5,0.5,0.9,1,1.2,1.6c0.3,0.6,0.4,1.2,0.4,1.9V38.2z M21.5,12.1
	L21.5,12.1c-0.7-0.5-1.4-1-2.2-1.3c-0.5-0.2-1.1-0.3-1.6-0.4c0.1-0.2,0.2-0.5,0.3-0.7c0.3-0.6,0.7-1.2,1.2-1.6
	c0.7-0.6,1.5-1,2.4-1.3L21.5,12.1L21.5,12.1z M10.5,6L10.5,6c0-0.7,0.1-1.3,0.4-1.9c0.3-0.6,0.7-1.2,1.2-1.6C13.2,1.6,14.6,1,16,1
	c0.7,0,1.4,0.1,2.1,0.4c0.7,0.2,1.3,0.6,1.8,1.1c0.5,0.5,0.9,1,1.2,1.6c0.3,0.6,0.4,1.2,0.4,1.9v0.6c-0.6,0.1-1.2,0.3-1.8,0.5
	c-1,0.4-2,1-2.8,1.7c-0.4,0.4-0.8,0.8-1.1,1.2c-0.3-0.4-0.7-0.8-1.1-1.2c-0.8-0.7-1.8-1.3-2.8-1.7c-0.5-0.2-1.1-0.3-1.6-0.4V6
	L10.5,6z M10.5,6.8L10.5,6.8c0.1,0,0.3,0.1,0.4,0.1c0.7,0.2,1.3,0.6,1.8,1.1c0.5,0.5,0.9,1,1.2,1.6c0.1,0.3,0.2,0.5,0.3,0.8
	c-0.5,0.1-1,0.2-1.4,0.4c-0.8,0.3-1.6,0.7-2.2,1.3L10.5,6.8L10.5,6.8z M10.5,15.4L10.5,15.4c0-0.7,0.1-1.3,0.4-1.9
	c0.3-0.6,0.7-1.2,1.2-1.6c0.6-0.5,1.3-0.9,2.1-1.2c0.1,0.3,0.1,0.6,0.1,0.9v30.5c0,0.3,0,0.6-0.1,0.9c-0.1,0-0.2-0.1-0.3-0.1
	c-0.7-0.2-1.3-0.6-1.8-1.1c-0.5-0.5-0.9-1-1.2-1.6c-0.3-0.6-0.4-1.2-0.4-1.9C10.5,38.3,10.5,15.4,10.5,15.4z M10.5,41.5L10.5,41.5
	c1.1,0.8,2.4,1.4,3.7,1.7c-0.1,0.3-0.2,0.5-0.3,0.8c-0.3,0.6-0.7,1.2-1.2,1.6c-0.5,0.5-1.1,0.9-1.8,1.1c-0.1,0.1-0.3,0.1-0.4,0.1
	C10.5,46.8,10.5,41.5,10.5,41.5z M13.9,52.3L13.9,52.3c-0.7-0.2-1.3-0.6-1.8-1.1c-0.5-0.5-0.9-1-1.2-1.6l-0.3-0.9
	c-0.1-0.3-0.1-0.7-0.1-1l0,0V47c0.5-0.1,1.1-0.2,1.6-0.4c1-0.4,2-1,2.8-1.7c0.4-0.4,0.8-0.8,1.1-1.2c0.3,0.4,0.7,0.8,1.1,1.2
	c1.2,1.1,2.8,1.9,4.5,2.1v0.5c0,0.7-0.2,1.3-0.4,1.9C20.9,50,20.5,50.6,20,51c-0.5,0.5-1.1,0.9-1.8,1.1c-0.7,0.2-1.4,0.4-2.1,0.4
	C15.4,52.6,14.6,52.6,13.9,52.3z"/>
<g id="Group_863">
	<rect id="Rectangle_24" x="41.4" y="21.8" width="1.8" height="1.8"/>
	<rect id="Rectangle_25" x="43.8" y="30.7" width="1.8" height="1.8"/>
	<rect id="Rectangle_26" x="46.3" y="30.7" width="1.8" height="1.8"/>
	<rect id="Rectangle_27" x="51" y="21.8" width="1.8" height="1.8"/>
	<rect id="Rectangle_28" x="48.6" y="21.8" width="1.8" height="1.8"/>
	<path id="Path_2188" d="M55.6,26.9c0.1,0.6-0.3,1.1-0.9,1.2c-0.1,0-0.2,0-0.3,0h-1.5c-0.4,0.1-0.8-0.1-1.1-0.4
		c-0.2-0.3-0.3-0.7-0.3-1.1v-1.9h-1.8v2c0.2,0.6-0.2,1.2-0.8,1.4c-0.2,0-0.4,0-0.6,0l0,0c-0.4,0-0.7-0.1-1-0.3
		c-0.2-0.3-0.3-0.6-0.3-1v-2h-5.5v4c0.1,0.7-0.1,1.3-0.4,1.9c-0.4,0.5-1,0.8-1.6,0.9l0.6,1.7c1-0.2,1.8-0.7,2.4-1.5
		c0.6-0.8,0.8-1.8,0.8-2.8v-2.4h2.1v0.3c-0.1,0.8,0.2,1.7,0.7,2.3c0.5,0.5,1.3,0.8,2,0.8h0.8c0.7,0.1,1.4-0.3,1.7-1
		c0.4,0.7,1.1,1.1,1.9,1h2c1.4,0.2,2.6-0.7,2.8-2.1c0-0.2,0-0.5,0-0.7v-2.3h-1.8v2H55.6z"/>
	<rect id="Rectangle_29" x="54.8" y="30.7" width="1.8" height="1.8"/>
	<rect id="Rectangle_30" x="52.4" y="30.7" width="1.8" height="1.8"/>
	<path id="Path_2189" d="M59.5,28.7c0.1,0.7-0.1,1.3-0.4,1.9c-0.4,0.5-1,0.8-1.6,0.9l0.6,1.7c1-0.2,1.8-0.7,2.4-1.5
		c0.6-0.8,0.8-1.8,0.8-2.8v-4.1h-1.8V28.7z"/>
	<rect id="Rectangle_31" x="69.4" y="30.7" width="1.8" height="1.8"/>
	<rect id="Rectangle_32" x="71.9" y="30.7" width="1.8" height="1.8"/>
	<path id="Path_2190" d="M89.2,27.2c0,0.7-0.3,1-0.8,1c-0.6,0-0.9-0.3-0.9-1v-1.9h-1.8v1.9c0,0.7-0.3,1-0.8,1c-0.6,0-0.9-0.3-0.9-1
		v-1.4h-1.7v0.9c0.1,0.6-0.3,1.2-0.9,1.3c-0.1,0-0.3,0-0.4,0h-1.1c-0.3,0-0.6-0.1-0.9-0.2c-0.3-0.2-0.4-0.5-0.5-0.8l-1.8-4.5
		l3.8-1.4v-1.9l-5.6,2.1v1.5l1.2,2.8c0.2,0.4,0.4,0.8,0.4,1.3c0,0.7-0.4,1-1.1,1h-1.3c-0.4,0.1-0.8-0.1-1.1-0.4
		c-0.2-0.3-0.3-0.7-0.3-1.1v-1.9h-1.8v2c0.2,0.6-0.2,1.2-0.8,1.4c-0.2,0-0.4,0-0.6,0h-1v-0.8c0.1-1.1-0.2-2.2-1-3
		c-0.6-0.4-1.3-0.6-2-0.6c-0.8,0-1.6,0.3-2.2,0.9c-0.5,0.6-0.8,1.5-0.8,2.3c0,0.7,0.2,1.4,0.6,1.9c0.7,0.8,1.7,1.2,2.8,1.1h0.6
		c-0.2,0.5-0.7,0.9-1.2,1.1c-0.8,0.3-1.6,0.4-2.4,0.5l0.3,1.7c3-0.2,4.7-1.3,5.2-3.3H70c0.7,0.1,1.4-0.3,1.7-1
		c0.4,0.7,1.1,1.1,1.9,1h2.2c0.8,0.1,1.5-0.4,1.8-1.2c0.2,0.4,0.5,0.7,0.8,0.9c0.4,0.2,0.8,0.3,1.2,0.3h1.7c0.7,0.1,1.3-0.3,1.6-0.9
		c0.3,0.7,1,1.1,1.8,1c0.7,0,1.4-0.3,1.8-1c0.4,0.7,1.2,1.1,2,1c0.7,0,1.3-0.2,1.8-0.6c0.5-0.6,0.8-1.3,0.7-2.1v-2.5h-1.7L89.2,27.2
		L89.2,27.2z M66.7,28.1h-0.8c-0.5,0-1-0.1-1.3-0.5c-0.2-0.2-0.3-0.6-0.3-0.9c0-0.4,0.1-0.7,0.3-1c0.2-0.2,0.6-0.3,0.9-0.3
		c0.3,0,0.6,0.1,0.8,0.3c0.3,0.5,0.5,1,0.4,1.6V28.1z"/>
	<rect id="Rectangle_33" x="98.6" y="21.8" width="1.8" height="1.8"/>
	<rect id="Rectangle_34" x="101.1" y="21.8" width="1.8" height="1.8"/>
	<rect id="Rectangle_35" x="107.1" y="30.7" width="1.8" height="1.8"/>
	<path id="Path_2191" d="M107.6,29.8c0.8,0,1.5-0.3,2.1-0.8c0.6-0.6,0.8-1.4,0.8-2.2v-2.1h-1.8v2c0.1,0.6-0.3,1.2-0.9,1.3
		c-0.1,0-0.3,0-0.4,0h-0.2c-0.4,0.1-0.8-0.1-1.1-0.4c-0.2-0.3-0.3-0.7-0.3-1.1v-1.9H104v1.9c0,0.4-0.1,0.8-0.3,1.1
		c-0.2,0.3-0.6,0.3-1.1,0.3h-3.3c-0.6,0.1-1.2-0.1-1.6-0.5c-0.3-0.4-0.5-0.9-0.5-1.4v-1.4h-1.7v1.5c0,2.4,1.3,3.6,3.9,3.6h3.1
		c0.9,0.1,1.7-0.3,2.2-1c0.4,0.7,1.2,1.1,2,1h0.9V29.8z"/>
	<rect id="Rectangle_36" x="109.5" y="30.7" width="1.8" height="1.8"/>
	<path id="Path_2192" d="M125.1,19.4l-5.6,2.1V23l1.2,2.9c0.2,0.4,0.3,0.9,0.3,1.3c0,0.7-0.4,1-1.1,1h-2.2v-0.8c0.1-1.1-0.2-2.2-1-3
		c-0.6-0.4-1.3-0.6-2-0.6c-0.8,0-1.6,0.3-2.2,0.9c-0.5,0.6-0.8,1.5-0.8,2.3c0,0.7,0.2,1.4,0.6,1.9c0.7,0.8,1.7,1.2,2.8,1.1h0.6
		c-0.2,0.5-0.7,0.9-1.2,1.1c-0.8,0.3-1.6,0.4-2.4,0.5l0.3,1.7c3-0.2,4.7-1.3,5.2-3.3h2.5c0.8,0.1,1.5-0.2,2.1-0.7
		c0.5-0.5,0.7-1.2,0.7-1.9c0-0.8-0.2-1.5-0.5-2.2l-1-2.4l3.8-1.4v-2L125.1,19.4z M116.1,28.1h-0.8c-0.5,0-1-0.1-1.3-0.5
		c-0.2-0.2-0.3-0.6-0.3-0.9c0-0.4,0.1-0.7,0.3-1c0.2-0.2,0.6-0.3,0.9-0.3c0.3,0,0.6,0.1,0.8,0.3c0.3,0.5,0.5,1,0.4,1.6L116.1,28.1
		L116.1,28.1z"/>
</g>
<g id="Group_864">
	<path id="Path_2193" d="M44.4,37.8c0.9,0,1.7,0.3,2.3,0.9c0.4,0.3,0.6,0.8,0.7,1.3c0.1,0.7,0.1,1.4,0.1,2.1c0,0.6,0,1.3-0.1,1.9
		c-0.1,0.4-0.2,0.8-0.4,1.2l0.7,0.7l-0.8,0.9l-0.8-0.7c-0.5,0.3-1.1,0.5-1.7,0.5c-0.9,0-1.7-0.3-2.3-0.9c-0.4-0.3-0.6-0.8-0.7-1.3
		c-0.1-0.7-0.1-1.5-0.1-2.2c0-0.7,0-1.5,0.1-2.2c0.1-0.5,0.3-1,0.7-1.3C42.7,38.1,43.6,37.8,44.4,37.8z M44.4,39.3
		c-0.4,0-0.8,0.2-1.1,0.5C43.1,40,43,40.3,43,40.5c-0.1,0.6-0.1,1.1-0.1,1.7c0,0.5,0,1.1,0.1,1.6c0.1,0.2,0.2,0.5,0.3,0.7
		c0.3,0.3,0.7,0.5,1.1,0.5c0.2,0,0.4,0,0.6-0.1l-0.8-0.8l0.9-0.9l0.7,0.7c0.1-0.6,0.1-1.2,0.1-1.8c0-0.6,0-1.1-0.1-1.7
		c-0.1-0.2-0.2-0.5-0.3-0.7C45.2,39.5,44.8,39.3,44.4,39.3z"/>
	<path id="Path_2194" d="M53.5,45.8c-0.5,0.5-1.3,0.7-2,0.7c-0.7,0-1.4-0.2-2-0.7c-0.6-0.5-0.9-1.2-0.8-1.9c0-0.8,0.4-1.5,1.1-1.9
		c-0.6-0.4-1-1.1-1-1.8c0-0.7,0.3-1.3,0.8-1.8c0.5-0.5,1.2-0.7,1.9-0.7c0.7,0,1.4,0.2,1.9,0.7c0.5,0.4,0.8,1.1,0.8,1.8
		c0,0.7-0.4,1.4-1,1.8c0.7,0.4,1.1,1.1,1.1,1.9C54.3,44.6,54,45.3,53.5,45.8z M50.7,44.7c0.4,0.5,1.2,0.6,1.7,0.1
		c0.5-0.4,0.6-1.2,0.1-1.7c-0.4-0.5-1.2-0.6-1.7-0.1c-0.3,0.2-0.4,0.6-0.4,0.9C50.4,44.2,50.5,44.5,50.7,44.7z M50.7,41.1
		c0.4,0.5,1.2,0.6,1.7,0.1c0.5-0.4,0.6-1.2,0.1-1.7c-0.4-0.5-1.2-0.6-1.7-0.1c-0.3,0.2-0.4,0.6-0.4,0.9
		C50.4,40.6,50.5,40.9,50.7,41.1z"/>
	<path id="Path_2195" d="M61.1,37.8c1-0.1,2,0.3,2.8,1l-1.1,1c-0.5-0.4-1.1-0.7-1.8-0.6c-0.4,0-0.7,0.1-1,0.3
		c-0.2,0.2-0.3,0.5-0.3,0.8c0,0.2,0.1,0.5,0.3,0.6c0.2,0.2,0.5,0.3,0.8,0.3l1,0.2c0.6,0,1.2,0.3,1.6,0.7c0.5,0.5,0.7,1.1,0.7,1.8
		c0,0.7-0.3,1.4-0.9,1.9c-0.7,0.5-1.5,0.7-2.3,0.7c-0.6,0-1.2-0.1-1.8-0.3c-0.5-0.2-1-0.5-1.4-0.9l1.1-1.1c0.6,0.5,1.3,0.8,2.1,0.7
		c0.4,0,0.8-0.1,1.1-0.3c0.3-0.2,0.4-0.5,0.4-0.8c0-0.3-0.1-0.5-0.3-0.7c-0.3-0.1-0.5-0.2-0.8-0.3l-1-0.2c-0.6,0-1.2-0.3-1.7-0.7
		c-0.4-0.5-0.6-1.1-0.6-1.7c0-0.7,0.3-1.4,0.8-1.9C59.6,38,60.3,37.8,61.1,37.8z"/>
	<path id="Path_2196" d="M71.3,37.9v1.5h-4v2h3.4v1.5h-3.4V45h4v1.5h-5.6V38h5.6V37.9z"/>
	<path id="Path_2197" d="M75.8,37.8c0.8,0,1.5,0.2,2.1,0.7c0.6,0.5,1,1.2,1.1,2h-1.7c-0.1-0.7-0.7-1.2-1.4-1.2
		c-0.4,0-0.8,0.1-1.1,0.4c-0.2,0.2-0.3,0.5-0.3,0.8c-0.2,0.5-0.3,1.1-0.2,1.6c0,0.6,0,1.1,0.1,1.7c0.1,0.3,0.2,0.5,0.3,0.8
		c0.3,0.3,0.7,0.4,1.1,0.4c0.7,0,1.3-0.5,1.4-1.2h1.7c-0.1,0.8-0.5,1.5-1.1,2c-1.3,1-3.2,0.9-4.4-0.2c-0.4-0.3-0.6-0.8-0.7-1.3
		c-0.1-0.7-0.1-1.5-0.1-2.2c0-0.7,0-1.5,0.1-2.2c0.1-0.5,0.3-1,0.7-1.3C74.1,38.1,75,37.8,75.8,37.8z"/>
	<path id="Path_2198" d="M86.5,37.9v5.6c0,0.8-0.3,1.6-0.9,2.2c-0.6,0.6-1.4,0.8-2.2,0.8c-0.8,0-1.6-0.3-2.2-0.8
		c-0.6-0.6-0.9-1.4-0.9-2.2v-5.6H82v5.6c0,0.4,0.1,0.9,0.4,1.2c0.6,0.5,1.6,0.5,2.2,0c0.3-0.3,0.4-0.7,0.4-1.1V38h1.5V37.9z"/>
	<path id="Path_2199" d="M88.3,37.9h3.3c0.8-0.1,1.5,0.2,2,0.8c0.5,0.5,0.8,1.2,0.8,1.9c0.1,1-0.6,1.9-1.5,2.2l1.9,3.7h-1.9
		l-1.7-3.4H90v3.4h-1.7V37.9z M91.6,39.4H90v2.2h1.6c0.3,0,0.6-0.1,0.9-0.3c0.4-0.5,0.4-1.1,0-1.6C92.3,39.5,92,39.4,91.6,39.4z"/>
	<path id="Path_2200" d="M97.9,37.9v8.5h-1.7v-8.5H97.9z"/>
	<path id="Path_2201" d="M105.4,37.9v1.5h-2.2v7.1h-1.7v-7.1h-2.2v-1.5H105.4z"/>
	<path id="Path_2202" d="M108.4,37.9v8.5h-1.7v-8.5H108.4z"/>
	<path id="Path_2203" d="M116,37.9v1.5h-4v2h3.4v1.5H112V45h4v1.5h-5.6V38h5.6V37.9z"/>
	<path id="Path_2204" d="M120.2,37.8c1-0.1,2,0.3,2.8,1l-1.1,1c-0.5-0.4-1.1-0.7-1.8-0.6c-0.4,0-0.7,0.1-1,0.3
		c-0.2,0.2-0.3,0.5-0.3,0.8c0,0.2,0.1,0.5,0.3,0.6c0.2,0.2,0.5,0.3,0.8,0.3l1,0.2c0.6,0,1.2,0.3,1.6,0.7c0.5,0.5,0.7,1.1,0.7,1.8
		c0,0.7-0.3,1.4-0.9,1.9c-0.7,0.5-1.5,0.7-2.3,0.7c-0.6,0-1.2-0.1-1.8-0.3c-0.5-0.2-1-0.5-1.4-0.9l1.1-1.1c0.6,0.5,1.3,0.8,2.1,0.7
		c0.4,0,0.8-0.1,1.1-0.3c0.3-0.2,0.4-0.5,0.4-0.8c0-0.3-0.1-0.5-0.3-0.7c-0.3-0.1-0.5-0.2-0.8-0.3l-1-0.2c-0.6,0-1.2-0.3-1.7-0.7
		c-0.4-0.5-0.6-1.1-0.6-1.7c0-0.7,0.3-1.4,0.8-1.9C118.7,38,119.4,37.8,120.2,37.8z"/>
</g>
</svg>
