<?xml version="1.0" encoding="utf-8"?>
<!-- Generator: Adobe Illustrator 21.1.0, SVG Export Plug-In . SVG Version: 6.00 Build 0)  -->
<svg version="1.1" id="LK-Comstock-A-RW-Company-Horizontal-PMS-341"
	 xmlns="http://www.w3.org/2000/svg" xmlns:xlink="http://www.w3.org/1999/xlink" x="0px" y="0px" viewBox="0 0 166.9 31.1"
	 style="enable-background:new 0 0 166.9 31.1;" xml:space="preserve">
<style type="text/css">
	.st0{fill:#FFFFFF;}
</style>
<g id="Layer_1">
	<path id="Path_31" class="st0" d="M42.2,15.3V1.7h3v11.4h5.2v2.3L42.2,15.3z"/>
	<path id="Path_32" class="st0" d="M54.4,12.3v3h-2.7v-3H54.4z"/>
	<path id="Path_33" class="st0" d="M59.5,1.7v5.5h0l3.7-5.5h3.2l-3.9,5.9l4.4,7.8h-3.3l-3-5.6l-1.1,1.6v4.1h-3V1.7H59.5z"/>
	<path id="Path_34" class="st0" d="M70.3,12.3v3h-2.7v-3H70.3z"/>
	<path id="Path_35" class="st0" d="M82.7,6.3c0-2-0.4-2.8-1.8-2.8c-1.5,0-1.8,1.4-1.8,5.3c0,4.1,0.6,4.9,1.9,4.9
		c1.1,0,1.8-0.5,1.8-3.5h3c0,2.9-0.8,5.5-4.6,5.5c-4.4,0-5-3-5-7.1s0.5-7.1,4.9-7.1c4.2,0,4.5,2.9,4.5,4.9H82.7z"/>
	<path id="Path_36" class="st0" d="M92.1,1.4c4.4,0,4.9,2.9,4.9,7.1s-0.6,7.1-4.9,7.1s-5-3-5-7.1S87.7,1.4,92.1,1.4z M92.1,13.6
		c1.7,0,2-1.4,2-5.1s-0.3-5.1-2-5.1s-2,1.4-2,5.1S90.4,13.6,92.1,13.6z"/>
	<path id="Path_37" class="st0" d="M98.9,1.7h4.4l2.1,9.7h0l2.1-9.7h4.3v13.7h-2.7V4.4h0l-2.6,10.9h-2.3l-2.6-10.9h0v10.9h-2.7
		L98.9,1.7z"/>
	<path id="Path_38" class="st0" d="M116.3,11.1v0.4c0,1.3,0.4,2.1,1.9,2.1c0.5,0,0.9-0.1,1.3-0.5c0.3-0.3,0.5-0.8,0.5-1.2
		c0-1.2-0.7-1.7-2.6-2.3c-2.6-0.8-3.8-1.9-3.8-4.1c0-2.7,1.7-4,4.5-4c2.6,0,4.5,1.1,4.5,3.7v0.4h-2.8c0-1.3-0.5-2-1.6-2
		c-1.3,0-1.7,0.8-1.7,1.6s0.3,1.4,1.5,1.9l2.3,0.9c2.2,0.9,2.8,2,2.8,3.6c0,2.9-1.9,4.2-5.1,4.2c-3.3,0-4.6-1.5-4.6-4v-0.6H116.3z"
		/>
	<path id="Path_39" class="st0" d="M133,1.7v2.3h-3.2v11.4h-3V3.9h-3.2V1.7H133z"/>
	<path id="Path_40" class="st0" d="M138.9,1.4c4.4,0,5,2.9,5,7.1s-0.6,7.1-5,7.1s-5-3-5-7.1S134.5,1.4,138.9,1.4z M138.9,13.6
		c1.7,0,2-1.4,2-5.1s-0.3-5.1-2-5.1s-2,1.4-2,5.1S137.2,13.6,138.9,13.6z"/>
	<path id="Path_41" class="st0" d="M151.9,6.3c0-2-0.4-2.8-1.8-2.8c-1.5,0-1.8,1.4-1.8,5.3c0,4.1,0.6,4.9,1.9,4.9
		c1.1,0,1.8-0.5,1.8-3.5h3c0,2.9-0.8,5.5-4.6,5.5c-4.4,0-5-3-5-7.1s0.5-7.1,4.9-7.1c4.2,0,4.5,2.9,4.5,4.9L151.9,6.3z"/>
	<path id="Path_42" class="st0" d="M159.5,1.7v5.5h0l3.7-5.5h3.2l-3.9,5.9l4.4,7.8h-3.3l-3-5.6l-1.1,1.6v4.1h-3V1.7H159.5z"/>
	<path id="Path_43" class="st0" d="M37.5,12v0.5c0,6.6-8.3,11.9-18.4,11.9S0.7,19.1,0.7,12.6S8.9,0.6,19.1,0.6
		c7.5,0,14.2,2.9,17,7.4l0.3-0.5h-6.9l0.3,0.2C27,2.6,20.9,0.1,15.2,2c-5.6,1.6-9,7.3-7.7,13c1.3,5.5,6.9,9.3,12.9,8.6
		S31,18.2,31,12.6V12l-0.3,0.3h7.2L37.5,12z M30.3,12v0.5c-0.2,5.5-4.4,10-10,10.4c-5.5,0.7-10.7-2.8-12.2-8.1
		C7,9.5,10.1,4.2,15.4,2.6c5.3-1.8,11.1,0.5,13.8,5.4l0.1,0.2H37l-0.3-0.5C33.8,3,26.8,0,19.1,0C8.6,0,0,5.6,0,12.6
		s8.6,12.6,19.1,12.6s19.1-5.6,19.1-12.6c0-0.2,0-0.4,0-0.6v-0.3h-7.9L30.3,12z"/>
	<path id="Path_44" class="st0" d="M8.9,12.6c0,3.3,1.8,6.4,4.7,8.1v-8.9H8.9C8.9,12,8.9,12.3,8.9,12.6 M10,8.2h3.6V4.5
		C12,5.4,10.8,6.7,10,8.2 M29.4,11.7H17.2V22c0.6,0.1,1.3,0.2,1.9,0.2c5.7,0,10.3-4.3,10.3-9.7C29.4,12.3,29.4,12,29.4,11.7
		 M19.1,2.9c-0.6,0-1.3,0.1-1.9,0.2v5.1h11.1C26.5,4.9,22.9,2.9,19.1,2.9"/>
	<path id="Path_45" class="st0" d="M11,9.6c-0.1-0.2-0.3-0.4-0.5-0.4c-0.4,0-0.6,0.4-0.6,0.7s0.2,0.7,0.6,0.7c0.1,0,0.3,0,0.4-0.1
		c0.1-0.1,0.2-0.2,0.2-0.3h0.5c0,0.5-0.5,0.9-1,0.9c-0.3,0-0.6-0.1-0.8-0.3c-0.4-0.5-0.4-1.1,0-1.6c0.2-0.2,0.5-0.3,0.8-0.3
		c0.5-0.1,0.9,0.3,1,0.8L11,9.6z"/>
	<path id="Path_46" class="st0" d="M12.9,10.7c0.5,0,0.6-0.4,0.6-0.7s-0.2-0.7-0.6-0.7s-0.6,0.3-0.6,0.7S12.5,10.7,12.9,10.7
		 M12.9,8.8c0.3,0,0.6,0.1,0.8,0.3c0.2,0.2,0.3,0.5,0.3,0.8c0,0.4-0.2,0.8-0.5,1c-0.4,0.2-0.8,0.2-1.2,0c-0.4-0.2-0.6-0.6-0.5-1
		c0-0.3,0.1-0.6,0.3-0.8C12.3,8.9,12.6,8.8,12.9,8.8"/>
	<path id="Path_47" class="st0" d="M14.4,8.9h0.7l0.5,1.5l0,0l0.5-1.5h0.7V11h-0.5V9.5l0,0L15.8,11h-0.4l-0.6-1.5l0,0V11h-0.5V8.9z"
		/>
	<path id="Path_48" class="st0" d="M17.7,10.3c0,0.3,0.2,0.4,0.5,0.4c0.2,0,0.4,0,0.4-0.3s-0.3-0.3-0.7-0.4s-0.7-0.2-0.7-0.6
		s0.4-0.6,0.9-0.6S19,9,19,9.5h-0.5c0-0.3-0.2-0.3-0.4-0.3c-0.2,0-0.3,0.1-0.3,0.2s0.1,0.2,0.7,0.3c0.2,0,0.7,0.1,0.7,0.6
		c0,0.4-0.3,0.7-0.9,0.7c-0.5,0-1-0.2-1-0.8L17.7,10.3z"/>
	<path id="Path_49" class="st0" d="M20,9.3h-0.7V8.9h1.9v0.4h-0.7V11H20L20,9.3z"/>
	<path id="Path_50" class="st0" d="M22.5,10.7c0.4,0,0.6-0.4,0.6-0.7s-0.2-0.7-0.6-0.7s-0.6,0.4-0.6,0.7S22,10.7,22.5,10.7
		 M22.5,8.9c0.3,0,0.6,0.1,0.8,0.3c0.2,0.2,0.3,0.5,0.3,0.8c0,0.4-0.2,0.8-0.5,1c-0.4,0.2-0.8,0.2-1.2,0c-0.4-0.2-0.6-0.6-0.5-1
		c0-0.3,0.1-0.6,0.3-0.8C21.9,9,22.2,8.8,22.5,8.9"/>
	<path id="Path_51" class="st0" d="M25.5,9.6c-0.1-0.2-0.3-0.4-0.5-0.4c-0.4,0-0.6,0.4-0.6,0.7s0.2,0.7,0.6,0.7c0.1,0,0.3,0,0.4-0.1
		c0.1-0.1,0.2-0.2,0.2-0.3H26c0,0.5-0.5,0.9-1,0.9c-0.3,0-0.6-0.1-0.8-0.3c-0.4-0.5-0.4-1.1,0-1.6C24.4,9,24.7,8.9,25,8.9
		c0.5-0.1,0.9,0.3,1,0.8L25.5,9.6z"/>
	<path id="Path_52" class="st0" d="M26.4,8.9h0.5v0.9l0.9-0.9h0.6l-0.9,0.8l1,1.3h-0.6l-0.7-1l-0.3,0.3V11h-0.5V8.9z"/>
	<path id="Path_53" class="st0" d="M16.2,4.4C16.1,4.2,15.9,4,15.7,4c-0.5,0-0.6,0.4-0.6,0.7s0.2,0.7,0.6,0.7c0.3,0,0.5-0.2,0.5-0.5
		h0.5c0,0.5-0.5,0.9-1,0.9c-0.3,0-0.6-0.1-0.8-0.3c-0.2-0.2-0.3-0.5-0.3-0.8c0-0.3,0.1-0.6,0.3-0.8c0.2-0.2,0.5-0.3,0.8-0.3
		c0.5,0,0.9,0.3,1,0.8L16.2,4.4z"/>
	<path id="Path_54" class="st0" d="M15.6,8.2c0.5,0,0.6-0.4,0.6-0.7s-0.2-0.8-0.6-0.8C15.2,6.7,15,7,15,7.4S15.2,8.2,15.6,8.2
		 M15.6,6.3c0.3,0,0.6,0.1,0.8,0.3c0.2,0.2,0.3,0.5,0.3,0.8c0,0.4-0.2,0.8-0.5,1c-0.4,0.2-0.8,0.2-1.2,0c-0.4-0.2-0.6-0.6-0.5-1
		c0-0.3,0.1-0.6,0.3-0.8C15,6.4,15.3,6.3,15.6,6.3"/>
	<path id="Path_55" class="st0" d="M15.3,12.6h0.4c0.2,0,0.4,0,0.4-0.3S15.9,12,15.7,12h-0.4V12.6z M14.8,11.6h1
		c0.3,0,0.6,0.1,0.7,0.3c0.2,0.2,0.2,0.5,0,0.7c-0.2,0.2-0.4,0.4-0.7,0.3h-0.5v0.8h-0.5V11.6z"/>
	<path id="Path_56" class="st0" d="M15.3,15.6h0.6l-0.3-0.8l0,0L15.3,15.6z M15.4,14.2h0.5l0.9,2.2h-0.5L16,15.9h-0.9L15,16.4h-0.5
		L15.4,14.2z"/>
	<path id="Path_57" class="st0" d="M14.6,16.9h0.5l1,1.5l0,0v-1.5h0.5V19h-0.5l-1-1.5l0,0V19h-0.5V16.9z"/>
	<path id="Path_58" class="st0" d="M15.4,20.8l-0.9-1.3h0.6l0.5,0.9l0.5-0.9h0.6l-0.9,1.3v0.8h-0.5L15.4,20.8z"/>
	<path id="Path_59" class="st0" d="M31.5,24.1h0.2c0.2,0,0.4,0,0.4-0.2s-0.2-0.2-0.3-0.2h-0.3L31.5,24.1z M31.3,23.5h0.5
		c0.3,0,0.5,0.1,0.5,0.4c0,0.1,0,0.2-0.1,0.3c-0.1,0.1-0.2,0.1-0.3,0.1l0.4,0.6h-0.2l-0.4-0.6h-0.2v0.6h-0.2L31.3,23.5z M31.7,25.1
		c0.4,0,0.8-0.2,0.9-0.6c0.2-0.4,0.1-0.8-0.2-1c-0.3-0.3-0.7-0.4-1.1-0.2c-0.4,0.1-0.6,0.5-0.6,0.9c0,0.3,0.1,0.5,0.3,0.7
		C31.2,25,31.5,25.1,31.7,25.1L31.7,25.1z M31.7,23c0.5,0,0.9,0.2,1.1,0.7c0.2,0.4,0.1,0.9-0.2,1.2c-0.3,0.3-0.8,0.4-1.3,0.3
		c-0.4-0.2-0.7-0.6-0.7-1C30.6,23.5,31.1,23,31.7,23L31.7,23z"/>
	<path id="Path_60" class="st0" d="M43.9,21.9h1.3l2.1,7.4h-1l-0.6-2h-2.5l-0.6,2h-1L43.9,21.9z M43.4,26.5h2.1l-1-3.6l0,0
		L43.4,26.5z"/>
	<path id="Path_61" class="st0" d="M50.6,21.9h2.6c0.5-0.1,1.1,0.1,1.5,0.5c0.8,0.8,0.7,2.1-0.1,2.8c-0.2,0.2-0.4,0.3-0.6,0.4l0,0
		c0.6,0.1,1.1,0.6,1.1,1.3l0.1,1.3c0,0.8,0.2,1,0.4,1.2h-1.2c-0.2-0.3-0.3-0.7-0.3-1.1L54,27c-0.1-1-0.7-1.1-1.2-1.1h-1.3v3.3h-1
		L50.6,21.9z M51.6,25.2h1c0.6,0,1.6,0,1.6-1.4c0-0.7-0.5-1.2-1.4-1.2h-1.2L51.6,25.2z"/>
	<path id="Path_62" class="st0" d="M56.1,25.4c0-1.3,0.6-1.9,2-1.9c1.8,0,1.8,1,1.8,1.6v3.1c0,0.2,0,0.5,0.3,0.5
		c0.1,0,0.2,0,0.2-0.1v0.6c-0.2,0-0.4,0-0.5,0.1c-0.4,0-0.8,0-0.8-0.7h0c-0.3,0.5-0.8,0.8-1.4,0.8c-0.9,0-1.6-0.7-1.6-1.6
		c0-0.7,0.5-1.3,1.1-1.5l1.2-0.4c0.7-0.2,0.7-0.4,0.7-0.8s-0.3-0.8-1-0.8c-0.3,0-0.6,0.1-0.8,0.3c-0.2,0.2-0.3,0.5-0.2,0.8v0.1
		L56.1,25.4z M59,26.2c-0.3,0.3-1.2,0.4-1.6,0.7c-0.3,0.2-0.5,0.5-0.5,0.9c0,0.6,0.2,1,0.8,1c0.6,0,1.1-0.5,1.2-1.1L59,26.2z"/>
	<path id="Path_63" class="st0" d="M61.2,21.9h0.9v1h-0.9V21.9z M61.2,23.7h0.9v5.6h-0.9V23.7z"/>
	<path id="Path_64" class="st0" d="M63.5,21.9h0.9v7.4h-0.9V21.9z"/>
	<path id="Path_65" class="st0" d="M65.2,21.9h1l1.2,6.1l0,0l1.1-6.1h1.2l1.1,6.1l0,0l1.2-6.1h1l-1.6,7.4h-1.2l-1.1-6l0,0l-1.1,6
		h-1.2L65.2,21.9z"/>
	<path id="Path_66" class="st0" d="M75.3,23.6c1.7,0,2.1,1.4,2.1,2.9s-0.4,2.9-2.1,2.9s-2.1-1.4-2.1-2.9S73.6,23.6,75.3,23.6z
		 M76.5,26.5c0-1.2-0.2-2.2-1.2-2.2s-1.1,1-1.1,2.2s0.2,2.2,1.1,2.2S76.5,27.7,76.5,26.5L76.5,26.5z"/>
	<path id="Path_67" class="st0" d="M78.4,23.7h0.9v0.8l0,0c0.2-0.6,0.7-0.9,1.3-1c0.1,0,0.3,0,0.4,0.1v0.9c-0.2,0-0.3,0-0.5,0
		c-0.7,0-1.2,0.6-1.2,1.3c0,0,0,0,0,0v3.5h-0.9V23.7z"/>
	<path id="Path_68" class="st0" d="M86.1,29.3H85l-1.6-2.7l-0.8,0.9v1.9h-0.9v-7.4h0.9v4.4l0,0l2.1-2.6h1.1L84,25.8L86.1,29.3z"/>
	<path id="Path_69" class="st0" d="M89.1,25.3c0-0.7-0.2-1.1-0.9-1.1c-0.3,0-0.5,0-0.7,0.2c-0.2,0.2-0.3,0.4-0.3,0.7
		c0,0.7,0.7,0.8,1.5,1s1.4,0.5,1.4,1.6c0,0.9-0.7,1.7-1.6,1.8c-0.1,0-0.2,0-0.3,0c-2,0-2-1.4-2-2h0.9c0,0.7,0.2,1.3,1.1,1.3
		c0.3,0,0.5-0.1,0.7-0.3c0.2-0.2,0.3-0.4,0.3-0.7c0-0.7-0.7-0.9-1.4-1.1s-1.5-0.4-1.5-1.6c0-1,0.9-1.5,1.9-1.5
		c1.7,0,1.8,1.1,1.8,1.8L89.1,25.3z"/>
	<path id="Path_70" class="st0" d="M98.6,26.7c-0.1,1.4-0.7,2.7-2.4,2.7c-2.2,0-2.5-2-2.5-3.8s0.4-3.8,2.5-3.8
		c1.1-0.1,2.2,0.7,2.3,1.8c0,0.2,0,0.3,0,0.5h-1c0-0.8-0.3-1.6-1.3-1.6c-1.3,0-1.5,1.4-1.5,3.1s0.2,3.1,1.5,3.1c1.2,0,1.4-1,1.4-1.9
		L98.6,26.7z"/>
	<path id="Path_71" class="st0" d="M101.3,23.6c1.7,0,2.1,1.4,2.1,2.9s-0.4,2.9-2.1,2.9s-2.1-1.4-2.1-2.9S99.6,23.6,101.3,23.6z
		 M102.5,26.5c0-1.2-0.2-2.2-1.2-2.2s-1.1,1-1.1,2.2s0.2,2.2,1.1,2.2S102.5,27.7,102.5,26.5L102.5,26.5z"/>
	<path id="Path_72" class="st0" d="M104.5,23.7h0.9v0.7h0c0.3-0.5,0.8-0.8,1.4-0.8c0.6-0.1,1.1,0.3,1.3,0.9c0.3-0.5,0.8-0.9,1.4-0.9
		c1.6,0,1.6,1.1,1.6,1.8v3.9h-0.9v-3.8c0-0.4,0-1.1-0.8-1.1c-0.3,0-0.6,0.1-0.8,0.3c-0.2,0.2-0.3,0.5-0.3,0.8v3.8h-0.9v-3.8
		c0-0.4,0-1.1-0.8-1.1c-0.3,0-0.6,0.1-0.8,0.3c-0.2,0.2-0.3,0.5-0.3,0.8v3.8h-0.9L104.5,23.7z"/>
	<path id="Path_73" class="st0" d="M112.4,23.7h0.9v0.7h0c0.2-0.5,0.7-0.8,1.3-0.8c1.4,0,1.9,1.2,1.9,2.8c0,1.3-0.4,3-1.9,3
		c-0.5,0-1-0.3-1.2-0.8l0,0v2.5h-1V23.7z M114.4,28.7c0.9,0,1.1-0.9,1.1-2.3c0-1.2-0.2-2.1-1.1-2.1c-1,0-1.2,0.9-1.2,2.2
		C113.2,27.6,113.4,28.7,114.4,28.7z"/>
	<path id="Path_74" class="st0" d="M117.3,25.4c0-1.3,0.6-1.9,2-1.9c1.8,0,1.8,1,1.8,1.6v3.1c0,0.2,0,0.5,0.3,0.5
		c0.1,0,0.2,0,0.2-0.1v0.6c-0.2,0-0.4,0-0.5,0.1c-0.4,0-0.8,0-0.8-0.7l0,0c-0.3,0.5-0.9,0.8-1.5,0.8c-0.9,0-1.6-0.7-1.6-1.6
		c0-0.7,0.5-1.3,1.1-1.5l1.3-0.4c0.7-0.2,0.7-0.4,0.7-0.8s-0.3-0.8-1-0.8c-0.3,0-0.6,0.1-0.8,0.3c-0.2,0.2-0.3,0.5-0.2,0.8v0.1
		L117.3,25.4z M120.2,26.2c-0.3,0.3-1.2,0.4-1.6,0.7c-0.3,0.2-0.5,0.5-0.5,0.9c0,0.6,0.2,1,0.8,1c0.6,0,1.1-0.4,1.2-1.1L120.2,26.2z
		"/>
	<path id="Path_75" class="st0" d="M122.4,23.7h0.9v0.7h0c0.3-0.5,0.8-0.8,1.4-0.8c1.6,0,1.6,1.1,1.6,1.8v3.9h-0.9v-3.8
		c0-0.4,0-1.1-0.9-1.1c-0.3,0-0.6,0.1-0.8,0.3c-0.2,0.2-0.3,0.5-0.3,0.8v3.8h-0.9V23.7z"/>
	<path id="Path_76" class="st0" d="M127.1,23.7h1l1.2,4.5l0,0l1-4.5h1l-1.7,5.9c-0.2,0.8-0.5,1.5-1.6,1.5c-0.2,0-0.5,0-0.7,0v-0.7
		c0.2,0,0.4,0,0.5,0c0.3,0,0.6-0.2,0.7-0.5l0.2-0.5L127.1,23.7z"/>
</g>
</svg>
