<?xml version="1.0" encoding="utf-8"?>
<!-- Generator: Adobe Illustrator 21.1.0, SVG Export Plug-In . SVG Version: 6.00 Build 0)  -->
<svg version="1.1" id="icon-regulated" xmlns="http://www.w3.org/2000/svg" xmlns:xlink="http://www.w3.org/1999/xlink" x="0px"
	 y="0px" viewBox="0 0 83.3 81.3" style="enable-background:new 0 0 83.3 81.3;" xml:space="preserve">
<g id="Group_823">
	<path id="Path_2005" d="M78.7,73.1h-4.5v-4.6h-2.7V36.9h2.7v-4.6h3.6V27h5.4L41.6,0L0,27h5.4v5.4h3.6v4.6h2.7v31.6H9.1v4.6H4.6v5.4
		H0.9v2.7h81.5v-2.7h-3.6v-5.5H78.7z M24.5,68.6V36.9h2.7v-4.6h5.4v4.6h2.7v31.6h-2.7v4.6h-5.4v-4.6H24.5z M38,68.6V36.9h7.3v31.6
		H38z M35.3,34.2v-1.8H48v1.8H35.3z M35.3,71.3H48v1.8H35.3V71.3z M48,68.6V36.9h2.7v-4.6h5.4v4.6h2.7v31.6h-2.7v4.6h-5.4v-4.6
		L48,68.6z M58.8,71.3h12.7v1.8H58.8V71.3z M68.8,68.6h-7.3V36.9h7.3L68.8,68.6z M71.5,34.2H58.8v-1.8h12.7V34.2z M41.6,3.2l32.5,21
		H9.2L41.6,3.2z M8.1,29.7V27H75v2.7C75,29.7,8.1,29.7,8.1,29.7z M24.5,32.4v1.8H11.8v-1.8H24.5z M14.5,36.9h7.3v31.6h-7.3V36.9z
		 M11.8,71.3h12.7v1.8H11.8L11.8,71.3z M7.3,78.5v-2.7H76v2.7H7.3z"/>
</g>
<g id="Group_824" transform="translate(35.907 9.263)">
	<path id="Path_2006" d="M5.7,0C2.6,0,0,2.5,0,5.7c0,0,0,0,0,0c0,3.2,2.5,5.8,5.7,5.8c3.2,0,5.7-2.5,5.7-5.7c0,0,0,0,0,0
		C11.5,2.6,8.9,0,5.7,0z M5.7,8.8c-1.7,0-3-1.4-3-3s1.4-3,3-3s3,1.4,3,3C8.7,7.5,7.4,8.8,5.7,8.8z"/>
</g>
</svg>
