<?xml version="1.0" encoding="utf-8"?>
<!-- Generator: Adobe Illustrator 21.1.0, SVG Export Plug-In . SVG Version: 6.00 Build 0)  -->
<svg version="1.1" id="Capa_1" xmlns="http://www.w3.org/2000/svg" xmlns:xlink="http://www.w3.org/1999/xlink" x="0px" y="0px"
	 viewBox="0 0 124.1 124.1" style="enable-background:new 0 0 124.1 124.1;" xml:space="preserve">
<path d="M18.3,106.7c5.6,5.4,12.3,9.8,20.1,12.8s16.5,4.6,25.9,4.6c10.5,0,20.2-1.6,28.9-4.9c7.9-2.9,1.1-17.6-4.7-15.2
	c-6.4,2.7-14.2,4.1-23.1,4.1c-7,0-13.4-1.1-19-3.2c-5.6-2.1-10.5-5.1-14.5-9c-4-3.9-7.2-8.7-9.4-14.2c-2.3-5.6-3.4-12-3.4-19
	c0-6.6,1.1-12.9,3.3-18.5s5.2-10.6,9.2-14.6c3.9-4.1,8.7-7.4,14.2-9.7s11.7-3.5,18.5-3.5c6.3,0,12.1,0.9,17.3,2.5
	c5.1,1.6,9.5,4.1,13.2,7.4c3.7,3.3,6.6,7.3,8.7,12.1c2.1,4.8,3.1,10.4,3.1,16.8c0,3.7-0.4,7.2-1.2,10.5c-0.8,3.1-1.8,5.9-3.2,8.1
	c-1.3,2.1-2.8,3.8-4.6,5c-2.1,1.4-5.2,2.2-7.6,1.4c-3-1-2.4-5.2-2.2-7.7c0.3-3.4,1.2-6.6,1.9-9.9c1.1-5.4,2.3-10.7,3.4-16
	c0.6-2.9,1.3-5.9,1.9-8.8c0.8-3.7-2-7.3-5.9-7.3h-4.4c-2.7,0-5.1,1.8-5.8,4.4c-0.3,1.2-0.6,2.2-0.6,2.2c-2.2-6.8-10.3-8.7-16.7-8.6
	c-8.4,0.1-16.1,4.4-21.7,10.5c-0.5,0.6-1.1,1.2-1.6,1.8c-2.9,3.5-5.1,7.6-6.6,11.9c-1.6,4.6-2.4,9.3-2.4,14.1c0,4.1,0.6,8,1.7,11.5
	c1.2,3.6,2.9,6.7,5.1,9.3c2.2,2.6,5,4.7,8.3,6.2s7,2.3,11,2.3c3,0,5.8-0.5,8.3-1.4c2.4-0.9,4.6-2,6.5-3.3c1.5-1,2.9-2.2,4-3.3
	c0.7,1.3,1.5,2.4,2.6,3.5c2.8,3,7.1,4.5,12.8,4.5c4.5,0,8.9-0.9,13-2.7c4.1-1.8,7.8-4.6,10.9-8.2c3-3.6,5.5-8,7.3-13.2
	c1.8-5.2,2.7-11.2,2.7-17.8c0-9-1.7-17-5-23.7s-7.8-12.4-13.4-16.9C99.5,9.1,93.1,5.8,86,3.5C79.1,1.1,71.8,0,64.3,0
	c-8.7,0-17,1.6-24.7,4.7C31.8,7.9,25,12.3,19.3,17.8C13.5,23.3,8.9,30,5.6,37.5s-5,15.9-5,24.7c0,8.9,1.5,17.3,4.6,24.8
	C8.3,94.6,12.6,101.2,18.3,106.7z M72.3,64.7c-0.7,2.7-1.7,5.3-3.1,7.7c-1.4,2.3-3.1,4.2-5.3,5.7c-2,1.4-4.4,2.1-7.4,2.1
	c-1.9,0-3.4-0.4-4.5-1.1c-1.2-0.8-2.2-1.8-2.9-3.1c-0.8-1.4-1.3-2.9-1.6-4.4C47.2,70,47,68.5,47,67.2c0-2.8,0.4-5.6,1.2-8.5
	c0.8-2.8,1.9-5.4,3.4-7.6c1.5-2.2,3.2-4,5.3-5.4c1.9-1.3,4-1.9,6.5-1.9c2,0,3.6,0.3,4.8,1c1.2,0.7,2.2,1.6,2.9,2.7
	c0.8,1.2,1.3,2.6,1.7,4.1c0.4,1.7,0.6,3.5,0.6,5.2C73.3,59.3,73.1,61.9,72.3,64.7z"/>
</svg>
