<?xml version="1.0" encoding="utf-8"?>
<!-- Generator: Adobe Illustrator 21.1.0, SVG Export Plug-In . SVG Version: 6.00 Build 0)  -->
<svg version="1.1" id="Layer_1" xmlns="http://www.w3.org/2000/svg" xmlns:xlink="http://www.w3.org/1999/xlink" x="0px" y="0px"
	 viewBox="0 0 32.5 33.5" style="enable-background:new 0 0 32.5 33.5;" xml:space="preserve">
<path id="Path_361" d="M8.9,24.2l-0.7,1.8l6.9-0.6c0.4,0,0.7,0.2,0.7,0.6c0,0,0,0,0,0.1l-0.2,7.4h1.4l-0.2-7.4
	c0-0.4,0.3-0.6,0.6-0.7c0,0,0,0,0.1,0l6.9,0.6l-0.7-1.8c-0.3-0.9,0-1.9,0.9-2.4l8-4.6l-1.8-0.9c-0.5-0.3-0.8-0.8-0.7-1.4l0.6-4.5
	l-3.4,1c-0.7,0.2-1.5-0.2-1.7-0.9c0,0,0-0.1,0-0.1L25.1,9l-3.2,3.7c-0.2,0.3-0.7,0.3-0.9,0.1c-0.2-0.2-0.3-0.4-0.2-0.6l1.4-7.9
	L20,4.8c-0.6,0.2-1.3-0.1-1.5-0.7L16.2,0v0l0,0l0,0v0L14,4.1c-0.3,0.6-0.9,0.8-1.6,0.7l-2.1-0.6l1.4,7.9c0.1,0.4-0.2,0.7-0.5,0.8
	c-0.2,0-0.5,0-0.6-0.2L7.4,9l-0.3,1.5c-0.2,0.7-0.9,1.2-1.6,1c0,0-0.1,0-0.1,0l-3.4-1l0.6,4.5c0.1,0.6-0.2,1.1-0.7,1.4L0,17.3l8,4.6
	C8.9,22.3,9.2,23.3,8.9,24.2L8.9,24.2z"/>
</svg>
