<svg xmlns="http://www.w3.org/2000/svg" viewBox="0 0 77.4 87.8"><path d="M32.216 6.164c-4.6 0-8.2 3.7-8.2 8.2 0 1.8.6 3.6 1.8 5.1l-3.9 10 5-2.1 2.4 4.7 2.7-7.6 2.9 7.6 2.3-4.8 5.1 2.3-4-9.9c1.2-1.5 1.9-3.4 1.9-5.3.1-4.4-3.3-8.1-7.7-8.2h-.3zm0 2c3.4 0 6.2 2.8 6.3 6.3 0 3.5-2.7 6.3-6.2 6.3s-6.3-2.8-6.4-6.2v-.2c.1-3.4 2.8-6.2 6.3-6.2zM63.409 59.78c-7.7 0-14 6.3-14 14s6.3 14 14 14 14-6.3 14-14c-.1-7.7-6.3-14-14-14zm-.9 6.7h1.7v2.3c1.2.4 2 1.6 2.1 2.8h-1.7c-.1-.7-.7-1.2-1.4-1.2-.7.1-1.2.7-1.2 1.4s.6 1.2 1.3 1.2c1.2 0 2.3.8 2.7 1.9.5 1.1.2 2.4-.6 3.2-.4.4-.8.6-1.3.8v2.3h-1.7v-2.4c-.1 0-.2-.1-.3-.1-1.1-.5-1.8-1.6-1.8-2.7h1.7c0 .5.3 1.1.8 1.3.5.2 1 .1 1.4-.3.4-.4.5-1 .3-1.5s-.7-.8-1.2-.8c-1.6 0-3-1.4-2.9-3 0-1.3.8-2.5 2.1-2.8v-2.4z"/><path d="M0 0v76.7h47.4v-2H2V2h60.5v55.8h2V0H0z"/><path d="M12.719 36.69v2h39v-2h-39zm7.24 23.383v2h24.5v-2h-24.5zm-7.24-15.654v2h39v-2h-39zm0 7.827v2h39v-2h-39z"/></svg>