<svg xmlns="http://www.w3.org/2000/svg" viewBox="0 0 124.1 124.1"><path d="M18.3 106.7c5.6 5.4 12.3 9.8 20.1 12.8s16.5 4.6 25.9 4.6c10.5 0 20.2-1.6 28.9-4.9 7.9-2.9 1.1-17.6-4.7-15.2-6.4 2.7-14.2 4.1-23.1 4.1-7 0-13.4-1.1-19-3.2s-10.5-5.1-14.5-9c-4-3.9-7.2-8.7-9.4-14.2-2.3-5.6-3.4-12-3.4-19 0-6.6 1.1-12.9 3.3-18.5s5.2-10.6 9.2-14.6c3.9-4.1 8.7-7.4 14.2-9.7s11.7-3.5 18.5-3.5c6.3 0 12.1.9 17.3 2.5 5.1 1.6 9.5 4.1 13.2 7.4 3.7 3.3 6.6 7.3 8.7 12.1 2.1 4.8 3.1 10.4 3.1 16.8 0 3.7-.4 7.2-1.2 10.5-.8 3.1-1.8 5.9-3.2 8.1-1.3 2.1-2.8 3.8-4.6 5-2.1 1.4-5.2 2.2-7.6 1.4-3-1-2.4-5.2-2.2-7.7.3-3.4 1.2-6.6 1.9-9.9 1.1-5.4 2.3-10.7 3.4-16 .6-2.9 1.3-5.9 1.9-8.8.8-3.7-2-7.3-5.9-7.3h-4.4c-2.7 0-5.1 1.8-5.8 4.4-.3 1.2-.6 2.2-.6 2.2-2.2-6.8-10.3-8.7-16.7-8.6-8.4.1-16.1 4.4-21.7 10.5-.5.6-1.1 1.2-1.6 1.8-2.9 3.5-5.1 7.6-6.6 11.9-1.6 4.6-2.4 9.3-2.4 14.1 0 4.1.6 8 1.7 11.5 1.2 3.6 2.9 6.7 5.1 9.3 2.2 2.6 5 4.7 8.3 6.2s7 2.3 11 2.3c3 0 5.8-.5 8.3-1.4 2.4-.9 4.6-2 6.5-3.3 1.5-1 2.9-2.2 4-3.3.7 1.3 1.5 2.4 2.6 3.5 2.8 3 7.1 4.5 12.8 4.5 4.5 0 8.9-.9 13-2.7 4.1-1.8 7.8-4.6 10.9-8.2 3-3.6 5.5-8 7.3-13.2 1.8-5.2 2.7-11.2 2.7-17.8 0-9-1.7-17-5-23.7s-7.8-12.4-13.4-16.9C99.5 9.1 93.1 5.8 86 3.5 79.1 1.1 71.8 0 64.3 0c-8.7 0-17 1.6-24.7 4.7-7.8 3.2-14.6 7.6-20.3 13.1C13.5 23.3 8.9 30 5.6 37.5s-5 15.9-5 24.7c0 8.9 1.5 17.3 4.6 24.8 3.1 7.6 7.4 14.2 13.1 19.7zm54-42c-.7 2.7-1.7 5.3-3.1 7.7-1.4 2.3-3.1 4.2-5.3 5.7-2 1.4-4.4 2.1-7.4 2.1-1.9 0-3.4-.4-4.5-1.1-1.2-.8-2.2-1.8-2.9-3.1-.8-1.4-1.3-2.9-1.6-4.4-.3-1.6-.5-3.1-.5-4.4 0-2.8.4-5.6 1.2-8.5.8-2.8 1.9-5.4 3.4-7.6 1.5-2.2 3.2-4 5.3-5.4 1.9-1.3 4-1.9 6.5-1.9 2 0 3.6.3 4.8 1 1.2.7 2.2 1.6 2.9 2.7.8 1.2 1.3 2.6 1.7 4.1.4 1.7.6 3.5.6 5.2-.1 2.5-.3 5.1-1.1 7.9z"/></svg>