<svg xmlns="http://www.w3.org/2000/svg" viewBox="0 0 26.6 21.7"><path d="M26.6 2.6s-.1-.1-.2 0c-.8.4-1.6.6-2.5.8.9-.7 1.6-1.6 1.9-2.7 0-.1 0-.1-.1-.2h-.1c-1 .6-2.1 1-3.3 1.3-2.1-2.2-5.6-2.3-7.8-.1-1.4 1.3-2 3.2-1.6 5.1C8.7 6.4 4.8 4.3 2.1 1H2s-.1 0-.1.1C.5 3.4 1 6.5 3.2 8.2c-.7-.1-1.3-.3-1.9-.7h-.2v.2c0 2.4 1.6 4.6 3.9 5.3-.6.1-1.2.1-1.8 0-.2 0-.2 0-.2.1v.1c.7 2.1 2.6 3.6 4.8 3.8-1.8 1.4-4.1 2.1-6.4 2.1-.4 0-.9 0-1.3-.1 0 0-.1 0-.1.1s0 .1.1.2c2.5 1.6 5.4 2.5 8.4 2.5 8.4 0 15.4-6.8 15.5-15.3v-.9c1-.8 2-1.7 2.7-2.8-.1-.1-.1-.2-.1-.2z"/></svg>