<svg xmlns="http://www.w3.org/2000/svg" width="28.375" height="30.92"><path data-name="Path 2391" d="M10.681.134a4.208 4.208 0 013.24.42 3.383 3.383 0 011.288 2.749c.014 1.184 0 2.355.014 3.538-.235.038-.457.064-.692.1V3.188A2.612 2.612 0 0013.382.935 4.1 4.1 0 0010.544.77a7.015 7.015 0 00-2.769 1.044 2.741 2.741 0 00-.872 2.126v4.315c-.235.038-.457.089-.678.127 0-1.438-.014-2.877 0-4.315a3.442 3.442 0 011.094-2.686A7.779 7.779 0 0110.681.134z"/><path data-name="Path 2392" d="M15.554 1.635a5.78 5.78 0 012.8-.064 1.789 1.789 0 011.121 1.273 13.215 13.215 0 01.18 3.22c-.235.038-.457.064-.678.1-.069-1.184.222-2.457-.4-3.551-.623-.866-1.9-.586-2.824-.42a7.693 7.693 0 01-.199-.558z"/><path data-name="Path 2393" d="M11.442 3.672c.277-.9 1.315-1.26 2.188-1.515l.166.573a3.622 3.622 0 00-1.329.586 2.378 2.378 0 00-.568 1.642c-.014.815.014 1.629-.014 2.457l-.678.115a15.566 15.566 0 01.235-3.858z"/><path data-name="Path 2394" d="M22.698 6.233a2.264 2.264 0 011.163-.051c1.5.5 3 .967 4.514 1.464v21.623c-1.509.535-3.018 1.056-4.514 1.591a2.558 2.558 0 01-1.274-.089q-11.3-2.1-22.582-4.213c-.014-5.46 0-10.908 0-16.369q11.339-1.967 22.693-3.956m-11.893 7.036c-.028 1.553 0 3.118-.014 4.671h6.784v-5.524c-2.257.267-4.514.6-6.77.853m-5.552.738v3.933h5.261v-4.62c-1.758.216-3.517.458-5.261.687m-.009 4.188v3.946c1.758.229 3.5.471 5.261.687v-4.633H5.244m5.552 0c0 1.553-.014 3.118.014 4.671 2.257.255 4.514.586 6.77.853v-5.524z"/></svg>