<svg data-name="Group 886" xmlns="http://www.w3.org/2000/svg" width="18" height="18.047"><defs><clipPath id="a"><path data-name="Rectangle 67" fill="#757575" d="M0 0h18v18.046H0z"/></clipPath></defs><path data-name="Path 2283" d="M12.737 4.396v.3h-.4l-.1.6h.5l.7-.1.4-.4-.3-.1-.2-.2-.3-.5-.1-.7-.6.1-.2.3v.3l.3.2zm0 0" fill="#757575"/><path data-name="Path 2284" d="M13.037 4.268v-.4l-.3-.1-.5.1-.3.5v.4h.4zm0 0" fill="#757575"/><path data-name="Path 2285" d="M8.379 4.756l-.1.3h-.5v.3h.1v.1h.3l.2-.2.1-.2h.3l.1-.2h-.2zm0 0" fill="#757575"/><g data-name="Group 885"><g data-name="Group 883" clip-path="url(#a)"><path data-name="Path 2286" d="M7.681 5.09v.139h.185V5.09l-.093-.093zm0 0" fill="#757575"/></g><g data-name="Group 884" clip-path="url(#a)"><path data-name="Path 2287" d="M18 8.884a4.489 4.489 0 00-.046-.787 8.659 8.659 0 00-.6-2.452c-.046-.046-.046-.093-.046-.185a8.886 8.886 0 00-1.668-2.591l-.14-.139-.416-.416A9.164 9.164 0 008.977 0a8.9 8.9 0 00-6.062 2.406A5.81 5.81 0 001.9 3.517 8.788 8.788 0 000 8.977a8.98 8.98 0 0016.982 4.072 9.281 9.281 0 00.74-1.99 2.323 2.323 0 00.093-.555 8.654 8.654 0 00.139-1.573c.046.046.046 0 .046-.046zm-1.712-3.563l.046-.046c.046.139.139.278.185.416h-.231zm-1.3-1.573v-.416c.139.139.278.324.416.463l-.139.231h-.555l-.046-.139zM4.165 2.73h.185v-.046h.278v.093l-.093.139h-.37zm.278.416l.184-.046v.185l-.416.046-.046-.093zM16.889 6.71h-.648l-.416-.278-.416.046v.278h-.139l-.139-.093-.74-.185v-.463l-.925.093-.278.139h-.555l-.463.231v.463l-.925.648.093.278h.185l-.046.278-.139.046v.694l.787.879h.37v-.047h.6l.185-.185h.37l.185.185.509.046-.046.694.6 1.018-.324.6v.278l.231.231v.648l.324.416v.555h.278A8.226 8.226 0 01.787 8.977a8.43 8.43 0 01.648-3.239V5.46l.278-.37c.093-.185.231-.37.324-.555v.139l-.324.416a8.941 8.941 0 00-.324.694v.463l.324.185v.648l.324.555.278.046.045-.181-.324-.509-.046-.467h.185l.093.509.463.648-.139.185.278.463.74.185v-.092l.278.046-.046.185.231.046.37.093.509.555.648.046.046.509-.463.278v.463l-.046.278.648.787.046.278.231.046a4.847 4.847 0 01.509.37v1.434l.185.046-.139.648.278.37-.046.648.37.694.509.416h.509l.046-.139-.37-.324v-.139l.046-.185v-.185h-.231l-.139-.139.185-.185.046-.139-.231-.046v-.139l.324-.046.509-.231.185-.324.509-.648-.139-.509.139-.28h.463l.324-.231.093-.972.37-.463.046-.278-.231-.185-.231-.37h-.74l-.555-.231-.046-.416-.185-.324h-.511l-.324-.463-.278-.139v.139l-.511.049-.185-.231-.509-.093-.416.463-.6-.139-.046-.74-.463-.093.185-.37-.046-.232-.648.419-.416-.046-.139-.324.092-.33.231-.416.51-.274h.972v.278l.37.185-.046-.509.231-.278.509-.324.046-.231.509-.509.559-.278h-.1l.37-.324.139.046.046.093.145-.139h-.095l-.139-.046v-.232l.093-.042h.185l.093.046.093.139h.139l.231-.05.046-.135h.046v.139l-.139.093v.139l.463.139h.093v-.19l-.37-.185v-.093l.324-.093v-.277l-.324-.185v-.509l-.416.231h-.14v-.37l-.6-.139-.231.185v.555l-.416.139-.185.37-.188.051v-.467l-.416-.046-.185-.187-.093-.324.74-.416.37-.093.046.231h.185v-.137l.231-.046v-.046l-.091-.046v-.139h.278l.138-.184.046-.046.555-.046.231.185-.648.324.787.185.093-.278h.37l.139-.231-.231-.046v-.233l-.786-.324-.555.046-.324.139v.37L7.219 2.5v-.186l.324-.278-.556-.046-.139.046-.048.185.139.046-.046.185h-.37l-.046.139h-.508s0-.278-.046-.278h.416l.324-.278-.185-.045-.231.231h-.37l-.185-.37h-.463l-.509.37h.463l.046.139-.139.093h.51l.093.185h-.557L5.09 2.5l-.37-.093-.139-.093h-.416A8.345 8.345 0 019.023.74a8.254 8.254 0 015.46 2.082l-.139.139-.37.139-.139.185.046.185.185.046.139.278.278-.093.046.416h-.093l-.278-.046-.278.046-.278.416-.416.046-.046.37.186.051-.046.231-.416-.093-.37.093-.094.229.046.463.231.093h.648l.093-.185.416-.509.278.046.278-.231.046.185.648.416-.093.093h-.278l.093.139.185.046.231-.093v-.231l.093-.046-.093-.093-.416-.231L14.715 5h.37l.093.093.324.278v.324l.324.324.139-.463.231-.139.046.37.231.231h.416a1.18 1.18 0 000 .694zM4.9 4.072l.231-.093.185.046-.041.275-.231.046zm1.157.648v.18h-.504l-.185-.046.046-.139.231-.093h.324v.098h.093zm.231.231v.139l-.139.093-.139.046v-.278zm-.139-.093v-.184l.185.139zm.046.416v.139l-.093.139H5.83l.046-.185h.139l.046-.046zm-.648-.324h.283l-.37.509-.139-.093.046-.185zm1.111.278v.139h-.272l-.093-.093v-.138zM6.432 5l.092-.1.139.1-.139.093zm10.6 2.129c.046 0 .046.046.046.093zm0 0" fill="#757575"/></g></g><path data-name="Path 2288" d="M3.39 5.675v.6c.2-.5.4-.9.6-1.3zm0 0" fill="#757575"/></svg>