<svg xmlns="http://www.w3.org/2000/svg" viewBox="0 0 16 19.6"><path d="M.8 7.2C-.8 10 .2 14.4 2 17c.9 1.3 1.8 2.5 3.1 2.5h.1c.5 0 1-.2 1.4-.4.5-.3 1.1-.4 1.7-.4.6 0 1.1.1 1.6.4.5.2 1 .4 1.6.4 1.4 0 2.3-1.3 3.1-2.4.6-.8 1-1.8 1.3-2.8 0-.1 0-.2-.1-.2-1.5-.6-2.5-2.1-2.5-3.7 0-1.4.8-2.8 2-3.5.1 0 .1-.1.1-.2-.8-1.2-2.2-1.9-3.6-2h-.3c-.8 0-1.6.2-2.3.6-.3.1-.7.2-1.1.2-.4 0-.8-.1-1.1-.3-.6-.3-1.3-.5-2-.5-1.8 0-3.3 1-4.2 2.5zm11-7.2c-1.1.1-2.2.7-2.9 1.5-.8.8-1.1 2-1.1 3.1 0 .1.1.1.1.1h.2c1.1-.1 2.1-.6 2.8-1.4.8-.9 1.1-2 1-3.2.1-.1 0-.1-.1-.1z"/></svg>