<svg xmlns="http://www.w3.org/2000/svg" viewBox="0 0 83.3 81.3"><path d="M78.7 73.1h-4.5v-4.6h-2.7V36.9h2.7v-4.6h3.6V27h5.4L41.6 0 0 27h5.4v5.4H9V37h2.7v31.6H9.1v4.6H4.6v5.4H.9v2.7h81.5v-2.7h-3.6v-5.5h-.1zm-54.2-4.5V36.9h2.7v-4.6h5.4v4.6h2.7v31.6h-2.7v4.6h-5.4v-4.6h-2.7zm13.5 0V36.9h7.3v31.6H38zm-2.7-34.4v-1.8H48v1.8H35.3zm0 37.1H48v1.8H35.3v-1.8zM48 68.6V36.9h2.7v-4.6h5.4v4.6h2.7v31.6h-2.7v4.6h-5.4v-4.6l-2.7.1zm10.8 2.7h12.7v1.8H58.8v-1.8zm10-2.7h-7.3V36.9h7.3v31.7zm2.7-34.4H58.8v-1.8h12.7v1.8zm-29.9-31l32.5 21H9.2l32.4-21zM8.1 29.7V27H75v2.7H8.1zm16.4 2.7v1.8H11.8v-1.8h12.7zm-10 4.5h7.3v31.6h-7.3V36.9zm-2.7 34.4h12.7v1.8H11.8v-1.8zm-4.5 7.2v-2.7H76v2.7H7.3z"/><path d="M41.607 9.263c-3.1 0-5.7 2.5-5.7 5.7s2.5 5.8 5.7 5.8 5.7-2.5 5.7-5.7c.1-3.2-2.5-5.8-5.7-5.8zm0 8.8c-1.7 0-3-1.4-3-3s1.4-3 3-3 3 1.4 3 3c0 1.7-1.3 3-3 3z"/></svg>