<svg xmlns="http://www.w3.org/2000/svg" width="16" height="19.594"><defs><clipPath id="a"><path data-name="Rectangle 65" fill="#757575" d="M0 0h16v19.594H0z"/></clipPath></defs><g data-name="Group 880"><g data-name="Group 878"><g data-name="Group 876" clip-path="url(#a)" transform="translate(0 .001)"><path data-name="Path 2280" d="M.824 7.163c-1.648 2.866-.6 7.212 1.225 9.855.912 1.313 1.833 2.5 3.1 2.5h.072a3.873 3.873 0 001.441-.384 3.9 3.9 0 011.7-.4 3.728 3.728 0 011.625.392 3.466 3.466 0 001.553.376c1.425-.024 2.3-1.3 3.066-2.433a10.71 10.71 0 001.345-2.753l.008-.016a.164.164 0 00-.088-.2l-.008-.008a4.092 4.092 0 01-2.473-3.738 4.2 4.2 0 011.986-3.519l.016-.008a.159.159 0 00.048-.224 4.589 4.589 0 00-3.634-1.969 3.983 3.983 0 00-.32-.016 6.333 6.333 0 00-2.281.568 3.671 3.671 0 01-1.089.332 3.6 3.6 0 01-1.129-.328 5.419 5.419 0 00-1.993-.5h-.048A4.849 4.849 0 00.824 7.163zm0 0" fill="#757575"/></g><g data-name="Group 877" clip-path="url(#a)" transform="translate(0 .001)"><path data-name="Path 2281" d="M11.797-.016a4.47 4.47 0 00-2.945 1.513 4.159 4.159 0 00-1.055 3.097.154.154 0 00.144.136 1.809 1.809 0 00.208.008 3.771 3.771 0 002.777-1.425A4.376 4.376 0 0011.958.128a.157.157 0 00-.161-.144zm0 0" fill="#757575"/></g></g></g></svg>