<svg xmlns="http://www.w3.org/2000/svg" width="29.498" height="22.945"><path d="M6.165.006a.328.328 0 00-.266.328v3.933H.327A.328.328 0 000 4.591v15.24a3.16 3.16 0 003.278 3.114h23.146a3.005 3.005 0 003.076-3.114V.331a.328.328 0 00-.331-.325H6.227a.247.247 0 00-.061 0zm.389.656h22.288v19.169a2.29 2.29 0 01-2.417 2.458H5.192a2.95 2.95 0 001.362-2.458zm3.871 3.605a.328.328 0 00-.266.328v5.9a.328.328 0 00.328.328h14.421a.328.328 0 00.328-.328v-5.9a.328.328 0 00-.328-.328H10.487a.247.247 0 00-.061-.004zm-9.771.656H5.9v14.908a2.481 2.481 0 01-2.417 2.448.342.342 0 00-.061.01h-.145a2.471 2.471 0 01-2.622-2.458zm10.16 0h13.767v5.244H10.815zm-.389 9.177a.33.33 0 10.061.656h14.423a.328.328 0 100-.656H10.488a.247.247 0 00-.061 0zm0 3.933a.33.33 0 00.061.656h14.423a.328.328 0 100-.656H10.488a.247.247 0 00-.061 0z" fill="#2199a1"/></svg>