<svg xmlns="http://www.w3.org/2000/svg" viewBox="0 0 34.4 30.1"><path d="M.602 8.54l-.3-.6 16.7-8 16.9 8-.3.6-16.6-7.9-16.4 7.9z"/><path d="M13.169 9.244v7.2h7.7v-7.3c-2.2-1.7-5.4-1.7-7.7.1z"/><path d="M24.269 16.444c0-2.7-1.1-5.3-3.2-7.1v7.1h1.5v2.7h-11.1v-2.6h1.5v-7c-2 1.8-3.1 4.3-3.1 7h.7v.8h-.7v12.3h4.8v-6.5h4.9v6.4h4.8v-12.3h-.5v-.8h.4zm-10.7 11.8h-2.5v-4h2.5v4zm9.6 0h-2.5v-4h2.5v4zm-13.7 1.3v-12.3h-8.7v12.3h8.7zm-4.7-1.3h-2.5v-4h2.5v4zm0-5.9h-2.5v-4h2.5v4zm3.5 5.9h-2.5v-4h2.5v4zm-2.4-5.9v-4h2.5v4h-2.5z"/><path d="M9.469 16.444c0-2.8 1.2-5.5 3.2-7.3l.2-.2c2.4-1.9 5.8-2 8.2-.1.1.1.2.1.3.2 2.1 1.9 3.3 4.6 3.3 7.4h8.9v-7.4l-16.5-7.8-16.3 7.8v7.4h8.7zm19.4-3.9c1.6-.1 2.9 1.1 3 2.6h-6c.2-1.6 1.5-2.7 3-2.6zm-23.6 0c1.6-.1 2.9 1.1 3 2.6h-6c.1-1.6 1.5-2.7 3-2.6zm19.5 4.7v12.3h8.8v-12.3h-8.8zm3.6 11h-2.5v-4h2.5v4zm0-5.9h-2.5v-4h2.5v4zm3.5 5.9h-2.5v-4h2.5v4zm0-5.9h-2.5v-4h2.5v4z"/><path d="M.002 29.34h34.4v.8H.002zm12.196-12.378h.6v.2h-.2v1.5h-.2v-1.5h-.2v-.2zm.7 0h.4c.1 0 .2 0 .2.1.1.1.1.1.1.2v.4c0 .1-.1.1-.1.1s.1 0 .1.1v.9h-.2v-.8h-.2v.8h-.2l-.1-1.8zm.5.4v-.2h-.2v.6h.2v-.4zm.6-.4h.2l.3 1.7h-.2v-.3h-.3v.3h-.2l.2-1.7zm0 1.2h.3l-.1-.9-.2.9zm.8-1.2h.2v1.7h-.2v-1.7zm1 0h.2v1.7h-.1l-.4-1.2v1.1h-.2v-1.7h.2l.4 1.2v-.5l-.1-.6zm.9.5v-.1c0-.1 0-.2.1-.3.1-.1.2-.1.3-.1.1 0 .3.1.3.2v.4h-.2v-.4h-.1s-.1 0-.1.1v.3s0 .1.1.1l.1.1c.1.1.2.3.2.5 0 .1 0 .2-.1.3-.1.1-.3.2-.5 0l-.1-.1v-.5h.2v.5l.1.1h.1v-.3c0-.1-.1-.2-.2-.3l-.1-.1c0-.2 0-.3-.1-.4zm.8-.5h.6v.2h-.2v1.5h-.2v-1.5h-.2v-.2zm.9 0h.2l.3 1.7h-.2v-.3h-.3v.3h-.2l.2-1.7zm0 1.2h.3l-.1-.9-.2.9zm.6-1.2h.6v.2h-.2v1.5h-.2v-1.5h-.2v-.2zm.8 0h.2v1.7h-.2v-1.7zm.4.5c0-.1 0-.3.1-.4.1-.1.2-.1.2-.1.1 0 .3.1.3.2v1.1c0 .1 0 .3-.1.4-.1.1-.2.1-.3.1-.1 0-.2 0-.3-.1-.1-.1-.1-.3-.1-.4l.2-.8zm.5-.1v-.2l-.1-.1s-.1 0-.1.1v1.3c0 .1.1.1.2.1l.1-.1v-.3l-.1-.8zm1-.4h.2v1.7h-.1l-.4-1.2v1.1h-.2v-1.7h.2l.4 1.2v-.5l-.1-.6z"/></svg>