<svg xmlns="http://www.w3.org/2000/svg" viewBox="0 0 215 215"><path d="M107.5 4c-6.3 0-12.7.7-18.8 2.1-6 1.4-11.9 3.4-17.6 6-5.6 2.6-10.9 5.8-15.9 9.5-5 3.8-9.6 8-13.8 12.6-4.3 4.7-8.1 9.9-11.4 15.3-3.4 5.6-6.3 11.5-8.6 17.6-2.4 6.3-4.2 12.8-5.4 19.4-1.3 6.9-1.9 13.9-1.9 20.9 0 7 .6 14 1.9 20.9 1.2 6.6 3 13.1 5.4 19.4 2.3 6.1 5.2 12 8.6 17.6 3.3 5.4 7.1 10.6 11.4 15.3 4.2 4.6 8.8 8.9 13.8 12.6 5 3.7 10.3 6.9 15.9 9.5 5.6 2.6 11.5 4.7 17.5 6 6.2 1.4 12.5 2.1 18.8 2.1 6.3 0 12.7-.7 18.8-2.1 6-1.4 11.9-3.4 17.6-6 5.6-2.6 10.9-5.8 15.9-9.5 5-3.8 9.6-8 13.8-12.6 4.3-4.7 8.1-9.9 11.4-15.3 3.4-5.6 6.3-11.5 8.6-17.6 2.4-6.3 4.2-12.8 5.4-19.4 1.3-6.8 1.9-13.8 1.9-20.9 0-7-.6-14-1.9-20.9-1.2-6.6-3-13.1-5.4-19.4-2.3-6.1-5.2-12-8.6-17.6-3.3-5.4-7.1-10.6-11.4-15.3-4.2-4.6-8.8-8.9-13.8-12.6-5-3.7-10.3-6.9-15.9-9.5-5.6-2.6-11.5-4.7-17.5-6-6.1-1.4-12.5-2.1-18.8-2.1zm0 211c-7.3 0-14.6-.7-21.7-2.2-6.9-1.4-13.7-3.5-20.2-6.3-6.4-2.7-12.5-6-18.3-9.9-5.7-3.9-11-8.3-15.9-13.1-4.9-4.9-9.3-10.2-13.1-15.9-3.9-5.8-7.2-11.9-9.9-18.3-2.7-6.5-4.8-13.3-6.3-20.2C.7 122 0 114.8 0 107.5c0-7.3.7-14.6 2.2-21.7 1.4-6.9 3.5-13.7 6.3-20.2 2.7-6.4 6-12.5 9.9-18.3 3.9-5.7 8.3-11 13.1-15.9 4.9-4.9 10.2-9.3 15.9-13.1 5.8-3.9 11.9-7.2 18.3-9.9C72.2 5.7 79 3.6 85.9 2.1 93 .7 100.2 0 107.5 0c7.3 0 14.6.7 21.7 2.2 6.9 1.4 13.7 3.5 20.2 6.3 6.4 2.7 12.5 6 18.3 9.9 5.7 3.9 11 8.3 15.9 13.1 4.9 4.9 9.3 10.2 13.1 15.9 3.9 5.8 7.2 11.9 9.9 18.3 2.7 6.5 4.8 13.3 6.3 20.2 1.5 7.1 2.2 14.4 2.2 21.7 0 7.3-.7 14.6-2.2 21.7-1.4 6.9-3.5 13.7-6.3 20.2-2.7 6.4-6 12.5-9.9 18.3-3.9 5.7-8.3 11-13.1 15.9-4.9 4.9-10.2 9.3-15.9 13.1-5.8 3.9-11.9 7.2-18.3 9.9-6.5 2.7-13.3 4.8-20.2 6.3-7.2 1.3-14.4 2-21.7 2z"/><path d="M146.4 128.9c0 .7-.5 1.1-1.1 1.1H70.8c-.7 0-1.1-.4-1.1-1.1V77c0-.7.5-1.1 1.1-1.1h74.5c.7 0 1.1.4 1.1 1.1v51.9zm-33.9 19.2h-9v-15.8h9v15.8zM70.8 73.6c-1.9 0-3.4 1.5-3.4 3.4v51.9c0 1.9 1.5 3.4 3.4 3.4h30.5v15.8H94c-.7 0-1.1.4-1.1 1.1 0 .7.5 1.1 1.1 1.1h28.2c.7 0 1.1-.4 1.1-1.1 0-.7-.5-1.1-1.1-1.1h-7.3v-15.8h30.5c1.9 0 3.4-1.5 3.4-3.4V77c0-1.9-1.5-3.4-3.4-3.4H70.8z"/><path d="M90.2 116.3c-.7 0-1.1.4-1.1 1.1v4.7c0 .7.5 1.1 1.1 1.1s1.1-.4 1.1-1.1v-4.6c0-.6-.6-1.2-1.1-1.2zm7.1-5c-.7 0-1.1.4-1.1 1.1v9.7c0 .7.5 1.1 1.1 1.1s1.1-.4 1.1-1.1v-9.7c0-.6-.4-1.1-1.1-1.1zm7.1-2.5c-.7 0-1.1.4-1.1 1.1v12.2c0 .7.5 1.1 1.1 1.1.7 0 1.1-.4 1.1-1.1V110c0-.6-.4-1.2-1.1-1.2zm7.2 3.4c-.7 0-1.1.4-1.1 1.1v8.8c0 .7.5 1.1 1.1 1.1s1.1-.4 1.1-1.1v-8.8c0-.5-.5-1.1-1.1-1.1zm7.1-5.7c-.7 0-1.1.4-1.1 1.1v14.6c0 .7.5 1.1 1.1 1.1.7 0 1.1-.4 1.1-1.1v-14.6c.1-.7-.4-1.1-1.1-1.1zm7.1-6.5c-.7 0-1.1.4-1.1 1.1v21c0 .7.5 1.1 1.1 1.1.7 0 1.1-.4 1.1-1.1v-21c.1-.5-.4-1.1-1.1-1.1zm7.4-16.3l-9.1-1.9c-.6-.1-1.2.2-1.4.9-.1.6.2 1.2.9 1.4l6.5 1.4-18.5 12.4-6.5-3.2c-.3-.1-.8-.1-1.1.1l-23 14.7c-.6.3-.7 1-.3 1.6.2.3.6.6.9.6.2 0 .5-.1.6-.2L104.5 97l6.5 3.2c.3.2.8.1 1.1-.1l19.1-12.8-1.4 6.5c-.1.6.2 1.2.9 1.4h.2c.6 0 1-.3 1.1-.9l1.9-9.1c.3-.9-.2-1.4-.7-1.5z"/></svg>