<svg version="1.1" id="Layer_1" xmlns="http://www.w3.org/2000/svg" x="0" y="0" viewBox="0 0 112.7 22.4" xml:space="preserve"><style>.st0{fill:#317764}</style><g id="LOGO-LK-Comstock-A-RW-color"><g id="Layer_1_1_"><path id="Path_31" class="st0" d="M28.5 11V1.2h2v8.2H34V11h-5.5z"/><path id="Path_32" class="st0" d="M36.7 8.9V11h-1.8V8.9h1.8z"/><path id="Path_33" class="st0" d="M40.2 1.2v3.9l2.5-3.9h2.1l-2.7 4.2 3 5.6h-2.2l-2-4-.7 1.1V11h-2V1.2h2z"/><path id="Path_34" class="st0" d="M47.4 8.9V11h-1.8V8.9h1.8z"/><path id="Path_35" class="st0" d="M55.9 4.5c0-1.4-.3-2.1-1.2-2.1-1 0-1.2 1-1.2 3.8 0 3 .4 3.5 1.3 3.5.7 0 1.2-.4 1.2-2.5h2c0 2.1-.5 4-3.1 4-3 0-3.3-2.1-3.3-5.1S51.8 1 54.8 1c2.8 0 3 2.1 3 3.5h-1.9z"/><path id="Path_36" class="st0" d="M62.2 1c3 0 3.3 2.1 3.3 5.1s-.4 5.1-3.3 5.1-3.3-2.1-3.3-5.1.4-5.1 3.3-5.1zm0 8.8c1.2 0 1.4-1 1.4-3.7s-.2-3.7-1.4-3.7-1.4 1-1.4 3.7.2 3.7 1.4 3.7z"/><path id="Path_37" class="st0" d="M66.8 1.2h2.9l1.4 6.9 1.4-6.9h2.9V11h-1.8V3.2L71.9 11h-1.5l-1.7-7.9V11h-1.8V1.2z"/><path id="Path_38" class="st0" d="M78.5 8v.3c0 .9.3 1.5 1.3 1.5.6 0 1.2-.5 1.2-1.1v-.1c0-.9-.5-1.2-1.8-1.7-1.8-.6-2.6-1.3-2.6-3 0-1.9 1.2-2.9 3-2.9s3 .8 3 2.6v.3h-1.9c0-.9-.3-1.5-1.1-1.5-.6-.1-1.1.3-1.1.9v.3c0 .6.2 1 1 1.3l1.5.7c1.2.3 2 1.4 1.9 2.6 0 2.1-1.3 3-3.4 3-2.2 0-3.1-1-3.1-2.9V8h2.1z"/><path id="Path_39" class="st0" d="M89.8 1.2v1.6h-2.2V11h-2V2.8h-2.1V1.2h6.3z"/><path id="Path_40" class="st0" d="M93.8 1c3 0 3.3 2.1 3.3 5.1s-.4 5.1-3.3 5.1-3.3-2.1-3.3-5.1.4-5.1 3.3-5.1zm0 8.8c1.2 0 1.4-1 1.4-3.7s-.2-3.7-1.4-3.7-1.4 1-1.4 3.7.3 3.7 1.4 3.7z"/><path id="Path_41" class="st0" d="M102.6 4.5c0-1.4-.3-2.1-1.2-2.1-1 0-1.2 1-1.2 3.8 0 3 .4 3.5 1.3 3.5.7 0 1.2-.4 1.2-2.5h2c0 2.1-.5 4-3.1 4-3 0-3.3-2.1-3.3-5.1s.2-5.1 3.2-5.1c2.8 0 3 2.1 3 3.5h-1.9z"/><path id="Path_42" class="st0" d="M107.7 1.2v3.9l2.5-3.9h2.1l-2.7 4.2 3 5.6h-2.2l-2-4-.7 1.1V11h-2V1.2h2z"/><path id="Path_43" class="st0" d="M25.3 8.7V9c0 4.7-5.6 8.6-12.4 8.6S.5 13.8.5 9 6 .5 12.9.5c5.1 0 9.6 2.1 11.5 5.3l.2-.3h-4.7l.2.1c-1.9-4-6.7-5.7-10.7-3.8S3.8 8.5 5.7 12.5s6.7 5.7 10.7 3.8C19.2 15 21 12.2 21 9.1v-.5l-.2.2h4.8l-.3-.1zm-4.9 0V9c0 4.2-3.4 7.6-7.5 7.6-4.2 0-7.6-3.4-7.6-7.5 0-4.2 3.4-7.6 7.5-7.6 2.9 0 5.6 1.7 6.8 4.3l.1.1H25l-.2-.3C22.8 2.2 18.1 0 12.9 0 5.8 0 0 4.1 0 9s5.8 9 12.9 9 12.9-4 12.9-9v-.6h-5.3l-.1.3z"/><path id="Path_44" class="st0" d="M6 9c0 2.3 1.2 4.5 3.1 5.8V8.4H6V9m.7-3.1h2.4V3.2c-1 .7-1.8 1.6-2.4 2.7m13.1 2.5h-8.2v7.4c.4.1.9.1 1.3.1 3.8 0 6.9-3.1 6.9-6.9.1-.2.1-.4 0-.6m-6.9-6.3c-.4 0-.9 0-1.3.1v3.7h7.5c-1.2-2.3-3.6-3.8-6.2-3.8"/><path id="Path_45" class="st0" d="M7.4 6.9c0-.2-.2-.3-.3-.3-.3 0-.4.3-.4.5s.1.5.4.5c.2 0 .3-.1.3-.3h.3c.1.4-.2.7-.6.7-.4 0-.8-.4-.8-.8s.4-.8.8-.8c.3 0 .6.2.7.6l-.4-.1z"/><path id="Path_46" class="st0" d="M8.7 7.7c.3 0 .4-.3.4-.5s-.1-.5-.4-.5-.4.2-.4.5.1.5.4.5m0-1.3c.4 0 .7.3.8.7v.1c0 .4-.3.8-.7.8-.4 0-.8-.3-.8-.7v-.1c-.1-.4.2-.8.7-.8"/><path id="Path_47" class="st0" d="M9.7 6.4h.5l.4 1.1.3-1.1h.5v1.5h-.3V6.8l-.4 1.1h-.3L10 6.8v1.1h-.3V6.4z"/><path id="Path_48" class="st0" d="M11.9 7.4c0 .2.2.3.3.3.1 0 .3 0 .3-.2s-.2-.2-.5-.3-.5-.1-.5-.4c0-.3.3-.5.6-.5s.6.1.6.5h-.3c0-.2-.1-.2-.3-.2-.1 0-.2 0-.2.2s.1.1.5.2c.1 0 .5.1.5.4 0 .3-.2.5-.6.5-.3 0-.7-.2-.7-.5h.3z"/><path id="Path_49" class="st0" d="M13.5 6.7H13v-.3h1.3v.3h-.5V8h-.3V6.7z"/><path id="Path_50" class="st0" d="M15.2 7.7c.3 0 .4-.3.4-.5s-.1-.5-.4-.5-.4.3-.4.5.1.5.4.5m0-1.3c.4 0 .7.3.8.7v.1c0 .4-.4.8-.8.8s-.8-.3-.8-.7v-.1c0-.4.3-.8.8-.8-.1 0-.1 0 0 0"/><path id="Path_51" class="st0" d="M17.2 6.9c0-.2-.2-.3-.3-.3-.3 0-.4.3-.4.5s.1.5.4.5c.2 0 .3-.1.3-.3h.3c0 .4-.3.6-.7.6-.4 0-.8-.4-.8-.8s.4-.8.8-.8c.3 0 .6.2.7.6h-.3z"/><path id="Path_52" class="st0" d="M17.8 6.4h.3V7l.6-.6h.4l-.5.6.7.9h-.4l-.5-.7-.2.2v.5h-.3V6.4z"/><path id="Path_53" class="st0" d="M10.9 3.2c0-.2-.2-.3-.3-.3-.3 0-.4.3-.4.5s.1.6.4.6c.2 0 .4-.2.4-.4h.3c0 .4-.3.7-.7.6-.4 0-.8-.3-.8-.7v-.1c0-.4.3-.8.7-.8h.1c.3 0 .6.2.7.6h-.4z"/><path id="Path_54" class="st0" d="M10.5 5.9c.3 0 .4-.3.4-.5s-.1-.5-.4-.5-.4.3-.4.5.1.5.4.5m0-1.4c.4 0 .8.3.8.7v.1c0 .4-.3.8-.7.8-.4 0-.8-.3-.8-.7v-.1c-.1-.4.3-.7.7-.8"/><path id="Path_55" class="st0" d="M10.3 9.1h.3c.2 0 .3 0 .3-.2s-.1-.2-.3-.2h-.3v.4zm-.3-.8h.7c.3 0 .5.2.5.5s-.2.5-.5.5h-.4v.6H10V8.3z"/><path id="Path_56" class="st0" d="M10.3 11.2h.4l-.2-.6-.2.6zm.1-1h.3l.6 1.6H11l-.1-.3h-.6l-.1.3h-.4l.6-1.6z"/><path id="Path_57" class="st0" d="M9.9 12.1h.3l.7 1v-1h.3v1.6h-.3l-.6-1v1h-.4v-1.6z"/><path id="Path_58" class="st0" d="M10.4 15l-.6-1h.4l.4.6.4-.6h.4l-.6 1v.6h-.3V15z"/><path id="Path_59" class="st0" d="M21.3 17.3h.2c.1 0 .2 0 .2-.2s-.1-.1-.2-.1h-.2v.3zm-.2-.4h.4c.2 0 .3.1.3.3 0 .1-.1.2-.2.3l.3.4h-.2l-.3-.4h-.2v.4h-.1v-1zm.3 1.1c.4 0 .7-.3.7-.7 0-.4-.3-.7-.7-.7-.4 0-.7.3-.7.7 0 .4.3.7.7.7 0 .1 0 .1 0 0zm0-1.4c0-.4-.4-.8-.8-.8s-.8.4-.8.8.4.8.8.8c.5 0 .8-.4.8-.8z"/><path id="Path_60" class="st0" d="M29.7 15.7h.9L32 21h-.7l-.4-1.5h-1.7l-.4 1.5h-.7l1.6-5.3zm-.4 3.4h1.4l-.7-2.6-.7 2.6z"/><path id="Path_61" class="st0" d="M34.1 15.7h1.7c.7-.1 1.3.4 1.4 1.1v.2c0 .6-.2 1.2-.8 1.3.4.1.8.5.8.9v.9c0 .6.1.7.3.8h-.8c-.1-.2-.2-.5-.2-.8v-.8c-.1-.7-.5-.8-.8-.8h-.9v2.4h-.7v-5.2zm.7 2.5h.7c.4 0 1.1 0 1.1-1 0-.5-.3-.9-1-.9h-.8v1.9z"/><path id="Path_62" class="st0" d="M37.9 18.3c0-.9.4-1.3 1.3-1.3 1.2 0 1.2.7 1.2 1.1v2.3c0 .2 0 .3.2.3h.2v.4h-.4c-.2 0-.5 0-.6-.5-.2.3-.6.6-1 .6-.6 0-1.1-.4-1.1-.9v-.2c-.1-.5.3-1 .8-1.1l.8-.3c.5-.1.5-.3.5-.6s-.2-.6-.6-.6h-.1c-.4 0-.7.3-.7.7v.1h-.5zm1.9.6c-.2.2-.8.3-1.1.5-.2.1-.3.4-.3.6 0 .4.1.7.6.7.4 0 .8-.3.8-.8v-1z"/><path id="Path_63" class="st0" d="M41.4 15.7h.6v.7h-.6v-.7zm0 1.4h.6v4h-.6v-4z"/><path id="Path_64" class="st0" d="M42.9 15.7h.6V21h-.6v-5.3z"/><path id="Path_65" class="st0" d="M44 15.7h.7l.8 4.4.8-4.4h.8l.8 4.4.8-4.4h.7L48.3 21h-.8l-.7-4.3L46 21h-.8L44 15.7z"/><path id="Path_66" class="st0" d="M50.9 17c1.2 0 1.4 1 1.4 2.1s-.3 2.1-1.4 2.1-1.4-1-1.4-2.1.2-2.1 1.4-2.1zm.8 2.1c0-.9-.1-1.6-.8-1.6s-.8.7-.8 1.6.1 1.6.8 1.6.8-.8.8-1.6z"/><path id="Path_67" class="st0" d="M52.9 17.1h.6v.6c.2-.4.4-.7.9-.7h.3v.6h-.3c-.5 0-.9.5-.8.9V21H53v-3.9z"/><path id="Path_68" class="st0" d="M58.1 21.1h-.7l-1.1-2-.5.6v1.4h-.6v-5.3h.6V19l1.4-1.8h.7l-1.2 1.5 1.4 2.4z"/><path id="Path_69" class="st0" d="M60.2 18.2c0-.5-.1-.8-.6-.8-.3-.1-.6.2-.7.5v.1c0 .5.5.6 1 .7s1 .3 1 1.1c.1.6-.4 1.2-1.1 1.3h-.2c-.7.1-1.3-.4-1.4-1.1v-.4h.6c0 .5.1.9.7.9.3 0 .6-.2.7-.6v-.1c0-.5-.5-.7-1-.8s-1-.3-1-1.1c0-.7.6-1.1 1.3-1.1 1.2 0 1.2.8 1.2 1.3l-.5.1z"/><path id="Path_70" class="st0" d="M66.6 19.2c-.1 1-.5 1.9-1.6 1.9-1.5 0-1.7-1.4-1.7-2.8s.2-2.8 1.7-2.8c1.1 0 1.5.6 1.6 1.7h-.7c0-.6-.2-1.1-.9-1.1-.9 0-1 1-1 2.2s.1 2.2 1 2.2c.8 0 .9-.7.9-1.4l.7.1z"/><path id="Path_71" class="st0" d="M68.4 17c1.2 0 1.4 1 1.4 2.1s-.3 2.1-1.4 2.1-1.4-1-1.4-2.1.3-2.1 1.4-2.1zm.8 2.1c0-.9-.1-1.6-.8-1.6s-.8.7-.8 1.6.1 1.6.8 1.6.8-.8.8-1.6z"/><path id="Path_72" class="st0" d="M70.6 17.1h.6v.5c.2-.4.6-.6 1-.6s.8.2.9.6c.2-.4.5-.6.9-.6 1.1 0 1.1.8 1.1 1.3v2.8h-.6v-2.7c0-.3 0-.8-.5-.8-.4 0-.7.3-.7.7v2.9h-.6v-2.8c0-.3 0-.8-.5-.8-.4 0-.7.3-.8.7v2.9h-.6l-.2-4.1z"/><path id="Path_73" class="st0" d="M75.9 17.1h.6v.5c.1-.4.5-.6.9-.6.9 0 1.3.8 1.3 2 0 .9-.3 2.2-1.3 2.2-.4 0-.7-.2-.8-.6v1.8H76v-5.3zm1.4 3.5c.6 0 .7-.6.7-1.6 0-.9-.1-1.5-.7-1.5-.7 0-.8.7-.8 1.6 0 .7.1 1.5.8 1.5z"/><path id="Path_74" class="st0" d="M79.3 18.3c0-.9.4-1.3 1.3-1.3 1.2 0 1.2.7 1.2 1.1v2.3c0 .2 0 .3.2.3h.1v.4h-.4c-.2 0-.5 0-.6-.5-.2.4-.6.6-1 .6-.6 0-1.1-.4-1.1-.9v-.2c-.1-.5.3-1 .8-1.1l.8-.3c.5-.1.5-.3.5-.6s-.2-.6-.6-.6h-.1c-.4 0-.7.3-.7.7v.1h-.4zm1.9.6c-.2.2-.8.3-1.1.5-.2.1-.3.4-.3.6 0 .4.1.7.6.7.4 0 .8-.3.8-.8v-1z"/><path id="Path_75" class="st0" d="M82.7 17.1h.6v.5c.2-.4.6-.6 1-.6 1.1 0 1.1.8 1.1 1.3v2.8h-.6v-2.8c0-.3 0-.8-.6-.8-.4 0-.8.3-.8.8v2.8h-.6l-.1-4z"/><path id="Path_76" class="st0" d="M85.9 17.1h.7l.8 3.2.7-3.2h.7l-1.2 4.3c-.1.6-.3 1-1.1 1H86v-.5h.4c.2 0 .4-.2.5-.4l.1-.4-1.1-4z"/></g></g></svg>