<svg version="1.1" id="Layer_1" xmlns="http://www.w3.org/2000/svg" x="0" y="0" viewBox="0 0 86.2 21.4" xml:space="preserve"><style>.st0{fill:#231f20}.st1{fill:#007bbd}</style><g id="LOGO-RW-PNR-color"><g id="Layer_1_1_"><path id="Path_77" class="st0" d="M25.2 4.9h3.1c1 .1 2-.6 2.1-1.6v-.4c0-1.3-.9-2-2.2-2h-3.1v4zM24.4.2h4.2c1.4-.1 2.7.9 2.8 2.3v.4c.1 1.4-1 2.7-2.4 2.8h-3.8v4.1h-.8V.2z"/><path id="Path_78" class="st0" d="M32.4.2h1L39 8.3V.2h1v9.6h-1l-5.5-8.2-.1 8.2h-.9L32.4.2z"/><path id="Path_79" class="st0" d="M42.6 4.8H46c1 .1 2-.7 2.1-1.8v-.1c0-1.2-.8-1.9-2.1-1.9h-3.4v3.8zM41.7.2h4.4c1.5 0 2.8.8 2.8 2.5.1 1.2-.7 2.3-1.9 2.5 1.3.2 1.6 1 1.7 2.2-.1.8.1 1.7.4 2.5h-1c-.2-.5-.3-1-.3-1.5-.2-1.4-.2-2.9-2-2.8h-3.4v4.3h-.9l.2-9.7z"/><path id="Path_80" class="st0" d="M26.5 17h1.3c.4 0 1-.1 1-.7 0-.5-.3-.7-1.1-.7h-1.2V17zm-2.3-3.2h4.4c1.2-.1 2.3.7 2.4 1.9v.2c.1.8-.4 1.6-1.2 1.9.8.2 1 .9 1.2 1.9 0 .5 0 1.1.3 1.6H29c-.2-.3-.3-.7-.3-1.1 0-.7-.1-1.5-1-1.5h-1.3v2.6h-2.3v-7.5z"/><path id="Path_81" class="st0" d="M35.9 18.5l-.7-2.3-.7 2.3h1.4zm-1.8-4.7h2.3l2.6 7.4h-2.4l-.3-1H34l-.4 1h-2.3l2.8-7.4z"/><path id="Rectangle_5" class="st0" d="M39.2 13.8h2.2v7.4h-2.2z"/><path id="Path_82" class="st0" d="M42.1 13.8h2.3v5.6h3.3v1.9h-5.6v-7.5z"/><path id="Path_83" class="st0" d="M47.3 13.8h.7l1.7 6.5 1.9-6.5h.8l1.9 6.5 1.7-6.5h.7l-1.9 7.4h-.9L52 14.5l-1.9 6.7h-.8l-2-7.4z"/><path id="Path_84" class="st0" d="M59.9 20.8c2 0 2.8-1.7 2.8-3.3s-.8-3.3-2.8-3.3c-1.9 0-2.6 1.7-2.6 3.3s.6 3.3 2.6 3.3m0-7.2c2.4 0 3.6 1.9 3.6 3.9s-1.2 3.9-3.6 3.9c-2.2 0-3.4-1.9-3.4-3.9s1.2-3.9 3.4-3.9"/><path id="Path_85" class="st0" d="M64.6 17.3h2.7c.8.1 1.5-.6 1.6-1.4v-.1c0-.8-.6-1.5-1.4-1.5h-2.9v3zm-.7-3.5h3.4c1.2 0 2.3.6 2.3 1.9.1.9-.5 1.8-1.5 1.9 1 .1 1.3.8 1.3 1.7 0 .5 0 1.5.4 1.9H69c-.1-.4-.2-.8-.1-1.1-.2-1-.2-2.2-1.6-2.2h-2.7v3.3h-.7v-7.4z"/><path id="Path_86" class="st0" d="M70.4 13.8h.7v4l4.4-4h1l-3.4 3.1 3.5 4.4h-1l-3.1-3.9-1.5 1.3v2.5h-.7l.1-7.4z"/><path id="Path_87" class="st0" d="M77.1 18.8c0 1.5 1.2 2 2.6 2 .7 0 2-.4 2-1.5 0-.8-.8-1.2-1.6-1.4l-1.7-.4c-.9-.2-1.7-.7-1.7-1.8 0-.7.4-2.1 2.6-2.1 1.6 0 2.8.8 2.8 2.3h-.7c-.1-1.1-1.1-1.9-2.2-1.8-1 0-1.9.4-1.9 1.5 0 .7.6 1 1.2 1.1l1.8.5c1 .3 2 .7 2 2 0 .5-.3 2.1-3 2.1-1.7 0-3-.8-3-2.6l.8.1z"/><path id="Path_88" class="st0" d="M84 15.2h.4c.3 0 .6 0 .6-.4 0-.3-.3-.3-.4-.3H84v.7zm-.4-1h.9c.6 0 .7.2.7.7 0 .3-.2.6-.5.6l.7.9H85l-.6-.9H84v.9h-.3l-.1-2.2zm.8 2.7c.9 0 1.5-.7 1.5-1.5 0-.9-.7-1.5-1.5-1.5s-1.4.6-1.5 1.4v.2c-.1.8.5 1.5 1.3 1.6.1-.2.1-.2.2-.2m0-3.4c1 0 1.8.8 1.8 1.8s-.8 1.8-1.8 1.8-1.8-.8-1.8-1.8.8-1.8 1.8-1.8"/><path id="Path_89" class="st1" d="M11.5 16.1c2.5-3.4 6.5-5.5 10.7-5.7V5.1c-3.8-.1-7.5 1-10.7 3v8z"/><path id="Path_90" class="st1" d="M22.2 0H11.5v5.4c3.3-1.8 7-2.7 10.7-2.7V0z"/><path id="Path_91" class="st1" d="M22.2 12.7c-5.1.2-9.4 3.7-10.6 8.6h10.6v-8.6z"/><path id="Path_92" class="st1" d="M7.7 8.3c.5-.5 1-.9 1.5-1.3V0H4v13.2c.9-1.8 2.2-3.5 3.7-4.9z"/><path id="Rectangle_6" class="st1" d="M0 0h1.7v21.3H0z"/><path id="Path_93" class="st1" d="M4 21.3h5.2V9.9C6.2 13 4.3 17 4 21.3z"/><path id="Path_94" d="M22.2 12.7v-2.3c-4.2.1-8.2 2.2-10.7 5.7v-8c3.2-2 6.9-3.1 10.7-3V2.8c-3.7 0-7.4.9-10.7 2.7V0H9.2v6.9c-.5.5-1 .9-1.5 1.4-1.5 1.4-2.7 3.1-3.7 5V0H1.7v21.3H4C4.3 17 6.2 13 9.2 9.9v11.4h2.4c1.3-4.9 5.6-8.4 10.6-8.6z" fill="#fff"/></g></g></svg>