<svg id="LOGO-HSQ-PMS-355" xmlns="http://www.w3.org/2000/svg" viewBox="0 0 56.7 31.1"><style>.st0{fill:#fff}</style><g id="Layer_1"><path id="Path_1" class="st0" d="M2.4 16.4H.2V16h5v.4H3v3.4h-.6v-3.4z"/><path id="Path_2" class="st0" d="M5.6 15.9h4.3v.4H6.2v1.2h3.6v.5H6.2v1.3H10v.4H5.6v-3.8z"/><path id="Path_3" class="st0" d="M10.4 17.3c0-1 .4-1.4 1.6-1.4h2.3c1.1 0 1.4.4 1.4.9v.3h-.5V17c0-.6-.5-.7-1-.7h-2.1c-.6 0-1 .2-1 .8v1.4c0 .7.5.8 1 .8h2.1c.8 0 1-.2 1-.7v-.2h.6v.3c0 .7-.3 1.1-1.5 1.1H12c-1.2 0-1.6-.5-1.6-1.4v-1.1z"/><path id="Path_4" class="st0" d="M16.4 15.9h.6v1.6h3.9v-1.6h.6v3.8h-.6V18H17v1.8h-.6v-3.9z"/><path id="Path_5" class="st0" d="M22.3 15.9h.9l4 3.4v-3.4h.6v3.8h-.9l-4-3.4v3.4h-.6v-3.8z"/><path id="Path_6" class="st0" d="M33.5 17.1c0-.7-.5-.8-1-.8h-2.4c-.6 0-1 .2-1 .8v1.4c0 .7.5.8 1 .8h2.4c.6 0 1-.2 1-.8v-1.4zm-5 .2c0-1 .4-1.4 1.6-1.4h2.5c1.2 0 1.6.5 1.6 1.4v1c0 1-.4 1.4-1.6 1.4h-2.5c-1.2 0-1.6-.5-1.6-1.4v-1z"/><path id="Path_7" class="st0" d="M34.9 15.9h.6v3.4h3.4v.4h-4v-3.8z"/><path id="Path_8" class="st0" d="M44.1 17.1c0-.7-.5-.8-1-.8h-2.4c-.6 0-1 .2-1 .8v1.4c0 .7.5.8 1 .8h2.4c.6 0 1-.2 1-.8v-1.4zm-5 .2c0-1 .4-1.4 1.6-1.4h2.5c1.2 0 1.6.5 1.6 1.4v1c0 1-.4 1.4-1.6 1.4h-2.5c-1.2 0-1.6-.5-1.6-1.4v-1z"/><path id="Path_9" class="st0" d="M50.8 18.4c0 1-.4 1.4-1.5 1.4h-2.4c-1.2 0-1.6-.5-1.6-1.4v-1c0-1 .4-1.4 1.6-1.4h2.2c.8 0 1.6.2 1.6 1v.1h-.6c0-.7-.2-.8-1.7-.8H47c-.6 0-1 .2-1 .8v1.4c0 .7.5.8 1 .8h2.3c.6 0 1-.2 1-.7v-.4H48v-.4h2.8v.6z"/><path id="Path_10" class="st0" d="M55.9 15.9l-2 1.8-2-1.8h-.8l2.5 2.2v1.6h.6v-1.6l2.5-2.2h-.8z"/><path id="Path_11" class="st0" d="M14.4 10.4h-2.9v-3H5.4v3H2.6V2.5h2.9v2.8h6.1V2.5h2.9v7.9zm1-10.4H1.6C.8-.1.1.5 0 1.4v9.5c.1.8.8 1.4 1.6 1.4h13.8c.8.1 1.5-.5 1.6-1.4V1.4c-.1-.9-.8-1.5-1.6-1.4"/><path id="Path_12" class="st0" d="M30.1 10.5h-3.5c-2.6 0-3.7-.4-3.7-2.1v-.6h2.9c0 .8.4.9 1.2.9h3.5c.6 0 1.2-.1 1.2-.7 0-.7-.3-.7-4.1-.7-4.4 0-4.8-.4-4.8-2.4 0-1.4.2-2.5 3.8-2.5h4c3.3 0 3.6 1 3.6 2.3V5h-2.9c0-.6-.1-.8-1.4-.8h-3.2c-.7 0-1.1.2-1.1.6 0 .7.4.7 3.5.7 4.5 0 5.5.2 5.5 2.5.2 2.2-.7 2.5-4.5 2.5M35.2 0H21.5c-.8-.1-1.5.5-1.6 1.4v9.5c.1.8.8 1.4 1.6 1.4h13.8c.8.1 1.5-.5 1.6-1.4V1.4c-.1-.9-.8-1.5-1.7-1.4"/><path id="Path_13" class="st0" d="M50 4.4h-3.4c-1.6 0-1.8.6-1.8 1.6v.9c0 1.2.3 1.6 1.7 1.6h4.1L47.8 7 49 5.4l2.7 1.4V6c.1-1-.2-1.6-1.7-1.6"/><path id="Path_14" class="st0" d="M54.6 10.5l-1.1-.5c-.9.4-2 .6-3 .5h-4.6c-2.6 0-4.2-.5-4.2-2.9V5.3c0-2.3 1.6-2.9 4.2-2.9h4.6c2.6 0 4.2.5 4.2 2.9v2.4c0 .2 0 .5-.1.7l1.1.6-1.1 1.5zM55.1 0H41.3c-.8-.1-1.5.5-1.6 1.4v9.5c.1.8.8 1.4 1.6 1.4h13.8c.8.1 1.5-.5 1.6-1.4V1.4c0-.9-.8-1.5-1.6-1.4"/><path id="Rectangle_1" class="st0" d="M.2 13.6h56.5v.8H.2z"/><path id="Rectangle_2" class="st0" d="M.2 21h56.5v.8H.2z"/><path id="Rectangle_3" class="st0" d="M.2 22.4h56.5v1.5H.2z"/><path id="Path_15" class="st0" d="M4.3 28.8h1.2L4.9 27l-.6 1.8zm.3-2.3h.7l1.2 3.7h-.6l-.3-1H4.2l-.3 1h-.6l1.3-3.7z"/><path id="Path_16" class="st0" d="M8.8 28.1h.5c.3 0 .9 0 .9-.7 0-.4-.3-.6-.8-.6h-.6v1.3zm-.5-1.6h1.4c.7 0 1.1.3 1.1.9 0 .4-.2.8-.7.9.3 0 .6.3.6.6v.6c0 .4.1.5.2.6h-.7c-.1-.2-.2-.3-.1-.5V29c0-.5-.4-.5-.7-.5h-.6v1.7h-.5v-3.7z"/><path id="Path_17" class="st0" d="M13 28.7c-.2.2-.7.2-.9.3-.2.1-.3.3-.3.4 0 .2.1.4.3.5h.1c.3 0 .6-.2.7-.5v-.7zm-1.6-.5c0-.6.3-.9 1.1-.9 1 0 1 .5 1 .8v1.6c0 .1 0 .2.2.2h.1v.3h-.3c-.2 0-.4 0-.5-.4-.2.3-.5.4-.8.4-.6 0-.9-.3-.9-.8 0-.4.2-.7.6-.8l.7-.2c.4-.1.4-.2.4-.4 0-.3-.2-.4-.5-.4-.2 0-.3 0-.4.1-.1.1-.2.3-.1.4l-.6.1z"/><path id="Path_18" class="st0" d="M14.2 27.4h.5v2.8h-.5v-2.8zm0-.9h.5v.5h-.5v-.5z"/><path id="Rectangle_4" class="st0" d="M15.5 26.5h.5v3.7h-.5z"/><path id="Path_19" class="st0" d="M16.4 26.5h.6l.7 3 .6-3h.7l.6 3 .7-3h.5l-.9 3.7h-.7l-.6-3-.6 3h-.7l-.9-3.7z"/><path id="Path_20" class="st0" d="M22.8 28.8c0-.6-.1-1.1-.7-1.1-.5 0-.6.5-.6 1.1s.1 1.1.6 1.1.7-.5.7-1.1m-.7-1.5c1 0 1.2.7 1.2 1.5s-.2 1.5-1.2 1.5-1.2-.7-1.2-1.5.3-1.5 1.2-1.5"/><path id="Path_21" class="st0" d="M23.8 27.4h.5v.4c.1-.3.4-.5.7-.5h.2v.4h-.3c-.4 0-.7.3-.7.7v1.8h-.5v-2.8z"/><path id="Path_22" class="st0" d="M28.1 30.2h-.6l-.9-1.4-.4.4v.9h-.5v-3.7h.5v2.2l1.2-1.3h.6l-1 1.1 1.1 1.8z"/><path id="Path_23" class="st0" d="M29.8 28.2c0-.4-.1-.5-.5-.5-.2 0-.5 0-.5.4 0 .3.4.4.8.5s.8.2.8.8c0 .6-.5.9-1.1.9-1.1 0-1.1-.7-1.1-1h.5c0 .3.1.6.6.6.2 0 .6-.1.6-.5s-.4-.5-.8-.6-.8-.2-.8-.8c0-.5.5-.8 1.1-.8 1 0 1 .6 1 .9l-.6.1z"/><path id="Path_24" class="st0" d="M35.1 28.9c0 .7-.5 1.3-1.2 1.3h-.2c-1.3 0-1.4-1-1.4-1.9s.2-1.9 1.4-1.9c.9 0 1.3.4 1.3 1.2h-.6c0-.4-.2-.8-.7-.8-.8 0-.9.7-.9 1.6s.1 1.6.9 1.6c.7 0 .8-.5.8-1h.6z"/><path id="Path_25" class="st0" d="M37.3 28.8c0-.6-.1-1.1-.7-1.1-.5 0-.6.5-.6 1.1s.1 1.1.6 1.1.7-.5.7-1.1m-.7-1.5c1 0 1.2.7 1.2 1.5s-.2 1.5-1.2 1.5-1.2-.7-1.2-1.5.3-1.5 1.2-1.5"/><path id="Path_26" class="st0" d="M38.4 27.4h.5v.3c.2-.3.5-.4.8-.4.3-.1.6.1.7.4.2-.3.5-.4.8-.4.9 0 .9.6.9.9v2h-.5v-1.9c0-.2 0-.6-.4-.6-.2 0-.3 0-.4.2-.1.1-.2.3-.2.4v1.9H40v-1.9c0-.2 0-.6-.4-.6-.2 0-.3 0-.4.2-.1.1-.2.3-.2.4v1.9h-.5l-.1-2.8z"/><path id="Path_27" class="st0" d="M44 29.9c.5 0 .6-.4.6-1.1 0-.6-.1-1-.6-1-.6 0-.7.5-.7 1.1 0 .4.1 1 .7 1m-1.2-2.5h.5v.3c.1-.3.4-.4.7-.4.8 0 1.1.6 1.1 1.4 0 .6-.2 1.5-1.1 1.5-.3 0-.6-.1-.7-.4V31h-.5v-3.6z"/><path id="Path_28" class="st0" d="M47.2 28.7c-.2.2-.7.2-.9.3-.2.1-.3.3-.3.4 0 .2.1.4.3.5h.1c.3 0 .6-.2.7-.5l.1-.7zm-1.6-.5c0-.6.3-.9 1.1-.9 1 0 1 .5 1 .8v1.6c0 .1 0 .2.2.2h.1v.3h-.3c-.2 0-.4 0-.5-.4-.2.3-.5.4-.8.4-.6 0-.9-.3-.9-.8 0-.4.3-.7.6-.8l.7-.2c.4-.1.4-.2.4-.4 0-.3-.2-.4-.5-.4-.2 0-.3 0-.4.1-.1.1-.2.3-.1.4l-.6.1z"/><path id="Path_29" class="st0" d="M48.4 27.4h.5v.3c.2-.3.5-.4.8-.4.9 0 .9.6.9.9v2h-.5v-1.9c0-.2 0-.6-.5-.6-.2 0-.3 0-.5.1-.1.1-.2.3-.2.4v1.9h-.5v-2.7z"/><path id="Path_30" class="st0" d="M51.1 27.4h.6l.7 2.2.6-2.2h.6l-1 3c-.1.4-.3.7-.9.7h-.4v-.3h.3c.2 0 .3-.1.4-.3l.1-.2-1-2.9z"/></g></svg>