<svg version="1.1" id="LK-Comstock-A-RW-Company-Horizontal-PMS-341" xmlns="http://www.w3.org/2000/svg" x="0" y="0" viewBox="0 0 166.9 31.1" xml:space="preserve"><style>.st0{fill:#fff}</style><g id="Layer_1"><path id="Path_31" class="st0" d="M42.2 15.3V1.7h3v11.4h5.2v2.3l-8.2-.1z"/><path id="Path_32" class="st0" d="M54.4 12.3v3h-2.7v-3h2.7z"/><path id="Path_33" class="st0" d="M59.5 1.7v5.5l3.7-5.5h3.2l-3.9 5.9 4.4 7.8h-3.3l-3-5.6-1.1 1.6v4.1h-3V1.7h3z"/><path id="Path_34" class="st0" d="M70.3 12.3v3h-2.7v-3h2.7z"/><path id="Path_35" class="st0" d="M82.7 6.3c0-2-.4-2.8-1.8-2.8-1.5 0-1.8 1.4-1.8 5.3 0 4.1.6 4.9 1.9 4.9 1.1 0 1.8-.5 1.8-3.5h3c0 2.9-.8 5.5-4.6 5.5-4.4 0-5-3-5-7.1s.5-7.1 4.9-7.1c4.2 0 4.5 2.9 4.5 4.9h-2.9z"/><path id="Path_36" class="st0" d="M92.1 1.4c4.4 0 4.9 2.9 4.9 7.1s-.6 7.1-4.9 7.1-5-3-5-7.1.6-7.1 5-7.1zm0 12.2c1.7 0 2-1.4 2-5.1s-.3-5.1-2-5.1-2 1.4-2 5.1.3 5.1 2 5.1z"/><path id="Path_37" class="st0" d="M98.9 1.7h4.4l2.1 9.7 2.1-9.7h4.3v13.7h-2.7v-11l-2.6 10.9h-2.3l-2.6-10.9v10.9h-2.7V1.7z"/><path id="Path_38" class="st0" d="M116.3 11.1v.4c0 1.3.4 2.1 1.9 2.1.5 0 .9-.1 1.3-.5.3-.3.5-.8.5-1.2 0-1.2-.7-1.7-2.6-2.3-2.6-.8-3.8-1.9-3.8-4.1 0-2.7 1.7-4 4.5-4 2.6 0 4.5 1.1 4.5 3.7v.4h-2.8c0-1.3-.5-2-1.6-2-1.3 0-1.7.8-1.7 1.6s.3 1.4 1.5 1.9l2.3.9c2.2.9 2.8 2 2.8 3.6 0 2.9-1.9 4.2-5.1 4.2-3.3 0-4.6-1.5-4.6-4v-.6h2.9z"/><path id="Path_39" class="st0" d="M133 1.7V4h-3.2v11.4h-3V3.9h-3.2V1.7h9.4z"/><path id="Path_40" class="st0" d="M138.9 1.4c4.4 0 5 2.9 5 7.1s-.6 7.1-5 7.1-5-3-5-7.1.6-7.1 5-7.1zm0 12.2c1.7 0 2-1.4 2-5.1s-.3-5.1-2-5.1-2 1.4-2 5.1.3 5.1 2 5.1z"/><path id="Path_41" class="st0" d="M151.9 6.3c0-2-.4-2.8-1.8-2.8-1.5 0-1.8 1.4-1.8 5.3 0 4.1.6 4.9 1.9 4.9 1.1 0 1.8-.5 1.8-3.5h3c0 2.9-.8 5.5-4.6 5.5-4.4 0-5-3-5-7.1s.5-7.1 4.9-7.1c4.2 0 4.5 2.9 4.5 4.9l-2.9-.1z"/><path id="Path_42" class="st0" d="M159.5 1.7v5.5l3.7-5.5h3.2l-3.9 5.9 4.4 7.8h-3.3l-3-5.6-1.1 1.6v4.1h-3V1.7h3z"/><path id="Path_43" class="st0" d="M37.5 12v.5c0 6.6-8.3 11.9-18.4 11.9S.7 19.1.7 12.6 8.9.6 19.1.6c7.5 0 14.2 2.9 17 7.4l.3-.5h-6.9l.3.2C27 2.6 20.9.1 15.2 2c-5.6 1.6-9 7.3-7.7 13 1.3 5.5 6.9 9.3 12.9 8.6S31 18.2 31 12.6V12l-.3.3h7.2l-.4-.3zm-7.2 0v.5c-.2 5.5-4.4 10-10 10.4-5.5.7-10.7-2.8-12.2-8.1-1.1-5.3 2-10.6 7.3-12.2C20.7.8 26.5 3.1 29.2 8l.1.2H37l-.3-.5C33.8 3 26.8 0 19.1 0 8.6 0 0 5.6 0 12.6s8.6 12.6 19.1 12.6 19.1-5.6 19.1-12.6v-.9h-7.9v.3z"/><path id="Path_44" class="st0" d="M8.9 12.6c0 3.3 1.8 6.4 4.7 8.1v-8.9H8.9v.8M10 8.2h3.6V4.5c-1.6.9-2.8 2.2-3.6 3.7m19.4 3.5H17.2V22c.6.1 1.3.2 1.9.2 5.7 0 10.3-4.3 10.3-9.7v-.8M19.1 2.9c-.6 0-1.3.1-1.9.2v5.1h11.1c-1.8-3.3-5.4-5.3-9.2-5.3"/><path id="Path_45" class="st0" d="M11 9.6c-.1-.2-.3-.4-.5-.4-.4 0-.6.4-.6.7s.2.7.6.7c.1 0 .3 0 .4-.1.1-.1.2-.2.2-.3h.5c0 .5-.5.9-1 .9-.3 0-.6-.1-.8-.3-.4-.5-.4-1.1 0-1.6.2-.2.5-.3.8-.3.5-.1.9.3 1 .8l-.6-.1z"/><path id="Path_46" class="st0" d="M12.9 10.7c.5 0 .6-.4.6-.7s-.2-.7-.6-.7-.6.3-.6.7.2.7.6.7m0-1.9c.3 0 .6.1.8.3.2.2.3.5.3.8 0 .4-.2.8-.5 1-.4.2-.8.2-1.2 0-.4-.2-.6-.6-.5-1 0-.3.1-.6.3-.8.2-.2.5-.3.8-.3"/><path id="Path_47" class="st0" d="M14.4 8.9h.7l.5 1.5.5-1.5h.7V11h-.5V9.5l-.5 1.5h-.4l-.6-1.5V11h-.5V8.9z"/><path id="Path_48" class="st0" d="M17.7 10.3c0 .3.2.4.5.4.2 0 .4 0 .4-.3s-.3-.3-.7-.4-.7-.2-.7-.6.4-.6.9-.6.9.2.9.7h-.5c0-.3-.2-.3-.4-.3s-.3.1-.3.2.1.2.7.3c.2 0 .7.1.7.6 0 .4-.3.7-.9.7-.5 0-1-.2-1-.8l.4.1z"/><path id="Path_49" class="st0" d="M20 9.3h-.7v-.4h1.9v.4h-.7V11H20V9.3z"/><path id="Path_50" class="st0" d="M22.5 10.7c.4 0 .6-.4.6-.7s-.2-.7-.6-.7-.6.4-.6.7.1.7.6.7m0-1.8c.3 0 .6.1.8.3.2.2.3.5.3.8 0 .4-.2.8-.5 1-.4.2-.8.2-1.2 0-.4-.2-.6-.6-.5-1 0-.3.1-.6.3-.8.2-.2.5-.4.8-.3"/><path id="Path_51" class="st0" d="M25.5 9.6c-.1-.2-.3-.4-.5-.4-.4 0-.6.4-.6.7s.2.7.6.7c.1 0 .3 0 .4-.1.1-.1.2-.2.2-.3h.4c0 .5-.5.9-1 .9-.3 0-.6-.1-.8-.3-.4-.5-.4-1.1 0-1.6.2-.2.5-.3.8-.3.5-.1.9.3 1 .8l-.5-.1z"/><path id="Path_52" class="st0" d="M26.4 8.9h.5v.9l.9-.9h.6l-.9.8 1 1.3h-.6l-.7-1-.3.3v.7h-.5V8.9z"/><path id="Path_53" class="st0" d="M16.2 4.4c-.1-.2-.3-.4-.5-.4-.5 0-.6.4-.6.7s.2.7.6.7c.3 0 .5-.2.5-.5h.5c0 .5-.5.9-1 .9-.3 0-.6-.1-.8-.3-.2-.2-.3-.5-.3-.8 0-.3.1-.6.3-.8.2-.2.5-.3.8-.3.5 0 .9.3 1 .8h-.5z"/><path id="Path_54" class="st0" d="M15.6 8.2c.5 0 .6-.4.6-.7s-.2-.8-.6-.8c-.4 0-.6.3-.6.7s.2.8.6.8m0-1.9c.3 0 .6.1.8.3.2.2.3.5.3.8 0 .4-.2.8-.5 1-.4.2-.8.2-1.2 0-.4-.2-.6-.6-.5-1 0-.3.1-.6.3-.8.2-.2.5-.3.8-.3"/><path id="Path_55" class="st0" d="M15.3 12.6h.4c.2 0 .4 0 .4-.3s-.2-.3-.4-.3h-.4v.6zm-.5-1h1c.3 0 .6.1.7.3.2.2.2.5 0 .7-.2.2-.4.4-.7.3h-.5v.8h-.5v-2.1z"/><path id="Path_56" class="st0" d="M15.3 15.6h.6l-.3-.8-.3.8zm.1-1.4h.5l.9 2.2h-.5l-.3-.5h-.9l-.1.5h-.5l.9-2.2z"/><path id="Path_57" class="st0" d="M14.6 16.9h.5l1 1.5v-1.5h.5V19h-.5l-1-1.5V19h-.5v-2.1z"/><path id="Path_58" class="st0" d="M15.4 20.8l-.9-1.3h.6l.5.9.5-.9h.6l-.9 1.3v.8h-.5l.1-.8z"/><path id="Path_59" class="st0" d="M31.5 24.1h.2c.2 0 .4 0 .4-.2s-.2-.2-.3-.2h-.3v.4zm-.2-.6h.5c.3 0 .5.1.5.4 0 .1 0 .2-.1.3-.1.1-.2.1-.3.1l.4.6h-.2l-.4-.6h-.2v.6h-.2v-1.4zm.4 1.6c.4 0 .8-.2.9-.6.2-.4.1-.8-.2-1-.3-.3-.7-.4-1.1-.2-.4.1-.6.5-.6.9 0 .3.1.5.3.7.2.1.5.2.7.2zm0-2.1c.5 0 .9.2 1.1.7.2.4.1.9-.2 1.2-.3.3-.8.4-1.3.3-.4-.2-.7-.6-.7-1 0-.7.5-1.2 1.1-1.2z"/><path id="Path_60" class="st0" d="M43.9 21.9h1.3l2.1 7.4h-1l-.6-2h-2.5l-.6 2h-1l2.3-7.4zm-.5 4.6h2.1l-1-3.6-1.1 3.6z"/><path id="Path_61" class="st0" d="M50.6 21.9h2.6c.5-.1 1.1.1 1.5.5.8.8.7 2.1-.1 2.8-.2.2-.4.3-.6.4.6.1 1.1.6 1.1 1.3l.1 1.3c0 .8.2 1 .4 1.2h-1.2c-.2-.3-.3-.7-.3-1.1L54 27c-.1-1-.7-1.1-1.2-1.1h-1.3v3.3h-1l.1-7.3zm1 3.3h1c.6 0 1.6 0 1.6-1.4 0-.7-.5-1.2-1.4-1.2h-1.2v2.6z"/><path id="Path_62" class="st0" d="M56.1 25.4c0-1.3.6-1.9 2-1.9 1.8 0 1.8 1 1.8 1.6v3.1c0 .2 0 .5.3.5.1 0 .2 0 .2-.1v.6c-.2 0-.4 0-.5.1-.4 0-.8 0-.8-.7-.3.5-.8.8-1.4.8-.9 0-1.6-.7-1.6-1.6 0-.7.5-1.3 1.1-1.5l1.2-.4c.7-.2.7-.4.7-.8s-.3-.8-1-.8c-.3 0-.6.1-.8.3-.2.2-.3.5-.2.8v.1l-1-.1zm2.9.8c-.3.3-1.2.4-1.6.7-.3.2-.5.5-.5.9 0 .6.2 1 .8 1 .6 0 1.1-.5 1.2-1.1l.1-1.5z"/><path id="Path_63" class="st0" d="M61.2 21.9h.9v1h-.9v-1zm0 1.8h.9v5.6h-.9v-5.6z"/><path id="Path_64" class="st0" d="M63.5 21.9h.9v7.4h-.9v-7.4z"/><path id="Path_65" class="st0" d="M65.2 21.9h1l1.2 6.1 1.1-6.1h1.2l1.1 6.1 1.2-6.1h1l-1.6 7.4h-1.2l-1.1-6-1.1 6h-1.2l-1.6-7.4z"/><path id="Path_66" class="st0" d="M75.3 23.6c1.7 0 2.1 1.4 2.1 2.9s-.4 2.9-2.1 2.9-2.1-1.4-2.1-2.9.4-2.9 2.1-2.9zm1.2 2.9c0-1.2-.2-2.2-1.2-2.2s-1.1 1-1.1 2.2.2 2.2 1.1 2.2 1.2-1 1.2-2.2z"/><path id="Path_67" class="st0" d="M78.4 23.7h.9v.8c.2-.6.7-.9 1.3-1 .1 0 .3 0 .4.1v.9h-.5c-.7 0-1.2.6-1.2 1.3v3.5h-.9v-5.6z"/><path id="Path_68" class="st0" d="M86.1 29.3H85l-1.6-2.7-.8.9v1.9h-.9V22h.9v4.4l2.1-2.6h1.1l-1.8 2 2.1 3.5z"/><path id="Path_69" class="st0" d="M89.1 25.3c0-.7-.2-1.1-.9-1.1-.3 0-.5 0-.7.2-.2.2-.3.4-.3.7 0 .7.7.8 1.5 1s1.4.5 1.4 1.6c0 .9-.7 1.7-1.6 1.8h-.3c-2 0-2-1.4-2-2h.9c0 .7.2 1.3 1.1 1.3.3 0 .5-.1.7-.3.2-.2.3-.4.3-.7 0-.7-.7-.9-1.4-1.1s-1.5-.4-1.5-1.6c0-1 .9-1.5 1.9-1.5 1.7 0 1.8 1.1 1.8 1.8l-.9-.1z"/><path id="Path_70" class="st0" d="M98.6 26.7c-.1 1.4-.7 2.7-2.4 2.7-2.2 0-2.5-2-2.5-3.8s.4-3.8 2.5-3.8c1.1-.1 2.2.7 2.3 1.8v.5h-1c0-.8-.3-1.6-1.3-1.6-1.3 0-1.5 1.4-1.5 3.1s.2 3.1 1.5 3.1c1.2 0 1.4-1 1.4-1.9l1-.1z"/><path id="Path_71" class="st0" d="M101.3 23.6c1.7 0 2.1 1.4 2.1 2.9s-.4 2.9-2.1 2.9-2.1-1.4-2.1-2.9.4-2.9 2.1-2.9zm1.2 2.9c0-1.2-.2-2.2-1.2-2.2s-1.1 1-1.1 2.2.2 2.2 1.1 2.2 1.2-1 1.2-2.2z"/><path id="Path_72" class="st0" d="M104.5 23.7h.9v.7c.3-.5.8-.8 1.4-.8.6-.1 1.1.3 1.3.9.3-.5.8-.9 1.4-.9 1.6 0 1.6 1.1 1.6 1.8v3.9h-.9v-3.8c0-.4 0-1.1-.8-1.1-.3 0-.6.1-.8.3-.2.2-.3.5-.3.8v3.8h-.9v-3.8c0-.4 0-1.1-.8-1.1-.3 0-.6.1-.8.3-.2.2-.3.5-.3.8v3.8h-.9l-.1-5.6z"/><path id="Path_73" class="st0" d="M112.4 23.7h.9v.7c.2-.5.7-.8 1.3-.8 1.4 0 1.9 1.2 1.9 2.8 0 1.3-.4 3-1.9 3-.5 0-1-.3-1.2-.8v2.5h-1v-7.4zm2 5c.9 0 1.1-.9 1.1-2.3 0-1.2-.2-2.1-1.1-2.1-1 0-1.2.9-1.2 2.2 0 1.1.2 2.2 1.2 2.2z"/><path id="Path_74" class="st0" d="M117.3 25.4c0-1.3.6-1.9 2-1.9 1.8 0 1.8 1 1.8 1.6v3.1c0 .2 0 .5.3.5.1 0 .2 0 .2-.1v.6c-.2 0-.4 0-.5.1-.4 0-.8 0-.8-.7-.3.5-.9.8-1.5.8-.9 0-1.6-.7-1.6-1.6 0-.7.5-1.3 1.1-1.5l1.3-.4c.7-.2.7-.4.7-.8s-.3-.8-1-.8c-.3 0-.6.1-.8.3-.2.2-.3.5-.2.8v.1l-1-.1zm2.9.8c-.3.3-1.2.4-1.6.7-.3.2-.5.5-.5.9 0 .6.2 1 .8 1 .6 0 1.1-.4 1.2-1.1l.1-1.5z"/><path id="Path_75" class="st0" d="M122.4 23.7h.9v.7c.3-.5.8-.8 1.4-.8 1.6 0 1.6 1.1 1.6 1.8v3.9h-.9v-3.8c0-.4 0-1.1-.9-1.1-.3 0-.6.1-.8.3-.2.2-.3.5-.3.8v3.8h-.9v-5.6z"/><path id="Path_76" class="st0" d="M127.1 23.7h1l1.2 4.5 1-4.5h1l-1.7 5.9c-.2.8-.5 1.5-1.6 1.5h-.7v-.7h.5c.3 0 .6-.2.7-.5l.2-.5-1.6-5.7z"/></g></svg>