<svg xmlns="http://www.w3.org/2000/svg" viewBox="0 0 173 93"><path d="M41.325 88.358H28.584a16.064 16.064 0 003.656-.884 14.567 14.567 0 004.709-2.874 13.135 13.135 0 003.158-4.255 15.3 15.3 0 00.554-1.437 17.865 17.865 0 003.49-.829 14.566 14.566 0 004.709-2.873 12.781 12.781 0 003.158-4.31 11.911 11.911 0 001.108-5.029v-43.1a11.911 11.911 0 00-1.108-5.029 13.348 13.348 0 00-3.158-4.31 14.567 14.567 0 00-4.709-2.873 14.953 14.953 0 00-3.435-.884c-.166-.5-.332-1.05-.554-1.547A13.348 13.348 0 0037 3.813 14.567 14.567 0 0032.3.939 16.98 16.98 0 0026.7 0a15.136 15.136 0 00-10.248 3.868 13.078 13.078 0 00-3.711 5.747 16.309 16.309 0 00-3.767.884 14.567 14.567 0 00-4.709 2.873A12.656 12.656 0 000 22.711v43.1a11.911 11.911 0 001.108 5.029 13.348 13.348 0 003.158 4.31 14.908 14.908 0 008.534 3.759 15.3 15.3 0 00.554 1.437 13.135 13.135 0 003.154 4.254 15.319 15.319 0 002.659 1.879 12.83 12.83 0 002.216 2.652A15.349 15.349 0 0031.631 93h9.694v-4.642zM40.771 10a13.9 13.9 0 011.44.387 9.927 9.927 0 013.047 1.824 8.376 8.376 0 012.05 2.763 8.018 8.018 0 01.72 3.26v51.944a8.018 8.018 0 01-.72 3.26 8.376 8.376 0 01-2.05 2.763 10.067 10.067 0 01-3.047 1.879 10.961 10.961 0 01-1.44.442 12.522 12.522 0 00.443-3.26v-62.11A12.346 12.346 0 0040.771 10zM10.913 78.08a9.087 9.087 0 01-3.047-1.88 8.376 8.376 0 01-2.05-2.763 8.018 8.018 0 01-.72-3.26V18.235a7.208 7.208 0 01.72-3.26 8.376 8.376 0 012.05-2.763 9.659 9.659 0 014.764-2.321 12.523 12.523 0 00-.443 3.26v62.111a10.92 10.92 0 00.5 3.316 10.638 10.638 0 01-1.773-.5zm25.15.332a7.71 7.71 0 01-1.053-.332 9.087 9.087 0 01-3.047-1.88 9.222 9.222 0 01-2.05-2.763 8.576 8.576 0 01-.443-1.271 14.023 14.023 0 002.714-.774 15.184 15.184 0 003.822-2.155v9.173zm0-14.7a8.018 8.018 0 01-.72 3.26 8.376 8.376 0 01-2.05 2.763 8.952 8.952 0 01-3.047 1.824 4.159 4.159 0 01-.886.276 7.871 7.871 0 01-.166-1.6V18.291a8.413 8.413 0 01.166-1.658 4.883 4.883 0 01.831.276 9.087 9.087 0 013.047 1.879 8.376 8.376 0 012.05 2.763 8.018 8.018 0 01.72 3.26v38.9zm0-44.538a16.215 16.215 0 00-3.823-2.154 21.883 21.883 0 00-2.714-.774 10.732 10.732 0 01.443-1.216 7.676 7.676 0 012.05-2.763 9.743 9.743 0 014.1-2.155v9.062zM17.339 8.731a7.208 7.208 0 01.72-3.26 8.376 8.376 0 012.05-2.763A9.863 9.863 0 0126.756.221 9.408 9.408 0 0130.3.884a9.927 9.927 0 013.047 1.824A8.376 8.376 0 0135.4 5.471a8.018 8.018 0 01.72 3.26v.995a16.937 16.937 0 00-2.991.774 14.567 14.567 0 00-4.709 2.873 15.59 15.59 0 00-1.828 1.989 15.59 15.59 0 00-1.828-1.989 14.567 14.567 0 00-4.711-2.873 15.829 15.829 0 00-2.659-.718V8.731zm0 1.437c.222.055.5.166.72.221a9.927 9.927 0 013.047 1.824 8.376 8.376 0 012.05 2.763 4.94 4.94 0 01.443 1.271 17.573 17.573 0 00-2.437.663 15.184 15.184 0 00-3.822 2.155v-8.9zm0 14.588a7.208 7.208 0 01.72-3.26 8.376 8.376 0 012.05-2.763 10.027 10.027 0 013.6-2.045 7.348 7.348 0 01.166 1.547v51.943a6.843 6.843 0 01-.166 1.492c-.166-.055-.388-.111-.554-.166a9.927 9.927 0 01-3.047-1.824 8.376 8.376 0 01-2.05-2.763 8.018 8.018 0 01-.72-3.26v-38.9zm0 44.538a14.692 14.692 0 006.26 2.818 5.456 5.456 0 01-.5 1.326A7.676 7.676 0 0121.05 76.2 10.067 10.067 0 0118 78.08a3.589 3.589 0 01-.72.221v-9.007zm5.817 18.291a9.087 9.087 0 01-3.047-1.879 8.376 8.376 0 01-2.05-2.763 7.867 7.867 0 01-.5-1.492 7.484 7.484 0 01-.166-1.6v-1.16a18.669 18.669 0 002.659-.718 14.567 14.567 0 004.71-2.873 13.019 13.019 0 001.828-2.045 21.016 21.016 0 001.828 2.045 14.953 14.953 0 007.7 3.647v.939a8.018 8.018 0 01-.72 3.26 8.376 8.376 0 01-2.05 2.763 10.067 10.067 0 01-3.048 1.876 9.617 9.617 0 01-3.545.663 10.958 10.958 0 01-3.6-.663z"/><g data-name="Group 4"><g data-name="Group 1"><path data-name="Path 1" class="cls-2" d="M82.151 27.077l6.426-2.321v-3.26l-9.528 3.537v2.487l2.05 4.863a6.075 6.075 0 01.554 2.155c0 1.16-.609 1.768-1.883 1.768h-2.05a2.02 2.02 0 01-2.271-2.266v-3.482h-2.992v6.8a5.222 5.222 0 01-.776 3.2 5.2 5.2 0 01-2.714 1.438l1 2.818a8.179 8.179 0 003.933-2.21 6.864 6.864 0 001.551-4.089 2.8 2.8 0 001.883.663h2.714a4.062 4.062 0 004.6-4.421 9.185 9.185 0 00-.886-3.7z"/><path data-name="Path 2" class="cls-2" d="M92.399 28.79a5.188 5.188 0 00-3.822 1.437 5.31 5.31 0 00-1.385 3.923 4.946 4.946 0 001.274 3.647 4.516 4.516 0 003.326 1.271 4.235 4.235 0 002.105-.5 3.887 3.887 0 01-1.883 2.376 13.569 13.569 0 01-4.155 1.16l.443 2.873c3.158-.276 5.484-1.16 6.924-2.708 1.44-1.492 2.16-3.813 2.16-6.852q-.084-6.627-4.987-6.627zm1.385 7.128a2.048 2.048 0 01-1.5.608 2 2 0 01-1.551-.608 2.756 2.756 0 01-.554-1.713 2.368 2.368 0 01.554-1.713 1.9 1.9 0 011.5-.663 1.823 1.823 0 011.5.663 2.605 2.605 0 01.554 1.768 2.007 2.007 0 01-.503 1.658z"/><path data-name="Rectangle 2" class="cls-2" d="M108.021 40.726h3.047v2.984h-3.047z"/><path data-name="Path 3" class="cls-2" d="M108.796 34.04a2.6 2.6 0 01-.5 1.768 2.448 2.448 0 01-1.717.553h-.332a2.02 2.02 0 01-2.271-2.266v-3.481h-2.99v6.8a5.222 5.222 0 01-.776 3.2 5.2 5.2 0 01-2.714 1.438l1 2.818a8.179 8.179 0 003.933-2.21 6.864 6.864 0 001.551-4.089 2.8 2.8 0 001.883.663h1a4.535 4.535 0 004.93-5.084v-3.647h-2.997v3.537z"/><path data-name="Rectangle 3" class="cls-2" d="M125.193 25.53h3.047v2.984h-3.047z"/><path data-name="Rectangle 4" class="cls-2" d="M129.348 25.53h3.047v2.984h-3.047z"/><path data-name="Rectangle 5" class="cls-2" d="M143.751 40.726h3.047v2.984h-3.047z"/><path data-name="Rectangle 6" class="cls-2" d="M139.596 40.726h3.047v2.984h-3.047z"/><path data-name="Path 4" class="cls-2" d="M140.538 39.289a4.535 4.535 0 004.93-5.084v-3.647h-2.991v3.426a2.6 2.6 0 01-.5 1.768 2.448 2.448 0 01-1.717.553h-.388a2.473 2.473 0 01-1.883-.608 2.761 2.761 0 01-.5-1.824v-3.315H134.5v3.316a2.1 2.1 0 01-2.437 2.431h-5.706a3.546 3.546 0 01-2.77-.884 3.409 3.409 0 01-.831-2.431v-2.432h-2.936v2.6c0 4.089 2.216 6.078 6.592 6.078h5.373c1.828 0 3.1-.553 3.767-1.713a3.4 3.4 0 003.324 1.713h1.662z"/><path data-name="Path 5" class="cls-2" d="M170.395 21.496l-9.528 3.537v2.487l2.05 4.863a6.074 6.074 0 01.554 2.155c0 1.16-.609 1.768-1.883 1.768h-3.712v-1.437c0-2.431-.554-4.144-1.606-5.029a4.894 4.894 0 00-3.324-1.05 4.808 4.808 0 00-3.767 1.492 5.74 5.74 0 00-1.385 3.923 5.478 5.478 0 00.942 3.316c.886 1.216 2.493 1.824 4.709 1.824h1a3.544 3.544 0 01-2.05 1.824 14.773 14.773 0 01-4.155.884l.443 2.873c5.1-.387 8.032-2.266 8.863-5.636h4.21a4.062 4.062 0 004.6-4.421 9.184 9.184 0 00-.886-3.7l-1.5-4.089 6.425-2.324zm-15.454 14.809h-1.385a2.957 2.957 0 01-2.271-.774 2.62 2.62 0 01.055-3.15 2.048 2.048 0 011.5-.608 1.8 1.8 0 011.329.5c.5.442.72 1.381.72 2.763v1.271z"/></g><g data-name="Group 3"><g data-name="Group 2"><path data-name="Path 6" class="cls-2" d="M71.903 56.254a5.141 5.141 0 013.878 1.547 4.308 4.308 0 011.274 2.21 20.442 20.442 0 01.222 3.647 22.255 22.255 0 01-.166 3.15 5.061 5.061 0 01-.72 1.989l1.274 1.271-1.5 1.492-1.274-1.271a5.669 5.669 0 01-2.936.774 5.352 5.352 0 01-3.933-1.547 3.859 3.859 0 01-1.219-2.21 20.052 20.052 0 01-.222-3.647 19.668 19.668 0 01.222-3.647 4.419 4.419 0 011.219-2.21 5.226 5.226 0 013.881-1.548zm0 2.542a2.342 2.342 0 00-1.828.774 2.693 2.693 0 00-.554 1.271 23.978 23.978 0 000 5.636 2.966 2.966 0 00.554 1.271 2.318 2.318 0 001.828.774 2.177 2.177 0 001-.221l-1.329-1.326 1.5-1.492 1.163 1.16a16.443 16.443 0 00.222-3.039 15.483 15.483 0 00-.166-2.818 2.966 2.966 0 00-.554-1.271 2.305 2.305 0 00-1.836-.719z"/><path data-name="Path 7" class="cls-2" d="M87.414 69.903a4.873 4.873 0 01-3.324 1.16 4.776 4.776 0 01-3.324-1.16 4.006 4.006 0 01-1.329-3.2 3.678 3.678 0 011.828-3.26 3.529 3.529 0 01-1.662-3.039 3.834 3.834 0 011.274-2.984 4.876 4.876 0 016.315 0 3.734 3.734 0 011.274 2.984 3.529 3.529 0 01-1.662 3.039 4.232 4.232 0 01.609 6.465zm-4.764-1.824a2 2 0 10-.609-1.437 2.014 2.014 0 00.609 1.437zm.111-6.3a1.881 1.881 0 002.548 0 2.013 2.013 0 000-2.652 1.881 1.881 0 00-2.548 0 2.013 2.013 0 000 2.652z"/><path data-name="Path 8" class="cls-2" d="M96.111 56.365h5.817a4.723 4.723 0 013.324 1.105 3.9 3.9 0 011.219 2.984 3.131 3.131 0 01-.554 1.879 4.786 4.786 0 01-1.219 1.16 3.345 3.345 0 012.05 3.26 3.877 3.877 0 01-1.219 3.094 4.768 4.768 0 01-3.268 1.105h-6.094V56.365zm5.65 2.542h-2.825v3.371h2.825a2.076 2.076 0 001.385-.442 1.623 1.623 0 00.5-1.216 1.541 1.541 0 00-.5-1.216 2.028 2.028 0 00-1.385-.497zm.166 5.913h-2.991v3.592h2.991a1.982 1.982 0 001.44-.5 1.869 1.869 0 000-2.542 1.882 1.882 0 00-1.439-.55z"/><path data-name="Path 9" class="cls-2" d="M109.572 56.365h5.706a4.692 4.692 0 013.435 1.271 4.375 4.375 0 011.274 3.15 3.87 3.87 0 01-.776 2.431 4.188 4.188 0 01-1.883 1.381l3.268 6.3h-3.324l-2.825-5.8h-2.05v5.8h-2.825zm5.54 2.542h-2.714v3.813h2.714a2.008 2.008 0 001.5-.553 2 2 0 000-2.763 2.221 2.221 0 00-1.5-.497z"/><path data-name="Path 10" class="cls-2" d="M127.63 56.254a5.352 5.352 0 013.933 1.547 3.859 3.859 0 011.219 2.21 20.747 20.747 0 01.222 3.7 20.75 20.75 0 01-.222 3.7 4.2 4.2 0 01-1.219 2.21 5.58 5.58 0 01-3.933 1.547 5.351 5.351 0 01-3.933-1.547 3.859 3.859 0 01-1.219-2.21 20.051 20.051 0 01-.222-3.647 19.667 19.667 0 01.222-3.647 4.418 4.418 0 011.219-2.21 5.124 5.124 0 013.933-1.653zm0 2.542a2.342 2.342 0 00-1.828.774 2.245 2.245 0 00-.554 1.271 23.981 23.981 0 000 5.636 2.966 2.966 0 00.554 1.271 2.175 2.175 0 001.828.774 2.342 2.342 0 001.828-.774 2.245 2.245 0 00.554-1.271 23.977 23.977 0 000-5.636 2.966 2.966 0 00-.554-1.271 2.175 2.175 0 00-1.828-.774z"/><path data-name="Path 11" class="cls-2" d="M147.407 56.365l-4.819 5.8 5.207 8.786h-3.324l-3.767-6.631-1.883 2.266v4.365h-2.825V56.365h2.825v6.355l5.152-6.355z"/><path data-name="Path 12" class="cls-2" d="M159.15 56.365v2.542h-6.758v3.426h5.761v2.542h-5.761v3.537h6.758v2.542h-9.583V56.365z"/><path data-name="Path 13" class="cls-2" d="M161.976 56.365h5.706a4.692 4.692 0 013.435 1.271 4.375 4.375 0 011.274 3.15 3.87 3.87 0 01-.776 2.431 4.187 4.187 0 01-1.883 1.381l3.268 6.3h-3.324l-2.825-5.8h-2.05v5.8h-2.825V56.365zm5.54 2.542h-2.714v3.813h2.714a2.008 2.008 0 001.5-.553 2 2 0 000-2.763 2.221 2.221 0 00-1.5-.497z"/></g></g></g></svg>