<svg xmlns="http://www.w3.org/2000/svg" viewBox="0 0 15.136 15.136">
  <defs>
    <style>
      .cls-1 {
        fill: #707070;
      }
    </style>
  </defs>
  <path id="Icon_Search" class="cls-1" d="M10.149,1.779a5.918,5.918,0,1,0-.8,9.021,1.2,1.2,0,0,0,.351.652l3.358,3.358a1.24,1.24,0,0,0,1.754-1.754L11.452,9.7a1.2,1.2,0,0,0-.652-.351A5.933,5.933,0,0,0,10.149,1.779ZM9.1,9.1a4.478,4.478,0,0,1-6.265,0,4.478,4.478,0,0,1,0-6.265,4.478,4.478,0,0,1,6.265,0A4.478,4.478,0,0,1,9.1,9.1Z" transform="translate(-0.05 -0.05)"/>
</svg>
