<?xml version="1.0" encoding="utf-8"?>
<!-- Generator: Adobe Illustrator 21.1.0, SVG Export Plug-In . SVG Version: 6.00 Build 0)  -->
<svg version="1.1" id="Layer_1" xmlns="http://www.w3.org/2000/svg" xmlns:xlink="http://www.w3.org/1999/xlink" x="0px" y="0px"
	 viewBox="0 0 215 215" style="enable-background:new 0 0 215 215;" xml:space="preserve">
<g>
	<path id="_x32_iela" d="M107.5,4c-6.3,0-12.7,0.7-18.8,2.1c-6,1.4-11.9,3.4-17.6,6c-5.6,2.6-10.9,5.8-15.9,9.5
		c-5,3.8-9.6,8-13.8,12.6c-4.3,4.7-8.1,9.9-11.4,15.3c-3.4,5.6-6.3,11.5-8.6,17.6c-2.4,6.3-4.2,12.8-5.4,19.4
		c-1.3,6.9-1.9,13.9-1.9,20.9c0,7,0.6,14,1.9,20.9c1.2,6.6,3,13.1,5.4,19.4c2.3,6.1,5.2,12,8.6,17.6c3.3,5.4,7.1,10.6,11.4,15.3
		c4.2,4.6,8.8,8.9,13.8,12.6c5,3.7,10.3,6.9,15.9,9.5c5.6,2.6,11.5,4.7,17.5,6c6.2,1.4,12.5,2.1,18.8,2.1c6.3,0,12.7-0.7,18.8-2.1
		c6-1.4,11.9-3.4,17.6-6c5.6-2.6,10.9-5.8,15.9-9.5c5-3.8,9.6-8,13.8-12.6c4.3-4.7,8.1-9.9,11.4-15.3c3.4-5.6,6.3-11.5,8.6-17.6
		c2.4-6.3,4.2-12.8,5.4-19.4c1.3-6.8,1.9-13.8,1.9-20.9c0-7-0.6-14-1.9-20.9c-1.2-6.6-3-13.1-5.4-19.4c-2.3-6.1-5.2-12-8.6-17.6
		c-3.3-5.4-7.1-10.6-11.4-15.3c-4.2-4.6-8.8-8.9-13.8-12.6c-5-3.7-10.3-6.9-15.9-9.5c-5.6-2.6-11.5-4.7-17.5-6
		C120.2,4.7,113.8,4,107.5,4z M107.5,215c-7.3,0-14.6-0.7-21.7-2.2c-6.9-1.4-13.7-3.5-20.2-6.3c-6.4-2.7-12.5-6-18.3-9.9
		c-5.7-3.9-11-8.3-15.9-13.1c-4.9-4.9-9.3-10.2-13.1-15.9c-3.9-5.8-7.2-11.9-9.9-18.3c-2.7-6.5-4.8-13.3-6.3-20.2
		C0.7,122,0,114.8,0,107.5c0-7.3,0.7-14.6,2.2-21.7c1.4-6.9,3.5-13.7,6.3-20.2c2.7-6.4,6-12.5,9.9-18.3c3.9-5.7,8.3-11,13.1-15.9
		c4.9-4.9,10.2-9.3,15.9-13.1c5.8-3.9,11.9-7.2,18.3-9.9c6.5-2.7,13.3-4.8,20.2-6.3C93,0.7,100.2,0,107.5,0c7.3,0,14.6,0.7,21.7,2.2
		c6.9,1.4,13.7,3.5,20.2,6.3c6.4,2.7,12.5,6,18.3,9.9c5.7,3.9,11,8.3,15.9,13.1c4.9,4.9,9.3,10.2,13.1,15.9
		c3.9,5.8,7.2,11.9,9.9,18.3c2.7,6.5,4.8,13.3,6.3,20.2c1.5,7.1,2.2,14.4,2.2,21.7c0,7.3-0.7,14.6-2.2,21.7
		c-1.4,6.9-3.5,13.7-6.3,20.2c-2.7,6.4-6,12.5-9.9,18.3c-3.9,5.7-8.3,11-13.1,15.9c-4.9,4.9-10.2,9.3-15.9,13.1
		c-5.8,3.9-11.9,7.2-18.3,9.9c-6.5,2.7-13.3,4.8-20.2,6.3C122,214.3,114.8,215,107.5,215z"/>
</g>
<g>
	<g>
		<path id="_x32_ielb" d="M68.7,118.4c2-0.5,3.5-2.2,3.5-4.4c0-0.1,0-0.3,0-0.4l11.9-2.5c0.6,0.9,1.6,1.5,2.6,1.8l0,34.1h-18V118.4z
			 M65.2,114c0-1.4,1.1-2.5,2.5-2.5c1.4,0,2.5,1.1,2.5,2.5c0,1.4-1.1,2.5-2.5,2.5C66.3,116.5,65.2,115.4,65.2,114z M87.7,106
			c1.4,0,2.5,1.1,2.5,2.5c0,1.4-1.1,2.5-2.5,2.5c-1.4,0-2.5-1.1-2.5-2.5C85.2,107.1,86.3,106,87.7,106z M104.4,97.8
			c0.6,0.6,1.4,1.1,2.2,1.3v48h-18v-34.1c2-0.5,3.5-2.2,3.5-4.4c0-0.4-0.1-0.7-0.1-1.1L104.4,97.8z M107.7,92.2
			c1.4,0,2.5,1.1,2.5,2.5s-1.1,2.5-2.5,2.5c-1.4,0-2.5-1.1-2.5-2.5C105.2,93.3,106.3,92.2,107.7,92.2z M126.7,107.4V147h-18V99
			c1.5-0.3,2.7-1.4,3.2-2.9l11.4,6c0,0.3-0.1,0.5-0.1,0.8C123.2,105.1,124.7,106.9,126.7,107.4z M127.7,100.5c1.4,0,2.5,1.1,2.5,2.5
			s-1.1,2.5-2.5,2.5c-1.4,0-2.5-1.1-2.5-2.5C125.2,101.6,126.3,100.5,127.7,100.5z M147.7,76c1.4,0,2.5,1.1,2.5,2.5S149,81,147.7,81
			c-1.4,0-2.5-1.1-2.5-2.5C145.2,77.1,146.3,76,147.7,76z M128.7,107.4c2-0.5,3.5-2.2,3.5-4.4c0-1-0.3-1.9-0.8-2.6L144.9,82
			c0.5,0.4,1.1,0.7,1.8,0.9V147h-18V107.4z M156.3,147h-7.7V82.9c2-0.5,3.5-2.2,3.5-4.4c0-2.5-2-4.5-4.5-4.5s-4.5,2-4.5,4.5
			c0,0.7,0.2,1.3,0.4,1.9l-13.8,18.7c-0.7-0.4-1.4-0.6-2.2-0.6c-1.5,0-2.8,0.7-3.6,1.9L112.1,94c-0.3-2.2-2.2-3.9-4.4-3.9
			c-2.5,0-4.5,2-4.5,4.5c0,0.5,0.1,0.9,0.2,1.4l-12.3,9.6c-0.8-1-2-1.6-3.4-1.6c-2.5,0-4.5,2-4.5,4.5c0,0.3,0,0.5,0.1,0.7l-11.7,2.4
			c-0.8-1.3-2.2-2.2-3.8-2.2c-2.5,0-4.5,2-4.5,4.5c0,2.1,1.5,3.9,3.5,4.4V147H59c-0.5,0-1,0.4-1,1c0,0.6,0.5,1,1,1h97.3
			c0.6,0,1-0.4,1-1C157.3,147.4,156.9,147,156.3,147z"/>
	</g>
</g>
</svg>
