<?xml version="1.0" encoding="utf-8"?>
<!-- Generator: Adobe Illustrator 21.1.0, SVG Export Plug-In . SVG Version: 6.00 Build 0)  -->
<svg version="1.1" id="Layer_1" xmlns="http://www.w3.org/2000/svg" xmlns:xlink="http://www.w3.org/1999/xlink" x="0px" y="0px"
	 viewBox="0 0 26.6 26.6" style="enable-background:new 0 0 26.6 26.6;" xml:space="preserve">
<style type="text/css">
	.st0{display:none;}
</style>
<g id="Group_87" transform="translate(0.001 0.001)">
	<path id="Path_371" class="st0" d="M12.7,10.5c0.3,0,0.5-0.2,0.5-0.7V7.6c0-0.5-0.1-0.7-0.5-0.7s-0.5,0.2-0.5,0.7v2.2
		C12.2,10.2,12.4,10.5,12.7,10.5z"/>
	<path id="Path_375" class="st0" d="M15.5,15.2c-0.4,0-0.8,0.2-1,0.6v-2.3h-0.9v7h0.9V20c0.2,0.3,0.6,0.5,1,0.6
		c0.4,0,0.7-0.2,0.8-0.6c0.1-0.3,0.1-0.7,0.1-1v-2.1c0-0.4,0-0.7-0.1-1C16.2,15.5,15.9,15.2,15.5,15.2z M15.4,19
		c0,0.5-0.1,0.7-0.4,0.7c-0.2,0-0.4-0.1-0.5-0.2v-3.2c0.1-0.1,0.3-0.2,0.5-0.2c0.3,0,0.4,0.2,0.4,0.7V19z"/>
	<path id="Path_376" class="st0" d="M6.7,14.5h1.1v6h1v-6H10v-1H6.7V14.5z"/>
	<path id="Path_377" class="st0" d="M11.9,19.2c-0.2,0.3-0.4,0.4-0.6,0.4c-0.1,0-0.2-0.1-0.2-0.2c0-0.1,0-0.2,0-0.4v-3.8h-0.9v4.1
		c0,0.3,0,0.5,0.1,0.8c0.1,0.3,0.3,0.4,0.6,0.4c0.4,0,0.8-0.3,1.1-0.6v0.6h0.9v-5.2h-0.9L11.9,19.2z"/>
	<path id="Path_379" class="st0" d="M18.5,15.2c-0.4,0-0.9,0.2-1.1,0.5c-0.2,0.4-0.3,0.8-0.3,1.2v1.8c0,0.4,0.1,0.9,0.3,1.2
		c0.3,0.4,0.7,0.6,1.1,0.5c0.5,0,0.9-0.2,1.1-0.6c0.1-0.2,0.2-0.4,0.2-0.6c0-0.1,0-0.3,0-0.6v-0.1h-1c0,0.2,0,0.4,0,0.6
		c0,0.2-0.2,0.4-0.4,0.4c-0.3,0-0.5-0.2-0.5-0.7V18h1.9V17c0-0.4-0.1-0.9-0.3-1.2C19.4,15.4,19,15.2,18.5,15.2z M19,17.3h-0.9v-0.5
		c0-0.5,0.2-0.7,0.5-0.7c0.3,0,0.5,0.2,0.5,0.7L19,17.3z"/>
	<path d="M25.2,1.5C24.2,0.5,23,0,21.6,0H5C3.7,0,2.4,0.5,1.5,1.5C0.5,2.4,0,3.7,0,5v16.6c0,1.3,0.5,2.6,1.5,3.5
		c0.9,1,2.2,1.5,3.5,1.5h16.6c2.8,0,5-2.2,5-5V5C26.7,3.7,26.1,2.4,25.2,1.5z M14.9,6h0.9v3.9c0,0.1,0,0.2,0,0.4
		c0,0.1,0.1,0.2,0.2,0.2c0.2,0,0.4-0.1,0.6-0.4V6h0.9v5.2h-1v-0.6c-0.3,0.4-0.6,0.6-1.1,0.6c-0.3,0-0.5-0.1-0.6-0.4
		c-0.1-0.3-0.1-0.5-0.1-0.8L14.9,6z M11.3,7.7c0-0.4,0.1-0.9,0.3-1.2c0.5-0.6,1.4-0.7,2-0.2c0.1,0.1,0.2,0.1,0.2,0.2
		c0.2,0.4,0.3,0.8,0.3,1.2v1.8c0,0.4-0.1,0.9-0.3,1.2c-0.5,0.6-1.4,0.7-2,0.2c-0.1-0.1-0.2-0.1-0.2-0.2c-0.2-0.4-0.3-0.8-0.3-1.2
		V7.7z M8.7,4.2L9.5,7l0.7-2.8h1.1L10,8.4v2.8H8.9V8.4C8.8,7.7,8.6,6.9,8.3,6.2c-0.2-0.7-0.5-1.3-0.7-2L8.7,4.2z M20.8,20.9
		c-0.2,0.8-0.9,1.4-1.7,1.5c-1.9,0.2-3.9,0.3-5.8,0.2c-1.9,0-3.9,0-5.8-0.2c-0.8-0.1-1.5-0.7-1.7-1.5c-0.2-1.2-0.3-2.4-0.3-3.7
		c0-1.2,0-2.5,0.3-3.7C6,12.8,6.7,12.1,7.5,12c1.9-0.2,3.9-0.3,5.8-0.2c1.9,0,3.9,0,5.8,0.2c0.8,0.1,1.5,0.7,1.7,1.5
		c0.2,1.2,0.3,2.4,0.3,3.7C21.1,18.5,21.1,19.7,20.8,20.9z"/>
</g>
<path id="Path_371_1_" d="M12.7,10.5c0.3,0,0.5-0.2,0.5-0.7V7.6c0-0.5-0.1-0.7-0.5-0.7s-0.5,0.2-0.5,0.7v2.2
	C12.2,10.2,12.4,10.5,12.7,10.5z"/>
<path id="Path_375_1_" d="M15.5,15.2c-0.4,0-0.8,0.2-1,0.6v-2.3h-0.9v7h0.9V20c0.2,0.3,0.6,0.5,1,0.6c0.4,0,0.7-0.2,0.8-0.6
	c0.1-0.3,0.1-0.7,0.1-1v-2.1c0-0.4,0-0.7-0.1-1C16.2,15.5,15.9,15.2,15.5,15.2z M15.5,19c0,0.5-0.1,0.7-0.4,0.7
	c-0.2,0-0.4-0.1-0.5-0.2v-3.2c0.1-0.1,0.3-0.2,0.5-0.2c0.3,0,0.4,0.2,0.4,0.7V19z"/>
<path id="Path_376_1_" d="M6.7,14.5h1.1v6h1v-6H10v-1H6.7V14.5z"/>
<path id="Path_377_1_" d="M11.9,19.2c-0.2,0.3-0.4,0.4-0.6,0.4c-0.1,0-0.2-0.1-0.2-0.2c0-0.1,0-0.2,0-0.4v-3.8h-0.9v4.1
	c0,0.3,0,0.5,0.1,0.8c0.1,0.3,0.3,0.4,0.6,0.4c0.4,0,0.8-0.3,1.1-0.6v0.6h0.9v-5.2h-0.9L11.9,19.2z"/>
<path id="Path_379_1_" d="M18.5,15.2c-0.4,0-0.9,0.2-1.1,0.5c-0.2,0.4-0.3,0.8-0.3,1.2v1.8c0,0.4,0.1,0.9,0.3,1.2
	c0.3,0.4,0.7,0.6,1.1,0.5c0.5,0,0.9-0.2,1.1-0.6c0.1-0.2,0.2-0.4,0.2-0.6c0-0.1,0-0.3,0-0.6v-0.1h-1c0,0.2,0,0.4,0,0.6
	c0,0.2-0.2,0.4-0.4,0.4c-0.3,0-0.5-0.2-0.5-0.7V18h1.9V17c0-0.4-0.1-0.9-0.3-1.2C19.4,15.4,19,15.2,18.5,15.2z M19,17.3h-0.9v-0.5
	c0-0.5,0.2-0.7,0.5-0.7c0.3,0,0.5,0.2,0.5,0.7L19,17.3z"/>
</svg>
