<?xml version="1.0" encoding="utf-8"?>
<!-- Generator: Adobe Illustrator 21.1.0, SVG Export Plug-In . SVG Version: 6.00 Build 0)  -->
<svg version="1.1" id="down_arrow-white" xmlns="http://www.w3.org/2000/svg" xmlns:xlink="http://www.w3.org/1999/xlink" x="0px"
	 y="0px" viewBox="0 0 19.4 24.3" style="enable-background:new 0 0 19.4 24.3;" xml:space="preserve">
<path id="Path_329" d="M9.7,24.3c-0.2,0-0.4-0.2-0.4-0.4V0.4C9.3,0.2,9.5,0,9.7,0c0.2,0,0.4,0.1,0.4,0.4c0,0,0,0,0,0V24
	C10.1,24.2,9.9,24.3,9.7,24.3z"/>
<path id="Path_330" d="M9.7,24.3L9.7,24.3c-0.1,0-0.2,0-0.3-0.1l-9.3-9.3c-0.2-0.1-0.2-0.4,0-0.5s0.4-0.2,0.5,0c0,0,0,0,0,0l9.1,9.1
	l9.1-9.1c0.1-0.2,0.4-0.2,0.5,0c0.2,0.1,0.2,0.4,0,0.5c0,0,0,0,0,0L10,24.2C9.9,24.3,9.8,24.3,9.7,24.3z"/>
</svg>
