<?xml version="1.0" encoding="utf-8"?>
<!-- Generator: Adobe Illustrator 21.1.0, SVG Export Plug-In . SVG Version: 6.00 Build 0)  -->
<svg version="1.1" id="Layer_1" xmlns="http://www.w3.org/2000/svg" xmlns:xlink="http://www.w3.org/1999/xlink" x="0px" y="0px"
	 viewBox="0 0 215 215" style="enable-background:new 0 0 215 215;" xml:space="preserve">
<g id="icon-workspace" transform="translate(-818 -1746)">
	<path id="Subtraction_2" d="M925.5,1961c-7.3,0-14.5-0.7-21.7-2.2c-6.9-1.4-13.7-3.5-20.2-6.3c-6.4-2.7-12.5-6-18.3-9.9
		c-5.7-3.9-11-8.3-15.9-13.1c-4.9-4.9-9.3-10.2-13.1-15.9c-3.9-5.8-7.2-11.9-9.9-18.3c-2.7-6.5-4.8-13.3-6.3-20.2
		c-1.5-7.1-2.2-14.4-2.2-21.7c0-7.3,0.7-14.5,2.2-21.7c1.4-6.9,3.5-13.7,6.3-20.2c2.7-6.4,6-12.5,9.9-18.3c3.9-5.7,8.3-11,13.1-15.9
		c4.9-4.9,10.2-9.3,15.9-13.1c5.8-3.9,11.9-7.2,18.3-9.9c6.5-2.7,13.3-4.8,20.2-6.3c7.1-1.5,14.4-2.2,21.7-2.2
		c7.3,0,14.5,0.7,21.7,2.2c6.9,1.4,13.7,3.5,20.2,6.3c6.4,2.7,12.5,6,18.3,9.9c5.7,3.9,11,8.3,15.9,13.1c4.9,4.9,9.3,10.2,13.1,15.9
		c3.9,5.8,7.2,11.9,9.9,18.3c2.7,6.5,4.8,13.3,6.3,20.2c1.5,7.1,2.2,14.4,2.2,21.7c0,7.3-0.7,14.5-2.2,21.7
		c-1.4,6.9-3.5,13.7-6.3,20.2c-2.7,6.4-6,12.5-9.9,18.3c-3.9,5.7-8.3,11-13.1,15.9c-4.9,4.9-10.2,9.3-15.9,13.1
		c-5.8,3.9-11.9,7.2-18.3,9.9c-6.5,2.7-13.3,4.8-20.2,6.3C940,1960.3,932.8,1961,925.5,1961z M925.5,1750c-6.3,0-12.7,0.7-18.8,2.1
		c-6,1.4-11.9,3.4-17.6,6c-5.6,2.6-10.9,5.8-15.9,9.5c-5,3.8-9.6,8-13.8,12.6c-4.3,4.7-8.1,9.9-11.4,15.3
		c-3.4,5.6-6.3,11.5-8.6,17.6c-2.4,6.3-4.2,12.8-5.4,19.4c-1.3,6.9-1.9,13.9-1.9,20.9c0,7,0.6,14,1.9,20.9c1.2,6.6,3,13.1,5.4,19.4
		c2.3,6.1,5.2,12,8.6,17.6c3.3,5.4,7.1,10.6,11.4,15.3c4.2,4.6,8.8,8.9,13.8,12.6c5,3.7,10.3,6.9,15.9,9.5c5.6,2.6,11.5,4.7,17.6,6
		c6.2,1.4,12.5,2.1,18.8,2.1c6.3,0,12.7-0.7,18.8-2.1c6-1.4,11.9-3.4,17.6-6c5.6-2.6,10.9-5.8,15.9-9.5c5-3.8,9.6-8,13.8-12.6
		c4.3-4.7,8.1-9.9,11.4-15.3c3.4-5.6,6.3-11.5,8.6-17.6c2.4-6.3,4.2-12.8,5.4-19.4c1.3-6.9,1.9-13.9,1.9-20.9c0-7-0.6-14-1.9-20.9
		c-1.2-6.6-3-13.1-5.4-19.4c-2.3-6.1-5.2-12-8.6-17.6c-3.3-5.4-7.1-10.6-11.4-15.3c-4.2-4.6-8.8-8.9-13.8-12.6
		c-5-3.7-10.3-6.9-15.9-9.5c-5.6-2.6-11.5-4.7-17.6-6C938.2,1750.7,931.8,1750,925.5,1750z"/>
	<g id="Group_865" transform="translate(863.5 1804.5)">
		<path d="M55.2,36.8H5.6c-3.2,0-5.9-2.7-5.9-5.9V5.6c0-3.2,2.7-5.9,5.9-5.9h49.6c3.2,0,5.9,2.7,5.9,5.9v25.3
			C61,34.2,58.5,36.7,55.2,36.8L55.2,36.8z M55.2,1.3H5.6c-2.4,0-4.3,1.9-4.3,4.3v25.3c0,2.4,1.9,4.3,4.3,4.3h49.6
			c2.4,0,4.3-1.9,4.3-4.3V5.6C59.5,3.2,57.6,1.3,55.2,1.3z"/>
		<path d="M119.4,36.8H69.8c-3.2,0-5.9-2.7-5.9-5.9V5.6c0-3.2,2.7-5.9,5.9-5.9h49.6c3.2,0,5.9,2.7,5.9,5.9v25.3
			C125.3,34.1,122.6,36.8,119.4,36.8L119.4,36.8z M119.4,1.3H69.8c-2.4,0-4.3,1.9-4.3,4.3v25.3c0,2.4,1.9,4.3,4.3,4.3h49.6
			c2.4,0,4.3-1.9,4.3-4.3V5.6C123.7,3.2,121.8,1.3,119.4,1.3z"/>
		<path d="M55.2,78.3H5.6c-3.2,0-5.9-2.7-5.9-5.9V47.1c0-3.2,2.7-5.9,5.9-5.9h49.6c3.2,0,5.9,2.7,5.9,5.9v25.3
			C61,75.7,58.5,78.2,55.2,78.3L55.2,78.3z M55.2,42.8H5.6c-2.4,0-4.3,1.9-4.3,4.3v25.3c0,2.4,1.9,4.3,4.3,4.3h49.6
			c2.4,0,4.3-1.9,4.3-4.3V47.1C59.5,44.7,57.6,42.8,55.2,42.8z"/>
		<path d="M119.4,78.3H69.8c-3.2,0-5.9-2.7-5.9-5.9V47.1c0-3.2,2.7-5.9,5.9-5.9h49.6c3.2,0,5.9,2.7,5.9,5.9v25.3
			C125.3,75.6,122.6,78.3,119.4,78.3L119.4,78.3z M119.4,42.8H69.8c-2.4,0-4.3,1.9-4.3,4.3v25.3c0,2.4,1.9,4.3,4.3,4.3h49.6
			c2.4,0,4.3-1.9,4.3-4.3V47.1C123.7,44.7,121.8,42.8,119.4,42.8z"/>
		<polygon points="8.9,29.4 7.5,28.6 17.4,12.4 23.1,20.2 33.3,7 43.6,24.3 49.4,15.2 50.8,16 43.6,27.3 33.1,9.8 23.1,22.8 
			17.6,15.2 		"/>
		<path d="M22,69.3h-5.2V57.6H22V69.3z M18.4,67.7h2v-8.5h-2V67.7z"/>
		<path d="M28.5,69.3h-5.2V52.8h5.2V69.3z M24.9,67.7h2V54.4h-2V67.7z"/>
		<path d="M42.9,69.3h-5.2V52.8h5.2V69.3z M39.3,67.7h2V54.4h-2V67.7z"/>
		<path d="M35.6,69.3h-5.2v-9.5h5.2V69.3z M32,67.7h2v-6.3h-2V67.7z"/>
		<path d="M84.3,30.7h-6.9v-1.6H83c0.7-2,3.3-8,11.8-8c8.4,0,11.1,5.6,11.8,7.5h5.3v1.6h-6.5l-0.1-0.6c-0.1-0.3-1.6-6.9-10.4-6.9
			c-8.8,0-10.4,7.3-10.4,7.4L84.3,30.7z"/>
		<polygon points="82.9,30 81.5,29.4 89.4,11.2 99.6,11.2 107.8,28.9 106.3,29.6 98.6,12.8 90.4,12.8 		"/>
		<path d="M102.9,69l-9.3-17.9c-2.9,5.3-7.6,13.7-7.8,14.2l-0.2,0.4l-0.5,0.1c-0.5,0-1,0-4.4-5.8l-6.1,8.5l-1.3-0.9L80.8,57l0.6,1.1
			c1.2,2.1,2.7,4.4,3.5,5.5c1.8-3.3,7.7-14.1,8-14.6l0.7-1.3l10.7,20.5L102.9,69z"/>
		<path d="M117.2,62.1h-8.5v-5.8h8.5V62.1z M110.3,60.5h5.3v-2.6h-5.3V60.5z"/>
		<path d="M117.2,69.5h-8.5v-5.8h8.5V69.5z M110.3,67.9h5.3v-2.6h-5.3V67.9z"/>
		<rect x="60.6" y="15" width="3.9" height="1.6"/>
		<rect x="56" y="35.9" width="1.6" height="6.1"/>
		<rect x="67.8" y="36.1" width="1.6" height="5.7"/>
		<polygon points="83.2,108.2 41.3,108.2 52.2,94.5 56.3,81.3 56.3,77.2 57.9,77.2 57.9,81.6 53.6,95.3 44.7,106.6 80,106.6 
			70.8,94.9 66.7,79.4 66.7,76.6 68.3,76.6 68.3,79.3 72.2,94.1 		"/>
	</g>
</g>
</svg>
