<?xml version="1.0" encoding="utf-8"?>
<!-- Generator: Adobe Illustrator 21.1.0, SVG Export Plug-In . SVG Version: 6.00 Build 0)  -->
<svg version="1.1" id="Layer_1" xmlns="http://www.w3.org/2000/svg" xmlns:xlink="http://www.w3.org/1999/xlink" x="0px" y="0px"
	 viewBox="0 0 215 215" style="enable-background:new 0 0 215 215;" xml:space="preserve">
<g>
	<g>
		<path id="ogbwa" d="M107.5,4c-6.3,0-12.7,0.7-18.8,2.1c-6,1.4-11.9,3.4-17.6,6c-5.6,2.6-10.9,5.8-15.9,9.5c-5,3.8-9.6,8-13.8,12.6
			c-4.3,4.7-8.1,9.9-11.4,15.3c-3.4,5.6-6.3,11.5-8.6,17.6c-2.4,6.3-4.2,12.8-5.4,19.4c-1.3,6.9-1.9,13.9-1.9,20.9
			c0,7,0.6,14,1.9,20.9c1.2,6.6,3,13.1,5.4,19.4c2.3,6.1,5.2,12,8.6,17.6c3.3,5.4,7.1,10.6,11.4,15.3c4.2,4.6,8.8,8.9,13.8,12.6
			c5,3.7,10.3,6.9,15.9,9.5c5.6,2.6,11.5,4.7,17.5,6c6.2,1.4,12.5,2.1,18.8,2.1c6.3,0,12.7-0.7,18.8-2.1c6-1.4,11.9-3.4,17.6-6
			c5.6-2.6,10.9-5.8,15.9-9.5c5-3.8,9.6-8,13.8-12.6c4.3-4.7,8.1-9.9,11.4-15.3c3.4-5.6,6.3-11.5,8.6-17.6
			c2.4-6.3,4.2-12.8,5.4-19.4c1.3-6.8,1.9-13.8,1.9-20.9c0-7-0.6-14-1.9-20.9c-1.2-6.6-3-13.1-5.4-19.4c-2.3-6.1-5.2-12-8.6-17.6
			c-3.3-5.4-7.1-10.6-11.4-15.3c-4.2-4.6-8.8-8.9-13.8-12.6c-5-3.7-10.3-6.9-15.9-9.5c-5.6-2.6-11.5-4.7-17.5-6
			C120.2,4.7,113.8,4,107.5,4z M107.5,215c-7.3,0-14.6-0.7-21.7-2.2c-6.9-1.4-13.7-3.5-20.2-6.3c-6.4-2.7-12.5-6-18.3-9.9
			c-5.7-3.9-11-8.3-15.9-13.1c-4.9-4.9-9.3-10.2-13.1-15.9c-3.9-5.8-7.2-11.9-9.9-18.3c-2.7-6.5-4.8-13.3-6.3-20.2
			C0.7,122,0,114.8,0,107.5c0-7.3,0.7-14.6,2.2-21.7c1.4-6.9,3.5-13.7,6.3-20.2c2.7-6.4,6-12.5,9.9-18.3c3.9-5.7,8.3-11,13.1-15.9
			c4.9-4.9,10.2-9.3,15.9-13.1c5.8-3.9,11.9-7.2,18.3-9.9c6.5-2.7,13.3-4.8,20.2-6.3C93,0.7,100.2,0,107.5,0
			c7.3,0,14.6,0.7,21.7,2.2c6.9,1.4,13.7,3.5,20.2,6.3c6.4,2.7,12.5,6,18.3,9.9c5.7,3.9,11,8.3,15.9,13.1
			c4.9,4.9,9.3,10.2,13.1,15.9c3.9,5.8,7.2,11.9,9.9,18.3c2.7,6.5,4.8,13.3,6.3,20.2c1.5,7.1,2.2,14.4,2.2,21.7
			c0,7.3-0.7,14.6-2.2,21.7c-1.4,6.9-3.5,13.7-6.3,20.2c-2.7,6.4-6,12.5-9.9,18.3c-3.9,5.7-8.3,11-13.1,15.9
			c-4.9,4.9-10.2,9.3-15.9,13.1c-5.8,3.9-11.9,7.2-18.3,9.9c-6.5,2.7-13.3,4.8-20.2,6.3C122,214.3,114.8,215,107.5,215z"/>
	</g>
</g>
<g>
	<g>
		<g>
			<path id="ogbwb" d="M146.4,128.9c0,0.7-0.5,1.1-1.1,1.1H70.8c-0.7,0-1.1-0.4-1.1-1.1V77c0-0.7,0.5-1.1,1.1-1.1h74.5
				c0.7,0,1.1,0.4,1.1,1.1L146.4,128.9z M112.5,148.1h-9v-15.8h9V148.1z M70.8,73.6c-1.9,0-3.4,1.5-3.4,3.4v51.9
				c0,1.9,1.5,3.4,3.4,3.4h30.5v15.8h-7.3c-0.7,0-1.1,0.4-1.1,1.1c0,0.7,0.5,1.1,1.1,1.1h28.2c0.7,0,1.1-0.4,1.1-1.1
				c0-0.7-0.5-1.1-1.1-1.1h-7.3v-15.8h30.5c1.9,0,3.4-1.5,3.4-3.4V77c0-1.9-1.5-3.4-3.4-3.4H70.8z"/>
		</g>
	</g>
	<g>
		<g>
			<path id="ogbwc" d="M90.2,116.3c-0.7,0-1.1,0.4-1.1,1.1v4.7c0,0.7,0.5,1.1,1.1,1.1s1.1-0.4,1.1-1.1v-4.6
				C91.3,116.9,90.7,116.3,90.2,116.3z"/>
		</g>
	</g>
	<g>
		<g>
			<path id="ogbwd" d="M97.3,111.3c-0.7,0-1.1,0.4-1.1,1.1v9.7c0,0.7,0.5,1.1,1.1,1.1s1.1-0.4,1.1-1.1v-9.7
				C98.4,111.8,98,111.3,97.3,111.3L97.3,111.3z"/>
		</g>
	</g>
	<g>
		<g>
			<path id="ogbwe" d="M104.4,108.8c-0.7,0-1.1,0.4-1.1,1.1v12.2c0,0.7,0.5,1.1,1.1,1.1c0.7,0,1.1-0.4,1.1-1.1V110
				C105.5,109.4,105.1,108.8,104.4,108.8L104.4,108.8z"/>
		</g>
	</g>
	<g>
		<g>
			<path id="ogbwf" d="M111.6,112.2c-0.7,0-1.1,0.4-1.1,1.1v8.8c0,0.7,0.5,1.1,1.1,1.1s1.1-0.4,1.1-1.1v-8.8
				C112.7,112.8,112.2,112.2,111.6,112.2L111.6,112.2z"/>
		</g>
	</g>
	<g>
		<g>
			<path id="ogbwg" d="M118.7,106.5c-0.7,0-1.1,0.4-1.1,1.1v14.6c0,0.7,0.5,1.1,1.1,1.1c0.7,0,1.1-0.4,1.1-1.1v-14.6
				C119.9,106.9,119.4,106.5,118.7,106.5L118.7,106.5z"/>
		</g>
	</g>
	<g>
		<g>
			<path id="ogbwh" d="M125.8,100c-0.7,0-1.1,0.4-1.1,1.1v21c0,0.7,0.5,1.1,1.1,1.1c0.7,0,1.1-0.4,1.1-1.1v-21
				C127,100.6,126.5,100,125.8,100z"/>
		</g>
	</g>
	<g>
		<g>
			<path id="ogbwi" d="M133.2,83.7l-9.1-1.9c-0.6-0.1-1.2,0.2-1.4,0.9c-0.1,0.6,0.2,1.2,0.9,1.4l6.5,1.4l-18.5,12.4l-6.5-3.2
				c-0.3-0.1-0.8-0.1-1.1,0.1l-23,14.7c-0.6,0.3-0.7,1-0.3,1.6c0.2,0.3,0.6,0.6,0.9,0.6c0.2,0,0.5-0.1,0.6-0.2L104.5,97l6.5,3.2
				c0.3,0.2,0.8,0.1,1.1-0.1l19.1-12.8l-1.4,6.5c-0.1,0.6,0.2,1.2,0.9,1.4h0.2c0.6,0,1-0.3,1.1-0.9l1.9-9.1
				C134.2,84.3,133.7,83.8,133.2,83.7z"/>
		</g>
	</g>
</g>
</svg>
