<?xml version="1.0" encoding="utf-8"?>
<!-- Generator: Adobe Illustrator 21.1.0, SVG Export Plug-In . SVG Version: 6.00 Build 0)  -->
<svg version="1.1" id="Layer_1" xmlns="http://www.w3.org/2000/svg" xmlns:xlink="http://www.w3.org/1999/xlink" x="0px" y="0px"
	 viewBox="0 0 26.6 26.6" style="enable-background:new 0 0 26.6 26.6;" xml:space="preserve">
<path id="Path_370" d="M25.2,1.5C24.2,0.5,23,0,21.6,0H5C3.7,0,2.4,0.5,1.5,1.5C0.5,2.4,0,3.7,0,5v16.6c0,1.3,0.5,2.6,1.5,3.5
	c0.9,1,2.2,1.5,3.5,1.5h16.6c2.8,0,5-2.2,5-5V5C26.7,3.7,26.1,2.4,25.2,1.5z M8.2,21.8c0,0.3-0.3,0.6-0.6,0.6l0,0H5
	c-0.3,0-0.6-0.3-0.6-0.6l0,0v-11c0-0.3,0.3-0.6,0.6-0.6l0,0h2.6c0.3,0,0.6,0.3,0.6,0.6l0,0V21.8z M6.3,8.5c-1.2,0-2.2-1-2.2-2.2
	c0-1.2,1-2.2,2.2-2.2s2.2,1,2.2,2.2c0,0.6-0.2,1.1-0.6,1.5C7.5,8.3,6.9,8.5,6.3,8.5z M22.5,14.1v8.1c0,0.1-0.1,0.3-0.3,0.3h0h-3.3
	c-0.1,0-0.3-0.1-0.3-0.3v0v-6.8c0-1.2-0.9-2.1-2.1-2.2c-1.2,0-2.1,0.9-2.2,2.1c0,0,0,0.1,0,0.1v6.8c0,0.1-0.1,0.3-0.3,0.3
	c0,0,0,0,0,0h-3.3c-0.1,0-0.3-0.1-0.3-0.3l0,0V10.5c0-0.1,0.1-0.3,0.3-0.3h3.2c0.1,0,0.3,0.1,0.3,0.3v1.4h0c0.7-1.2,1.9-1.9,3.3-1.9
	h0.7C20.6,9.9,22.5,11.8,22.5,14.1C22.5,14.1,22.5,14.1,22.5,14.1z"/>
</svg>
