<?xml version="1.0" encoding="utf-8"?>
<!-- Generator: Adobe Illustrator 21.1.0, SVG Export Plug-In . SVG Version: 6.00 Build 0)  -->
<svg version="1.1" id="Layer_1" xmlns="http://www.w3.org/2000/svg" xmlns:xlink="http://www.w3.org/1999/xlink" x="0px" y="0px"
	 viewBox="0 0 26.6 21.7" style="enable-background:new 0 0 26.6 21.7;" xml:space="preserve">
<path id="Path_369" d="M26.6,2.6c0,0-0.1-0.1-0.2,0c-0.8,0.4-1.6,0.6-2.5,0.8c0.9-0.7,1.6-1.6,1.9-2.7c0-0.1,0-0.1-0.1-0.2
	c0,0-0.1,0-0.1,0c-1,0.6-2.1,1-3.3,1.3c-2.1-2.2-5.6-2.3-7.8-0.1c-1.4,1.3-2,3.2-1.6,5.1C8.7,6.4,4.8,4.3,2.1,1C2,1,2,1,2,1
	c0,0-0.1,0-0.1,0.1C0.5,3.4,1,6.5,3.2,8.2C2.5,8.1,1.9,7.9,1.3,7.5c-0.1,0-0.1,0-0.2,0c0,0,0,0,0,0.1v0.1c0,2.4,1.6,4.6,3.9,5.3
	c-0.6,0.1-1.2,0.1-1.8,0C3,13,3,13,3,13.1c0,0,0,0,0,0.1c0.7,2.1,2.6,3.6,4.8,3.8c-1.8,1.4-4.1,2.1-6.4,2.1c-0.4,0-0.9,0-1.3-0.1
	C0.1,19,0,19,0,19.1c0,0.1,0,0.1,0.1,0.2c2.5,1.6,5.4,2.5,8.4,2.5C16.9,21.8,23.9,15,24,6.5c0-0.1,0-0.2,0-0.3c0-0.2,0-0.4,0-0.6
	c1-0.8,2-1.7,2.7-2.8C26.6,2.7,26.6,2.6,26.6,2.6z"/>
</svg>
