<?xml version="1.0" encoding="utf-8"?>
<!-- Generator: Adobe Illustrator 21.1.0, SVG Export Plug-In . SVG Version: 6.00 Build 0)  -->
<svg version="1.1" id="Layer_1" xmlns="http://www.w3.org/2000/svg" xmlns:xlink="http://www.w3.org/1999/xlink" x="0px" y="0px"
	 viewBox="0 0 16.1 16.1" style="enable-background:new 0 0 16.1 16.1;" xml:space="preserve">
<path id="Path_2252" d="M13.9,13.6c3.1-3.2,3-8.3-0.2-11.4c-0.8-0.8-1.8-1.4-2.9-1.8C9.9,0.2,9,0,8.1,0H8C7.2,0,6.3,0.2,5.5,0.4
	c0,0-0.1,0-0.1,0C1.2,2-1,6.6,0.5,10.8s6.1,6.4,10.3,4.9C12,15.2,13,14.6,13.9,13.6L13.9,13.6z M0.5,8.3h3.3c0,1.3,0.3,2.5,0.8,3.7
	c-0.8,0.3-1.5,0.7-2.2,1.1C1.3,11.8,0.6,10.1,0.5,8.3z M2.5,3c0.7,0.5,1.4,0.8,2.2,1.1C4.2,5.3,3.9,6.5,3.8,7.8H0.5
	C0.6,6,1.3,4.3,2.5,3L2.5,3z M13.6,3c1.2,1.3,1.9,3,2,4.8h-3.3c0-1.3-0.3-2.5-0.8-3.7C12.2,3.8,12.9,3.5,13.6,3L13.6,3z M7.8,11.4
	c-0.9,0-1.8,0.2-2.6,0.4c-0.5-1.1-0.8-2.3-0.8-3.5h3.4L7.8,11.4L7.8,11.4z M7.8,11.9v3.4c-1-0.8-1.8-1.8-2.4-3
	C6.2,12.1,7,12,7.8,11.9z M8.3,11.9c0.8,0,1.6,0.2,2.4,0.4c-0.6,1.1-1.4,2.1-2.4,3V11.9z M8.3,11.4V8.3h3.4c0,1.2-0.3,2.4-0.8,3.5
	C10.1,11.6,9.2,11.5,8.3,11.4L8.3,11.4z M8.3,7.8V4.7c0.9,0,1.8-0.2,2.6-0.4c0.5,1.1,0.8,2.3,0.8,3.5L8.3,7.8z M8.3,4.2V0.8
	c1,0.8,1.8,1.8,2.4,3C9.9,4,9.1,4.2,8.3,4.2z M7.8,4.2C7,4.1,6.2,4,5.4,3.8c0.6-1.1,1.4-2.1,2.4-3L7.8,4.2z M7.8,4.7v3.1H4.4
	c0-1.2,0.3-2.4,0.8-3.5C6,4.5,6.9,4.7,7.8,4.7L7.8,4.7z M4.9,12.5c0.6,1.2,1.4,2.2,2.4,3.1c-1.7-0.2-3.2-0.9-4.4-2
	C3.5,13.1,4.2,12.8,4.9,12.5L4.9,12.5z M11.2,12.5c0.7,0.3,1.4,0.6,2,1c-1.2,1.2-2.8,1.9-4.4,2C9.8,14.7,10.6,13.7,11.2,12.5
	L11.2,12.5z M11.4,12c0.5-1.2,0.8-2.4,0.8-3.7h3.3c0,1.8-0.7,3.5-2,4.8C12.9,12.7,12.2,12.3,11.4,12z M13.2,2.6
	c-0.6,0.4-1.3,0.8-2,1c-0.6-1.2-1.4-2.2-2.4-3.1c0.6,0.1,1.2,0.2,1.8,0.4C11.6,1.3,12.5,1.9,13.2,2.6L13.2,2.6z M5.5,1L5.5,1
	c0.6-0.2,1.2-0.3,1.8-0.4c-1,0.9-1.8,1.9-2.4,3.1c-0.7-0.3-1.4-0.6-2-1C3.6,1.9,4.5,1.3,5.5,1L5.5,1z"/>
</svg>
