<?xml version="1.0" encoding="utf-8"?>
<!-- Generator: Adobe Illustrator 21.1.0, SVG Export Plug-In . SVG Version: 6.00 Build 0)  -->
<svg version="1.1" id="ICON-transit-blue" xmlns="http://www.w3.org/2000/svg" xmlns:xlink="http://www.w3.org/1999/xlink" x="0px"
	 y="0px" viewBox="0 0 37.9 29.3" style="enable-background:new 0 0 37.9 29.3;" xml:space="preserve">
<g id="Group_215" transform="translate(0 3.624)">
	<path id="Path_659" d="M16.6,1.8l-5-1.7C11.4,0,11.2,0,11,0.1L6,1.8C5.6,2,5.3,2.3,5.3,2.8v6.3h2.9l1.1,1h3.9l1.1-1h2.9V2.8
		C17.4,2.4,17.1,2,16.6,1.8z M11.3,1.1c0.5,0,0.9,0.2,0.9,0.5s-0.4,0.5-0.9,0.5s-0.9-0.2-0.9-0.5S10.8,1.1,11.3,1.1L11.3,1.1z
		 M7.2,6.1c-0.4,0-0.8-0.4-0.8-0.8V4c0-0.4,0.3-0.7,0.7-0.8l3-0.3c0.4-0.1,0.8,0.3,0.9,0.7c0,0,0,0.1,0,0.1v1.6
		c0,0.4-0.4,0.8-0.8,0.8L7.2,6.1z M11.3,9.6c-0.8,0-1.4-0.6-1.4-1.4c0-0.8,0.6-1.4,1.4-1.4s1.4,0.6,1.4,1.4c0,0.4-0.1,0.7-0.4,1
		C12,9.5,11.7,9.6,11.3,9.6z M12.5,6.1c-0.4,0-0.8-0.4-0.8-0.8V3.7c0-0.4,0.3-0.8,0.8-0.8c0,0,0.1,0,0.1,0l3,0.3
		c0.4,0,0.7,0.4,0.7,0.8v1.3c0,0.4-0.4,0.8-0.8,0.8L12.5,6.1z M14.6,9.6l-0.5,0.5h3.3V9.6L14.6,9.6z M8,9.6H5.3v0.5h3.3L8,9.6z"/>
	<path id="Path_660" d="M15.7,19.1H6.9c-0.3,0-0.7-0.1-1-0.2l0.8,2.4h2.6v-1.3h4.1v1.3h2.5l0.8-2.4C16.4,19.1,16,19.1,15.7,19.1z
		 M7.6,21.1H7.1v-1.6h0.5V21.1z M8.6,21.1H8.1v-1.6h0.5V21.1z M14.5,21.1H14v-1.6h0.5L14.5,21.1z M15.6,21.1h-0.5v-1.6h0.5
		L15.6,21.1z"/>
	<path id="Path_661" d="M4.3,13.8v2.2c0,1.5,1.2,2.6,2.6,2.6c0,0,0,0,0,0h8.8c1.5,0,2.6-1.2,2.6-2.6v-2.2H4.3z M7.9,16.3
		c0,0.1-0.1,0.3-0.3,0.3H5.4c0,0-0.1,0-0.1,0c-0.1,0-0.1-0.1-0.1-0.2v-0.9c0-0.1,0.1-0.3,0.3-0.3h2.3c0.1,0,0.3,0.1,0.3,0.3
		L7.9,16.3z M17.5,16.3c0,0.1-0.1,0.3-0.3,0.3c0,0,0,0,0,0H15c-0.1,0-0.3-0.1-0.3-0.3c0,0,0,0,0,0v-0.9c0-0.1,0.1-0.3,0.3-0.3
		c0,0,0,0,0,0h2.3c0.1,0,0.3,0.1,0.3,0.3V16.3z M17.3,6.1c-0.1,0-0.2,0-0.3,0H5.6c-0.1,0-0.2,0-0.3,0c-0.6,0.1-1,0.7-1,1.3v1.7h3.9
		l1.1,1l2,1.7l2-1.7l1.1-1h3.9V7.4C18.3,6.8,17.9,6.2,17.3,6.1z M11.3,6.9c0.8,0,1.4,0.6,1.4,1.4c0,0.8-0.6,1.4-1.4,1.4
		S9.9,9,9.9,8.2c0-0.4,0.1-0.7,0.4-1C10.6,7,11,6.9,11.3,6.9L11.3,6.9z M14.6,9.6l-0.5,0.5l-2.8,2.4l-2.8-2.4L8,9.6H4.3v3.7h14V9.6
		L14.6,9.6z"/>
	<path id="Path_662" d="M12.4,8.3c0,0.6-0.5,1.1-1.1,1.1c-0.6,0-1.1-0.5-1.1-1.1c0-0.6,0.5-1.1,1.1-1.1c0,0,0,0,0,0
		C11.9,7.2,12.4,7.7,12.4,8.3z"/>
	<path id="Path_663" d="M19.9,23.7H2.9l1.4-1.4h14.3L19.9,23.7z"/>
	<g id="Group_213" transform="translate(16.158 18.736)">
		<path id="Path_664" d="M0,0.3c0.1,0,0.1,0,0.2,0C0.1,0.3,0.1,0.3,0,0.3z"/>
		<path id="Path_665" d="M6.4,5.4L1,0C0.9,0.1,0.8,0.1,0.7,0.1l5.4,5.4c0.1,0.1,0.1,0.2,0,0.3C6.1,5.9,6,5.9,5.9,5.9c0,0,0,0,0,0
			L0.5,0.4L0.1,1.7l5,5C5.5,7,6,6.9,6.4,6.6C6.7,6.2,6.7,5.7,6.4,5.4L6.4,5.4z"/>
	</g>
	<g id="Group_214" transform="translate(0 18.79)">
		<path id="Path_666" d="M6.4,0.3L6.4,0.3L6.4,0.3z"/>
		<path id="Path_667" d="M6.1,0.5L0.8,5.8c-0.1,0.1-0.2,0.1-0.3,0s-0.1-0.2,0-0.3c0,0,0,0,0,0l5.4-5.4C5.8,0.1,5.7,0.1,5.6,0
			L0.3,5.3c-0.3,0.4-0.3,1,0.1,1.3c0.3,0.3,0.9,0.3,1.2,0l4.9-4.9L6.1,0.5z"/>
	</g>
</g>
<g id="Group_216" transform="translate(20.158)">
	<rect id="Rectangle_241" x="3.9" y="21.8" width="13.8" height="7.5"/>
	<rect id="Rectangle_242" x="0" y="20.1" width="17.7" height="2.2"/>
	<rect id="Rectangle_243" x="12.7" y="2.5" width="2" height="17.6"/>
	<path id="Path_668" d="M17.7,0C9.4,0,6.4-0.2,3.7,3h14V0z"/>
	<rect id="Rectangle_244" x="4.8" y="3" width="0.3" height="2.4"/>
	<rect id="Rectangle_245" x="10.9" y="3" width="0.3" height="2.4"/>
	<path id="Path_669" d="M4.1,5.4v2.3h7.8V5.4H4.1z M11.4,6.8H4.5V6h6.9L11.4,6.8z"/>
	<path id="Path_670" d="M5.8,15.5L5.8,15.5L5.8,15.5l-0.3-1.3v0l-0.1,0l0-0.1l0,0c0-0.2-0.1-0.3-0.2-0.4c0-0.1,0.1-0.1,0.1-0.2
		c0.1,0,0.1,0,0.2-0.2c0-0.1,0-0.2-0.1-0.2h0c0.2-0.8-0.4-0.9-0.6-0.9s-0.8,0.1-0.6,0.9h0c0,0-0.1,0.1-0.1,0.2
		c0,0.2,0.1,0.2,0.2,0.2c0,0.2,0.1,0.3,0.2,0.4v0.2l-0.5,0.1l0,0l-0.9,1c-0.1,0.1-0.1,0.3,0,0.5l0.7,1l0,0c0,0,0,0,0,0
		c0,0.1,0.1,0.1,0.1,0.1v3.3h0.7v-2.9h0.2v2.9h0.7v-4.4c0,0,0,0,0,0C5.7,15.7,5.8,15.6,5.8,15.5z M5.3,13.2L5.3,13.2L5.3,13.2
		L5.3,13.2z M4.1,13.1L4.1,13.1L4.1,13.1z M3.9,16.1l-0.4-0.6L3.9,15V16.1z"/>
</g>
</svg>
