<?xml version="1.0" encoding="utf-8"?>
<!-- Generator: Adobe Illustrator 21.1.0, SVG Export Plug-In . SVG Version: 6.00 Build 0)  -->
<svg version="1.1" id="Layer_1" xmlns="http://www.w3.org/2000/svg" xmlns:xlink="http://www.w3.org/1999/xlink" x="0px" y="0px"
	 viewBox="0 0 26.1 23.3" style="enable-background:new 0 0 26.1 23.3;" xml:space="preserve">
<path id="Path_2186" d="M24.9,0c-0.3,0-0.6,0.1-0.8,0.4c-3,3.1-9.8,10.4-13.2,14l-4-3.5c-0.5-0.4-1.2-0.4-1.6,0
	C5,11.3,5,12,5.4,12.4c0,0,0,0,0.1,0.1l4.8,4.3c0.5,0.4,1.1,0.4,1.6-0.1c3.2-3.3,10.8-11.5,13.9-14.8c0.4-0.5,0.4-1.2,0-1.6
	C25.6,0.1,25.2,0,24.9,0L24.9,0z M0,2.8v19.3c0,0.6,0.5,1.1,1.1,1.1H21c0.6,0,1.1-0.5,1.1-1.1v-9.9c0-0.6-0.5-1.2-1.1-1.2
	s-1.2,0.5-1.2,1.1c0,0,0,0,0,0.1V21H2.3V4h15.3c0.6,0,1.2-0.5,1.2-1.1c0-0.6-0.5-1.2-1.1-1.2c0,0,0,0-0.1,0H1.1C0.5,1.8,0,2.2,0,2.8
	z"/>
</svg>
