<?xml version="1.0" encoding="utf-8"?>
<!-- Generator: Adobe Illustrator 21.1.0, SVG Export Plug-In . SVG Version: 6.00 Build 0)  -->
<svg version="1.1" id="Logo-securities" xmlns="http://www.w3.org/2000/svg" xmlns:xlink="http://www.w3.org/1999/xlink" x="0px" y="0px" width="724" height="158" viewBox="0 0 724 158">
  <g>
    <g>
      <g>
        <path fill="#666c92" d="M84.25 153.087L69.763 87.33c-.755-3.428 2.826-6.183 5.946-4.575l59.865 30.853a6.328 6.328 0 0 1 2.748 8.483c-9.369 18.517-26.35 31.576-46.59 35.828h-.002a6.33 6.33 0 0 1-7.482-4.832z"/>
      </g>
      <g>
        <path fill="#262731" d="M221.77 36.91c-1.51 0-2.848.533-3.98 1.587-1.151 1.076-1.736 2.406-1.736 3.95v47.315c0 7.05-2.524 13.122-7.505 18.047-4.988 4.936-11.101 7.494-18.127 7.604-6.944-.11-12.965-2.667-17.895-7.599-4.925-4.922-7.421-10.995-7.421-18.052V42.447c0-1.524-.543-2.842-1.616-3.92-1.075-1.074-2.396-1.617-3.921-1.617-1.528 0-2.85.544-3.921 1.617-1.072 1.072-1.615 2.391-1.615 3.92v47.315c0 10.111 3.582 18.852 10.649 25.98 7.068 7.131 15.78 10.746 25.899 10.746 10.11 0 18.853-3.614 25.983-10.743 7.129-7.13 10.742-15.872 10.742-25.983V42.447c0-1.523-.543-2.84-1.618-3.92-1.074-1.074-2.393-1.617-3.918-1.617z"/>
      </g>
      <g>
        <path fill="#262731" d="M322.954 37.087c1.525 0 2.845.543 3.92 1.616 1.075 1.08 1.618 2.398 1.618 3.922v78.326c0 1.526-.543 2.845-1.616 3.92-1.073 1.072-2.393 1.617-3.922 1.617-1.532 0-2.85-.545-3.922-1.618-1.07-1.068-1.615-2.388-1.615-3.919v-9.196a42.479 42.479 0 0 1-12.375 9.973 39.678 39.678 0 0 1-18.947 4.76c-11.657 0-21.75-4.429-29.996-13.16-8.228-8.713-12.4-19.324-12.4-31.54 0-12.216 4.172-22.827 12.401-31.539 8.246-8.734 18.338-13.162 29.995-13.162 6.678 0 13.053 1.602 18.947 4.76 4.758 2.552 8.908 5.86 12.375 9.857v-9.079c0-1.529.544-2.848 1.617-3.92 1.072-1.073 2.392-1.618 3.92-1.618zm-5.537 44.7c0-9.305-3.104-17.356-9.225-23.932-6.1-6.549-13.504-9.87-22.008-9.87-8.509 0-15.944 3.322-22.1 9.874-6.178 6.572-9.31 14.622-9.31 23.928 0 9.307 3.13 17.327 9.305 23.836 6.154 6.497 13.591 9.79 22.105 9.79 8.51 0 15.916-3.292 22.01-9.784 6.12-6.515 9.223-14.535 9.223-23.842z"/>
      </g>
      <g>
        <path fill="#262731" d="M418.126 49.06c8.102 7.922 12.703 17.885 13.674 29.61l.004.814c0 1.544-.584 2.86-1.69 3.81-1.065.912-2.36 1.373-3.848 1.373h-69.864c.707 8.49 4.062 15.732 9.982 21.544 6.217 6.106 13.725 9.202 22.314 9.202 5.535 0 10.746-1.374 15.489-4.083 4.749-2.715 8.589-6.44 11.412-11.074 1.764-2.942 4.475-3.622 7.429-1.849 2.993 2.094 3.626 4.842 1.859 7.787-3.895 6.201-9.084 11.177-15.44 14.807-6.37 3.641-13.35 5.487-20.75 5.487-12.001 0-22.357-4.395-30.778-13.06-8.415-8.652-12.681-19.267-12.681-31.552 0-12.28 4.265-22.925 12.677-31.637 8.423-8.727 18.632-13.152 30.34-13.152 11.692 0 21.74 4.028 29.87 11.973zm1.619 24.71c-1.55-7.15-5.12-13.184-10.623-17.948-5.876-5.082-12.776-7.66-20.512-7.66-7.74 0-14.642 2.55-20.518 7.578-5.508 4.712-9.18 10.771-10.932 18.03z"/>
      </g>
      <g>
        <path fill="#262731" d="M498.306 81.905c-6.479-3.6-13.719-6.034-21.517-7.235l-.45-.015c-7.403-1.146-13.153-3.096-17.028-5.75-3.007-2.36-4.468-4.985-4.468-8.027 0-3.002 1.805-5.973 5.365-8.834 3.65-2.929 8.805-4.414 15.323-4.414 2.434 0 5.032.482 7.721 1.433 2.738.97 4.836 1.886 6.24 2.727 1.448.87 3.663 2.318 6.622 4.328 1.228.771 2.618 1.01 4.123.702 1.536-.305 2.711-1.097 3.496-2.35.766-1.229 1.002-2.615.701-4.126-.302-1.493-1.063-2.708-2.347-3.667-3.19-2.008-5.748-3.543-7.599-4.56-1.92-1.05-4.602-2.124-8.198-3.285-3.598-1.158-7.218-1.745-10.759-1.745-8.733 0-16.13 2.044-22.027 6.098-6.579 4.842-9.916 10.913-9.916 18.047 0 7.194 3.375 12.813 9.923 16.633 4.07 2.96 10.62 5.227 20.016 6.927l.555.212c8.36 1.375 14.451 3.55 18.102 6.468 3.554 2.848 5.31 5.976 5.366 9.561.052 3.53-1.88 6.564-5.995 9.351-4.115 3.336-9.864 5.03-17.088 5.03-7.247 0-15.458-3.317-24.319-9.785-1.22-1.066-2.625-1.519-4.162-1.374-1.549.157-2.805.864-3.697 2.057-2.11 2.562-1.872 5.208.673 7.45l.046.04c10.341 8.297 21.4 12.567 32.876 12.686 8.395 0 16.017-2.5 22.653-7.43 6.751-5.019 10.174-11.387 10.174-18.93 0-7.573-3.472-13.688-10.405-18.223z"/>
      </g>
      <g>
        <path fill="#262731" d="M551.2 37.087h-9.88V6.12c0-1.426-.613-2.724-1.825-3.863-1.19-1.11-2.528-1.674-3.98-1.674-1.47 0-2.788.573-3.92 1.703-1.13 1.132-1.705 2.421-1.705 3.834v30.967h-9.526c-3.758 0-4.967 1.686-5.318 3.094-.15.585-.218 1.473-.218 2.798 0 1.434.309 2.628.923 3.547.73 1.102 2.24 1.636 4.613 1.636h9.526v61.978c0 4.71 1.59 8.656 4.727 11.73 3.13 3.063 7.099 4.618 11.796 4.618 1.395 0 2.705-.565 3.89-1.678 1.21-1.133 1.825-2.43 1.825-3.859 0-1.41-.603-2.73-1.793-3.923-1.193-1.19-2.571-1.792-4.098-1.792-.88 0-1.95-.502-3.185-1.493-1.165-.928-1.732-2.107-1.732-3.603V48.162h9.88c1.41 0 2.699-.574 3.832-1.705 1.132-1.134 1.705-2.422 1.705-3.832 0-1.41-.575-2.7-1.705-3.832-1.132-1.132-2.421-1.706-3.832-1.706z"/>
      </g>
      <g>
        <path fill="#262731" d="M611.52 37.087c11.652 0 21.745 4.46 29.997 13.253 8.226 8.774 12.397 19.354 12.397 31.447 0 12.098-4.17 22.678-12.397 31.448-8.25 8.793-18.343 13.253-29.998 13.253-11.659 0-21.752-4.46-29.999-13.254-8.227-8.766-12.398-19.346-12.398-31.447 0-12.096 4.171-22.676 12.398-31.447 8.25-8.794 18.342-13.253 30-13.253zM642.84 81.7c0-9.244-3.133-17.265-9.31-23.84-6.16-6.553-13.566-9.875-22.012-9.875-8.45 0-15.855 3.322-22.013 9.874-6.178 6.574-9.31 14.594-9.31 23.841 0 9.248 3.132 17.27 9.31 23.84 6.154 6.551 13.561 9.873 22.013 9.873 8.45 0 15.855-3.322 22.011-9.874 6.178-6.572 9.311-14.593 9.311-23.839z"/>
      </g>
      <g>
        <path fill="#262731" d="M722.293 38.878c-1.075-1.07-2.394-1.613-3.916-1.613-13.906 0-25.585 6.802-34.689 20.155V42.802c0-1.526-.544-2.844-1.622-3.924-1.074-1.07-2.392-1.613-3.916-1.613-1.527 0-2.847.543-3.92 1.615-1.075 1.074-1.619 2.394-1.619 3.922v78.15c0 1.53.544 2.848 1.618 3.918 1.07 1.073 2.39 1.618 3.921 1.618 1.53 0 2.847-.545 3.92-1.617 1.074-1.075 1.618-2.393 1.618-3.92v-38.1c0-.276.07-.55.215-.84l.067-.155c2.66-7.635 6.115-14.315 10.256-19.838 7.037-9.077 15.162-13.679 24.151-13.679 1.527 0 2.846-.544 3.918-1.616 1.074-1.074 1.618-2.393 1.618-3.92 0-1.527-.544-2.845-1.62-3.925z"/>
      </g>
      <g>
        <path fill="#262731" d="M13.123 73.79c2.323-26.726 24.021-48.149 50.773-50.16 32.366-2.43 59.48 23.215 59.48 55.074 0 2.321-.15 4.627-.441 6.91-.341 2.661.946 5.265 3.33 6.497l.082.042c3.876 2.005 8.582-.448 9.136-4.777.368-2.865.553-5.76.553-8.672 0-39.164-33.333-70.689-73.12-67.696C29.765 13.502 2.99 40.24.453 73.388c-2.806 36.657 23.694 67.846 58.489 72.58 4.326.59 7.912-3.335 6.973-7.597l-.018-.076c-.574-2.613-2.748-4.524-5.4-4.892-28.413-3.95-49.984-29.593-47.374-59.614z"/>
      </g>
    </g>
  </g>
</svg>
