<?xml version="1.0" encoding="utf-8"?>
<!-- Generator: Adobe Illustrator 21.1.0, SVG Export Plug-In . SVG Version: 6.00 Build 0)  -->
<svg version="1.1" id="Layer_1" xmlns="http://www.w3.org/2000/svg" xmlns:xlink="http://www.w3.org/1999/xlink" x="0px" y="0px"
	 viewBox="0 0 112.7 22.4" style="enable-background:new 0 0 112.7 22.4;" xml:space="preserve">
<style type="text/css">
	.st0{fill:#317764;}
</style>
<g id="LOGO-LK-Comstock-A-RW-color" transform="translate(0 0)">
	<g id="Layer_1_1_">
		<path id="Path_31" class="st0" d="M28.5,11V1.2h2v8.2H34V11L28.5,11z"/>
		<path id="Path_32" class="st0" d="M36.7,8.9V11h-1.8V8.9H36.7z"/>
		<path id="Path_33" class="st0" d="M40.2,1.2v3.9h0l2.5-3.9h2.1l-2.7,4.2l3,5.6h-2.2l-2-4l-0.7,1.1V11h-2V1.2H40.2z"/>
		<path id="Path_34" class="st0" d="M47.4,8.9V11h-1.8V8.9H47.4z"/>
		<path id="Path_35" class="st0" d="M55.9,4.5c0-1.4-0.3-2.1-1.2-2.1c-1,0-1.2,1-1.2,3.8c0,3,0.4,3.5,1.3,3.5c0.7,0,1.2-0.4,1.2-2.5
			h2c0,2.1-0.5,4-3.1,4c-3,0-3.3-2.1-3.3-5.1S51.8,1,54.8,1c2.8,0,3,2.1,3,3.5H55.9z"/>
		<path id="Path_36" class="st0" d="M62.2,1c3,0,3.3,2.1,3.3,5.1s-0.4,5.1-3.3,5.1s-3.3-2.1-3.3-5.1S59.3,1,62.2,1z M62.2,9.8
			c1.2,0,1.4-1,1.4-3.7s-0.2-3.7-1.4-3.7s-1.4,1-1.4,3.7S61,9.8,62.2,9.8z"/>
		<path id="Path_37" class="st0" d="M66.8,1.2h2.9l1.4,6.9h0l1.4-6.9h2.9V11h-1.8V3.2h0L71.9,11h-1.5l-1.7-7.9h0V11h-1.8V1.2z"/>
		<path id="Path_38" class="st0" d="M78.5,8v0.3c0,0.9,0.3,1.5,1.3,1.5c0.6,0,1.2-0.5,1.2-1.1c0,0,0-0.1,0-0.1
			c0-0.9-0.5-1.2-1.8-1.7c-1.8-0.6-2.6-1.3-2.6-3c0-1.9,1.2-2.9,3-2.9c1.8,0,3,0.8,3,2.6v0.3h-1.9c0-0.9-0.3-1.5-1.1-1.5
			c-0.6-0.1-1.1,0.3-1.1,0.9c0,0.1,0,0.2,0,0.3c0,0.6,0.2,1,1,1.3l1.5,0.7c1.2,0.3,2,1.4,1.9,2.6c0,2.1-1.3,3-3.4,3
			c-2.2,0-3.1-1-3.1-2.9V8L78.5,8z"/>
		<path id="Path_39" class="st0" d="M89.8,1.2v1.6h-2.2V11h-2V2.8h-2.1V1.2H89.8z"/>
		<path id="Path_40" class="st0" d="M93.8,1c3,0,3.3,2.1,3.3,5.1s-0.4,5.1-3.3,5.1s-3.3-2.1-3.3-5.1S90.9,1,93.8,1z M93.8,9.8
			c1.2,0,1.4-1,1.4-3.7S95,2.4,93.8,2.4s-1.4,1-1.4,3.7S92.7,9.8,93.8,9.8z"/>
		<path id="Path_41" class="st0" d="M102.6,4.5c0-1.4-0.3-2.1-1.2-2.1c-1,0-1.2,1-1.2,3.8c0,3,0.4,3.5,1.3,3.5
			c0.7,0,1.2-0.4,1.2-2.5h2c0,2.1-0.5,4-3.1,4c-3,0-3.3-2.1-3.3-5.1S98.5,1,101.5,1c2.8,0,3,2.1,3,3.5H102.6z"/>
		<path id="Path_42" class="st0" d="M107.7,1.2v3.9h0l2.5-3.9h2.1l-2.7,4.2l3,5.6h-2.2l-2-4l-0.7,1.1V11h-2V1.2H107.7z"/>
		<path id="Path_43" class="st0" d="M25.3,8.7V9c0,4.7-5.6,8.6-12.4,8.6S0.5,13.8,0.5,9S6,0.5,12.9,0.5c5.1,0,9.6,2.1,11.5,5.3
			l0.2-0.3h-4.7l0.2,0.1c-1.9-4-6.7-5.7-10.7-3.8S3.8,8.5,5.7,12.5s6.7,5.7,10.7,3.8c2.8-1.3,4.6-4.1,4.6-7.2V8.6l-0.2,0.2h4.8
			L25.3,8.7z M20.4,8.7V9c0,4.2-3.4,7.6-7.5,7.6c-4.2,0-7.6-3.4-7.6-7.5c0-4.2,3.4-7.6,7.5-7.6c2.9,0,5.6,1.7,6.8,4.3l0.1,0.1H25
			l-0.2-0.3C22.8,2.2,18.1,0,12.9,0C5.8,0,0,4.1,0,9s5.8,9,12.9,9S25.8,14,25.8,9c0-0.1,0-0.3,0-0.4V8.4h-5.3L20.4,8.7z"/>
		<path id="Path_44" class="st0" d="M6,9c0,2.3,1.2,4.5,3.1,5.8V8.4H6C6,8.6,6,8.8,6,9 M6.7,5.9h2.4V3.2C8.1,3.9,7.3,4.8,6.7,5.9
			 M19.8,8.4h-8.2v7.4c0.4,0.1,0.9,0.1,1.3,0.1c3.8,0,6.9-3.1,6.9-6.9C19.9,8.8,19.9,8.6,19.8,8.4 M12.9,2.1c-0.4,0-0.9,0-1.3,0.1
			v3.7h7.5C17.9,3.6,15.5,2.1,12.9,2.1"/>
		<path id="Path_45" class="st0" d="M7.4,6.9c0-0.2-0.2-0.3-0.3-0.3c-0.3,0-0.4,0.3-0.4,0.5s0.1,0.5,0.4,0.5c0.2,0,0.3-0.1,0.3-0.3
			c0,0,0,0,0,0h0.3C7.8,7.7,7.5,8,7.1,8C6.7,8,6.3,7.6,6.3,7.2c0-0.4,0.4-0.8,0.8-0.8c0.3,0,0.6,0.2,0.7,0.6L7.4,6.9z"/>
		<path id="Path_46" class="st0" d="M8.7,7.7c0.3,0,0.4-0.3,0.4-0.5S9,6.7,8.7,6.7S8.3,6.9,8.3,7.2S8.4,7.7,8.7,7.7 M8.7,6.4
			c0.4,0,0.7,0.3,0.8,0.7c0,0,0,0.1,0,0.1c0,0.4-0.3,0.8-0.7,0.8C8.4,8,8,7.7,8,7.3c0,0,0-0.1,0-0.1C7.9,6.8,8.2,6.4,8.7,6.4
			C8.7,6.4,8.7,6.4,8.7,6.4"/>
		<path id="Path_47" class="st0" d="M9.7,6.4h0.5l0.4,1.1l0,0l0.3-1.1h0.5v1.5h-0.3V6.8l0,0l-0.4,1.1h-0.3l-0.4-1.1l0,0v1.1H9.7V6.4
			z"/>
		<path id="Path_48" class="st0" d="M11.9,7.4c0,0.2,0.2,0.3,0.3,0.3c0.1,0,0.3,0,0.3-0.2s-0.2-0.2-0.5-0.3s-0.5-0.1-0.5-0.4
			c0-0.3,0.3-0.5,0.6-0.5c0.3,0,0.6,0.1,0.6,0.5h-0.3c0-0.2-0.1-0.2-0.3-0.2c-0.1,0-0.2,0-0.2,0.2s0.1,0.1,0.5,0.2
			c0.1,0,0.5,0.1,0.5,0.4c0,0.3-0.2,0.5-0.6,0.5c-0.3,0-0.7-0.2-0.7-0.5L11.9,7.4z"/>
		<path id="Path_49" class="st0" d="M13.5,6.7H13V6.4h1.3v0.3h-0.5v1.3h-0.3V6.7z"/>
		<path id="Path_50" class="st0" d="M15.2,7.7c0.3,0,0.4-0.3,0.4-0.5s-0.1-0.5-0.4-0.5s-0.4,0.3-0.4,0.5S14.9,7.7,15.2,7.7
			 M15.2,6.4c0.4,0,0.7,0.3,0.8,0.7c0,0,0,0.1,0,0.1C16,7.6,15.6,8,15.2,8c-0.4,0-0.8-0.3-0.8-0.7c0,0,0-0.1,0-0.1
			C14.4,6.8,14.7,6.4,15.2,6.4C15.1,6.4,15.1,6.4,15.2,6.4"/>
		<path id="Path_51" class="st0" d="M17.2,6.9c0-0.2-0.2-0.3-0.3-0.3c-0.3,0-0.4,0.3-0.4,0.5s0.1,0.5,0.4,0.5c0.2,0,0.3-0.1,0.3-0.3
			c0,0,0,0,0,0h0.3c0,0.4-0.3,0.6-0.7,0.6c-0.4,0-0.8-0.4-0.8-0.8c0-0.4,0.4-0.8,0.8-0.8c0.3,0,0.6,0.2,0.7,0.6L17.2,6.9z"/>
		<path id="Path_52" class="st0" d="M17.8,6.4h0.3V7l0.6-0.6h0.4L18.6,7l0.7,0.9h-0.4l-0.5-0.7l-0.2,0.2v0.5h-0.3V6.4z"/>
		<path id="Path_53" class="st0" d="M10.9,3.2c0-0.2-0.2-0.3-0.3-0.3c-0.3,0-0.4,0.3-0.4,0.5S10.3,4,10.6,4c0.2,0,0.4-0.2,0.4-0.4
			h0.3c0,0.4-0.3,0.7-0.7,0.6c-0.4,0-0.8-0.3-0.8-0.7c0,0,0,0,0-0.1c0-0.4,0.3-0.8,0.7-0.8c0,0,0.1,0,0.1,0c0.3,0,0.6,0.2,0.7,0.6
			L10.9,3.2z"/>
		<path id="Path_54" class="st0" d="M10.5,5.9c0.3,0,0.4-0.3,0.4-0.5s-0.1-0.5-0.4-0.5s-0.4,0.3-0.4,0.5S10.2,5.9,10.5,5.9
			 M10.5,4.5c0.4,0,0.8,0.3,0.8,0.7c0,0,0,0.1,0,0.1c0,0.4-0.3,0.8-0.7,0.8c-0.4,0-0.8-0.3-0.8-0.7c0,0,0-0.1,0-0.1
			C9.7,4.9,10.1,4.6,10.5,4.5C10.5,4.5,10.5,4.5,10.5,4.5"/>
		<path id="Path_55" class="st0" d="M10.3,9.1h0.3c0.2,0,0.3,0,0.3-0.2s-0.1-0.2-0.3-0.2h-0.3L10.3,9.1z M10,8.3h0.7
			c0.3,0,0.5,0.2,0.5,0.5S11,9.3,10.7,9.3h-0.4v0.6H10V8.3z"/>
		<path id="Path_56" class="st0" d="M10.3,11.2h0.4l-0.2-0.6l0,0L10.3,11.2z M10.4,10.2h0.3l0.6,1.6H11l-0.1-0.3h-0.6l-0.1,0.3H9.8
			L10.4,10.2z"/>
		<path id="Path_57" class="st0" d="M9.9,12.1h0.3l0.7,1l0,0v-1h0.3v1.6h-0.3l-0.6-1l0,0v1H9.9V12.1z"/>
		<path id="Path_58" class="st0" d="M10.4,15l-0.6-1h0.4l0.4,0.6l0.4-0.6h0.4l-0.6,1v0.6h-0.3V15z"/>
		<path id="Path_59" class="st0" d="M21.3,17.3h0.2c0.1,0,0.2,0,0.2-0.2S21.6,17,21.5,17h-0.2L21.3,17.3z M21.1,16.9h0.4
			c0.2,0,0.3,0.1,0.3,0.3c0,0.1-0.1,0.2-0.2,0.3c0,0,0,0,0,0l0.3,0.4h-0.2l-0.3-0.4h-0.2v0.4h-0.1L21.1,16.9z M21.4,18
			c0.4,0,0.7-0.3,0.7-0.7c0-0.4-0.3-0.7-0.7-0.7c-0.4,0-0.7,0.3-0.7,0.7c0,0,0,0,0,0C20.7,17.7,21,18,21.4,18
			C21.4,18.1,21.4,18.1,21.4,18L21.4,18z M21.4,16.6c0-0.4-0.4-0.8-0.8-0.8c-0.4,0-0.8,0.4-0.8,0.8s0.4,0.8,0.8,0.8
			C21.1,17.4,21.4,17,21.4,16.6L21.4,16.6z"/>
		<path id="Path_60" class="st0" d="M29.7,15.7h0.9l1.4,5.3h-0.7l-0.4-1.5h-1.7l-0.4,1.5h-0.7L29.7,15.7z M29.3,19.1h1.4l-0.7-2.6
			l0,0L29.3,19.1z"/>
		<path id="Path_61" class="st0" d="M34.1,15.7h1.7c0.7-0.1,1.3,0.4,1.4,1.1c0,0.1,0,0.1,0,0.2c0,0.6-0.2,1.2-0.8,1.3l0,0
			c0.4,0.1,0.8,0.5,0.8,0.9l0,0.9c0,0.6,0.1,0.7,0.3,0.8h-0.8c-0.1-0.2-0.2-0.5-0.2-0.8l0-0.8c-0.1-0.7-0.5-0.8-0.8-0.8h-0.9v2.4
			h-0.7L34.1,15.7z M34.8,18.2h0.7c0.4,0,1.1,0,1.1-1c0-0.5-0.3-0.9-1-0.9h-0.8L34.8,18.2z"/>
		<path id="Path_62" class="st0" d="M37.9,18.3c0-0.9,0.4-1.3,1.3-1.3c1.2,0,1.2,0.7,1.2,1.1v2.3c0,0.2,0,0.3,0.2,0.3
			c0.1,0,0.1,0,0.2,0v0.4c-0.1,0-0.2,0-0.4,0c-0.2,0-0.5,0-0.6-0.5h0c-0.2,0.3-0.6,0.6-1,0.6c-0.6,0-1.1-0.4-1.1-0.9
			c0-0.1,0-0.2,0-0.2c-0.1-0.5,0.3-1,0.8-1.1l0.8-0.3c0.5-0.1,0.5-0.3,0.5-0.6c0-0.3-0.2-0.6-0.6-0.6c0,0-0.1,0-0.1,0
			c-0.4,0-0.7,0.3-0.7,0.7c0,0,0,0.1,0,0.1v0L37.9,18.3z M39.8,18.9c-0.2,0.2-0.8,0.3-1.1,0.5c-0.2,0.1-0.3,0.4-0.3,0.6
			c0,0.4,0.1,0.7,0.6,0.7c0.4,0,0.8-0.3,0.8-0.8L39.8,18.9z"/>
		<path id="Path_63" class="st0" d="M41.4,15.7H42v0.7h-0.6V15.7z M41.4,17.1H42v4h-0.6V17.1z"/>
		<path id="Path_64" class="st0" d="M42.9,15.7h0.6v5.3h-0.6V15.7z"/>
		<path id="Path_65" class="st0" d="M44,15.7h0.7l0.8,4.4l0,0l0.8-4.4h0.8l0.8,4.4l0,0l0.8-4.4h0.7l-1.1,5.3h-0.8l-0.7-4.3l0,0
			l-0.8,4.3h-0.8L44,15.7z"/>
		<path id="Path_66" class="st0" d="M50.9,17c1.2,0,1.4,1,1.4,2.1s-0.3,2.1-1.4,2.1s-1.4-1-1.4-2.1S49.7,17,50.9,17z M51.7,19.1
			c0-0.9-0.1-1.6-0.8-1.6s-0.8,0.7-0.8,1.6s0.1,1.6,0.8,1.6S51.7,19.9,51.7,19.1L51.7,19.1z"/>
		<path id="Path_67" class="st0" d="M52.9,17.1h0.6v0.6l0,0c0.2-0.4,0.4-0.7,0.9-0.7c0.1,0,0.2,0,0.3,0v0.6c-0.1,0-0.2,0-0.3,0
			c-0.5,0-0.9,0.5-0.8,0.9v2.5h-0.6V17.1z"/>
		<path id="Path_68" class="st0" d="M58.1,21.1h-0.7l-1.1-2l-0.5,0.6v1.4h-0.6v-5.3h0.6v3.2l0,0l1.4-1.8h0.7l-1.2,1.5L58.1,21.1z"/>
		<path id="Path_69" class="st0" d="M60.2,18.2c0-0.5-0.1-0.8-0.6-0.8c-0.3-0.1-0.6,0.2-0.7,0.5c0,0,0,0.1,0,0.1
			c0,0.5,0.5,0.6,1,0.7s1,0.3,1,1.1c0.1,0.6-0.4,1.2-1.1,1.3c-0.1,0-0.1,0-0.2,0c-0.7,0.1-1.3-0.4-1.4-1.1c0-0.1,0-0.2,0-0.4h0.6
			c0,0.5,0.1,0.9,0.7,0.9c0.3,0,0.6-0.2,0.7-0.6c0,0,0-0.1,0-0.1c0-0.5-0.5-0.7-1-0.8s-1-0.3-1-1.1c0-0.7,0.6-1.1,1.3-1.1
			c1.2,0,1.2,0.8,1.2,1.3L60.2,18.2z"/>
		<path id="Path_70" class="st0" d="M66.6,19.2c-0.1,1-0.5,1.9-1.6,1.9c-1.5,0-1.7-1.4-1.7-2.8s0.2-2.8,1.7-2.8
			c1.1,0,1.5,0.6,1.6,1.7h-0.7c0-0.6-0.2-1.1-0.9-1.1c-0.9,0-1,1-1,2.2s0.1,2.2,1,2.2c0.8,0,0.9-0.7,0.9-1.4L66.6,19.2z"/>
		<path id="Path_71" class="st0" d="M68.4,17c1.2,0,1.4,1,1.4,2.1s-0.3,2.1-1.4,2.1s-1.4-1-1.4-2.1S67.3,17,68.4,17z M69.2,19.1
			c0-0.9-0.1-1.6-0.8-1.6s-0.8,0.7-0.8,1.6s0.1,1.6,0.8,1.6S69.2,19.9,69.2,19.1L69.2,19.1z"/>
		<path id="Path_72" class="st0" d="M70.6,17.1h0.6v0.5h0c0.2-0.4,0.6-0.6,1-0.6c0.4,0,0.8,0.2,0.9,0.6c0.2-0.4,0.5-0.6,0.9-0.6
			c1.1,0,1.1,0.8,1.1,1.3v2.8h-0.6v-2.7c0-0.3,0-0.8-0.5-0.8c-0.4,0-0.7,0.3-0.7,0.7c0,0,0,0.1,0,0.1v2.8h-0.6v-2.8
			c0-0.3,0-0.8-0.5-0.8c-0.4,0-0.7,0.3-0.8,0.7c0,0,0,0.1,0,0.1v2.8h-0.6L70.6,17.1z"/>
		<path id="Path_73" class="st0" d="M75.9,17.1h0.6v0.5h0c0.1-0.4,0.5-0.6,0.9-0.6c0.9,0,1.3,0.8,1.3,2c0,0.9-0.3,2.2-1.3,2.2
			c-0.4,0-0.7-0.2-0.8-0.6l0,0v1.8h-0.6V17.1z M77.3,20.6c0.6,0,0.7-0.6,0.7-1.6c0-0.9-0.1-1.5-0.7-1.5c-0.7,0-0.8,0.7-0.8,1.6
			C76.5,19.8,76.6,20.6,77.3,20.6z"/>
		<path id="Path_74" class="st0" d="M79.3,18.3c0-0.9,0.4-1.3,1.3-1.3c1.2,0,1.2,0.7,1.2,1.1v2.3c0,0.2,0,0.3,0.2,0.3
			c0.1,0,0.1,0,0.1,0v0.4c-0.1,0-0.2,0-0.4,0c-0.2,0-0.5,0-0.6-0.5l0,0c-0.2,0.4-0.6,0.6-1,0.6c-0.6,0-1.1-0.4-1.1-0.9
			c0-0.1,0-0.2,0-0.2c-0.1-0.5,0.3-1,0.8-1.1l0.8-0.3c0.5-0.1,0.5-0.3,0.5-0.6c0-0.3-0.2-0.6-0.6-0.6c0,0-0.1,0-0.1,0
			c-0.4,0-0.7,0.3-0.7,0.7c0,0,0,0.1,0,0.1v0L79.3,18.3z M81.2,18.9c-0.2,0.2-0.8,0.3-1.1,0.5c-0.2,0.1-0.3,0.4-0.3,0.6
			c0,0.4,0.1,0.7,0.6,0.7c0.4,0,0.8-0.3,0.8-0.8V18.9z"/>
		<path id="Path_75" class="st0" d="M82.7,17.1h0.6v0.5h0c0.2-0.4,0.6-0.6,1-0.6c1.1,0,1.1,0.8,1.1,1.3v2.8h-0.6v-2.8
			c0-0.3,0-0.8-0.6-0.8c-0.4,0-0.8,0.3-0.8,0.8c0,0,0,0,0,0v2.8h-0.6L82.7,17.1z"/>
		<path id="Path_76" class="st0" d="M85.9,17.1h0.7l0.8,3.2l0,0l0.7-3.2h0.7l-1.2,4.3c-0.1,0.6-0.3,1-1.1,1c-0.2,0-0.3,0-0.5,0v-0.5
			c0.1,0,0.2,0,0.4,0c0.2,0,0.4-0.2,0.5-0.4l0.1-0.4L85.9,17.1z"/>
	</g>
</g>
</svg>
