<?xml version="1.0" encoding="utf-8"?>
<!-- Generator: Adobe Illustrator 21.1.0, SVG Export Plug-In . SVG Version: 6.00 Build 0)  -->
<svg version="1.1" id="Layer_1" xmlns="http://www.w3.org/2000/svg" xmlns:xlink="http://www.w3.org/1999/xlink" x="0px" y="0px"
	 viewBox="0 0 86.2 21.4" style="enable-background:new 0 0 86.2 21.4;" xml:space="preserve">
<style type="text/css">
	.st0{fill:#231F20;}
	.st1{fill:#007BBD;}
	.st2{fill:#FFFFFF;}
</style>
<g id="LOGO-RW-PNR-color" transform="translate(0 0)">
	<g id="Layer_1_1_">
		<path id="Path_77" class="st0" d="M25.2,4.9h3.1c1,0.1,2-0.6,2.1-1.6c0-0.1,0-0.2,0-0.4c0-1.3-0.9-2-2.2-2h-3.1V4.9z M24.4,0.2
			h4.2c1.4-0.1,2.7,0.9,2.8,2.3c0,0.1,0,0.3,0,0.4c0.1,1.4-1,2.7-2.4,2.8c-0.1,0-0.3,0-0.4,0h-3.4v4.1h-0.8V0.2z"/>
		<path id="Path_78" class="st0" d="M32.4,0.2h1l5.6,8.1V0.2H40v9.6h-1l-5.5-8.2l-0.1,8.2h-0.9L32.4,0.2z"/>
		<path id="Path_79" class="st0" d="M42.6,4.8H46C47,4.9,48,4.1,48.1,3c0,0,0-0.1,0-0.1C48.1,1.7,47.3,1,46,1h-3.4V4.8z M41.7,0.2
			h4.4c1.5,0,2.8,0.8,2.8,2.5c0.1,1.2-0.7,2.3-1.9,2.5c1.3,0.2,1.6,1,1.7,2.2c-0.1,0.8,0.1,1.7,0.4,2.5h-1c-0.2-0.5-0.3-1-0.3-1.5
			c-0.2-1.4-0.2-2.9-2-2.8h-3.4v4.3h-0.9L41.7,0.2z"/>
		<path id="Path_80" class="st0" d="M26.5,17h1.3c0.4,0,1-0.1,1-0.7c0-0.5-0.3-0.7-1.1-0.7h-1.2V17z M24.2,13.8h4.4
			c1.2-0.1,2.3,0.7,2.4,1.9c0,0.1,0,0.2,0,0.2c0.1,0.8-0.4,1.6-1.2,1.9c0.8,0.2,1,0.9,1.2,1.9c0,0.5,0,1.1,0.3,1.6h-2.3
			c-0.2-0.3-0.3-0.7-0.3-1.1c0-0.7-0.1-1.5-1-1.5h-1.3v2.6h-2.3V13.8z"/>
		<path id="Path_81" class="st0" d="M35.9,18.5l-0.7-2.3l-0.7,2.3H35.9z M34.1,13.8h2.3l2.6,7.4h-2.4l-0.3-1h-2.3l-0.4,1h-2.3
			L34.1,13.8z"/>
		<rect id="Rectangle_5" x="39.2" y="13.8" class="st0" width="2.2" height="7.4"/>
		<path id="Path_82" class="st0" d="M42.1,13.8h2.3v5.6h3.3v1.9h-5.6V13.8z"/>
		<path id="Path_83" class="st0" d="M47.3,13.8H48l1.7,6.5l1.9-6.5h0.8l1.9,6.5l1.7-6.5h0.7l-1.9,7.4h-0.9L52,14.5l-1.9,6.7h-0.8
			L47.3,13.8z"/>
		<path id="Path_84" class="st0" d="M59.9,20.8c2,0,2.8-1.7,2.8-3.3s-0.8-3.3-2.8-3.3c-1.9,0-2.6,1.7-2.6,3.3S57.9,20.8,59.9,20.8
			 M59.9,13.6c2.4,0,3.6,1.9,3.6,3.9s-1.2,3.9-3.6,3.9c-2.2,0-3.4-1.9-3.4-3.9S57.7,13.6,59.9,13.6"/>
		<path id="Path_85" class="st0" d="M64.6,17.3h2.7c0.8,0.1,1.5-0.6,1.6-1.4c0,0,0,0,0-0.1c0-0.8-0.6-1.5-1.4-1.5
			c-0.1,0-0.1,0-0.2,0h-2.7V17.3z M63.9,13.8h3.4c1.2,0,2.3,0.6,2.3,1.9c0.1,0.9-0.5,1.8-1.5,1.9v0c1,0.1,1.3,0.8,1.3,1.7
			c0,0.5,0,1.5,0.4,1.9H69c-0.1-0.4-0.2-0.8-0.1-1.1c-0.2-1-0.2-2.2-1.6-2.2h-2.7v3.3h-0.7L63.9,13.8z"/>
		<path id="Path_86" class="st0" d="M70.4,13.8h0.7v4l4.4-4h1l-3.4,3.1l3.5,4.4h-1l-3.1-3.9l-1.5,1.3v2.5h-0.7L70.4,13.8z"/>
		<path id="Path_87" class="st0" d="M77.1,18.8c0,1.5,1.2,2,2.6,2c0.7,0,2-0.4,2-1.5c0-0.8-0.8-1.2-1.6-1.4l-1.7-0.4
			c-0.9-0.2-1.7-0.7-1.7-1.8c0-0.7,0.4-2.1,2.6-2.1c1.6,0,2.8,0.8,2.8,2.3h-0.7c-0.1-1.1-1.1-1.9-2.2-1.8c-1,0-1.9,0.4-1.9,1.5
			c0,0.7,0.6,1,1.2,1.1l1.8,0.5c1,0.3,2,0.7,2,2c0,0.5-0.3,2.1-3,2.1c-1.7,0-3-0.8-3-2.6L77.1,18.8z"/>
		<path id="Path_88" class="st0" d="M84,15.2h0.4c0.3,0,0.6,0,0.6-0.4c0-0.3-0.3-0.3-0.4-0.3H84L84,15.2z M83.6,14.2h0.9
			c0.6,0,0.7,0.2,0.7,0.7c0,0.3-0.2,0.6-0.5,0.6c0,0,0,0,0,0l0.7,0.9h-0.4l-0.6-0.9H84v0.9h-0.3L83.6,14.2z M84.4,16.9
			c0.9,0,1.5-0.7,1.5-1.5c0-0.9-0.7-1.5-1.5-1.5c-0.8,0-1.4,0.6-1.5,1.4c0,0.1,0,0.1,0,0.2c-0.1,0.8,0.5,1.5,1.3,1.6
			C84.3,16.9,84.3,16.9,84.4,16.9 M84.4,13.5c1,0,1.8,0.8,1.8,1.8s-0.8,1.8-1.8,1.8c-1,0-1.8-0.8-1.8-1.8c0,0,0,0,0,0
			C82.6,14.3,83.4,13.5,84.4,13.5"/>
		<path id="Path_89" class="st1" d="M11.5,16.1c2.5-3.4,6.5-5.5,10.7-5.7V5.1c-3.8-0.1-7.5,1-10.7,3V16.1z"/>
		<path id="Path_90" class="st1" d="M22.2,0H11.5v5.4c3.3-1.8,7-2.7,10.7-2.7L22.2,0z"/>
		<path id="Path_91" class="st1" d="M22.2,12.7c-5.1,0.2-9.4,3.7-10.6,8.6h10.6V12.7z"/>
		<path id="Path_92" class="st1" d="M7.7,8.3c0.5-0.5,1-0.9,1.5-1.3V0H4v13.2C4.9,11.4,6.2,9.7,7.7,8.3L7.7,8.3z"/>
		<rect id="Rectangle_6" class="st1" width="1.7" height="21.3"/>
		<path id="Path_93" class="st1" d="M4,21.3h5.2V9.9C6.2,13,4.3,17,4,21.3z"/>
		<path id="Path_94" class="st2" d="M22.2,12.7v-2.3c-4.2,0.1-8.2,2.2-10.7,5.7v-8c3.2-2,6.9-3.1,10.7-3V2.8
			c-3.7,0-7.4,0.9-10.7,2.7V0H9.2v6.9C8.7,7.4,8.2,7.8,7.7,8.3c-1.5,1.4-2.7,3.1-3.7,5V0H1.7v21.3H4C4.3,17,6.2,13,9.2,9.9v11.4h2.4
			C12.9,16.4,17.2,12.9,22.2,12.7z"/>
	</g>
</g>
</svg>
