<?xml version="1.0" encoding="utf-8"?>
<!-- Generator: Adobe Illustrator 21.1.0, SVG Export Plug-In . SVG Version: 6.00 Build 0)  -->
<svg version="1.1" id="Layer_1" xmlns="http://www.w3.org/2000/svg" xmlns:xlink="http://www.w3.org/1999/xlink" x="0px" y="0px"
	 viewBox="0 0 48 55" style="enable-background:new 0 0 48 55;" xml:space="preserve">
<g>
	<g>
		<g>
			<path id="fuswa" d="M19.8,5.2c2.1,0,3.9,1.7,3.9,3.9c0,2.2-1.7,3.9-3.9,3.9c-2.1,0-3.8-1.7-3.9-3.8c0,0,0,0,0,0
				C16,7,17.7,5.2,19.8,5.2z M19.8,4c-2.8,0-5.1,2.3-5.1,5.1c0,1.2,0.4,2.3,1.1,3.1l-2.3,6.1l3.1-1.3l1.5,2.9l1.7-4.7l1.8,4.7L23,17
				l3.1,1.4l-2.5-6.1c0.7-0.9,1.2-2.1,1.1-3.3C24.9,6.3,22.6,4,19.8,4L19.8,4z"/>
		</g>
	</g>
</g>
<g>
	<g>
		<g>
			<path id="fuswb" d="M38.5,41.1h1v1.4c0.7,0.2,1.3,1,1.3,1.7h-1c0-0.5-0.4-0.8-0.8-0.8c-0.4,0-0.8,0.4-0.8,0.8
				c0,0.5,0.4,0.8,0.8,0.8c0.7,0,1.4,0.5,1.7,1.1c0.3,0.7,0.1,1.4-0.4,2c-0.2,0.2-0.5,0.4-0.8,0.5v1.4h-1v-1.4
				c-0.1,0-0.1-0.1-0.2-0.1c-0.7-0.3-1.1-1-1.1-1.7h1c0,0.4,0.2,0.7,0.5,0.8c0.3,0.1,0.6,0.1,0.8-0.2c0.2-0.2,0.3-0.6,0.2-0.9
				c-0.1-0.3-0.4-0.5-0.7-0.5c-1,0-1.8-0.8-1.8-1.9c0-0.8,0.5-1.6,1.3-1.7L38.5,41.1L38.5,41.1z M39,37c-4.8,0-8.6,3.9-8.6,8.6
				c0,0,0,0,0,0c0,4.8,3.9,8.6,8.6,8.6c0,0,0,0,0,0c4.8,0,8.6-3.9,8.6-8.6c0,0,0,0,0,0C47.6,40.9,43.8,37,39,37z"/>
		</g>
	</g>
</g>
<g>
	<g>
		<g>
			<path id="fuswc" d="M0,0.2v47.2h29.1v-1.2H1.2V1.4h37.2v34.3h1.2V0.2L0,0.2z"/>
		</g>
	</g>
</g>
<g>
	<g>
		<g>
			<path id="fuswd" d="M7.8,22.8V24h24v-1.2H7.8z"/>
		</g>
	</g>
</g>
<g>
	<g>
		<g>
			<path id="fuswe" d="M12.3,37.2v1.2h15.1v-1.2H12.3z"/>
		</g>
	</g>
</g>
<g>
	<g>
		<g>
			<path id="fuswf" d="M7.8,27.6v1.2h24v-1.2H7.8z"/>
		</g>
	</g>
</g>
<g>
	<g>
		<g>
			<path id="fuswg" d="M7.8,32.4v1.2h24v-1.2H7.8z"/>
		</g>
	</g>
</g>
</svg>
