<?xml version="1.0" encoding="utf-8"?>
<!-- Generator: Adobe Illustrator 21.1.0, SVG Export Plug-In . SVG Version: 6.00 Build 0)  -->
<svg version="1.1" id="Layer_1" xmlns="http://www.w3.org/2000/svg" xmlns:xlink="http://www.w3.org/1999/xlink" x="0px" y="0px"
	 viewBox="0 0 28 28.2" style="enable-background:new 0 0 28 28.2;" xml:space="preserve">
<path id="Path_380" d="M19.2,28.2c-0.2,0-0.4-0.2-0.4-0.4l0,0v-1.5h-2v1.5c0,0.2-0.2,0.4-0.4,0.4c-0.2,0-0.4-0.2-0.4-0.4
	c0,0,0,0,0,0v-1.5h-0.7c-0.2,0-0.4-0.2-0.4-0.4c0-0.2,0.2-0.4,0.4-0.4h0.7v-2.2h-0.7c-0.2,0-0.4-0.2-0.4-0.4c0-0.2,0.2-0.4,0.4-0.4
	h0.7v-2.2h-0.7c-0.2,0-0.4-0.2-0.4-0.4c0-0.2,0.2-0.4,0.4-0.4c0,0,0,0,0,0h0.7v-2.2h-0.7c-0.2,0-0.4-0.2-0.4-0.4
	c0-0.2,0.2-0.4,0.4-0.4h0.7v-2l-0.8,0c-0.2,0-0.4-0.2-0.4-0.4c0-0.2,0.2-0.4,0.4-0.4c0,0,0,0,0,0l0.8,0v-1c0-0.3,0-0.6,0-1l-0.8-0.1
	c-0.2,0-0.4-0.2-0.4-0.4c0-0.2,0.2-0.4,0.4-0.4c0,0,0,0,0,0l0.7,0.1c0.1-0.7,0.3-1.4,0.5-2l-0.7-0.2c-0.2-0.1-0.3-0.3-0.3-0.5
	c0.1-0.2,0.3-0.3,0.5-0.3c0,0,0,0,0,0L16.8,8c0.3-0.7,0.7-1.4,1.2-2.1l-0.5-0.4c-0.2-0.1-0.2-0.4-0.1-0.6c0.1-0.2,0.4-0.2,0.6-0.1
	c0,0,0,0,0,0l0.6,0.4c0.5-0.6,1.1-1.2,1.7-1.7L19.8,3c-0.1-0.2-0.1-0.4,0.1-0.6c0.2-0.1,0.4-0.1,0.6,0.1l0,0L20.9,3
	c0.7-0.5,1.5-0.9,2.3-1.3L23,1.2C23,1,23.1,0.7,23.3,0.7c0.2-0.1,0.5,0.1,0.5,0.3l0,0L24,1.5c0.7-0.2,1.5-0.4,2.2-0.5l-0.1-0.6
	c0-0.2,0.1-0.4,0.3-0.5c0.2,0,0.4,0.1,0.5,0.3c0,0,0,0,0,0L27,1c0.2,0,0.3,0,0.5,0c0.2,0,0.4,0.2,0.4,0.4s-0.2,0.4-0.4,0.4
	c0,0,0,0,0,0c-0.1,0-0.3,0-0.4,0l0.3,2.4h0.2c0.2,0,0.4,0.2,0.4,0.4C28,4.8,27.8,5,27.6,5c0,0,0,0,0,0h-0.1l0.1,0.6
	c0,0.2-0.2,0.4-0.4,0.4c-0.2,0-0.4-0.1-0.4-0.3l-0.1-0.7c-0.5,0.1-1,0.2-1.5,0.3L25.3,6c0.1,0.2-0.1,0.5-0.3,0.5
	c-0.2,0.1-0.5-0.1-0.5-0.3l-0.2-0.6C24,5.8,23.6,6,23.3,6.3l0.3,0.5c0.1,0.2,0.1,0.4-0.1,0.6s-0.4,0.1-0.6-0.1l-0.3-0.5
	C22.3,7,22,7.3,21.7,7.6L22.2,8c0.2,0.1,0.2,0.4,0.1,0.6c-0.1,0.2-0.4,0.2-0.6,0.1c0,0,0,0,0,0l-0.6-0.4c-0.3,0.4-0.5,0.7-0.7,1.1
	l0.6,0.2c0.2,0.1,0.3,0.3,0.2,0.5c-0.1,0.2-0.3,0.3-0.5,0.2l-0.7-0.3c-0.2,0.4-0.3,0.8-0.4,1.3l0.8,0.1c0.2,0,0.4,0.3,0.3,0.5
	c0,0.2-0.2,0.4-0.4,0.3l-0.8-0.1c0,0.3,0,0.5,0,0.8v0.8l0.8,0c0.2,0,0.4,0.2,0.4,0.4c0,0.2-0.2,0.4-0.4,0.4l-0.8,0v1.9h0.9
	c0.2,0,0.4,0.2,0.4,0.4c0,0.2-0.2,0.4-0.4,0.4h-0.9v2.2h0.9c0.2,0,0.4,0.2,0.4,0.4c0,0.2-0.2,0.4-0.4,0.4h-0.9v2.2h0.9
	c0.2,0,0.4,0.2,0.4,0.4c0,0.2-0.2,0.4-0.4,0.4h-0.9v2.2h0.9c0.2,0,0.4,0.2,0.4,0.4c0,0.2-0.2,0.4-0.4,0.4h-0.9v1.5
	C19.6,28.1,19.4,28.2,19.2,28.2z M16.7,25.5h2v-2.2h-2L16.7,25.5z M16.7,22.5h2v-2.2h-2L16.7,22.5z M16.7,19.5h2v-2.2h-2L16.7,19.5z
	 M16.7,16.5h2v-1.9l-2-0.1L16.7,16.5z M16.7,13.7l2,0.1V13c0-0.3,0-0.6,0-0.9l-2-0.3c0,0.3,0,0.6,0,0.8L16.7,13.7z M16.8,10.9
	l2.1,0.3c0.1-0.5,0.2-1,0.4-1.4l-2-0.7C17.1,9.7,16.9,10.3,16.8,10.9L16.8,10.9z M17.6,8.3l2.1,0.7c0.2-0.5,0.5-0.9,0.8-1.3
	l-1.8-1.3C18.3,7,17.9,7.6,17.6,8.3L17.6,8.3z M19.2,5.7L21,7.1c0.3-0.4,0.7-0.7,1.1-1l-1.4-1.9C20.2,4.7,19.6,5.2,19.2,5.7
	L19.2,5.7z M21.4,3.7l1.4,1.9c0.4-0.3,0.9-0.5,1.4-0.7l-0.7-2.3C22.7,2.9,22,3.3,21.4,3.7L21.4,3.7z M24.2,2.3l0.7,2.3
	c0.5-0.2,1.1-0.3,1.7-0.4l-0.3-2.4C25.6,1.9,24.9,2.1,24.2,2.3L24.2,2.3z M11.7,28.1c-0.2,0-0.4-0.2-0.4-0.4l0,0v-1.3h-2v1.3
	c0,0.2-0.2,0.4-0.4,0.4c-0.2,0-0.4-0.2-0.4-0.4c0,0,0,0,0,0v-1.3H7.5c-0.2,0-0.4-0.2-0.4-0.4c0-0.2,0.2-0.4,0.4-0.4h0.9v-2.2H7.5
	c-0.2,0-0.4-0.2-0.4-0.4c0-0.2,0.2-0.4,0.4-0.4h0.9v-2.2H7.5c-0.2,0-0.4-0.2-0.4-0.4c0-0.2,0.2-0.4,0.4-0.4h0.9V19
	c0-0.3,0-0.6-0.1-0.9l-0.7,0.1c-0.2,0-0.4-0.2-0.4-0.4c0-0.2,0.1-0.4,0.3-0.4l0.7-0.1c-0.1-0.4-0.2-0.8-0.4-1.2l-0.7,0.3
	c-0.2,0.1-0.5,0-0.5-0.2c-0.1-0.2,0-0.4,0.2-0.5l0.6-0.3c-0.2-0.4-0.4-0.7-0.7-1.1l-0.6,0.4c-0.2,0.1-0.4,0.1-0.6-0.1
	c-0.1-0.2-0.1-0.4,0.1-0.6l0.5-0.4C6,13.3,5.7,13,5.4,12.8l-0.3,0.5c-0.1,0.2-0.4,0.2-0.6,0.1c-0.2-0.1-0.2-0.4-0.1-0.6l0,0l0.3-0.5
	c-0.4-0.2-0.7-0.4-1.1-0.6l-0.2,0.6c-0.1,0.2-0.3,0.3-0.5,0.3c-0.2-0.1-0.3-0.3-0.3-0.5l0,0l0.2-0.6c-0.5-0.2-1-0.3-1.5-0.3
	l-0.1,0.7c0,0.2-0.2,0.4-0.4,0.4c-0.2,0-0.4-0.2-0.4-0.4c0,0,0,0,0,0L0.5,11H0.4c-0.2,0-0.4-0.2-0.4-0.4c0-0.2,0.2-0.4,0.4-0.4
	c0,0,0,0,0,0c0.1,0,0.1,0,0.2,0l0.3-2.4c-0.1,0-0.3,0-0.4,0C0.2,7.8,0,7.6,0,7.4C0,7.2,0.2,7,0.4,7c0.2,0,0.3,0,0.5,0L1,6.4
	C1,6.2,1.3,6,1.5,6.1c0.2,0,0.4,0.2,0.3,0.4L1.8,7.1C2.5,7.2,3.3,7.3,4,7.6L4.2,7c0.1-0.2,0.3-0.3,0.5-0.3C4.9,6.8,5,7,5,7.2
	L4.8,7.8c0.8,0.3,1.6,0.8,2.3,1.3l0.4-0.6c0.1-0.2,0.4-0.2,0.6-0.1C8.3,8.6,8.3,8.8,8.2,9L7.8,9.6c0.6,0.5,1.2,1.1,1.7,1.7l0.6-0.4
	c0.2-0.1,0.4-0.1,0.6,0.1s0.1,0.4-0.1,0.6l0,0L10,12c0.4,0.6,0.8,1.2,1.1,1.9l0.7-0.3c0.2-0.1,0.5,0,0.6,0.2c0.1,0.2,0,0.5-0.2,0.6
	c0,0,0,0,0,0l-0.7,0.3c0.3,0.7,0.4,1.4,0.6,2.1l0.8-0.1c0.2,0,0.4,0.2,0.4,0.4c0,0.2-0.1,0.4-0.3,0.4L12,17.6c0,0.4,0.1,0.7,0.1,1.1
	v0.9h0.7c0.2,0,0.4,0.2,0.4,0.4c0,0.2-0.2,0.4-0.4,0.4h-0.7v2.2h0.7c0.2,0,0.4,0.2,0.4,0.4c0,0.2-0.2,0.4-0.4,0.4h-0.7v2.2h0.7
	c0.2,0,0.4,0.2,0.4,0.4c0,0.2-0.2,0.4-0.4,0.4c0,0,0,0,0,0h-0.7v1.3C12.1,27.9,11.9,28.1,11.7,28.1L11.7,28.1L11.7,28.1z M9.2,25.6
	h2v-2.2h-2V25.6z M9.2,22.6h2v-2.2h-2V22.6z M9.2,19.6h2v-0.9c0-0.3,0-0.7,0-1L9.2,18c0,0.3,0.1,0.7,0.1,1C9.2,19,9.2,19.6,9.2,19.6
	z M8.6,15.8c0.2,0.5,0.3,0.9,0.4,1.4l2.1-0.3c-0.1-0.7-0.3-1.3-0.5-1.9L8.6,15.8z M7.5,13.8C7.8,14.2,8,14.6,8.3,15l2-0.8
	c-0.3-0.6-0.6-1.2-1-1.7L7.5,13.8z M5.9,12.1c0.4,0.3,0.7,0.6,1.1,1l1.8-1.3c-0.5-0.6-1-1.1-1.5-1.5L5.9,12.1z M3.9,10.9
	c0.5,0.2,0.9,0.4,1.4,0.7l1.4-1.9C6,9.3,5.3,8.9,4.5,8.6L3.9,10.9z M1.4,10.3c0.6,0.1,1.1,0.2,1.7,0.4l0.7-2.3
	C3.1,8.1,2.4,8,1.7,7.9L1.4,10.3z"/>
</svg>
