<?xml version="1.0" encoding="utf-8"?>
<!-- Generator: Adobe Illustrator 21.1.0, SVG Export Plug-In . SVG Version: 6.00 Build 0)  -->
<svg version="1.1" id="Layer_1" xmlns="http://www.w3.org/2000/svg" xmlns:xlink="http://www.w3.org/1999/xlink" x="0px" y="0px"
	 viewBox="0 0 34.4 30.1" style="enable-background:new 0 0 34.4 30.1;" xml:space="preserve">
<g id="Group_209" transform="translate(-17.198 -15.06)">
	<path id="Path_623" d="M17.8,23.6l-0.3-0.6l16.7-8l16.9,8l-0.3,0.6l-16.6-7.9L17.8,23.6z"/>
	<g id="Group_207" transform="translate(0.767 1.204)">
		<path id="Path_624" d="M29.6,23.1v7.2h7.7v-7.3C35.1,21.3,31.9,21.3,29.6,23.1z"/>
		<path id="Path_625" d="M40.7,30.3c0-2.7-1.1-5.3-3.2-7.1v7.1h1.5V33H27.9v-2.6h1.5v-7c-2,1.8-3.1,4.3-3.1,7H27v0.8h-0.7v12.3h4.8
			V37H36v6.4h4.8V31.1h-0.5v-0.8L40.7,30.3z M30,42.1h-2.5v-4H30L30,42.1z M39.6,42.1h-2.5v-4h2.5L39.6,42.1z"/>
		<path id="Path_626" d="M25.9,43.4V31.1h-8.7v12.3H25.9z M21.2,42.1h-2.5v-4h2.5V42.1z M21.2,36.2h-2.5v-4h2.5V36.2z M24.7,42.1
			h-2.5v-4h2.5V42.1z M22.3,36.2v-4h2.5v4L22.3,36.2z"/>
		<path id="Path_627" d="M25.9,30.3c0-2.8,1.2-5.5,3.2-7.3c0.1-0.1,0.2-0.2,0.2-0.2c2.4-1.9,5.8-2,8.2-0.1c0.1,0.1,0.2,0.1,0.3,0.2
			c2.1,1.9,3.3,4.6,3.3,7.4H50v-7.4l-16.5-7.8l-16.3,7.8v7.4L25.9,30.3z M45.3,26.4c1.6-0.1,2.9,1.1,3,2.6h-6
			C42.5,27.4,43.8,26.3,45.3,26.4L45.3,26.4z M21.7,26.4c1.6-0.1,2.9,1.1,3,2.6h-6C18.8,27.4,20.2,26.3,21.7,26.4L21.7,26.4z"/>
		<path id="Path_628" d="M41.2,31.1v12.3H50V31.1H41.2z M44.8,42.1h-2.5v-4h2.5V42.1z M44.8,36.2h-2.5v-4h2.5V36.2z M48.3,42.1h-2.5
			v-4h2.5L48.3,42.1z M48.3,36.2h-2.5v-4h2.5L48.3,36.2z"/>
	</g>
	<rect id="Rectangle_239" x="17.2" y="44.4" width="34.4" height="0.8"/>
	<g id="Group_208" transform="translate(12.196 16.922)">
		<path id="Path_629" d="M17.2,15.1h0.6v0.2h-0.2v1.5h-0.2v-1.5h-0.2L17.2,15.1z"/>
		<path id="Path_630" d="M17.9,15.1h0.4c0.1,0,0.2,0,0.2,0.1c0.1,0.1,0.1,0.1,0.1,0.2c0,0,0,0.1,0,0.2c0,0.1,0,0.2,0,0.2
			c0,0.1-0.1,0.1-0.1,0.1c0,0,0.1,0,0.1,0.1c0,0.1,0,0.1,0,0.2c0,0.1,0,0.2,0,0.4c0,0.1,0,0.2,0,0.3h-0.2c0-0.2,0-0.4,0-0.6
			c0-0.1,0-0.2,0-0.2c0,0-0.1,0-0.1,0l-0.1,0v0.8h-0.2L17.9,15.1z M18.4,15.5c0-0.1,0-0.2,0-0.2c0,0-0.1,0-0.1,0h-0.1v0.6h0.1
			c0,0,0.1,0,0.1,0c0,0,0-0.1,0-0.1C18.4,15.6,18.4,15.6,18.4,15.5L18.4,15.5z"/>
		<path id="Path_631" d="M19,15.1h0.2l0.3,1.7h-0.2l0-0.3H19l0,0.3h-0.2L19,15.1z M19,16.3h0.3l-0.1-0.9l0,0L19,16.3z"/>
		<path id="Path_632" d="M19.8,15.1H20v1.7h-0.2V15.1z"/>
		<path id="Path_633" d="M20.8,15.1H21v1.7h-0.1l-0.4-1.2l0,0.4v0.7h-0.2v-1.7h0.2l0.4,1.2l0-0.5L20.8,15.1z"/>
		<path id="Path_634" d="M21.7,15.6c0,0,0-0.1,0-0.1c0-0.1,0-0.2,0.1-0.3c0.1-0.1,0.2-0.1,0.3-0.1c0.1,0,0.3,0.1,0.3,0.2
			c0,0,0,0,0,0c0,0.1,0,0.2,0,0.3v0.1h-0.2v-0.1c0-0.1,0-0.1,0-0.2c0,0,0-0.1,0-0.1c0,0,0,0-0.1,0c0,0-0.1,0-0.1,0.1
			c0,0.1,0,0.2,0,0.3c0,0,0,0.1,0.1,0.1l0,0l0.1,0.1c0.1,0.1,0.2,0.3,0.2,0.5c0,0.1,0,0.2-0.1,0.3c-0.1,0.1-0.3,0.2-0.5,0
			c0,0-0.1-0.1-0.1-0.1c0-0.1,0-0.2,0-0.3v-0.2h0.2v0.2c0,0.1,0,0.2,0,0.3c0,0,0.1,0.1,0.1,0.1c0,0,0.1,0,0.1,0c0,0,0-0.1,0-0.1
			c0,0,0-0.1,0-0.2c0-0.1-0.1-0.2-0.2-0.3l-0.1-0.1C21.8,15.8,21.8,15.7,21.7,15.6z"/>
		<path id="Path_635" d="M22.5,15.1h0.6v0.2h-0.2v1.5h-0.2v-1.5h-0.2V15.1z"/>
		<path id="Path_636" d="M23.4,15.1h0.2l0.3,1.7h-0.2l0-0.3h-0.3l0,0.3h-0.2L23.4,15.1z M23.4,16.3h0.3l-0.1-0.9h0L23.4,16.3z"/>
		<path id="Path_637" d="M24,15.1h0.6v0.2h-0.2v1.5h-0.2v-1.5H24L24,15.1z"/>
		<path id="Path_638" d="M24.8,15.1H25v1.7h-0.2V15.1z"/>
		<path id="Path_639" d="M25.2,15.6c0-0.1,0-0.3,0.1-0.4c0.1-0.1,0.2-0.1,0.2-0.1c0.1,0,0.3,0.1,0.3,0.2c0,0.1,0,0.2,0,0.3v0.8
			c0,0.1,0,0.3-0.1,0.4c-0.1,0.1-0.2,0.1-0.3,0.1c-0.1,0-0.2,0-0.3-0.1c-0.1-0.1-0.1-0.3-0.1-0.4L25.2,15.6z M25.7,15.5
			c0-0.1,0-0.2,0-0.2c0,0-0.1-0.1-0.1-0.1c0,0-0.1,0-0.1,0.1c0,0.1,0,0.2,0,0.2v0.8c0,0.1,0,0.2,0,0.3c0,0.1,0.1,0.1,0.2,0.1
			c0,0,0,0,0.1-0.1c0-0.1,0-0.2,0-0.3L25.7,15.5z"/>
		<path id="Path_640" d="M26.7,15.1h0.2v1.7h-0.1l-0.4-1.2l0,0.4v0.7h-0.2v-1.7h0.2l0.4,1.2l0-0.5L26.7,15.1z"/>
	</g>
</g>
</svg>
