<?xml version="1.0" encoding="utf-8"?>
<!-- Generator: Adobe Illustrator 21.1.0, SVG Export Plug-In . SVG Version: 6.00 Build 0)  -->
<svg version="1.1" id="Layer_1" xmlns="http://www.w3.org/2000/svg" xmlns:xlink="http://www.w3.org/1999/xlink" x="0px" y="0px"
	 viewBox="0 0 52 52" style="enable-background:new 0 0 52 52;" xml:space="preserve">
<g>
	<g>
		<path id="uym9a" d="M3.4,20.1c-0.2-0.6-0.4-1.2-0.6-1.8c0-0.1-0.1-0.3-0.2-0.4c-0.1-0.3-0.4-1-0.3-1.2
			c0.1-0.4,0.3-0.8,0.5-0.9l0,0c0,0,0,0,0,0c0.6-0.4,1.2-0.3,1.6,0c0.1,0.1,0.2,0.3,0.3,0.4C5,16.6,5.1,17,5.3,17.6
			c0.3,0.8,0.6,1.6,0.9,2.4c0.1,0.4,0.6,1.8,1.5,3.4c0,0,0,0.1,0,0.1c0.2,0.5,0.7,1.5,1.8,2.6l6,5.9c0.1,0.1,0.2,0.2,0.3,0.3
			c0.6,0.4,1.4,0.2,1.8-0.2c0.6-0.5,0.7-1.4,0.3-2.1l0-0.1l-0.1-0.1l-2.9-2.9l-1.6-1.5c-0.3-0.3-0.8-0.8-0.8-1.4
			c0-0.1,0-0.6,0.4-0.9c0.4-0.3,1-0.3,1.4-0.1c0.2,0.1,0.3,0.2,0.4,0.3c1.2,1.2,2.5,2.3,3.7,3.3s2.4,2,3.6,3.2
			c0.2,0.2,0.3,0.4,0.4,0.6c0,0,0.1,0.1,0.1,0.1c1.9,2.6,1.7,8-0.6,15.1c-2.5-2-4.7-3.8-6.8-5.6c0.1-0.7,0-1.3-0.2-2
			c-0.3-1.1-0.9-2-1.7-2.8l-5.8-5.7c-0.5-0.5-0.9-1.1-1.2-1.7l-1.4-3.4L3.4,20.1L3.4,20.1z M6.5,30.3l5.8,5.7
			c0.6,0.6,1.1,1.3,1.3,2.2c0.2,0.8,0.2,1.5,0.1,1.8l0,0.4l0.3,0.2c2.6,2.1,5.2,4.2,7.8,6.4l0.7,0.6l0.3-0.9
			c1.9-5.6,3.6-13.1,0.8-17.1c0,0,0,0-0.1-0.1c-0.1-0.2-0.3-0.5-0.6-0.7c-1.2-1.2-2.5-2.3-3.7-3.3c-1.2-1-2.4-2-3.6-3.2
			c-0.1-0.1-0.4-0.4-0.8-0.6c-0.7-0.3-1.8-0.4-2.7,0.3c-0.6,0.5-0.9,1.2-0.9,1.9c0,1.2,0.8,2,1.2,2.4l1.5,1.5
			c0.9,0.9,1.9,1.9,2.9,2.9c0.1,0.2,0,0.4,0,0.4c-0.1,0-0.2,0.1-0.3,0.1l-6.2-6.1c-0.7-0.6-1.2-1.4-1.5-2.2c0-0.1-0.1-0.1-0.1-0.2
			c-0.8-1.5-1.2-2.8-1.3-3.2c-0.3-0.8-0.5-1.7-0.9-2.5L6,15.6c-0.1-0.4-0.3-0.7-0.6-1c-0.9-0.8-2.2-0.8-3.2-0.1l0,0
			c0,0.1-0.1,0.1-0.2,0.1c-0.4,0.3-0.7,0.9-0.9,1.5c-0.2,0.6,0.1,1.4,0.4,2l0.1,0.4c0.2,0.6,0.4,1.2,0.6,1.8l1.4,4.2L5,28.1
			C5.3,28.9,5.8,29.7,6.5,30.3L6.5,30.3z"/>
	</g>
	<g>
		<path id="uym9a_1_" d="M3.4,20.1c-0.2-0.6-0.4-1.2-0.6-1.8c0-0.1-0.1-0.3-0.2-0.4c-0.1-0.3-0.4-1-0.3-1.2
			c0.1-0.4,0.3-0.8,0.5-0.9l0,0c0,0,0,0,0,0c0.6-0.4,1.2-0.3,1.6,0c0.1,0.1,0.2,0.3,0.3,0.4C5,16.6,5.1,17,5.3,17.6
			c0.3,0.8,0.6,1.6,0.9,2.4c0.1,0.4,0.6,1.8,1.5,3.4c0,0,0,0.1,0,0.1c0.2,0.5,0.7,1.5,1.8,2.6l6,5.9c0.1,0.1,0.2,0.2,0.3,0.3
			c0.6,0.4,1.4,0.2,1.8-0.2c0.6-0.5,0.7-1.4,0.3-2.1l0-0.1l-0.1-0.1l-2.9-2.9l-1.6-1.5c-0.3-0.3-0.8-0.8-0.8-1.4
			c0-0.1,0-0.6,0.4-0.9c0.4-0.3,1-0.3,1.4-0.1c0.2,0.1,0.3,0.2,0.4,0.3c1.2,1.2,2.5,2.3,3.7,3.3s2.4,2,3.6,3.2
			c0.2,0.2,0.3,0.4,0.4,0.6c0,0,0.1,0.1,0.1,0.1c1.9,2.6,1.7,8-0.6,15.1c-2.5-2-4.7-3.8-6.8-5.6c0.1-0.7,0-1.3-0.2-2
			c-0.3-1.1-0.9-2-1.7-2.8l-5.8-5.7c-0.5-0.5-0.9-1.1-1.2-1.7l-1.4-3.4L3.4,20.1L3.4,20.1z M6.5,30.3l5.8,5.7
			c0.6,0.6,1.1,1.3,1.3,2.2c0.2,0.8,0.2,1.5,0.1,1.8l0,0.4l0.3,0.2c2.6,2.1,5.2,4.2,7.8,6.4l0.7,0.6l0.3-0.9
			c1.9-5.6,3.6-13.1,0.8-17.1c0,0,0,0-0.1-0.1c-0.1-0.2-0.3-0.5-0.6-0.7c-1.2-1.2-2.5-2.3-3.7-3.3c-1.2-1-2.4-2-3.6-3.2
			c-0.1-0.1-0.4-0.4-0.8-0.6c-0.7-0.3-1.8-0.4-2.7,0.3c-0.6,0.5-0.9,1.2-0.9,1.9c0,1.2,0.8,2,1.2,2.4l1.5,1.5
			c0.9,0.9,1.9,1.9,2.9,2.9c0.1,0.2,0,0.4,0,0.4c-0.1,0-0.2,0.1-0.3,0.1l-6.2-6.1c-0.7-0.6-1.2-1.4-1.5-2.2c0-0.1-0.1-0.1-0.1-0.2
			c-0.8-1.5-1.2-2.8-1.3-3.2c-0.3-0.8-0.5-1.7-0.9-2.5L6,15.6c-0.1-0.4-0.3-0.7-0.6-1c-0.9-0.8-2.2-0.8-3.2-0.1l0,0
			c0,0.1-0.1,0.1-0.2,0.1c-0.4,0.3-0.7,0.9-0.9,1.5c-0.2,0.6,0.1,1.4,0.4,2l0.1,0.4c0.2,0.6,0.4,1.2,0.6,1.8l1.4,4.2L5,28.1
			C5.3,28.9,5.8,29.7,6.5,30.3L6.5,30.3z"/>
	</g>
</g>
<g>
	<g>
		<path id="uym9b" d="M19.8,48.3l-0.7,0.7l-5.9-5.9l0.2-0.2L19.8,48.3z M11.5,43.1l7.7,7.7l2.6-2.6l-8.4-7L11.5,43.1z"
			/>
	</g>
	<g>
		<path id="uym9b_1_" d="M19.8,48.3l-0.7,0.7l-5.9-5.9l0.2-0.2L19.8,48.3z M11.5,43.1l7.7,7.7l2.6-2.6l-8.4-7L11.5,43.1
			z"/>
	</g>
</g>
<g>
	<g>
		<path id="uym9c"  d="M49.6,17.9c0,0.2-0.1,0.3-0.2,0.4c-0.2,0.6-0.4,1.2-0.6,1.8c-0.5,1.4-0.9,2.8-1.4,4.2L46,27.7
			c-0.3,0.6-0.6,1.2-1.2,1.7l-5.7,5.7c-0.9,0.8-1.4,1.7-1.7,2.8c-0.2,0.6-0.2,1.3-0.2,2c-2.2,1.7-4.4,3.5-6.8,5.6
			c-2.3-7.1-2.6-12.4-0.6-15.1c0,0,0-0.1,0.1-0.1c0.1-0.2,0.2-0.3,0.4-0.5c1.2-1.2,2.4-2.2,3.6-3.2c1.2-1,2.4-2,3.7-3.3
			c0,0,0.2-0.2,0.4-0.3c0.4-0.2,1-0.2,1.4,0.1c0.4,0.3,0.4,0.8,0.4,0.9c0,0.6-0.5,1.1-0.8,1.4l-1.5,1.5c-1,1-2,1.9-2.9,2.9l-0.1,0.1
			l0,0.1c-0.4,0.8-0.3,1.6,0.3,2.1c0.5,0.4,1.2,0.6,1.8,0.2c0.1-0.1,0.2-0.2,0.3-0.3l6-5.9c1.1-1.1,1.6-2.1,1.8-2.6
			c0,0,0-0.1,0.1-0.1c0.9-1.5,1.3-3,1.5-3.4c0.3-0.8,0.6-1.6,0.9-2.4c0.2-0.5,0.3-0.9,0.5-1.5c0-0.2,0.2-0.3,0.3-0.4
			c0.4-0.4,1.1-0.4,1.6,0l0,0l0,0c0.2,0.2,0.4,0.5,0.5,0.9C50,16.9,49.7,17.6,49.6,17.9L49.6,17.9z M50.3,14.7c0,0-0.1-0.1-0.2-0.1
			l0,0c-1-0.7-2.3-0.6-3.2,0.1c-0.3,0.3-0.5,0.6-0.6,1l-0.5,1.4c-0.3,0.8-0.6,1.6-0.9,2.5c-0.1,0.4-0.6,1.7-1.3,3.2
			c0,0,0,0.1-0.1,0.2c-0.2,0.4-0.6,1.3-1.5,2.2l-6.1,6l-0.1,0.1c-0.1,0-0.2,0-0.3-0.1c-0.1-0.1-0.1-0.3,0-0.4
			c0.9-0.9,1.9-1.9,2.9-2.9l1.5-1.5c0.4-0.4,1.2-1.2,1.2-2.3c0-0.3-0.1-1.2-0.9-1.9c-0.9-0.7-2-0.6-2.7-0.3
			c-0.5,0.2-0.7,0.5-0.8,0.6c-1.2,1.2-2.4,2.2-3.6,3.2c-1.2,1-2.4,2-3.7,3.3c-0.3,0.3-0.4,0.6-0.6,0.7c0,0,0,0.1-0.1,0.1
			c-2.9,4-1.2,11.5,0.8,17.1l0.3,0.9l0.7-0.6c2.9-2.4,5.3-4.4,7.8-6.4l0.3-0.2l0-0.4c-0.1-0.6,0-1.2,0.1-1.8
			c0.2-0.9,0.6-1.6,1.3-2.2l5.7-5.7c0.6-0.6,1.1-1.3,1.5-2.1l1.4-3.4v0c0.5-1.4,0.9-2.8,1.4-4.2c0.2-0.6,0.4-1.2,0.6-1.8l0.1-0.4
			c0.3-0.6,0.6-1.4,0.4-2C51,15.6,50.7,15.1,50.3,14.7L50.3,14.7z"/>
	</g>
	<g>
		<path id="uym9c_1_" d="M49.6,17.9c0,0.2-0.1,0.3-0.2,0.4c-0.2,0.6-0.4,1.2-0.6,1.8c-0.5,1.4-0.9,2.8-1.4,4.2L46,27.7
			c-0.3,0.6-0.6,1.2-1.2,1.7l-5.7,5.7c-0.9,0.8-1.4,1.7-1.7,2.8c-0.2,0.6-0.2,1.3-0.2,2c-2.2,1.7-4.4,3.5-6.8,5.6
			c-2.3-7.1-2.6-12.4-0.6-15.1c0,0,0-0.1,0.1-0.1c0.1-0.2,0.2-0.3,0.4-0.5c1.2-1.2,2.4-2.2,3.6-3.2c1.2-1,2.4-2,3.7-3.3
			c0,0,0.2-0.2,0.4-0.3c0.4-0.2,1-0.2,1.4,0.1c0.4,0.3,0.4,0.8,0.4,0.9c0,0.6-0.5,1.1-0.8,1.4l-1.5,1.5c-1,1-2,1.9-2.9,2.9l-0.1,0.1
			l0,0.1c-0.4,0.8-0.3,1.6,0.3,2.1c0.5,0.4,1.2,0.6,1.8,0.2c0.1-0.1,0.2-0.2,0.3-0.3l6-5.9c1.1-1.1,1.6-2.1,1.8-2.6
			c0,0,0-0.1,0.1-0.1c0.9-1.5,1.3-3,1.5-3.4c0.3-0.8,0.6-1.6,0.9-2.4c0.2-0.5,0.3-0.9,0.5-1.5c0-0.2,0.2-0.3,0.3-0.4
			c0.4-0.4,1.1-0.4,1.6,0l0,0l0,0c0.2,0.2,0.4,0.5,0.5,0.9C50,16.9,49.7,17.6,49.6,17.9L49.6,17.9z M50.3,14.7c0,0-0.1-0.1-0.2-0.1
			l0,0c-1-0.7-2.3-0.6-3.2,0.1c-0.3,0.3-0.5,0.6-0.6,1l-0.5,1.4c-0.3,0.8-0.6,1.6-0.9,2.5c-0.1,0.4-0.6,1.7-1.3,3.2
			c0,0,0,0.1-0.1,0.2c-0.2,0.4-0.6,1.3-1.5,2.2l-6.1,6l-0.1,0.1c-0.1,0-0.2,0-0.3-0.1c-0.1-0.1-0.1-0.3,0-0.4
			c0.9-0.9,1.9-1.9,2.9-2.9l1.5-1.5c0.4-0.4,1.2-1.2,1.2-2.3c0-0.3-0.1-1.2-0.9-1.9c-0.9-0.7-2-0.6-2.7-0.3
			c-0.5,0.2-0.7,0.5-0.8,0.6c-1.2,1.2-2.4,2.2-3.6,3.2c-1.2,1-2.4,2-3.7,3.3c-0.3,0.3-0.4,0.6-0.6,0.7c0,0,0,0.1-0.1,0.1
			c-2.9,4-1.2,11.5,0.8,17.1l0.3,0.9l0.7-0.6c2.9-2.4,5.3-4.4,7.8-6.4l0.3-0.2l0-0.4c-0.1-0.6,0-1.2,0.1-1.8
			c0.2-0.9,0.6-1.6,1.3-2.2l5.7-5.7c0.6-0.6,1.1-1.3,1.5-2.1l1.4-3.4v0c0.5-1.4,0.9-2.8,1.4-4.2c0.2-0.6,0.4-1.2,0.6-1.8l0.1-0.4
			c0.3-0.6,0.6-1.4,0.4-2C51,15.6,50.7,15.1,50.3,14.7L50.3,14.7z"/>
	</g>
</g>
<g>
	<g>
		<path id="uym9d"  d="M33.1,48.9l-0.7-0.7l6.4-5.3l0.2,0.2L33.1,48.9z M38.9,41.2l-8.4,7l2.6,2.6l7.7-7.7L38.9,41.2z"/>
	</g>
	<g>
		<path id="uym9d_1_" d="M33.1,48.9l-0.7-0.7l6.4-5.3l0.2,0.2L33.1,48.9z M38.9,41.2l-8.4,7l2.6,2.6l7.7-7.7L38.9,41.2z
			"/>
	</g>
</g>
<g>
	<g>
		<path id="uym9e" d="M21.8,4.9C23.4,4.3,24.8,3.3,26,2l0.1-0.1L26.2,2c0.9,1,2.5,2.3,4.8,3.1c1.8,0.6,3.7,0.8,5.6,0.5
			l0.2,0c-0.1,0.5-0.1,0.9-0.2,1.2c-0.4,2.9-1.3,10.5-3.9,13.5c-1.8,2.2-4.1,3.9-6.6,5.1l0,0l-0.1,0c-1.8-0.7-5.2-2.4-7.7-5.9
			c-1-1.4-2.4-4.9-2.9-13.4c0,0,0-0.3,0-0.5l0.2,0C17,5.8,19.3,5.9,21.8,4.9L21.8,4.9z M14,4l0,0.8c0,0,0.1,1.1,0.1,1.3
			c0.5,7.1,1.5,11.8,3.1,14.1c2.7,3.8,6.4,5.6,8.3,6.3l0.6,0.2l0.6-0.3c2.7-1.3,5.1-3.1,7-5.4c2.8-3.3,3.8-10.9,4.1-14.1
			c0-0.5,0.3-2,0.3-2l0.1-0.9l-1.9,0.3c-1.2,0.2-3,0.3-5-0.4c-1.7-0.5-3.1-1.5-4.3-2.8L26,0l-1,1.2c-1,1.1-2.3,2-3.7,2.6
			C19,4.6,17,4.5,15.7,4.3L14,4z"/>
	</g>
	<g>
		<path id="uym9e_1_" d="M21.8,4.9C23.4,4.3,24.8,3.3,26,2l0.1-0.1L26.2,2c0.9,1,2.5,2.3,4.8,3.1
			c1.8,0.6,3.7,0.8,5.6,0.5l0.2,0c-0.1,0.5-0.1,0.9-0.2,1.2c-0.4,2.9-1.3,10.5-3.9,13.5c-1.8,2.2-4.1,3.9-6.6,5.1l0,0l-0.1,0
			c-1.8-0.7-5.2-2.4-7.7-5.9c-1-1.4-2.4-4.9-2.9-13.4c0,0,0-0.3,0-0.5l0.2,0C17,5.8,19.3,5.9,21.8,4.9L21.8,4.9z M14,4l0,0.8
			c0,0,0.1,1.1,0.1,1.3c0.5,7.1,1.5,11.8,3.1,14.1c2.7,3.8,6.4,5.6,8.3,6.3l0.6,0.2l0.6-0.3c2.7-1.3,5.1-3.1,7-5.4
			c2.8-3.3,3.8-10.9,4.1-14.1c0-0.5,0.3-2,0.3-2l0.1-0.9l-1.9,0.3c-1.2,0.2-3,0.3-5-0.4c-1.7-0.5-3.1-1.5-4.3-2.8L26,0l-1,1.2
			c-1,1.1-2.3,2-3.7,2.6C19,4.6,17,4.5,15.7,4.3L14,4z"/>
	</g>
</g>
</svg>
