<?xml version="1.0" encoding="utf-8"?>
<!-- Generator: Adobe Illustrator 21.1.0, SVG Export Plug-In . SVG Version: 6.00 Build 0)  -->
<svg version="1.1" id="Layer_1" xmlns="http://www.w3.org/2000/svg" xmlns:xlink="http://www.w3.org/1999/xlink" x="0px" y="0px"
	 viewBox="0 0 215 215" style="enable-background:new 0 0 215 215;" xml:space="preserve">
<path id="Subtraction_1" d="M107.5,215c-7.3,0-14.5-0.7-21.7-2.2c-6.9-1.4-13.7-3.5-20.2-6.3c-6.4-2.7-12.5-6-18.3-9.9
	c-5.7-3.9-11-8.3-15.9-13.1c-4.9-4.9-9.3-10.2-13.1-15.9c-3.9-5.8-7.2-11.9-9.9-18.3c-2.7-6.5-4.8-13.3-6.3-20.2
	C0.7,122,0,114.8,0,107.5c0-7.3,0.7-14.5,2.2-21.7c1.4-6.9,3.5-13.7,6.3-20.2c2.7-6.4,6-12.5,9.9-18.3c3.9-5.7,8.3-11,13.1-15.9
	c4.9-4.9,10.2-9.3,15.9-13.1c5.8-3.9,11.9-7.2,18.3-9.9c6.5-2.7,13.3-4.8,20.2-6.3C93,0.7,100.2,0,107.5,0c7.3,0,14.5,0.7,21.7,2.2
	c6.9,1.4,13.7,3.5,20.2,6.3c6.4,2.7,12.5,6,18.3,9.9c5.7,3.9,11,8.3,15.9,13.1c4.9,4.9,9.3,10.2,13.1,15.9
	c3.9,5.8,7.2,11.9,9.9,18.3c2.7,6.5,4.8,13.3,6.3,20.2c1.5,7.1,2.2,14.4,2.2,21.7c0,7.3-0.7,14.5-2.2,21.7
	c-1.4,6.9-3.5,13.7-6.3,20.2c-2.7,6.4-6,12.5-9.9,18.3c-3.9,5.7-8.3,11-13.1,15.9c-4.9,4.9-10.2,9.3-15.9,13.1
	c-5.8,3.9-11.9,7.2-18.3,9.9c-6.5,2.7-13.3,4.8-20.2,6.3C122,214.3,114.8,215,107.5,215z M107.5,4c-6.3,0-12.7,0.7-18.8,2.1
	c-6,1.4-11.9,3.4-17.6,6c-5.6,2.6-10.9,5.8-15.9,9.5c-5,3.8-9.6,8-13.8,12.6c-4.3,4.7-8.1,9.9-11.4,15.3c-3.4,5.6-6.3,11.5-8.6,17.6
	c-2.4,6.3-4.2,12.8-5.4,19.4c-1.3,6.9-1.9,13.9-1.9,20.9c0,7,0.6,14,1.9,20.9c1.2,6.6,3,13.1,5.4,19.4c2.3,6.1,5.2,12,8.6,17.6
	c3.3,5.4,7.1,10.6,11.4,15.3c4.2,4.6,8.8,8.9,13.8,12.6c5,3.7,10.3,6.9,15.9,9.5c5.6,2.6,11.5,4.7,17.6,6c6.2,1.4,12.5,2.1,18.8,2.1
	c6.3,0,12.7-0.7,18.8-2.1c6-1.4,11.9-3.4,17.6-6c5.6-2.6,10.9-5.8,15.9-9.5c5-3.8,9.6-8,13.8-12.6c4.3-4.7,8.1-9.9,11.4-15.3
	c3.4-5.6,6.3-11.5,8.6-17.6c2.4-6.3,4.2-12.8,5.4-19.4c1.3-6.9,1.9-13.9,1.9-20.9c0-7-0.6-14-1.9-20.9c-1.2-6.6-3-13.1-5.4-19.4
	c-2.3-6.1-5.2-12-8.6-17.6c-3.3-5.4-7.1-10.6-11.4-15.3c-4.2-4.6-8.8-8.9-13.8-12.6c-5-3.7-10.3-6.9-15.9-9.5
	c-5.6-2.6-11.5-4.7-17.6-6C120.2,4.7,113.8,4,107.5,4z"/>
<g id="Group_859" transform="translate(11.185 11.073)">
	<g id="Group_858">
		<g id="Group_857-2">
			<path d="M66.7,105.8c-6.6,0-10.2-6.7-10.2-13c0-3.1,0.9-6,2.4-8.1c1.8-2.4,4.5-3.7,7.8-3.7c3.3,0,5.9,1.3,7.8,3.7
				c1.6,2.1,2.4,4.9,2.4,8.1C76.9,99.1,73.3,105.8,66.7,105.8z M66.7,83c-2.6,0-4.7,1-6.2,2.9c-1.3,1.7-2,4.2-2,6.9
				c0,5.4,2.9,11,8.2,11c5.3,0,8.2-5.7,8.2-11c0-2.7-0.7-5.1-2-6.9C71.4,84,69.3,83,66.7,83z"/>
			<path d="M88.5,125.4H45l0.1-1.1c1-10.9,6-18.5,14.1-21.2l0.6-0.2l0.4,0.5c1.6,1.9,4,2.9,6.4,2.9c0,0,0,0,0.1,0
				c2.5,0,4.9-1.1,6.5-2.9l0.4-0.5l0.6,0.2c7.9,2.7,12.9,10.2,14.1,21.2L88.5,125.4z M47.2,123.4h39c-1.2-9.3-5.5-15.7-12-18.2
				c-2,2-4.8,3.1-7.6,3.1c-2.8,0-5.5-1.1-7.5-3.1C52.6,107.7,48.3,114.2,47.2,123.4z"/>
		</g>
	</g>
	<path d="M94.8,125.3c-1.1,0-2-0.9-2-2v-7.2c0.1-1.1,0.9-1.9,1.9-2l0.1,0h47.2c0.5,0,1,0.2,1.4,0.6c0.4,0.4,0.6,0.9,0.6,1.4v7.2
		c0,0.5-0.2,1-0.6,1.4c-0.4,0.4-0.9,0.6-1.4,0.6H94.8C94.8,125.3,94.8,125.3,94.8,125.3z M94.9,116C94.8,116.1,94.8,116.1,94.9,116
		l-0.1,7.2l47.3,0l0-7.2L94.9,116z"/>
	<path d="M94.3,113.6c-0.8,0-1.4-0.6-1.4-1.4l0-2.9c0.1-0.8,0.6-1.4,1.4-1.4l0.1,0h18.2c0.8,0.1,1.4,0.6,1.4,1.4l0,2.9
		c-0.1,0.8-0.6,1.4-1.4,1.4L94.3,113.6z M94.8,109.9l0,1.7l17.1,0l0-1.7L94.8,109.9z"/>
	<path d="M94.8,104.7c-1.1,0-2-0.9-2-2v-7.1c-0.1-1,0.7-2,1.9-2.1l0.1,0h47.2c0,0,0,0,0,0c0.5,0,1,0.2,1.4,0.6
		c0.4,0.4,0.6,0.9,0.6,1.4v7.2c0,0.5-0.2,1-0.6,1.4c-0.4,0.4-0.9,0.6-1.4,0.6H94.8C94.8,104.7,94.8,104.7,94.8,104.7z M94.8,95.5
		l0,7.2l47.3,0l0-7.2L94.8,95.5z M94.8,94.5l0,1L94.8,94.5z"/>
	<path d="M94.3,93c-0.8-0.1-1.4-0.6-1.4-1.4l0-2.9c0.1-0.8,0.6-1.4,1.4-1.4l0.1,0h18.2c0.8,0.1,1.4,0.6,1.4,1.4l0,2.9
		c-0.1,0.8-0.6,1.4-1.4,1.4L94.3,93z M94.8,89.3l0,1.7l17.1,0l0-1.7L94.8,89.3z"/>
</g>
<path d="M168.9,149.8H45.6V81.5h123.2V149.8z M47.6,147.8h119.2V83.5H47.6V147.8z"/>
</svg>
