<?xml version="1.0" encoding="utf-8"?>
<!-- Generator: Adobe Illustrator 21.1.0, SVG Export Plug-In . SVG Version: 6.00 Build 0)  -->
<svg version="1.1" id="Layer_1" xmlns="http://www.w3.org/2000/svg" xmlns:xlink="http://www.w3.org/1999/xlink" x="0px" y="0px"
	 viewBox="0 0 59.3 53.1" style="enable-background:new 0 0 59.3 53.1;" xml:space="preserve">
<g id="Group_433" transform="translate(-29.65 -26.532)">
	<path id="Path_1001" d="M88.4,57.3c-0.2-0.5-0.7-0.8-1.3-0.7c-0.5,0.2-0.8,0.7-0.7,1.2c1.8,6.2-1.7,12.7-7.9,14.5
		c-6.2,1.8-12.7-1.7-14.5-7.9C62.2,58.2,65.8,51.8,72,50c4.9-1.4,10.1,0.5,12.9,4.7c0.3,0.5,1,0.6,1.4,0.2c0.4-0.3,0.6-0.9,0.3-1.4
		c-1.1-1.6-2.5-3-4.1-4c-2-14.5-15.3-24.7-29.9-22.7S27.9,42.1,29.9,56.6s15.3,24.7,29.9,22.7c3.2-0.4,6.3-1.5,9.2-3
		c0.5-0.3,0.7-0.9,0.4-1.4c-0.3-0.5-0.9-0.7-1.4-0.4c0,0,0,0,0,0c-1.4,0.8-2.8,1.4-4.3,1.8c1.3-1.3,2.5-2.7,3.4-4.3
		c6.1,4.5,14.6,3.3,19.2-2.8C88.8,65.9,89.6,61.4,88.4,57.3L88.4,57.3z M80.2,48.4c-7.1-2.7-15,0.7-17.7,7.8c-0.9,2.4-1.2,5-0.7,7.5
		c-1.5-0.3-3-0.5-4.6-0.6v-9H61c0.6,0,1-0.4,1.1-1s-0.4-1-1-1.1c0,0,0,0-0.1,0h-3.8v-9c3.6-0.1,7.2-1,10.5-2.6
		c0.6,1.7,1,3.5,1.3,5.4c0.1,0.6,0.6,1,1.1,0.9c0.6-0.1,1-0.6,0.9-1.1c0-0.1,0-0.1,0-0.2c-0.3-2-0.9-4-1.5-6c1.6-0.9,3.1-2,4.4-3.2
		C77.2,39.6,79.3,43.8,80.2,48.4z M57.2,28.7c3.9,0.5,7.4,4.1,9.8,9.8c-3.1,1.5-6.4,2.3-9.8,2.5V28.7z M55.2,28.7V41
		c-3.4-0.1-6.7-1-9.8-2.5C47.7,32.8,51.3,29.2,55.2,28.7L55.2,28.7z M55.2,43v9h-9.9c-0.6,0-1,0.4-1.1,1c0,0.6,0.4,1,1,1.1
		c0,0,0,0,0.1,0h9.9v9c-3.6,0.1-7.2,1-10.5,2.6c-1.3-4.1-2-8.4-2-12.6c0-4.3,0.6-8.6,2-12.6C47.9,42,51.5,42.9,55.2,43L55.2,43z
		 M55.2,65.2v12.3c-3.9-0.5-7.4-4.1-9.8-9.8C48.4,66.1,51.8,65.3,55.2,65.2L55.2,65.2z M72.5,34.8c-1.1,1-2.4,1.9-3.7,2.7
		c-1.2-2.9-2.9-5.6-5.2-7.8C66.9,30.8,69.9,32.5,72.5,34.8z M43.6,37.5c-1.3-0.8-2.5-1.7-3.7-2.7c2.6-2.3,5.6-4,8.9-5.1
		C46.5,31.9,44.7,34.6,43.6,37.5z M31.7,54.1h6.2c0.6,0,1-0.4,1.1-1s-0.4-1-1-1.1c0,0,0,0-0.1,0h-6.2c0.2-5.9,2.6-11.5,6.7-15.8
		c1.4,1.2,2.8,2.3,4.4,3.2c-1.5,4.4-2.2,9-2.2,13.6c0,4.6,0.7,9.2,2.2,13.6c-1.6,0.9-3.1,2-4.4,3.2C34.3,65.6,31.9,60,31.7,54.1
		L31.7,54.1z M39.9,71.3c1.1-1,2.4-1.9,3.7-2.7c1.2,2.9,2.9,5.6,5.2,7.8C45.5,75.4,42.4,73.6,39.9,71.3z M57.2,77.5V65.2
		c1.8,0.1,3.5,0.3,5.2,0.8c0.7,1.8,1.7,3.4,3.1,4.8C63.2,74.6,60.3,77,57.2,77.5z"/>
	<path id="Path_1002" d="M72.1,57h7.4c0.6,0,1-0.5,1-1.1c0-0.5-0.5-1-1-1h-3.2V53c0-0.6-0.4-1-1-1.1c-0.6,0-1,0.4-1.1,1
		c0,0,0,0,0,0.1V55h-2.1c-1.2,0-2.1,0.9-2.1,2.1v0v3c0,1.2,0.9,2.1,2.1,2.1l0,0h6.3c0,0,0.1,0,0.1,0.1v3c0,0,0,0.1-0.1,0.1H71
		c-0.6,0-1,0.5-1,1.1c0,0.5,0.5,1,1,1h3.2v1.9c0,0.6,0.4,1,1,1.1c0.6,0,1-0.4,1.1-1c0,0,0,0,0-0.1v-1.9h2.1c1.2,0,2.1-0.9,2.1-2.1v0
		v-3c0-1.2-0.9-2.1-2.1-2.1l0,0h-6.3c0,0-0.1,0-0.1-0.1L72.1,57C72,57,72,57,72.1,57C72.1,57,72.1,57,72.1,57z"/>
</g>
</svg>
