<?xml version="1.0" encoding="utf-8"?>
<!-- Generator: Adobe Illustrator 21.1.0, SVG Export Plug-In . SVG Version: 6.00 Build 0)  -->
<svg version="1.1" id="LOGO-PNR-railworks-logo" xmlns="http://www.w3.org/2000/svg" xmlns:xlink="http://www.w3.org/1999/xlink"
	 x="0px" y="0px" viewBox="0 0 127.6 29.7" style="enable-background:new 0 0 127.6 29.7;" xml:space="preserve">
<style type="text/css">
	.st0{fill:#FFFFFF;}
</style>
<g id="Layer_1">
	<path id="Path_77" class="st0" d="M37.3,6.8H42c1.8,0,3.2-0.9,3.2-2.8S43.8,1.4,42,1.4h-4.6V6.8z M36.1,0.3h6.3
		c2.6,0,4.2,1.4,4.2,3.8s-1.6,3.8-4.2,3.8h-5v5.7h-1.2V0.3z"/>
	<path id="Path_78" class="st0" d="M48,0.3h1.5l8.3,11.3V0.3h1.3v13.4h-1.5L49.6,2.3l-0.2,11.3H48V0.3z"/>
	<path id="Path_79" class="st0" d="M63,6.6h5c1.6,0,3.2-1,3.2-2.6s-1.1-2.7-3.2-2.7h-5L63,6.6z M61.7,0.3h6.6c2.3,0,4.2,1.1,4.2,3.5
		c0.1,1.7-1.1,3.2-2.8,3.4c1.9,0.2,2.4,1.4,2.6,3c0,0.9,0,2.8,0.6,3.4h-1.4C71.1,13,71,12.3,71,11.6c-0.3-1.9-0.3-4-3-3.9h-5v6h-1.3
		L61.7,0.3z"/>
	<path id="Path_80" class="st0" d="M39.3,23.6h2c0.6,0,1.4-0.1,1.4-1c0-0.7-0.4-1-1.6-1h-1.7V23.6z M35.9,19.1h6.6
		c1.8,0,3.6,0.9,3.6,3c0.1,1.2-0.6,2.2-1.7,2.6c1.1,0.3,1.5,1.3,1.7,2.6c-0.1,0.8,0.1,1.5,0.4,2.2h-3.4c-0.2-0.5-0.4-1-0.4-1.5
		c0-1-0.2-2.1-1.4-2.1h-2v3.6h-3.4V19.1z"/>
	<path id="Path_81" class="st0" d="M53.1,25.8l-1-3.2l-1,3.2H53.1z M50.5,19.1h3.4l3.9,10.3h-3.5l-0.4-1.4h-3.4l-0.6,1.4h-3.4
		L50.5,19.1z"/>
	<rect id="Rectangle_5" x="58.1" y="19.1" class="st0" width="3.3" height="10.3"/>
	<path id="Path_82" class="st0" d="M62.4,19.1h3.4v7.7h4.8v2.6h-8.2V19.1z"/>
	<path id="Path_83" class="st0" d="M70,19.1h1l2.6,9.1l2.8-9.1h1.2l2.8,9.1l2.5-9.1h1L81,29.5h-1.3L77,20.2l-2.8,9.3h-1.2L70,19.1z"
		/>
	<path id="Path_84" class="st0" d="M88.7,28.9c3,0,4.2-2.3,4.2-4.6s-1.2-4.6-4.2-4.6c-2.9,0-3.9,2.3-3.9,4.6S85.8,28.9,88.7,28.9
		 M88.7,18.9c2.8-0.1,5.2,2,5.3,4.8c0,0.2,0,0.4,0,0.6c0.2,2.8-1.9,5.2-4.7,5.4c-0.2,0-0.4,0-0.6,0c-3.3,0-5-2.6-5-5.4
		S85.4,18.9,88.7,18.9"/>
	<path id="Path_85" class="st0" d="M95.7,24h4c1.2,0.1,2.2-0.8,2.4-2c0,0,0,0,0-0.1c0-1.2-0.9-2.1-2.1-2.1c-0.1,0-0.2,0-0.3,0h-4
		L95.7,24z M94.6,19.1h5c1.9,0,3.4,0.8,3.4,2.7c0.1,1.3-0.8,2.5-2.2,2.7v0c1.5,0.2,2,1.1,2,2.3c0,0.7,0,2.1,0.6,2.6h-1.2
		c-0.2-0.5-0.2-1-0.2-1.6c-0.3-1.4-0.3-3.1-2.4-3h-4v4.6h-1L94.6,19.1z"/>
	<path id="Path_86" class="st0" d="M104.3,19.1h1v5.6l6.6-5.6h1.4l-5,4.2l5.2,6.1h-1.4l-4.6-5.4l-2.2,1.9v3.5h-1V19.1z"/>
	<path id="Path_87" class="st0" d="M114.1,26.1c0,2.1,1.7,2.8,3.8,2.8c1,0,3-0.6,3-2.1c0-1.2-1.2-1.6-2.4-1.9l-2.5-0.5
		c-1.3-0.3-2.6-0.9-2.6-2.5c0-1,0.6-2.9,3.8-2.9c2.4,0,4.2,1.1,4.2,3.3h-1.1c-0.2-1.6-1.5-2.4-3.2-2.4c-1.4,0-2.8,0.6-2.8,2.1
		c0,1,0.9,1.4,1.7,1.6L119,24c1.5,0.4,3,1,3,2.7c0,0.7-0.4,2.9-4.4,2.9c-2.6,0-4.4-1.1-4.4-3.6L114.1,26.1z"/>
	<path id="Path_88" class="st0" d="M124.3,21.1h0.6c0.4,0,0.8,0,0.8-0.5c0-0.4-0.4-0.5-0.6-0.5h-0.8V21.1z M123.8,19.8h1.3
		c0.8,0,1,0.3,1,0.9c0,0.2-0.1,0.4-0.2,0.5c-0.2,0.1-0.4,0.2-0.6,0.2l1,1.3h-0.6l-0.8-1.3h-0.6v1.3h-0.5L123.8,19.8z M124.9,23.5
		c1.2,0.1,2.2-0.9,2.2-2.1s-0.9-2.2-2.1-2.2c-0.1,0-0.1,0-0.2,0c-1.1-0.1-2.1,0.8-2.2,1.9c0,0.1,0,0.2,0,0.2c-0.1,1.1,0.8,2.1,2,2.2
		C124.8,23.4,124.9,23.4,124.9,23.5 M124.9,18.8c1.4,0.1,2.4,1.3,2.3,2.7c-0.1,1.4-1.3,2.4-2.7,2.3c-1.3-0.1-2.4-1.2-2.4-2.5
		C122.3,19.9,123.5,18.7,124.9,18.8"/>
	<path id="Path_89" class="st0" d="M17.1,22.3c3.9-4.8,9.7-7.7,15.9-7.9V7c-5.6-0.1-11.1,1.3-15.8,4.2L17.1,22.3z"/>
	<path id="Path_90" class="st0" d="M32.9,0H17.1v7.5C22,5,27.4,3.8,32.9,3.8L32.9,0z"/>
	<path id="Path_91" class="st0" d="M32.9,17.7c-6.6,0-14,4.9-15.8,12h15.8V17.7z"/>
	<path id="Path_92" class="st0" d="M11.4,11.5c0.7-0.7,1.5-1.3,2.3-1.9V0H5.9v18.4C7.3,15.8,9.2,13.5,11.4,11.5L11.4,11.5z"/>
	<rect id="Rectangle_6" class="st0" width="2.5" height="29.6"/>
	<path id="Path_93" class="st0" d="M5.9,29.6h7.7V13.8C9.2,17.9,6.5,23.6,5.9,29.6z"/>
</g>
</svg>
